<svg xmlns="http://www.w3.org/2000/svg" width="20" height="23" fill="none" viewBox="0 0 20 23">
  <path fill="#BFD3E3" fill-rule="evenodd" d="M14.3 8.9c-.4 0-.6-.3-.6-.7V6.4h-2.2c-.5 0-.8-.3-.8-.8V3.4c0-.2.1-.4.2-.5-1-.6-2.2-.9-3.4-.9C3.4 2 0 5.5 0 9.8c0 1.1.2 2.2.7 3.2 1.9 4.2 5.5 8.7 6.6 10h.2c.1 0 .2-.1.3-.1 1.1-1.3 4.7-5.7 6.6-10 .4-1 .7-2 .7-3.2v-.8h-.8Zm-6.8 4.9c-2.2 0-3.9-1.8-3.9-4s1.8-4 3.9-4c2.2 0 3.9 1.8 3.9 4 .1 2.2-1.7 4-3.9 4Z" clip-rule="evenodd"/>
  <path fill="#BFD3E3" d="M19.4 2.6h-2v-2c0-.4-.2-.6-.6-.6h-1c-.4 0-.6.2-.6.7v2h-2c-.4 0-.6.2-.6.6v1c0 .4.2.6.6.6h2v2c0 .3.2.6.5.6h1.2c.3 0 .5-.3.5-.6V4.8h2c.4 0 .6-.2.6-.6v-1c0-.3-.2-.6-.6-.6Z"/>
</svg>
