<svg width="34" height="34" viewBox="0 0 34 34" fill="none" xmlns="http://www.w3.org/2000/svg">
<path fill-rule="evenodd" clip-rule="evenodd" d="M21.3 13.9C20.9 13.9 20.7 13.6 20.7 13.2C20.7 12.4 20.7 12.2 20.7 11.5V11.4C20.6 11.4 20.6 11.4 20.6 11.4C19.8 11.4 19.3 11.4 18.5 11.4C18 11.4 17.7 11.1 17.7 10.6C17.7 10.2 17.7 8.8 17.7 8.4C17.7 8.2 17.8 8 17.9 7.9C16.9 7.3 15.7 7 14.5 7C10.4 7 7 10.5 7 14.8C7 15.9 7.2 17 7.7 18C9.6 22.2 13.2 26.7 14.3 28C14.3 28 14.4 28 14.5 28C14.6 28 14.7 27.9 14.8 27.9C15.9 26.6 19.5 22.2 21.4 17.9C21.8 16.9 22.1 15.9 22.1 14.7C22.1 14.4 22.1 14.1 22.1 13.9C21.8 13.9 21.5 13.9 21.3 13.9ZM14.5 18.8C12.3 18.8 10.6 17 10.6 14.8C10.6 12.6 12.4 10.8 14.5 10.8C16.7 10.8 18.4 12.6 18.4 14.8C18.5 17 16.7 18.8 14.5 18.8Z" fill="#BFD3E3"/>
<path d="M26.4 7.6C25.8 7.6 25.1 7.6 24.5 7.6H24.4V7.5C24.4 6.9 24.4 6.2 24.4 5.6C24.4 5.2 24.2 5 23.8 5C23.5 5 23.1 5 22.8 5C22.4 5 22.2 5.2 22.2 5.7C22.2 6.3 22.2 7 22.2 7.6V7.7C21.5 7.7 20.9 7.7 20.2 7.7C19.8 7.7 19.6 7.9 19.6 8.3C19.6 8.6 19.6 9 19.6 9.3C19.6 9.7 19.8 9.9 20.2 9.9C20.8 9.9 21.5 9.9 22.1 9.9H22.2V10C22.2 10.6 22.2 11.3 22.2 11.9C22.2 12.2 22.4 12.5 22.7 12.5C23.1 12.5 23.5 12.5 23.9 12.5C24.2 12.5 24.4 12.2 24.4 11.9C24.4 11.8 24.4 11.8 24.4 11.7C24.4 11.1 24.4 10.4 24.4 9.8H24.5C25.1 9.8 25.8 9.8 26.4 9.8C26.8 9.8 27 9.6 27 9.2C27 8.9 27 8.5 27 8.2C27 7.9 26.8 7.6 26.4 7.6Z" fill="#BFD3E3"/>
</svg>
