<svg width="34" height="34" viewBox="0 0 34 34" fill="none" xmlns="http://www.w3.org/2000/svg">
<path fill-rule="evenodd" clip-rule="evenodd" d="M16.6 9.8C14.6 9.8 13 11.3 13 13.3C13 15.2 14.5 16.8 16.5 16.8C18.4 16.8 20 15.3 20 13.3C20.1 11.4 18.5 9.8 16.6 9.8ZM16.6 15.3C15.5 15.3 14.6 14.4 14.6 13.3C14.6 12.2 15.5 11.3 16.6 11.3C17.7 11.3 18.6 12.2 18.6 13.3C18.6 14.4 17.7 15.3 16.6 15.3Z" fill="#BFD3E3"/>
<path fill-rule="evenodd" clip-rule="evenodd" d="M16.5 6C12.4 6 9 9.5 9 13.7C9 14.8 9.2 15.9 9.7 16.9C11.6 21.1 15.2 25.6 16.3 26.9C16.3 26.9 16.4 27 16.5 27C16.6 27 16.7 26.9 16.8 26.9C17.9 25.6 21.5 21.2 23.4 16.9C23.8 15.9 24.1 14.9 24.1 13.7C24.1 9.5 20.7 6 16.5 6ZM22.1 13.8C21.8 13.8 21.5 13.8 21.2 13.8C21.1 13.8 21.1 13.8 21.1 13.9C21.1 14 21.1 14.2 21 14.3C20.6 16.1 19 17.5 17.2 17.7C17.1 17.7 17.1 17.7 17.1 17.8C17.1 18.1 17.1 18.4 17.1 18.7C16.8 18.7 16.4 18.7 16.1 18.7C16.1 18.4 16.1 18.1 16.1 17.8C16.1 17.7 16.1 17.7 16 17.7C15.8 17.7 15.7 17.6 15.5 17.6C13.7 17.1 12.4 15.7 12.1 13.8C12.1 13.7 12.1 13.7 12 13.7C11.7 13.7 11.5 13.7 11.2 13.7H11.1C11.1 13.4 11.1 13 11.1 12.7C11.2 12.7 11.2 12.7 11.2 12.7C11.5 12.7 11.7 12.7 12 12.7C12.1 12.7 12.1 12.7 12.1 12.6C12.1 12.5 12.1 12.3 12.2 12.2C12.6 10.4 14.2 9 16 8.8C16.1 8.8 16.1 8.8 16.1 8.7C16.1 8.4 16.1 8.1 16.1 7.8C16.4 7.8 16.8 7.8 17.1 7.8C17.1 8.1 17.1 8.4 17.1 8.7C17.1 8.8 17.1 8.8 17.2 8.8C17.3 8.8 17.5 8.8 17.6 8.9C19.4 9.3 20.8 10.9 21.1 12.7C21.1 12.8 21.1 12.8 21.2 12.8C21.5 12.8 21.8 12.8 22.1 12.8C22.1 13.1 22.1 13.5 22.1 13.8Z" fill="#BFD3E3"/>
</svg>
