<svg xmlns="http://www.w3.org/2000/svg" width="16" height="21" fill="none" viewBox="0 0 16 21">
  <path fill="#BFD3E3" fill-rule="evenodd" d="M7.6 3.8C5.6 3.8 4 5.3 4 7.3c0 1.9 1.5 3.5 3.5 3.5 1.9 0 3.5-1.5 3.5-3.5.1-1.9-1.5-3.5-3.4-3.5Zm0 5.5c-1.1 0-2-.9-2-2s.9-2 2-2 2 .9 2 2-.9 2-2 2Z" clip-rule="evenodd"/>
  <path fill="#BFD3E3" fill-rule="evenodd" d="M7.5 0C3.4 0 0 3.5 0 7.7c0 1.1.2 2.2.7 3.2 1.9 4.2 5.5 8.7 6.6 10 0 0 .1.1.2.1s.2-.1.3-.1c1.1-1.3 4.7-5.7 6.6-10 .4-1 .7-2 .7-3.2 0-4.2-3.4-7.7-7.6-7.7Zm5.6 7.8h-.9c-.1 0-.1 0-.1.1s0 .3-.1.4c-.4 1.8-2 3.2-3.8 3.4-.1 0-.1 0-.1.1v.9h-1v-.9c0-.1 0-.1-.1-.1-.2 0-.3-.1-.5-.1-1.8-.5-3.1-1.9-3.4-3.8 0-.1 0-.1-.1-.1h-.9v-1H3c.1 0 .1 0 .1-.1s0-.3.1-.4C3.6 4.4 5.2 3 7 2.8c.1 0 .1 0 .1-.1v-.9h1v.9c0 .1 0 .1.1.1s.3 0 .4.1c1.8.4 3.2 2 3.5 3.8 0 .1 0 .1.1.1h.9v1Z" clip-rule="evenodd"/>
</svg>
