<svg width="34" height="34" viewBox="0 0 34 34" fill="none" xmlns="http://www.w3.org/2000/svg">
<path d="M26 12.2267C25.9067 12.4593 25.8133 12.6454 25.5799 12.7385C25.1598 12.9246 24.693 12.7385 24.553 12.2732C24.413 11.8544 24.2262 11.4357 23.9928 11.0634C23.4327 10.2724 22.6858 9.71403 21.7523 9.43485C21.4255 9.38832 21.1921 9.20219 21.1454 8.92301C21.0054 8.36465 21.5189 7.85281 22.079 8.03893C23.7595 8.50424 24.9264 9.57444 25.6733 11.1099C25.8133 11.3891 25.9067 11.6683 26 11.9475C26 12.0406 26 12.1336 26 12.2267Z" fill="#BFD4E4"/>
<path d="M16.7569 25.9533C16.5235 25.8603 16.2901 25.7672 16.0567 25.6276C15.6833 25.3484 15.4966 24.9762 15.4499 24.5109C15.4499 24.2782 15.5899 24.0921 15.8233 24.0921C16.5702 24.0921 17.2704 24.0921 18.0172 24.0921C18.2973 24.0921 18.4373 24.2782 18.4373 24.5574C18.3906 25.2554 17.9239 25.8137 17.2237 25.9533C17.177 25.9533 17.177 25.9533 17.1303 25.9999C17.037 25.9533 16.8969 25.9533 16.7569 25.9533Z" fill="#BFD4E4"/>
<path d="M16.9907 23.3007C15.1703 23.3007 13.3031 23.3007 11.4826 23.3007C11.3893 23.3007 11.2492 23.3007 11.1559 23.2542C10.9692 23.1611 10.9225 22.9285 11.0159 22.6958C11.3426 22.0444 11.6227 21.2999 11.7627 20.602C11.9494 19.7644 12.0895 18.8803 12.0428 17.9963C12.0428 16.9726 12.1828 15.9489 12.6496 15.0183C13.3031 13.6689 14.2834 12.7383 15.6837 12.273C15.7771 12.2265 15.8238 12.2265 15.7771 12.1334C15.7771 11.8542 15.7771 11.6216 15.7771 11.3424C15.7771 10.691 16.2905 10.2257 16.8974 10.2257C17.5042 10.2257 18.0177 10.7375 18.0177 11.3424C18.0177 11.6216 18.0177 11.8542 18.0177 12.1334C18.0177 12.18 18.0643 12.273 18.111 12.273C19.9782 12.8779 21.0518 14.2738 21.5652 16.135C21.7053 16.6934 21.7986 17.2983 21.752 17.8567C21.7053 19.4387 22.032 20.9742 22.6855 22.4167C22.7322 22.5097 22.7789 22.6028 22.8256 22.6958C22.9656 23.0215 22.8256 23.2542 22.4521 23.2542C21.3785 23.2542 20.2582 23.2542 19.1846 23.2542C18.4844 23.3007 17.7376 23.3007 16.9907 23.3007Z" fill="#BFD4E4"/>
<path d="M12.8367 8.73686C12.8367 9.06257 12.65 9.34175 12.2766 9.48134C11.8098 9.62094 11.4363 9.80706 11.0162 10.0862C10.2694 10.5981 9.75591 11.296 9.47584 12.1801C9.42916 12.3197 9.33581 12.5058 9.24245 12.6454C9.00906 12.8781 8.63563 12.9246 8.35555 12.7385C8.07548 12.5524 7.93545 12.2266 8.0288 11.9009C8.49559 10.2724 9.5692 9.06257 11.1096 8.31808C11.3897 8.17849 11.6697 8.08543 11.9498 8.0389C12.3699 7.89931 12.8367 8.27155 12.8367 8.73686Z" fill="#BFD4E4"/>
<path d="M23.3858 12.8315C23.3391 13.1572 23.1524 13.4829 22.8256 13.5294C22.4989 13.6225 22.1721 13.4829 21.9854 13.2037C21.752 12.878 21.5653 12.5523 21.2852 12.3196C21.0051 12.0404 20.6784 11.8078 20.3516 11.6217C20.0716 11.4355 19.9315 11.0633 20.0249 10.7376C20.1183 10.4119 20.445 10.1792 20.7718 10.2257C20.9118 10.2257 21.0051 10.2723 21.0985 10.3188C21.9854 10.8306 22.6856 11.5286 23.199 12.4127C23.2924 12.5523 23.3391 12.6919 23.3858 12.8315Z" fill="#BFD4E4"/>
<path d="M10.5964 12.8315C10.6431 12.6919 10.6898 12.5523 10.7365 12.4593C11.2499 11.5752 11.9501 10.8772 12.837 10.3654C13.2104 10.1327 13.6772 10.2723 13.8639 10.6446C14.0973 11.0168 13.9573 11.4356 13.5839 11.6682C12.9304 12.0405 12.4169 12.5523 11.9968 13.2503C11.8101 13.576 11.4833 13.7156 11.1566 13.6225C10.8298 13.4829 10.5964 13.2037 10.5964 12.8315Z" fill="#BFD4E4"/>
</svg>
