<svg xmlns="http://www.w3.org/2000/svg" width="20" height="21" fill="none" viewBox="0 0 20 21">
  <path fill="#BFD4E4" d="M20 4.696c-.104.258-.208.465-.467.569-.467.206-.986 0-1.141-.517a6.33 6.33 0 0 0-.622-1.344c-.623-.88-1.453-1.5-2.49-1.81-.363-.052-.622-.258-.674-.569-.156-.62.415-1.189 1.037-.982 1.867.517 3.164 1.706 3.994 3.412a7 7 0 0 1 .363.93v.31ZM9.73 19.95a5.251 5.251 0 0 1-.778-.362c-.415-.31-.623-.723-.675-1.24 0-.259.156-.466.415-.466h2.438c.311 0 .466.207.466.517-.051.776-.57 1.396-1.348 1.551-.052 0-.052 0-.104.052-.103-.052-.259-.052-.415-.052Zm.257-2.948h-6.12c-.103 0-.259 0-.363-.052-.207-.103-.259-.362-.155-.62.363-.724.674-1.551.83-2.326.207-.93.363-1.913.31-2.895 0-1.138.156-2.275.675-3.309.726-1.5 1.815-2.533 3.371-3.05.104-.052.156-.052.104-.155v-.879c0-.724.57-1.24 1.244-1.24a1.26 1.26 0 0 1 1.245 1.24v.879c0 .052.052.155.104.155 2.074.672 3.267 2.223 3.838 4.29.155.621.259 1.293.207 1.914a11.385 11.385 0 0 0 1.037 5.066l.156.31c.155.362 0 .62-.415.62h-3.63c-.778.052-1.608.052-2.438.052ZM5.374.817c0 .362-.208.672-.623.827a4.986 4.986 0 0 0-1.4.672c-.83.569-1.4 1.344-1.711 2.326a2.412 2.412 0 0 1-.26.517.787.787 0 0 1-.985.104c-.311-.207-.467-.57-.363-.931.519-1.81 1.711-3.153 3.423-3.98a3.22 3.22 0 0 1 .933-.31c.467-.156.986.258.986.775Zm11.72 4.552c-.052.362-.26.723-.622.775-.363.104-.726-.052-.934-.362-.259-.362-.466-.723-.778-.982a4.932 4.932 0 0 0-1.037-.775.908.908 0 0 1-.363-.983c.104-.362.467-.62.83-.568.155 0 .26.051.363.103a6.288 6.288 0 0 1 2.334 2.326c.104.156.155.31.207.466ZM2.885 5.366c.052-.155.103-.31.155-.413a6.288 6.288 0 0 1 2.334-2.327.795.795 0 0 1 1.141.31c.26.414.104.88-.311 1.138-.726.413-1.297.982-1.763 1.758-.208.361-.57.516-.934.413-.363-.155-.622-.465-.622-.879Z"/>
</svg>
