<svg xmlns="http://www.w3.org/2000/svg" width="24" height="21" fill="none" viewBox="0 0 24 21">
  <path fill="#BFD3E3" d="M13.1 2.5c.5.1.7.5.8 1 .1 1 .3 2 .5 2.9 0 .2.1.2.3.3 1.5.2 2.6 1.3 2.8 2.8.2 1.4-.5 2.7-1.8 3.4l-.1.1c.1.9.3 1.7.4 2.6 0 .3.1.5.1.8.1.7-.5 1.1-1.1.9-1.4-.4-2.7-.9-4.1-1.3-.9-.3-1.7-.5-2.6-.8-.1 0-.2 0-.4-.1.2.3.3.6.4.8.3.5.6 1.1.8 1.6.4 1.2-.2 2.6-1.5 3.1-1.2.5-2.5 0-3.1-1.1-.2-.4-.3-.8-.4-1.2-.3-.9-.5-1.8-.7-2.6 0-.1-.1-.1-.2-.2-1.8-.6-2.8-1.8-3-3.6-.4-1.9.9-3.9 2.7-4.4.9-.2 1.9-.3 2.9-.5.6 0 1.1-.3 1.5-.6l5.1-3.6c.1-.1.2-.1.3-.2.1-.1.2-.1.4-.1Zm2 8.7c.5-.4.7-1 .6-1.6-.1-.6-.4-1-1-1.2.1.9.3 1.8.4 2.8Zm8.6-2.8c-.2.6-.6.9-1.3 1l-1.8.3c-.6.1-1.2-.3-1.3-.9-.1-.6.3-1.2.9-1.3l1.8-.3c.7-.1 1.2 0 1.5.6.1.1.2.4.2.6Zm-6.3-4.5c0-.1.1-.4.2-.7.4-.6.8-1.2 1.3-1.8.4-.5 1-.6 1.5-.3.5.4.6 1 .3 1.5-.4.6-.9 1.2-1.3 1.8-.3.4-.7.5-1.2.4-.5 0-.7-.3-.8-.9Zm1.1 9.9c0-.5.1-.8.5-1.1.4-.3.8-.3 1.2-.1.7.5 1.4.9 2 1.5.4.4.5 1 .1 1.5-.3.4-1 .6-1.4.3-.7-.4-1.3-.9-1.9-1.4-.3-.2-.4-.4-.5-.7Z"/>
</svg>
