<svg width="34" height="34" viewBox="0 0 34 34" fill="none" xmlns="http://www.w3.org/2000/svg">
<path d="M24.3066 14.1248C24.2901 13.9806 24.2736 13.831 24.2352 13.6757C24.0705 12.9828 23.6424 12.3952 23.0331 12.0182C22.4238 11.6413 21.7047 11.5249 21.0186 11.6967C20.8319 11.7411 20.6837 11.8353 20.5739 11.9573C20.261 10.7377 19.9482 9.5237 19.6408 8.30414C19.4102 7.4061 19.1852 6.52469 18.9766 5.68763C18.8174 5.07786 18.4167 4.9947 18.1861 5.00025C17.7744 5.01133 17.5 5.28851 17.4451 5.74861C17.4286 5.86503 17.4067 5.98144 17.3847 6.10894C17.0883 7.64447 16.3033 8.95827 14.9859 10.1224C13.7234 11.2366 12.148 12.1125 10.1719 12.811C9.78217 12.9495 9.38146 13.066 8.98624 13.1824C8.50868 13.3265 8.01465 13.4706 7.5316 13.6536C6.20871 14.1469 5.37984 15.0062 5.06146 16.2091C4.82543 17.1071 5.30299 19.2025 5.91778 19.9509C6.5655 20.7381 7.45475 21.1317 8.72276 21.1871H8.75569L8.78863 21.1816C8.90939 21.1649 9.03564 21.1483 9.1564 21.1317C9.21678 21.1206 9.28265 21.115 9.34304 21.104C9.33206 21.115 9.32657 21.1261 9.31559 21.1372C9.17836 21.3368 9.09602 21.6805 9.20032 21.9466C9.24423 22.063 9.28814 22.1738 9.33206 22.2902L9.33755 22.2958C9.58456 22.9499 9.84255 23.6262 10.1829 24.2582C10.8635 25.5276 11.8077 26.4534 12.9988 27.0133C13.1361 27.0798 13.3007 27.113 13.4544 27.113C13.5203 27.113 13.5862 27.1075 13.6521 27.0909C14.1296 26.98 14.6182 26.858 15.0847 26.7416H15.0957C15.3153 26.6862 15.5348 26.6308 15.7544 26.5753C16.2375 26.4534 16.3802 26.1485 16.4131 25.9157C16.4735 25.4666 16.1606 25.2394 15.9904 25.1119C15.9246 25.0675 15.8642 25.0176 15.7983 24.9733C15.4415 24.7127 15.0683 24.4466 14.7499 24.1418C13.9375 23.3657 13.3117 22.3679 12.9 21.1705C12.8945 21.1538 12.8891 21.1372 12.8836 21.1206C12.8726 21.0929 12.8671 21.0651 12.8561 21.0374C12.7573 20.7547 12.5871 20.5662 12.3786 20.4831C13.5972 20.2891 14.8981 20.1837 16.232 20.2946C18.8503 20.5108 20.6563 21.4088 21.9188 23.1329C22.078 23.349 22.2975 23.4655 22.5391 23.4655C22.6214 23.4655 22.7037 23.4544 22.7861 23.4267C22.9892 23.3657 23.4393 23.1329 23.2362 22.3291C22.7751 20.5385 22.3195 18.748 21.8584 16.9575C21.9352 16.9796 22.0121 16.9963 22.0999 16.9963C22.2152 16.9963 22.3414 16.9741 22.4787 16.9297C23.5875 16.5694 24.3176 15.555 24.3395 14.3576V14.3299L24.334 14.3021C24.323 14.2467 24.3176 14.1857 24.3066 14.1248ZM21.1503 20.3112C19.9427 19.5019 18.521 19.0141 16.8193 18.8201C16.2704 18.7591 15.705 18.7258 15.1341 18.7258C13.5368 18.7258 11.7912 18.9697 9.79315 19.4631C9.3101 19.585 8.66787 19.7015 8.03112 19.5407C7.32301 19.3578 6.93328 18.9753 6.80154 18.3378C6.73567 18.0218 6.65882 17.7114 6.57648 17.412L6.54355 17.279C6.40632 16.7357 6.52708 16.2756 6.92779 15.821C7.3285 15.372 7.86095 15.0782 8.65689 14.8676C10.7538 14.3077 12.5103 13.5926 14.0253 12.6835C15.8477 11.5859 17.1432 10.3164 17.9885 8.79196C18.0379 8.70327 18.0818 8.61457 18.1312 8.52588L21.1503 20.3112ZM21.5455 15.7601C21.3205 14.8898 21.1009 14.0194 20.8758 13.1491C21.0021 13.1935 21.1448 13.2101 21.2985 13.1879L21.3259 13.1824C21.3863 13.1713 21.4412 13.1657 21.4906 13.1602C22.1219 13.1103 22.6488 13.4817 22.7751 14.0638C22.9123 14.6957 22.594 15.2722 21.9737 15.494C21.798 15.555 21.6498 15.6437 21.5455 15.7601ZM11.4509 20.8434C11.3521 21.0374 11.3466 21.2703 11.4289 21.5308C11.9339 23.083 12.7738 24.4078 13.9375 25.4833C13.8442 25.5054 13.7563 25.5276 13.6685 25.5442C13.5697 25.5609 13.4654 25.5442 13.416 25.5165C12.7683 25.1728 12.2029 24.624 11.6979 23.8535C11.2533 23.1717 10.902 22.4067 10.633 21.5197C10.5616 21.2869 10.3805 21.0596 10.1774 20.9432C10.644 20.8323 11.127 20.7215 11.632 20.6272C11.5552 20.6826 11.4948 20.7603 11.4509 20.8434Z" fill="#BFD4E4"/>
<path d="M28.0889 18.455C27.3643 18.0115 26.5904 17.5459 25.6517 16.986C25.5694 16.9361 25.4925 16.9028 25.4047 16.8696C25.3663 16.8529 25.3224 16.8363 25.2729 16.8141L25.0863 16.731L24.9271 16.864C24.9052 16.8807 24.8722 16.9028 24.8393 16.9306C24.724 17.0082 24.5648 17.119 24.499 17.3075C24.4166 17.5403 24.488 17.7787 24.5648 17.9893C24.6252 18.1612 24.7789 18.2443 24.8777 18.2998C24.8887 18.3053 24.9052 18.3164 24.9161 18.322C25.6572 18.771 26.4367 19.2477 27.304 19.7688C27.4302 19.8464 27.6223 19.9351 27.8419 19.9351C28.0944 19.9351 28.314 19.8076 28.4512 19.5803C28.561 19.4029 28.5939 19.2089 28.5445 19.0204C28.4896 18.7876 28.3359 18.6047 28.0889 18.455Z" fill="#BFD4E4"/>
<path d="M23.1159 10.4373H23.1268C23.3903 10.4318 23.6977 10.2599 23.8349 10.0327C24.2521 9.34528 24.6583 8.63572 25.0481 7.95388L25.0755 7.90399C25.1578 7.75986 25.2402 7.62127 25.317 7.47714C25.3609 7.40508 25.3884 7.33301 25.4213 7.24432C25.4378 7.20551 25.4543 7.16117 25.4707 7.11127L25.5586 6.90062L25.3994 6.74541C25.3774 6.72323 25.3445 6.68997 25.317 6.65671C25.2292 6.55693 25.1194 6.42943 24.9602 6.35182C24.6144 6.17998 24.2521 6.31856 24.0326 6.69552L23.9886 6.76758C23.5056 7.59355 23.0116 8.45279 22.5285 9.30093C22.4517 9.43398 22.3474 9.74995 22.4901 9.98832C22.5779 10.1491 22.8194 10.4373 23.1159 10.4373Z" fill="#BFD4E4"/>
<path d="M28.687 11.9681C28.5168 11.8295 28.3082 11.7851 28.0997 11.835C27.2214 12.0568 26.2772 12.3118 25.2178 12.6056C25.0312 12.6555 24.8775 12.7774 24.7787 12.9493C24.6799 13.1266 24.6579 13.3428 24.7128 13.548C24.8006 13.875 25.0861 14.0912 25.4209 14.0912C25.4813 14.0912 25.5472 14.0857 25.6076 14.069C26.6176 13.8085 27.5288 13.5701 28.44 13.3096C28.6431 13.2486 28.7748 13.0934 28.8572 12.9881C28.8681 12.9714 28.8846 12.9548 28.8956 12.9437L28.9944 12.8495L28.9999 12.7109C29.0054 12.4005 28.8956 12.1344 28.687 11.9681Z" fill="#BFD4E4"/>
</svg>
