<svg width="34" height="34" viewBox="0 0 34 34" fill="none" xmlns="http://www.w3.org/2000/svg">
<path d="M23.2 26.3C23.1 26.3 22.9 26.2 22.8 26.2C22 25.9 21.3 25.9 20.6 26.2C19.9 26.5 19.3 26.2 18.9 25.5C18.6 24.8 18.1 24.3 17.3 23.9C16.6 23.5 16.3 23 16.6 22.2C16.9 21.5 16.9 20.7 16.6 20C16.3 19.2 16.6 18.7 17.3 18.3C18 18 18.5 17.4 18.9 16.7C19.2 16 19.8 15.7 20.6 16C21.3 16.3 22.1 16.3 22.8 16C23.6 15.7 24.1 16 24.5 16.7C24.8 17.4 25.3 17.9 26 18.3C26.7 18.7 27 19.2 26.7 20C26.4 20.7 26.4 21.5 26.7 22.2C27 23 26.7 23.5 26 23.9C25.3 24.2 24.8 24.8 24.4 25.5C24.2 26 23.8 26.3 23.2 26.3ZM21.6 24.4C23.4 24.4 24.9 23 24.9 21.2C24.9 19.4 23.5 17.9 21.6 17.9C19.8 17.9 18.3 19.4 18.3 21.1C18.3 23 19.8 24.4 21.6 24.4Z" fill="#BFD3E3"/>
<path d="M18 15.2C15.5 15.2 13 15.2 10.5 15.2C10.5 15.8 10.5 16.5 10.5 17.1C13 17.1 15.5 17.1 18 17.1C18 16.5 18 15.8 18 15.2Z" fill="#BFD3E3"/>
<path d="M18 11.8C15.5 11.8 13 11.8 10.5 11.8C10.5 12.4 10.5 13.1 10.5 13.7C13 13.7 15.5 13.7 18 13.7C18 13 18 12.4 18 11.8Z" fill="#BFD3E3"/>
<path d="M10.8 20.1C10.9 20 11 19.9 11.1 19.7C11.1 19.8 11.1 19.8 11.1 19.8C11.1 20.2 11.2 20.7 11.2 21.1C11.2 21.2 11.3 21.3 11.4 21.4C11.5 21.4 11.6 21.4 11.7 21.3C11.8 21.2 11.8 21.1 11.8 21.1C11.9 20.9 12.1 20.7 12.2 20.4C12.2 20.6 12.3 20.8 12.3 20.9C12.3 21 12.4 21.2 12.5 21.2C12.6 21.2 12.7 21.1 12.8 21C12.9 20.9 13.1 20.7 13.2 20.6C13.3 20.7 13.4 20.8 13.6 20.9C13.8 21 13.9 21 14 20.9C14.1 20.8 14.2 20.7 14.3 20.6C14.4 20.6 14.5 20.7 14.6 20.7C14.7 20.5 14.8 20.4 14.8 20.2C14.7 20.1 14.5 20 14.4 20C14.3 19.9 14.1 19.9 14 20.1C13.9 20.2 13.8 20.3 13.7 20.4C13.6 20.3 13.5 20.2 13.4 20.2C13.1 20 13 20 12.8 20.3C12.8 20.4 12.7 20.4 12.6 20.5C12.5 20.3 12.5 20.1 12.4 19.9C12.4 19.8 12.3 19.6 12.2 19.6C12 19.6 12 19.7 11.9 19.8C11.8 20 11.6 20.2 11.5 20.5C11.5 20.4 11.5 20.4 11.5 20.3C11.5 19.8 11.4 19.3 11.4 18.8C11.4 18.7 11.3 18.6 11.2 18.6C11.1 18.6 11 18.6 10.9 18.7C10.7 19.1 10.5 19.5 10.3 19.9C10.5 19.9 10.7 20 10.8 20.1Z" fill="#BFD3E3"/>
<path fill-rule="evenodd" clip-rule="evenodd" d="M23.4 19.9L23.1 19.6C23 19.5 22.9 19.5 22.8 19.6L21 21.9L20 21C19.9 20.9 19.8 20.9 19.7 21L19.5 21.3C19.4 21.4 19.4 21.5 19.5 21.6L21.1 23L23.4 20.2C23.5 20.1 23.5 20 23.4 19.9Z" fill="#BFD3E3"/>
<path d="M15.6 24.9C15.2 24.7 14.9 24.5 14.7 24.2H8.9V9.9H19.4V14C19.6 14 19.8 14.1 20.1 14.1C20.5 14.3 20.9 14.3 21.4 14.4V8H21.3H7V26.2H17.2C16.8 25.7 16.2 25.3 15.6 24.9Z" fill="#BFD3E3"/>
</svg>
