<svg xmlns="http://www.w3.org/2000/svg" width="20" height="19" fill="none" viewBox="0 0 20 19">
  <path fill="#BFD3E3" d="M16.2 18.3c-.1 0-.3-.1-.4-.1-.8-.3-1.5-.3-2.2 0-.7.3-1.3 0-1.7-.7-.3-.7-.8-1.2-1.6-1.6-.7-.4-1-.9-.7-1.7.3-.7.3-1.5 0-2.2-.3-.8 0-1.3.7-1.7.7-.3 1.2-.9 1.6-1.6.3-.7.9-1 1.7-.7.7.3 1.5.3 2.2 0 .8-.3 1.3 0 1.7.7.3.7.8 1.2 1.5 1.6.7.4 1 .9.7 1.7-.3.7-.3 1.5 0 2.2.3.8 0 1.3-.7 1.7-.7.3-1.2.9-1.6 1.6-.2.5-.6.8-1.2.8Zm-1.6-1.9c1.8 0 3.3-1.4 3.3-3.2 0-1.8-1.4-3.3-3.3-3.3-1.8 0-3.3 1.5-3.3 3.2 0 1.9 1.5 3.3 3.3 3.3ZM11 7.2H3.5v1.9H11V7.2Zm0-3.4H3.5v1.9H11V3.8Zm-7.2 8.3c.1-.1.2-.2.3-.4v.1c0 .4.1.9.1 1.3 0 .1.1.2.2.3.1 0 .2 0 .3-.1.1-.1.1-.2.1-.2.1-.2.3-.4.4-.7 0 .2.1.4.1.5 0 .1.1.3.2.3s.2-.1.3-.2l.4-.4c.1.1.2.2.4.3.2.1.3.1.4 0l.3-.3c.1 0 .2.1.3.1.1-.2.2-.3.2-.5-.1-.1-.3-.2-.4-.2-.1-.1-.3-.1-.4.1l-.3.3c-.1-.1-.2-.2-.3-.2-.3-.2-.4-.2-.6.1 0 .1-.1.1-.2.2-.1-.2-.1-.4-.2-.6 0-.1-.1-.3-.2-.3-.2 0-.2.1-.3.2-.1.2-.3.4-.4.7v-.2c0-.5-.1-1-.1-1.5 0-.1-.1-.2-.2-.2s-.2 0-.3.1l-.6 1.2c.2 0 .4.1.5.2Z"/>
  <path fill="#BFD3E3" fill-rule="evenodd" d="m16.4 11.9-.3-.3c-.1-.1-.2-.1-.3 0L14 13.9l-1-.9c-.1-.1-.2-.1-.3 0l-.2.3c-.1.1-.1.2 0 .3l1.6 1.4 2.3-2.8c.1-.1.1-.2 0-.3Z" clip-rule="evenodd"/>
  <path fill="#BFD3E3" d="M8.6 16.9c-.4-.2-.7-.4-.9-.7H1.9V1.9h10.5V6c.2 0 .4.1.7.1.4.2.8.2 1.3.3V0H0v18.2h10.2c-.4-.5-1-.9-1.6-1.3Z"/>
</svg>
