<svg xmlns="http://www.w3.org/2000/svg" width="20" height="22" fill="none" viewBox="0 0 20 22">
  <path fill="#BFD4E4" d="M20 6.422c0-.704-.315-1.232-.946-1.584-2.703-1.54-5.405-3.079-8.153-4.574-.63-.352-1.216-.352-1.847 0a743.483 743.483 0 0 1-8.063 4.53C.315 5.19 0 5.718 0 6.51v9.06c0 .704.315 1.232.946 1.584l5.405 3.035c.901.527 1.802 1.011 2.703 1.54.586.307 1.171.395 1.757.043a780.615 780.615 0 0 0 8.243-4.662c.63-.352.901-.88.901-1.584v-4.574c.045-1.495 0-2.99.045-4.53ZM15.586 9.5a328.56 328.56 0 0 1-5.631 5.498c-.496.44-1.171.44-1.622-.044-1.08-1.056-2.117-2.156-3.198-3.211-.45-.484-.45-1.144 0-1.584.27-.264.496-.527.766-.747.495-.484 1.171-.484 1.712 0 .54.483 1.036.967 1.576 1.451v.132c.045-.088.09-.176.18-.22l3.694-3.607c.63-.615 1.261-.615 1.892 0l.585.572c.631.484.586 1.188.046 1.76Z"/>
</svg>
