<svg width="34" height="34" viewBox="0 0 34 34" fill="none" xmlns="http://www.w3.org/2000/svg">
<path d="M26 12.8379C26 12.1981 25.7162 11.7183 25.1486 11.3984C22.7162 9.99893 20.2838 8.59942 17.8108 7.23991C17.2432 6.92003 16.7162 6.92003 16.1486 7.23991C13.7162 8.63941 11.3243 9.99892 8.89189 11.3584C8.28379 11.7183 8 12.1981 8 12.9179C8 15.6769 8 18.3959 8 21.1549C8 21.7947 8.28378 22.2745 8.85135 22.5944C10.473 23.514 12.0946 24.4337 13.7162 25.3534C14.527 25.8332 15.3378 26.273 16.1486 26.7529C16.6757 27.0328 17.2027 27.1127 17.7297 26.7929C20.2027 25.3934 22.6757 23.9939 25.1486 22.5544C25.7162 22.2345 25.9595 21.7547 25.9595 21.1149C25.9595 19.7154 25.9595 18.3559 25.9595 16.9564C26 15.5969 25.9595 14.2374 26 12.8379ZM22.027 15.6369C20.3649 17.3163 18.6622 18.9957 16.9595 20.6351C16.5135 21.0349 15.9054 21.0349 15.5 20.5951C14.527 19.6354 13.5946 18.6358 12.6216 17.6761C12.2162 17.2363 12.2162 16.6365 12.6216 16.2367C12.8649 15.9967 13.0676 15.7568 13.3108 15.5569C13.7568 15.1171 14.3649 15.1171 14.8514 15.5569C15.3378 15.9968 15.7838 16.4366 16.2703 16.8764C16.2703 16.9164 16.2703 16.9564 16.2703 16.9964C16.3108 16.9164 16.3513 16.8365 16.4324 16.7965C17.527 15.7169 18.6622 14.5973 19.7568 13.5176C20.3243 12.9579 20.8919 12.9579 21.4595 13.5176C21.6216 13.6776 21.8243 13.8775 21.9865 14.0375C22.5541 14.4773 22.5135 15.1171 22.027 15.6369Z" fill="#BFD4E4"/>
</svg>
