<svg width="34" height="34" viewBox="0 0 34 34" fill="none" xmlns="http://www.w3.org/2000/svg">
<path fill-rule="evenodd" clip-rule="evenodd" d="M23.0917 15.5607C23.6775 14.9749 23.6775 14.0251 23.0917 13.4393C22.5059 12.8536 21.5561 12.8536 20.9704 13.4393L16.7278 17.6819L12.4855 13.4396C11.8997 12.8538 10.9499 12.8538 10.3641 13.4396C9.77836 14.0254 9.77836 14.9751 10.3641 15.5609L15.6541 20.8509C15.6584 20.8553 15.6627 20.8596 15.6671 20.864C15.7575 20.9544 15.8566 21.0309 15.9617 21.0934C16.5375 21.436 17.2933 21.3596 17.7888 20.8642C17.7974 20.8556 17.8058 20.8469 17.8142 20.8382L23.0917 15.5607Z" fill="#BFD4E4"/>
</svg>
