<svg width="34" height="34" viewBox="0 0 34 34" fill="none" xmlns="http://www.w3.org/2000/svg">
<path d="M11.6999 10.0952C11.6999 9.14651 11.6999 8.24528 11.6999 7.29661C11.6999 6.91715 11.8895 6.63255 12.2214 6.49025C14.1176 5.68388 15.9665 4.87752 17.8628 4.07115C18.0998 3.97628 18.3369 3.97628 18.5739 4.07115C20.4228 4.87752 22.319 5.68388 24.2153 6.49025C24.5946 6.63255 24.7842 6.91715 24.7842 7.34405C24.7842 9.19394 24.7842 11.0438 24.7842 12.8937C24.7842 13.3681 24.5946 13.6527 24.1679 13.8424C22.319 14.6488 20.4702 15.4551 18.5739 16.2141C18.3843 16.3089 18.0524 16.3089 17.8628 16.2141C16.0139 15.4551 14.165 14.6488 12.3162 13.8424C11.8421 13.6527 11.6525 13.3206 11.6525 12.8463C11.6999 11.9451 11.6999 10.9964 11.6999 10.0952ZM17.3887 14.2219C17.3887 14.1744 17.3887 14.127 17.3887 14.127C17.3887 12.8937 17.3887 11.6605 17.3887 10.4746C17.3887 10.3798 17.2939 10.2849 17.1991 10.2375C16.0139 9.71571 14.7813 9.19394 13.5962 8.67218C13.5013 8.62475 13.4065 8.57731 13.3117 8.57731C13.3117 8.62475 13.3117 8.62475 13.3117 8.67218C13.3117 9.90544 13.3117 11.1387 13.3117 12.372C13.3117 12.5143 13.4065 12.5617 13.5013 12.6091C14.6865 13.1309 15.8717 13.6052 17.0095 14.127C17.1517 14.127 17.2939 14.1744 17.3887 14.2219ZM23.125 8.57731C23.0776 8.57731 23.0301 8.62475 22.9827 8.62475C21.7028 9.14651 20.4702 9.71571 19.1902 10.2375C19.048 10.2849 19.048 10.3798 19.048 10.5221C19.048 11.3759 19.048 12.1822 19.048 13.036C19.048 13.4155 19.048 13.8424 19.048 14.2693C19.1428 14.2693 19.1902 14.2219 19.1902 14.2219C20.4228 13.7001 21.7028 13.1309 22.9353 12.6091C23.0776 12.5617 23.125 12.4668 23.125 12.3245C23.125 11.2336 23.125 10.1426 23.125 9.05165C23.125 8.86191 23.125 8.71961 23.125 8.57731ZM21.845 7.29661C21.7976 7.24918 21.7502 7.24918 21.7502 7.24918C20.6124 6.77485 19.522 6.30051 18.3843 5.82618C18.2894 5.77875 18.1472 5.82618 18.0524 5.82618C17.4361 6.06335 16.8672 6.34795 16.2509 6.58511C15.7295 6.82228 15.1606 7.05945 14.5917 7.29661C14.7339 7.34405 14.7813 7.39148 14.8761 7.43891C15.7295 7.81838 16.6302 8.15041 17.4361 8.57731C18.005 8.86191 18.4791 8.86191 19.048 8.57731C19.9487 8.10298 20.8494 7.72351 21.845 7.29661Z" fill="#BFD4E4"/>
<path d="M25.2599 22.5214C24.0747 21.3356 22.9369 20.1972 21.7517 19.0114C21.6095 18.8691 21.5621 18.7268 21.6569 18.5845C22.0362 17.9204 22.2732 17.2089 22.4154 16.45L20.2821 17.3038C19.2866 19.628 17.011 21.2407 14.3088 21.2407C10.7059 21.2407 7.86148 18.2999 7.86148 14.6949C7.86148 12.8925 8.57259 11.2797 9.75776 10.0939L9.80517 7.72224C7.00816 9.52471 5.49113 12.8925 6.15483 16.3551C7.24519 21.6676 13.1711 24.5611 18.0066 22.1894C18.4332 21.9522 18.4332 21.9522 18.8125 22.2843C19.9503 23.4227 21.0406 24.5136 22.1784 25.652C22.7947 26.2687 23.4584 26.5058 24.2643 26.3161C25.4021 26.0315 26.1606 24.8931 25.971 23.7547C25.9236 23.2804 25.6391 22.9009 25.2599 22.5214Z" fill="#BFD4E4"/>
</svg>
