<svg xmlns="http://www.w3.org/2000/svg" width="20" height="23" fill="none" viewBox="0 0 20 23">
  <path fill="#BFD4E4" d="M5.7 6.095V3.297c0-.38.19-.664.521-.807C8.118 1.684 9.966.878 11.863.071a.924.924 0 0 1 .71 0c1.85.807 3.746 1.613 5.642 2.42.38.142.57.426.57.853v5.55c0 .474-.19.759-.617.948-1.849.807-3.698 1.613-5.594 2.372a.925.925 0 0 1-.711 0 278.336 278.336 0 0 1-5.547-2.372c-.474-.19-.664-.521-.664-.996.048-.9.048-1.85.048-2.75Zm5.689 4.127V6.475c0-.095-.095-.19-.19-.238-1.185-.521-2.418-1.043-3.603-1.565-.095-.047-.19-.095-.284-.095v3.795c0 .142.095.19.19.237 1.185.522 2.37.996 3.507 1.518.143 0 .285.047.38.095Zm5.736-5.645c-.047 0-.095.048-.142.048-1.28.522-2.513 1.09-3.793 1.612-.142.048-.142.143-.142.285v3.747c.095 0 .142-.047.142-.047 1.233-.522 2.513-1.091 3.745-1.613.143-.047.19-.142.19-.284V4.577Zm-1.28-1.28c-.047-.048-.095-.048-.095-.048-1.138-.474-2.228-.948-3.366-1.423-.095-.047-.237 0-.332 0-.616.237-1.185.522-1.801.76a58.05 58.05 0 0 1-1.66.71c.143.048.19.095.285.143.853.38 1.754.711 2.56 1.138.569.285 1.043.285 1.612 0 .9-.474 1.801-.853 2.797-1.28Z"/>
  <path fill="#BFD4E4" d="m19.26 18.521-3.508-3.51c-.143-.142-.19-.284-.095-.426.38-.665.616-1.376.758-2.135l-2.133.854A6.463 6.463 0 0 1 8.31 17.24c-3.603 0-6.448-2.941-6.448-6.546 0-1.803.712-3.415 1.897-4.601l.047-2.372C1.008 5.525-.509 8.892.155 12.355c1.09 5.313 7.016 8.206 11.852 5.834.426-.237.426-.237.806.095l3.365 3.368c.617.617 1.28.854 2.086.664 1.138-.284 1.897-1.423 1.707-2.561-.047-.475-.332-.854-.711-1.234Z"/>
</svg>
