<svg width="34" height="34" viewBox="0 0 34 34" fill="none" xmlns="http://www.w3.org/2000/svg">
<path d="M29 19.6146C29 20.4715 29 21.3284 29 22.1444C29 22.1852 28.96 22.226 28.96 22.3076C28.76 22.8789 28.6001 23.4501 28.3201 23.9806C27.1603 25.9391 25.4405 27 23.1609 27C19.1615 27 15.1621 27 11.1628 27C10.7628 27 10.3629 27 10.0029 26.9592C7.0434 26.5512 4.64377 23.7358 5.0437 20.2267C5.32366 17.8601 6.64346 16.1872 8.84312 15.2487C9.00309 15.1671 9.04309 15.0855 9.04309 14.9223C9.04309 14.2286 9.16307 13.535 9.36304 12.8821C10.5229 8.76102 14.7222 6.23122 18.8416 7.2105C22.401 8.06736 24.9206 11.1684 25.0406 14.8815C25.0406 15.0855 25.1206 15.2079 25.3206 15.2895C27.0803 15.9832 28.2801 17.2481 28.88 19.0842C28.88 19.2474 28.96 19.4514 29 19.6146ZM11.9626 16.9216C11.9626 18.4314 12.2026 19.4514 12.8425 20.3083C13.3224 20.9203 13.8023 21.5324 14.3223 22.1444C14.9622 22.8789 15.6421 23.6133 16.282 24.3886C16.6419 24.7966 17.2018 24.8374 17.6018 24.4294C18.5216 23.4093 19.4415 22.3484 20.4013 21.3284C21.5612 20.0227 22.2011 18.4722 22.0011 16.6768C21.8411 15.2895 21.3212 14.1062 20.2813 13.1678C18.4416 11.4948 15.7221 11.4132 13.8423 13.0453C12.5225 14.1062 12.0026 15.6159 11.9626 16.9216Z" fill="#BFD4E4"/>
<path d="M18.9618 16.8839C18.9618 18.0264 18.082 18.9241 16.9622 18.9241C15.8823 18.9241 15.0025 18.0264 14.9625 16.8839C14.9625 15.7414 15.8423 14.8438 16.9622 14.8438C18.082 14.8846 18.9618 15.7822 18.9618 16.8839Z" fill="#BFD4E4"/>
</svg>
