<svg xmlns="http://www.w3.org/2000/svg" width="26" height="20" fill="none" viewBox="0 0 26 20">
  <path fill="#BFD4E4" d="M25.044 14.905c-.012-.413-.082-1.022-.338-1.592-.554-1.23-1.632-1.87-3.2-1.904-.722-.018-1.06-.012-1.445-.012-.28 0-.595.006-1.113 0a.235.235 0 0 1-.117-.046c-.74-1.371-1.982-2.138-3.584-2.225a54.45 54.45 0 0 0-5.252-.011c-1.69.075-2.972.848-3.712 2.247a.225.225 0 0 1-.105.035c-.758.006-1.084.006-1.504.006H3.596c-.717 0-1.37.168-1.94.488-1.079.615-1.633 1.614-1.65 2.973-.006.9-.006.94-.006 1.167v.947c0 .639.239.877.874.877h4.943v.54c0 .615.244.853.868.853h1.503c.117 0 .269-.005.409-.058a.614.614 0 0 0 .425-.69.628.628 0 0 0-.565-.576c-.076-.011-.146-.011-.21-.011H7.198v-2.398c0-.692 0-1.005.017-2.382.012-.964.397-1.69 1.143-2.154a3.67 3.67 0 0 1 1.958-.575 193.8 193.8 0 0 1 4.505 0c.962.012 1.743.308 2.337.865.286.273.467.534.52.75a8.15 8.15 0 0 1 .203 1.759c.018.993.012 1.179.012 1.51 0 .238-.006.534 0 1.237 0 .18-.012.592-.024.958-.005.163-.011.314-.011.43h-.997c-.46.006-.746.255-.746.662 0 .406.292.668.746.673.286 0 .566.006.851.006.28 0 .56 0 .84-.006.5-.005.763-.267.769-.772v-.616h4.918c.584 0 .828-.25.834-.836 0-.552.006-.778.006-.923-.012-.25-.012-.273-.035-1.196Zm-1.335.795a18.04 18.04 0 0 0-.011.796h-4.4v-3.763h.821c.385 0 .577 0 1.3.005.28.006.56.041.81.11.962.262 1.41.785 1.451 1.69.035.883.035.941.03 1.162ZM5.834 12.75v3.763H1.346v-.911c0-.088 0-.256.006-.622 0-.296.023-.534.064-.737.18-.86.863-1.406 1.83-1.458a23.561 23.561 0 0 1 1.79-.04c.221 0 .466.005.798.005ZM15.9 3.847c0 1.824-1.51 3.322-3.34 3.322-1.824 0-3.34-1.51-3.334-3.328C9.232 2.024 10.742.52 12.566.52c1.83 0 3.34 1.51 3.334 3.327ZM7.152 7.348a2.416 2.416 0 0 1-2.413 2.416 2.419 2.419 0 0 1-2.407-2.398A2.42 2.42 0 0 1 4.744 4.95c1.33.012 2.408 1.08 2.408 2.398Zm10.607.501a2.41 2.41 0 0 1 4.82.023 2.426 2.426 0 0 1-2.408 2.398 2.425 2.425 0 0 1-2.411-2.42Z"/>
  <path fill="#BFD4E4" d="M11.487 16.409c.466-.419 3.24-3.142 3.707-3.537.198-.174.42-.198.664-.087.245.11.356.307.332.575 0 .174-.087.308-.22.441-.514.441-3.329 3.206-3.842 3.647-.087.087-.198.174-.285.267-.268.22-.624.22-.863-.046a190.816 190.816 0 0 1-1.539-1.661.615.615 0 0 1 .047-.86.607.607 0 0 1 .863.064c.174.174.938.976 1.136 1.197Z"/>
</svg>
