<svg width="34" height="34" viewBox="0 0 34 34" fill="none" xmlns="http://www.w3.org/2000/svg">
<path d="M30.044 20.9046C30.0324 20.4923 29.9625 19.8825 29.706 19.3134C29.1523 18.0823 28.0741 17.4435 26.5063 17.4086C25.7836 17.3912 25.4455 17.397 25.0609 17.397C24.7811 17.397 24.4664 17.4028 23.9477 17.397C23.9127 17.397 23.8486 17.368 23.8311 17.3506C23.0909 15.98 21.8495 15.2135 20.2467 15.1264C18.5915 15.0393 16.8255 15.0335 14.9955 15.1148C13.3053 15.1903 12.0231 15.9626 11.2829 17.3622C11.2596 17.3796 11.2071 17.397 11.178 17.397C10.4203 17.4028 10.0939 17.4028 9.67427 17.4028C9.40034 17.4028 9.08561 17.4028 8.59604 17.4028C7.87916 17.4028 7.2264 17.5712 6.65523 17.8906C5.577 18.5062 5.02331 19.505 5.00583 20.8639C5 21.7641 5 21.8047 5 22.0312C5 22.1764 5 22.3971 5 22.9778C5 23.6166 5.23896 23.8547 5.87424 23.8547C7.26719 23.8547 8.08898 23.8547 9.1439 23.8547H10.8166V23.9069C10.8166 24.0812 10.8166 24.2379 10.8166 24.3947C10.8166 25.0103 11.0614 25.2484 11.685 25.2484C12.058 25.2484 12.2737 25.2484 12.3961 25.2484C12.4019 25.2484 12.4077 25.2484 12.4136 25.2484H12.5185C12.5243 25.2484 12.5243 25.2484 12.5301 25.2484C12.5359 25.2484 12.5418 25.2484 12.5476 25.2484C12.67 25.2484 12.874 25.2484 13.1887 25.2484C13.3053 25.2484 13.4568 25.2426 13.5967 25.1903C13.8998 25.0858 14.063 24.8245 14.0222 24.4993C13.9814 24.1799 13.7774 23.9708 13.4568 23.9244C13.381 23.9127 13.3111 23.9127 13.247 23.9127C13.2295 23.9127 13.212 23.9127 13.1945 23.9127C12.4951 23.9127 12.2737 23.9127 12.1979 23.9127V23.7153C12.1979 23.4424 12.1979 23.1868 12.1979 22.9255C12.1979 22.2635 12.1979 21.8454 12.1979 21.5143C12.1979 20.8233 12.1979 20.5097 12.2154 19.1334C12.227 18.1694 12.6117 17.4435 13.3577 16.9789C13.958 16.6014 14.6166 16.4098 15.316 16.404C16.7439 16.3924 18.2768 16.3807 19.8213 16.404C20.7829 16.4156 21.5639 16.7118 22.1584 17.2693C22.444 17.5422 22.6247 17.8035 22.6771 18.0184C22.8053 18.541 22.8695 19.1334 22.8811 19.778C22.8986 20.771 22.8928 20.9569 22.8928 21.2879C22.8928 21.526 22.8869 21.8221 22.8928 22.5248C22.8928 22.7048 22.8811 23.1171 22.8695 23.483C22.8636 23.6456 22.8578 23.7966 22.8578 23.9127C22.7879 23.9127 22.7179 23.9127 22.6538 23.9127C22.3857 23.9127 22.1526 23.9127 21.8612 23.9127C21.4007 23.9185 21.1151 24.1683 21.1151 24.5748C21.1151 24.9813 21.4066 25.2426 21.8612 25.2484C22.1468 25.2484 22.4265 25.2542 22.7121 25.2542C22.9918 25.2542 23.2716 25.2542 23.5514 25.2484C24.0526 25.2426 24.3149 24.9813 24.3207 24.476C24.3207 24.2902 24.3207 24.1102 24.3207 23.9185C24.3207 23.9011 24.3207 23.8779 24.3207 23.8605H25.9992C27.0425 23.8605 27.8526 23.8605 29.2397 23.8605C29.8226 23.8605 30.0674 23.6108 30.0732 23.0242C30.0732 22.4725 30.079 22.2461 30.079 22.1009C30.0674 21.8512 30.0674 21.8279 30.044 20.9046ZM28.7094 21.7002C28.7035 21.8337 28.6977 22.0312 28.6977 22.4958H24.2974V18.7327H24.3615C24.7112 18.7327 24.9385 18.7327 25.1192 18.7327C25.5038 18.7327 25.6962 18.7327 26.4189 18.7385C26.6986 18.7443 26.9784 18.7791 27.229 18.8488C28.1907 19.1102 28.6394 19.6328 28.6802 20.5387C28.7152 21.4214 28.7152 21.4795 28.7094 21.7002ZM10.8341 18.7501V22.5132H6.34633C6.34633 22.4842 6.34633 22.4551 6.34633 22.4261C6.34633 21.9209 6.34633 21.7873 6.34633 21.735C6.34633 21.6944 6.34633 21.6944 6.34633 21.6015C6.34633 21.5143 6.34633 21.3459 6.35216 20.9801C6.35216 20.6839 6.37547 20.4458 6.41627 20.2426C6.59694 19.3831 7.27885 18.8372 8.24634 18.7849C9.13224 18.7385 9.49359 18.7385 10.0356 18.7443C10.2571 18.7443 10.5019 18.7501 10.8341 18.7501Z" fill="#BFD4E4"/>
<path d="M20.8996 9.84708C20.8996 11.6706 19.3901 13.1688 17.56 13.1688C15.7357 13.1688 14.2204 11.6589 14.2262 9.84127C14.232 8.02361 15.7416 6.51953 17.5658 6.51953C19.3959 6.51953 20.9054 8.02941 20.8996 9.84708Z" fill="#BFD4E4"/>
<path d="M12.1515 13.3485C12.1515 14.6783 11.0733 15.7643 9.73864 15.7643C8.42145 15.7643 7.33739 14.6842 7.33157 13.3659C7.32574 12.0419 8.42145 10.9443 9.74447 10.9501C11.0733 10.9617 12.1515 12.0302 12.1515 13.3485Z" fill="#BFD4E4"/>
<path d="M22.7585 13.8486C22.7643 12.5303 23.8426 11.456 25.1656 11.456C26.4944 11.4502 27.5785 12.5419 27.5785 13.8718C27.5727 15.1842 26.4886 16.2644 25.1714 16.2702C23.8426 16.2644 22.7527 15.1784 22.7585 13.8486Z" fill="#BFD4E4"/>
<path d="M16.4871 22.4085C16.9534 21.9903 19.7276 19.2667 20.1939 18.8718C20.3921 18.6976 20.6135 18.6744 20.8583 18.7847C21.1031 18.8951 21.2138 19.0925 21.1905 19.3597C21.1905 19.5339 21.1031 19.6674 20.9691 19.801C20.4562 20.2424 17.6411 23.0066 17.1282 23.448C17.0408 23.5351 16.9301 23.6222 16.8426 23.7151C16.5745 23.9358 16.219 23.9358 15.9801 23.6686C15.6478 23.3144 14.7561 22.3562 14.4414 22.0078C14.2199 21.7406 14.2432 21.369 14.488 21.1483C14.7561 20.9276 15.1116 20.9508 15.3506 21.2122C15.5255 21.3864 16.289 22.1878 16.4871 22.4085Z" fill="#BFD4E4"/>
</svg>
