<svg width="34" height="34" viewBox="0 0 34 34" fill="none" xmlns="http://www.w3.org/2000/svg">
<path d="M17.6238 17.575C19.6789 17.575 21.2936 15.85 21.2936 13.825C21.2936 11.8 19.6789 10.075 17.6238 10.075C15.5688 10.075 13.9541 11.8 13.9541 13.825C13.9541 15.85 15.5688 17.575 17.6238 17.575Z" fill="#BFD3E3"/>
<path d="M17.6239 19.3C15.1285 19.3 10.2844 20.8 10.2844 23.575V25H24.9633V23.575C24.9633 20.8 20.0459 19.3 17.6239 19.3Z" fill="#BFD3E3"/>
<path d="M12.3395 13.75C12.3395 13 12.4863 12.25 12.7798 11.5C12.4129 11.35 12.0459 11.275 11.6789 11.275C9.84407 11.275 8.37618 12.85 8.37618 14.725C8.30278 16.6 9.84407 18.175 11.6789 18.175C12.4129 18.175 13.1468 17.875 13.6606 17.5C12.8532 16.525 12.2661 15.25 12.3395 13.75Z" fill="#BFD3E3"/>
<path d="M10.945 19.825C8.52294 20.125 5 21.475 5 23.725V25H8.81651V23.2C8.81651 21.85 9.62385 20.725 10.945 19.825Z" fill="#BFD3E3"/>
<path fill-rule="evenodd" clip-rule="evenodd" d="M28.7798 14.65C29.0734 14.35 29.0734 13.9 28.7798 13.675C28.4863 13.375 28.0459 13.375 27.8257 13.675L23.422 18.175L22.1009 16.75C21.8074 16.45 21.367 16.45 21.1468 16.75C20.8532 17.05 20.8532 17.5 21.1468 17.725L22.9817 19.6C23.0551 19.675 23.1285 19.675 23.2019 19.75C23.4954 19.9 23.789 19.825 24.0092 19.6L28.7798 14.65Z" fill="#BFD3E3"/>
</svg>
