<svg width="34" height="34" viewBox="0 0 34 34" fill="none" xmlns="http://www.w3.org/2000/svg">
<path d="M28.633 12.699C28.1193 12.1661 27.3853 12.1661 26.8716 12.699L25.7706 13.8408C25.1835 11.8616 24.156 10.1869 22.7615 8.81661C22.6881 8.81661 22.6147 8.74048 22.6147 8.74048C22.4679 8.58824 22.3211 8.43599 22.1009 8.28374C22.0275 8.28374 21.9541 8.20761 21.8807 8.13149C21.7339 7.97924 21.5872 7.90311 21.367 7.75087C21.2936 7.67474 21.1468 7.59862 21.0734 7.52249C20.9266 7.44637 20.7798 7.29412 20.633 7.21799C20.4128 7.06574 20.1193 6.91349 19.8257 6.83737C19.6789 6.83737 19.6055 6.83737 19.4587 6.76125C19.3119 6.68512 19.0917 6.609 18.8716 6.53287C18.7248 6.45675 18.6514 6.45675 18.5046 6.38062C18.2844 6.3045 18.1376 6.3045 17.9174 6.22837C17.7706 6.22837 17.6972 6.15225 17.5505 6.15225C17.3303 6.07612 17.1101 6.07612 16.8899 6.07612C16.8165 6.07612 16.6697 6.07612 16.5963 6C16.3028 6 15.9358 6 15.6422 6C9.77064 6 5 10.9481 5 17.0381C5 23.0519 9.77064 28.0761 15.6422 28.0761C19.3853 28.0761 22.6881 26.0208 24.5963 22.9758C24.8165 22.5952 25.0367 22.2145 25.2569 21.7578C25.2569 21.6817 25.3303 21.6055 25.3303 21.6055C25.4037 21.4533 25.4771 21.2249 25.5505 21.0727C25.6239 20.9204 25.6239 20.8443 25.6973 20.692C25.7706 20.5398 25.7706 20.3875 25.844 20.2353C25.9174 19.9308 25.9908 19.7024 26.0642 19.3979C26.0642 19.3218 26.1376 19.1696 26.1376 19.0934C26.211 18.8651 26.211 18.6367 26.211 18.4083C26.211 18.3322 26.211 18.1799 26.211 18.1038C26.211 17.7993 26.2844 17.4187 26.2844 17.1142L28.7064 14.6021C29.1468 13.9931 29.1468 13.1557 28.633 12.699ZM16.9633 9.34948C19.0183 9.34948 20.633 11.1003 20.633 13.1557C20.633 15.2111 19.0183 16.9619 16.9633 16.9619C14.9083 16.9619 13.2936 15.2111 13.2936 13.1557C13.2936 11.0242 14.9083 9.34948 16.9633 9.34948ZM11.3119 10.6436C11.6789 10.6436 12.0459 10.7197 12.4128 10.872C12.1193 11.5571 11.9725 12.3183 11.9725 13.1557C11.9725 14.6021 12.4862 15.9723 13.367 16.9619C12.7798 17.4187 12.1193 17.6471 11.3853 17.6471C9.40367 17.6471 7.93578 16.1246 7.93578 14.1453C7.93578 12.2422 9.47707 10.6436 11.3119 10.6436ZM8.81651 23.2042C8.08257 22.3668 7.56881 21.4533 7.20184 20.4637C8.37615 19.8547 9.77064 19.474 10.945 19.3218C9.69725 20.2353 8.81651 21.301 8.81651 22.6713V23.2042ZM15.6422 26.4775C13.4404 26.4775 11.4587 25.6401 9.91743 24.346V23.128C9.91743 20.3114 14.7615 18.7889 17.2569 18.7889C19.0917 18.7889 22.2477 19.6263 23.7156 21.2249C22.2477 24.346 19.1651 26.4775 15.6422 26.4775ZM27.9725 14.2976L23.6422 18.7889C23.422 19.0173 23.2018 19.0173 22.9083 18.9412C22.8349 18.9412 22.7615 18.8651 22.7615 18.7889L21.1468 17.1142C20.9266 16.8858 20.9266 16.4291 21.1468 16.2007C21.367 15.9723 21.8073 15.9723 22.0275 16.2007L23.2018 17.4187L27.0917 13.3841C27.3119 13.1557 27.7523 13.1557 27.9725 13.3841C28.1927 13.6125 28.1927 13.9931 27.9725 14.2976Z" fill="#BFD3E3"/>
</svg>
