<svg xmlns="http://www.w3.org/2000/svg" width="25" height="23" fill="none" viewBox="0 0 25 23">
  <path fill="#BFD3E3" d="M23.633 6.699c-.514-.533-1.248-.533-1.761 0L20.77 7.841a11.555 11.555 0 0 0-3.01-5.024c-.073 0-.146-.077-.146-.077a3.246 3.246 0 0 0-.514-.456c-.073 0-.147-.076-.22-.153-.147-.152-.294-.228-.514-.38-.073-.076-.22-.152-.294-.229-.146-.076-.293-.228-.44-.304a2.668 2.668 0 0 0-.807-.38c-.147 0-.22 0-.367-.077-.147-.076-.367-.152-.587-.228-.147-.076-.22-.076-.367-.152-.22-.077-.367-.077-.588-.153-.146 0-.22-.076-.367-.076-.22-.076-.44-.076-.66-.076-.074 0-.22 0-.294-.076h-.954C4.771 0 0 4.948 0 11.038c0 6.014 4.77 11.038 10.642 11.038 3.743 0 7.046-2.055 8.954-5.1.22-.38.44-.761.66-1.218 0-.076.074-.152.074-.152.074-.153.147-.381.22-.533.074-.153.074-.229.147-.381.074-.152.074-.305.147-.457.073-.304.147-.533.22-.837 0-.076.074-.228.074-.305.073-.228.073-.456.073-.685v-.304c0-.305.073-.685.073-.99l2.422-2.512c.44-.609.44-1.446-.073-1.903Zm-11.67-3.35c2.055 0 3.67 1.751 3.67 3.807 0 2.055-1.615 3.806-3.67 3.806-2.055 0-3.67-1.75-3.67-3.806 0-2.132 1.615-3.807 3.67-3.807ZM6.312 4.644c.367 0 .734.076 1.1.228-.293.685-.44 1.446-.44 2.284 0 1.446.514 2.816 1.395 3.806a3.145 3.145 0 0 1-1.982.685c-1.981 0-3.45-1.522-3.45-3.502 0-1.903 1.542-3.501 3.377-3.501Zm-2.495 12.56a8.644 8.644 0 0 1-1.615-2.74c1.174-.61 2.569-.99 3.743-1.142-1.248.913-2.128 1.979-2.128 3.35v.532Zm6.825 3.273c-2.202 0-4.183-.837-5.725-2.131v-1.218c0-2.817 4.844-4.34 7.34-4.34 1.835 0 4.99.838 6.459 2.437-1.468 3.121-4.55 5.252-8.074 5.252Zm12.33-12.18-4.33 4.492c-.22.228-.44.228-.734.152-.073 0-.146-.076-.146-.152l-1.615-1.675c-.22-.228-.22-.685 0-.913.22-.229.66-.229.88 0l1.175 1.218 3.89-4.035c.22-.228.66-.228.88 0 .22.228.22.61 0 .914Z"/>
</svg>
