<svg xmlns="http://www.w3.org/2000/svg" width="24" height="15" fill="none" viewBox="0 0 24 15">
  <path fill="#BFD3E3" d="M12.624 7.575c2.055 0 3.67-1.725 3.67-3.75s-1.615-3.75-3.67-3.75c-2.055 0-3.67 1.725-3.67 3.75s1.615 3.75 3.67 3.75Zm0 1.725c-2.495 0-7.34 1.5-7.34 4.275V15h14.68v-1.425c0-2.775-4.918-4.275-7.34-4.275ZM7.34 3.75c0-.75.146-1.5.44-2.25a2.89 2.89 0 0 0-1.101-.225c-1.835 0-3.303 1.575-3.303 3.45-.073 1.875 1.468 3.45 3.303 3.45.734 0 1.468-.3 1.982-.675-.808-.975-1.395-2.25-1.322-3.75ZM5.945 9.825c-2.422.3-5.945 1.65-5.945 3.9V15h3.817v-1.8c0-1.35.807-2.475 2.128-3.375Z"/>
  <path fill="#BFD3E3" fill-rule="evenodd" d="M23.78 4.65c.293-.3.293-.75 0-.975-.294-.3-.734-.3-.954 0l-4.404 4.5-1.321-1.425c-.294-.3-.734-.3-.954 0-.294.3-.294.75 0 .975L17.982 9.6c.073.075.146.075.22.15.293.15.587.075.807-.15l4.77-4.95Z" clip-rule="evenodd"/>
</svg>
