<svg width="34" height="34" viewBox="0 0 34 34" fill="none" xmlns="http://www.w3.org/2000/svg">
<path d="M27.0009 17.4888C26.9258 17.9658 26.8508 18.4031 26.7382 18.8802C26.438 20.1125 25.8002 21.1064 24.9371 21.981C24.5994 22.299 24.1867 22.299 23.924 21.981C23.6614 21.6629 23.6614 21.2257 23.9616 20.9076C24.7871 20.0728 25.3124 19.079 25.5 17.8863C25.8002 16.0179 25.2748 14.388 24.0366 12.9966C23.6989 12.6388 23.6614 12.2811 23.8865 11.963C24.1492 11.6052 24.5994 11.5257 24.9371 11.8438C26.0253 12.9171 26.7007 14.229 26.9258 15.7794C26.9633 15.9782 27.0009 16.1769 27.0009 16.3757C27.0009 16.7335 27.0009 17.131 27.0009 17.4888Z" fill="#BFD4E4"/>
<path d="M20.5455 16.9724C20.5455 19.9937 20.5455 23.015 20.5455 26.076C20.5455 26.1953 20.5455 26.3145 20.508 26.4338C20.3954 26.8711 20.0202 27.1096 19.6075 26.9506C19.4949 26.9108 19.3823 26.8313 19.2698 26.7518C17.056 25.0424 14.8421 23.333 12.6659 21.6236C12.5533 21.5441 12.4032 21.4646 12.2531 21.4646C11.3151 21.4646 10.377 21.4646 9.47647 21.4646C8.08815 21.4646 7 20.2719 7 18.8408C7 17.5687 7 16.2966 7 15.0244C7 13.5535 8.12567 12.4007 9.47647 12.4007C10.4145 12.4007 11.3526 12.4007 12.2906 12.4007C12.4032 12.4007 12.5533 12.3609 12.6659 12.2814C14.8797 10.6118 17.0935 8.90236 19.3073 7.2327C19.57 7.03393 19.8326 6.91467 20.1703 7.07369C20.433 7.19295 20.5455 7.39172 20.5831 7.66999C20.5831 7.7495 20.5831 7.82901 20.5831 7.94827C20.5455 10.9298 20.5455 13.9511 20.5455 16.9724Z" fill="#BFD4E4"/>
<path d="M24.2612 16.9334C24.2237 18.0067 23.886 18.8018 23.2105 19.4776C22.9104 19.7956 22.4976 19.7956 22.235 19.5173C21.9723 19.2788 22.0098 18.762 22.2725 18.444C22.5351 18.1657 22.7228 17.8477 22.7978 17.4501C22.9479 16.7743 22.7978 16.2178 22.3851 15.701C22.31 15.6215 22.235 15.542 22.1599 15.4227C21.9348 15.0649 21.9723 14.7071 22.2725 14.3891C22.5351 14.1108 22.9104 14.1506 23.173 14.4289C23.9235 15.1444 24.2237 16.019 24.2612 16.9334Z" fill="#BFD4E4"/>
</svg>
