<svg width="34" height="34" viewBox="0 0 34 34" fill="none" xmlns="http://www.w3.org/2000/svg">
<path fill-rule="evenodd" clip-rule="evenodd" d="M8.44005 17.2175C8.15307 16.9305 8.00668 16.5562 8.00089 16.1801C8.00026 16.1615 7.99996 16.143 8 16.1244C8 16.1229 8 16.1215 8 16.12C8 15.6039 8.26062 15.1487 8.65743 14.8788L14.0969 9.43932C14.6827 8.85354 15.6324 8.85354 16.2182 9.43932C16.804 10.0251 16.804 10.9749 16.2182 11.5606L13.1589 14.62H24.5C25.3284 14.62 26 15.2916 26 16.12C26 16.9484 25.3284 17.62 24.5 17.62H13.1132L16.2175 20.7243C16.8033 21.3101 16.8033 22.2599 16.2175 22.8456C15.6317 23.4314 14.682 23.4314 14.0962 22.8456L8.62678 17.3762C8.56136 17.3292 8.49887 17.2763 8.44005 17.2175Z" fill="#BFD4E4"/>
</svg>
