<svg width="34" height="34" viewBox="0 0 34 34" fill="none" xmlns="http://www.w3.org/2000/svg">
<path d="M10.6855 9.45912C10.6855 9.78839 10.6855 10.1177 10.6855 10.3811C10.6855 11.2372 11.4912 11.9616 12.364 11.9616C12.4311 11.9616 12.4311 11.9616 12.4982 11.9616V11.8957C12.1625 11.5006 12.0954 11.1055 12.0954 10.5786C12.0954 9.85424 12.0954 9.064 12.0954 8.3396C12.0954 7.68106 12.4982 7.15423 13.2367 7.02253C13.9081 6.89082 14.5795 7.3518 14.7138 8.01033C14.7809 8.27375 14.7809 8.47131 14.7809 8.73473C14.7809 9.064 14.7809 9.064 15.1166 9.064C15.9894 9.064 16.7951 8.99814 17.6678 8.99814C18.0707 8.99814 18.4735 8.99814 18.8763 8.99814C18.8763 9.45912 18.8763 9.78839 18.8763 10.1835C18.8763 10.4469 18.8763 10.6445 18.9435 10.9079C19.212 11.5664 19.682 11.8957 20.3534 12.0274C20.4205 12.0274 20.5548 12.0274 20.689 12.0274C20.689 11.9616 20.6219 11.9616 20.6219 11.8957C20.3534 11.6323 20.2191 11.2372 20.2191 10.8421C20.2191 9.98595 20.2191 9.1957 20.2191 8.3396C20.2191 7.61521 20.689 7.02253 21.4947 7.02253C22.1661 6.95667 22.9046 7.41765 22.9046 8.3396C22.9046 8.66887 22.9046 8.93229 22.9046 9.26156C23.3074 9.32741 23.6431 9.32741 24.0459 9.39327C24.7173 9.52497 25.4558 9.65668 26.1272 9.72253C26.7314 9.85424 27 10.1835 27 10.7762C27 12.8835 27 14.9908 27 17.0982C27 19.7323 27 22.4323 27 25.0665C27 25.725 26.7314 26.1201 26.0601 26.2519C25.053 26.4494 24.0459 26.5811 23.0389 26.7128C20.5548 26.9762 18.0707 27.0421 15.5866 26.9762C14.4452 26.9762 13.2367 26.8445 12.0954 26.7128C11.0212 26.5811 10.0141 26.4494 8.93993 26.2519C8.33569 26.1201 8 25.725 8 25.1982C8 23.1567 8 21.1153 8 19.0738C8 16.3738 8 13.6079 8 10.9079C8 10.1835 8.26855 9.85424 9.00707 9.72253C9.54417 9.65668 10.0141 9.52497 10.5512 9.45912C10.5512 9.45912 10.6184 9.45912 10.6855 9.45912ZM10.0141 24.5397C10.0813 24.5397 10.0813 24.5397 10.0813 24.5397C10.8869 24.6714 11.6254 24.8031 12.364 24.8031C13.841 24.9348 15.318 25.0006 16.8622 25.0665C18.4735 25.1323 20.0848 25.0665 21.7633 24.8689C22.7703 24.7372 23.7774 24.6714 24.7173 24.5397C24.9187 24.5397 24.9859 24.4738 24.9859 24.2762C24.9859 21.247 24.9859 18.2835 24.9859 15.2543C24.9859 14.925 24.9859 14.925 24.6502 14.925C19.8834 14.925 15.0495 14.925 10.2827 14.925C10.2155 14.925 10.0813 14.925 10.0141 14.925C10.0141 18.1518 10.0141 21.3128 10.0141 24.5397Z" fill="#BFD4E4"/>
<path d="M18.8087 18.9427C17.936 18.9427 17.0632 18.9427 16.1232 18.9427C16.1232 18.0866 16.1232 17.2305 16.1232 16.3086C16.996 16.3086 17.8688 16.3086 18.8087 16.3086C18.8087 17.2305 18.8087 18.0866 18.8087 18.9427Z" fill="#BFD4E4"/>
<path d="M22.9047 18.9427C22.0319 18.9427 21.1591 18.9427 20.2192 18.9427C20.2192 18.0866 20.2192 17.2305 20.2192 16.3086C21.092 16.3086 21.9648 16.3086 22.9047 16.3086C22.9047 17.2305 22.9047 18.0866 22.9047 18.9427Z" fill="#BFD4E4"/>
<path d="M14.7147 22.9593C13.8419 22.9593 12.9691 22.9593 12.0292 22.9593C12.0292 22.1032 12.0292 21.2471 12.0292 20.3252C12.902 20.3252 13.7748 20.3252 14.7147 20.3252C14.7147 21.2471 14.7147 22.1032 14.7147 22.9593Z" fill="#BFD4E4"/>
<path d="M16.191 20.3252C17.0638 20.3252 17.9366 20.3252 18.8765 20.3252C18.8765 21.1813 18.8765 22.0374 18.8765 22.9593C18.0037 22.9593 17.1309 22.9593 16.191 22.9593C16.191 22.1032 16.191 21.2471 16.191 20.3252Z" fill="#BFD4E4"/>
<path d="M20.2192 22.9593C20.2192 22.1032 20.2192 21.2471 20.2192 20.3252C21.092 20.3252 21.9648 20.3252 22.9047 20.3252C22.9047 21.1813 22.9047 22.0374 22.9047 22.9593C22.0319 22.9593 21.1591 22.9593 20.2192 22.9593Z" fill="#BFD4E4"/>
</svg>
