<svg xmlns="http://www.w3.org/2000/svg" width="19" height="20" fill="none" viewBox="0 0 19 20">
  <path fill="#BFD4E4" d="M2.686 2.46v.921c0 .856.805 1.58 1.678 1.58h.134v-.065c-.335-.395-.403-.79-.403-1.317v-2.24c0-.658.403-1.185 1.142-1.316a1.28 1.28 0 0 1 1.477.987c.067.264.067.461.067.725 0 .329 0 .329.336.329.872 0 1.678-.066 2.55-.066h1.21v1.186c0 .263 0 .46.066.724.269.658.739.988 1.41 1.12h.336c0-.066-.067-.066-.067-.132-.269-.264-.403-.659-.403-1.054V1.34c0-.725.47-1.317 1.276-1.317.671-.066 1.41.395 1.41 1.317v.922c.402.065.738.065 1.14.131.672.132 1.41.264 2.082.33.604.131.873.46.873 1.053v14.291c0 .658-.269 1.053-.94 1.185-1.007.197-2.014.33-3.021.46-2.484.264-4.968.33-7.452.264-1.142 0-2.35-.131-3.492-.263a52.075 52.075 0 0 1-3.155-.461C.336 19.12 0 18.725 0 18.198V3.908c0-.724.269-1.054 1.007-1.185.537-.066 1.007-.198 1.544-.264h.135Zm-.672 15.08h.067c.806.131 1.544.263 2.283.263 1.477.132 2.954.198 4.498.264 1.611.065 3.223 0 4.901-.198 1.007-.132 2.014-.198 2.954-.33.202 0 .269-.065.269-.263V8.254c0-.329 0-.329-.336-.329H2.014v9.615Z"/>
  <path fill="#BFD4E4" d="M10.809 11.943H8.123V9.309h2.686v2.634Zm4.096 0h-2.686V9.309h2.686v2.634Zm-8.19 4.017H4.029v-2.635h2.686v2.634Zm1.476-2.635h2.685v2.634H8.191v-2.634Zm4.029 2.635v-2.635h2.685v2.634h-2.686Z"/>
</svg>
