<svg width="34" height="34" viewBox="0 0 34 34" fill="none" xmlns="http://www.w3.org/2000/svg">
<path d="M7.23878 11.6558C7.45495 10.3819 8.10347 9.46185 9.04021 8.61256C9.9049 7.83404 10.9137 7.48017 12.0666 7.33863C14.4445 7.05553 16.7504 6.91398 19.1283 7.05553C20.3532 7.1263 21.5782 7.26785 22.8032 7.48017C24.0282 7.6925 25.037 8.47101 25.8296 9.46185C26.5502 10.3819 26.7663 11.3727 26.9105 12.5051C27.1266 14.6283 26.9105 21.4227 26.6943 22.6258C26.4781 23.8997 25.6134 24.8906 24.6046 25.6691C23.7399 26.3768 22.6591 26.5892 21.5782 26.7307C19.4165 26.943 17.1827 27.0846 15.021 26.943C13.796 26.8722 12.499 26.7307 11.274 26.5184C9.97696 26.3061 9.04021 25.4568 8.17552 24.4659C7.45495 23.6166 7.23878 22.6258 7.09466 21.4934C6.95055 20.0072 6.95055 13.4252 7.23878 11.6558ZM14.3004 15.7607C14.6607 15.4069 15.021 15.1238 15.3092 14.7699C15.4533 14.6283 15.5254 14.4868 15.4533 14.2745C15.2372 13.496 14.9489 12.7174 14.6607 11.9389C14.5166 11.5143 14.1563 11.2312 13.7239 11.2312C12.499 11.0896 11.1299 12.2928 11.1299 13.496C11.0578 14.416 11.3461 15.3361 11.7784 16.1854C12.7151 18.0963 14.0842 19.5825 15.7416 20.8565C16.7504 21.635 17.8312 22.2719 19.1283 22.6258C20.2091 22.9089 21.1459 22.8381 22.0826 22.0596C22.7311 21.4934 23.0194 20.8565 22.9473 20.0072C22.8752 19.5825 22.6591 19.2287 22.1547 19.0871C21.29 18.8748 20.3532 18.6625 19.4885 18.4501C19.2724 18.3794 19.1283 18.4501 18.9841 18.5917C18.768 18.804 18.4797 19.0871 18.2636 19.2994C18.1195 19.441 18.0474 19.441 17.9033 19.3702C16.246 18.6625 15.093 17.3885 14.3004 15.7607Z" fill="#BFD4E4"/>
</svg>
