<svg xmlns="http://www.w3.org/2000/svg" width="20" height="20" fill="none" viewBox="0 0 20 20">
  <path fill="#BFD4E4" d="M.239 4.656c.216-1.274.864-2.194 1.801-3.043C2.905.834 3.914.48 5.067.339 7.445.056 9.75-.086 12.128.056c1.225.07 2.45.212 3.675.424 1.225.212 2.234.991 3.027 1.982.72.92.936 1.91 1.08 3.043.217 2.123 0 8.918-.216 10.12-.216 1.275-1.08 2.266-2.09 3.044-.864.708-1.945.92-3.026 1.062-2.162.212-4.395.354-6.557.212a33.74 33.74 0 0 1-3.747-.425c-1.297-.212-2.234-1.061-3.098-2.052-.721-.85-.937-1.84-1.081-2.973-.144-1.486-.144-8.068.144-9.837ZM7.3 8.76c.36-.354.721-.637 1.01-.991.143-.142.215-.283.143-.496-.216-.778-.504-1.557-.792-2.335-.144-.425-.505-.708-.937-.708C5.499 4.09 4.13 5.293 4.13 6.496c-.072.92.216 1.84.648 2.69.937 1.91 2.306 3.396 3.964 4.67 1.008.779 2.09 1.416 3.386 1.77 1.081.283 2.018.212 2.955-.566.648-.567.936-1.204.864-2.053-.072-.425-.288-.778-.792-.92-.865-.212-1.802-.425-2.666-.637-.217-.07-.36 0-.505.142l-.72.707c-.144.142-.217.142-.36.071-1.658-.707-2.811-1.981-3.604-3.61Z"/>
</svg>
