<svg xmlns="http://www.w3.org/2000/svg" width="24" height="18" fill="none" viewBox="0 0 24 18">
  <path fill="#BFD4E4" d="M6.433 17.962c-1.218 0-2.436.076-3.616 0C1.408 17.848.228 16.557.038 15.19c0-.266-.038-.57-.038-.873V5.961c0-1.14.419-2.05 1.332-2.734.571-.456 1.218-.646 1.903-.646h1.828c.152 0 .266-.038.342-.19L6.661.228c.076-.152.19-.228.38-.228h9.136c.19 0 .305.038.38.228.42.721.838 1.405 1.219 2.126.114.19.228.266.457.266.723 0 1.446 0 2.17.038 1.332.114 2.55 1.33 2.74 2.658.038.266.038.532.038.798v8.544c0 1.595-1.066 2.924-2.588 3.266-.19.038-.381.076-.571.076h-3.274v-.038c.685-.494 1.218-1.14 1.675-1.86.076-.153.19-.19.343-.19h1.141a1.16 1.16 0 0 0 1.18-1.178V6c0-.797-.456-1.253-1.256-1.253h-2.816c-.19 0-.267-.038-.343-.19l-1.256-2.165c-.076-.151-.152-.19-.343-.19H8.298c-.19 0-.267.039-.343.19L6.7 4.557c-.076.152-.19.19-.342.19h-2.97c-.684 0-1.141.456-1.141 1.14v8.847c0 .722.495 1.215 1.18 1.215h1.066c.19 0 .266.076.38.19.305.684.838 1.33 1.56 1.823Z"/>
  <path fill="#BFD4E4" d="M5.137 11.582c0-3.532 2.893-6.418 6.433-6.418s6.433 2.924 6.433 6.456c-.038 3.532-2.93 6.418-6.433 6.38-3.54 0-6.433-2.924-6.433-6.418Zm6.471-4.405c-2.398 0-4.415 1.975-4.415 4.329-.038 2.468 1.941 4.443 4.377 4.481 2.398 0 4.416-1.975 4.416-4.367 0-2.43-1.98-4.443-4.378-4.443Z"/>
</svg>
