<svg width="34" height="34" viewBox="0 0 34 34" fill="none" xmlns="http://www.w3.org/2000/svg">
<path d="M11.4328 24.962C10.2148 24.962 8.99671 25.038 7.81673 24.962C6.40836 24.8481 5.22838 23.557 5.03806 22.1899C5.03806 21.9241 5 21.6203 5 21.3165C5 18.5443 5 15.7342 5 12.962C5 11.8228 5.4187 10.9114 6.33224 10.2278C6.9032 9.77215 7.55028 9.58228 8.23543 9.58228C8.84446 9.58228 9.45348 9.58228 10.0625 9.58228C10.2148 9.58228 10.3289 9.5443 10.4051 9.39241C10.8238 8.67089 11.2425 7.94937 11.6612 7.22785C11.7373 7.07595 11.8515 7 12.0418 7C15.0869 7 18.1321 7 21.1772 7C21.3675 7 21.4817 7.03797 21.5578 7.22785C21.9765 7.94937 22.3952 8.63291 22.7758 9.35443C22.89 9.5443 23.0042 9.62025 23.2326 9.62025C23.9558 9.62025 24.679 9.62025 25.4023 9.65823C26.7345 9.77215 27.9525 10.9873 28.1429 12.3165C28.1809 12.5823 28.1809 12.8481 28.1809 13.1139C28.1809 15.962 28.1809 18.8101 28.1809 21.6582C28.1809 23.2532 27.1151 24.5823 25.5926 24.9241C25.4023 24.962 25.2119 25 25.0216 25C23.9178 25 22.852 25 21.7481 25C21.7481 24.962 21.7481 24.962 21.7481 24.962C22.4333 24.4684 22.9662 23.8228 23.4229 23.1013C23.4991 22.9494 23.6133 22.9114 23.7655 22.9114C24.1461 22.9114 24.5268 22.9114 24.9074 22.9114C25.5926 22.9114 26.0874 22.3797 26.0874 21.7342C26.0874 20.8987 26.0874 20.0253 26.0874 19.1899C26.0874 17.1392 26.0874 15.0506 26.0874 13C26.0874 12.2025 25.6306 11.7468 24.8313 11.7468C23.8797 11.7468 22.9662 11.7468 22.0146 11.7468C21.8242 11.7468 21.7481 11.7089 21.672 11.557C21.2533 10.8354 20.8346 10.1139 20.4159 9.39241C20.3398 9.24051 20.2636 9.20253 20.0733 9.20253C17.8275 9.20253 15.5437 9.20253 13.2979 9.20253C13.1076 9.20253 13.0315 9.24051 12.9554 9.39241C12.5367 10.1139 12.118 10.8354 11.6992 11.557C11.6231 11.7089 11.5089 11.7468 11.3567 11.7468C10.367 11.7468 9.37735 11.7468 8.38769 11.7468C7.70254 11.7468 7.24577 12.2025 7.24577 12.8861C7.24577 15.8481 7.24577 18.7722 7.24577 21.7342C7.24577 22.4557 7.7406 22.9494 8.42575 22.9494C8.76833 22.9494 9.14897 22.9494 9.49154 22.9494C9.68186 22.9494 9.75799 23.0253 9.87218 23.1392C10.1767 23.8228 10.7096 24.4684 11.4328 24.962Z" fill="#BFD4E4"/>
<path d="M10.1375 18.582C10.1375 15.0503 13.0303 12.1642 16.5703 12.1642C20.1102 12.1642 23.0031 15.0883 23.0031 18.6199C22.965 22.1516 20.0721 25.0377 16.5703 24.9997C13.0303 24.9997 10.1375 22.0756 10.1375 18.582ZM16.6083 14.1769C14.2103 14.1769 12.1929 16.1516 12.1929 18.506C12.1548 20.9744 14.1342 22.9491 16.5703 22.987C18.9683 22.987 20.9857 21.0123 20.9857 18.6199C20.9857 16.1896 19.0063 14.1769 16.6083 14.1769Z" fill="#BFD4E4"/>
</svg>
