<svg width="34" height="34" viewBox="0 0 34 34" fill="none" xmlns="http://www.w3.org/2000/svg">
<path fill-rule="evenodd" clip-rule="evenodd" d="M23.0925 12.4853C23.6783 11.8995 23.6783 10.9497 23.0925 10.364C22.5067 9.77817 21.5569 9.77817 20.9712 10.364L16.7285 14.6066L12.4859 10.364C11.9001 9.77817 10.9503 9.77817 10.3646 10.364C9.77877 10.9497 9.77877 11.8995 10.3646 12.4853L14.6072 16.7279L10.3646 20.9706C9.77877 21.5563 9.77877 22.5061 10.3646 23.0919C10.9503 23.6777 11.9001 23.6777 12.4859 23.0919L16.7285 18.8492L20.9712 23.0919C21.5569 23.6777 22.5067 23.6777 23.0925 23.0919C23.6783 22.5061 23.6783 21.5563 23.0925 20.9706L18.8498 16.7279L23.0925 12.4853Z" fill="#BFD4E4"/>
</svg>
