<svg width="34" height="34" viewBox="0 0 34 34" fill="none" xmlns="http://www.w3.org/2000/svg">
<path d="M10.7176 9.15316C10.7176 8.68177 10.7121 8.23778 10.7176 7.78832C10.7231 7.42107 11.0201 7.13056 11.3832 7.12508C11.7518 7.1196 12.0598 7.40462 12.0708 7.78283C12.0819 8.02949 12.0708 8.27615 12.0708 8.52281C12.0708 8.72562 12.0708 8.92843 12.0708 9.1422C14.7884 9.1422 17.484 9.1422 20.2125 9.1422C20.2125 8.85717 20.2125 8.57214 20.2125 8.28711C20.2125 8.12267 20.207 7.96372 20.2125 7.79928C20.2235 7.41559 20.5151 7.12508 20.8837 7.12508C21.2633 7.12508 21.5603 7.42107 21.5658 7.81024C21.5713 8.24874 21.5658 8.68177 21.5658 9.15316C21.6483 9.15316 21.7254 9.15316 21.7969 9.15316C22.3745 9.15316 22.9576 9.15316 23.5352 9.15316C23.9973 9.15316 24.2779 9.42722 24.2779 9.88765C24.2779 12.3323 24.2779 14.2288 24.2779 16.6735C24.2779 17.0956 23.9808 17.4025 23.5902 17.397C23.2052 17.3916 22.9246 17.0901 22.9246 16.6735C22.9246 16.087 22.9246 16.0541 22.9246 15.4676C22.9246 15.3964 22.9246 15.3306 22.9246 15.2538C18.3972 15.2538 13.8917 15.2538 9.35328 15.2538C9.35328 15.3251 9.35328 15.4018 9.35328 15.4786C9.35328 18.285 9.35328 21.086 9.35328 23.8924C9.35328 24.4624 9.61184 24.7146 10.1785 24.7146C14.1558 24.7146 18.1386 24.7146 22.1159 24.7146C22.6661 24.7146 22.9191 24.4624 22.9191 23.9143C22.9191 23.5196 22.9191 23.6731 22.9191 23.2785C22.9191 22.8619 23.2052 22.5604 23.5847 22.5549C23.9808 22.5495 24.2724 22.8564 24.2724 23.2785C24.2724 23.8156 24.3054 23.8047 24.2339 24.3309C24.0964 25.3668 23.2547 26.0575 22.204 26.0575C20.3776 26.063 18.5567 26.0575 16.7303 26.0575C14.5299 26.0575 12.3349 26.0575 10.1344 26.0575C8.86918 26.063 8 25.2024 8 23.9143C8 19.2552 8 14.6016 8 9.94247C8 9.4053 8.25305 9.15316 8.79217 9.15316C9.36979 9.15316 9.95291 9.15316 10.5305 9.15316C10.5855 9.15316 10.6406 9.15316 10.7176 9.15316ZM21.5713 10.518C21.5713 10.9839 21.5768 11.4279 21.5713 11.8719C21.5658 12.2391 21.2688 12.5296 20.9112 12.5406C20.5426 12.5461 20.2345 12.2611 20.218 11.8828C20.2125 11.7349 20.218 11.5869 20.218 11.4389C20.218 11.1319 20.218 10.825 20.218 10.518C17.4895 10.518 14.7939 10.518 12.0763 10.518C12.0763 10.7098 12.0763 10.8907 12.0763 11.0716C12.0763 11.3347 12.0819 11.5923 12.0763 11.8554C12.0653 12.2501 11.7683 12.5406 11.3887 12.5351C11.0201 12.5296 10.7286 12.2337 10.7231 11.85C10.7176 11.406 10.7231 10.9675 10.7231 10.518C10.261 10.518 9.82088 10.518 9.38079 10.518C9.38079 11.6472 9.38079 12.7599 9.38079 13.878C13.9027 13.878 18.4082 13.878 22.9246 13.878C22.9246 12.7544 22.9246 11.6362 22.9246 10.518C22.468 10.518 22.0334 10.518 21.5713 10.518Z" fill="#BFD4E4"/>
<path d="M18.9204 20.6964C19.2504 20.9431 19.5805 21.1952 19.9106 21.4419C20.1526 21.6228 20.2626 21.864 20.1966 22.1599C20.0811 22.6478 19.531 22.8396 19.1074 22.5272C18.5243 22.0996 17.9412 21.6557 17.358 21.2226C17.061 20.9979 16.7584 20.7787 16.4614 20.5539C16.0378 20.236 16.0323 19.7317 16.4504 19.4138C17.336 18.7451 18.2217 18.0819 19.1129 17.4241C19.4375 17.1829 19.8446 17.2377 20.0756 17.5392C20.3067 17.8352 20.2516 18.2463 19.9381 18.4984C19.773 18.63 19.6025 18.7506 19.432 18.8821C19.2614 19.0082 19.0964 19.1343 18.9259 19.2603C18.9259 19.2768 18.9259 19.2932 18.9259 19.3042C18.9974 19.3042 19.0634 19.3042 19.1349 19.3042C21.4729 19.3042 23.8109 19.3042 26.1489 19.3042C26.2534 19.3042 26.3634 19.2987 26.4624 19.3206C26.8035 19.3919 27.0345 19.7153 26.996 20.0551C26.9575 20.395 26.6715 20.6526 26.3139 20.6526C25.1917 20.6581 24.0694 20.6526 22.9417 20.6526C21.6049 20.6526 20.2736 20.6526 18.9369 20.6526C18.9314 20.669 18.9259 20.68 18.9204 20.6964Z" fill="#BFD4E4"/>
</svg>
