<svg xmlns="http://www.w3.org/2000/svg" width="19" height="20" fill="none" viewBox="0 0 19 20">
  <path fill="#BFD4E4" d="M2.718 2.153c0-.471-.006-.915 0-1.365a.674.674 0 0 1 .665-.663.674.674 0 0 1 .688.658c.01.246 0 .493 0 .74v.62h8.142v-.856c0-.164-.006-.323 0-.488a.674.674 0 0 1 .67-.674.68.68 0 0 1 .683.685c.005.439 0 .872 0 1.343h1.97c.461 0 .742.274.742.735v6.786c0 .422-.297.729-.688.723-.385-.005-.665-.307-.665-.723v-1.42H1.353v8.638c0 .57.259.823.825.823h11.938c.55 0 .803-.253.803-.8v-.636c0-.417.286-.719.666-.724.396-.005.687.301.687.724 0 .537.033.526-.038 1.052-.138 1.036-.98 1.727-2.03 1.727-1.826.005-3.647 0-5.474 0H2.134C.87 19.063 0 18.201 0 16.913V2.942c0-.537.253-.789.792-.789h1.926ZM13.57 3.518c0 .466.006.91 0 1.354a.681.681 0 0 1-.66.669.682.682 0 0 1-.693-.658c-.005-.148 0-.296 0-.444v-.921H4.076v.554c0 .263.006.52 0 .783-.01.395-.308.686-.687.68a.679.679 0 0 1-.666-.685c-.005-.444 0-.883 0-1.332H1.381v3.36h13.544v-3.36H13.57Z"/>
  <path fill="#BFD4E4" d="M10.92 13.696c.33.247.66.5.99.746.243.18.353.422.287.718-.116.488-.666.68-1.09.367-.583-.427-1.166-.871-1.749-1.304-.297-.225-.6-.444-.897-.67-.423-.317-.429-.821-.01-1.14.885-.668 1.77-1.331 2.662-1.989.325-.241.732-.186.963.115.23.296.176.707-.138.96-.165.131-.336.252-.506.383l-.506.378v.044h7.223c.104 0 .214-.005.313.017a.678.678 0 0 1 .534.734.676.676 0 0 1-.682.598c-1.122.005-2.245 0-3.372 0h-4.005l-.017.043Z"/>
</svg>
