<svg width="34" height="34" viewBox="0 0 34 34" fill="none" xmlns="http://www.w3.org/2000/svg">
<path d="M17.1689 27C17.0433 27 16.9491 27 16.8235 27C16.6351 26.8366 16.4153 26.7385 16.2583 26.5425C15.8187 26.0849 15.4105 25.6274 15.0023 25.1698C13.809 23.8626 12.6472 22.5553 11.4225 21.2807C9.47564 19.2218 8.6592 16.7707 9.13022 13.9274C9.88385 9.18854 14.3742 6.11647 18.8646 7.22765C23.7632 8.43686 26.3695 14.0581 24.2656 18.7969C23.826 19.8101 23.1666 20.6598 22.413 21.4441C20.8429 23.1109 19.3042 24.8103 17.7656 26.5098C17.5772 26.7059 17.3574 26.8366 17.1689 27ZM16.2269 15.9209C16.2269 15.8883 16.2269 15.8556 16.2269 15.8229C15.8501 15.4634 15.5047 15.1039 15.1279 14.7444C14.751 14.3849 14.3114 14.3849 13.9346 14.7444C13.7462 14.9405 13.5578 15.1039 13.4008 15.3C13.0868 15.6595 13.0554 16.117 13.4008 16.4765C14.123 17.2609 14.8767 18.0779 15.6303 18.8623C15.9443 19.2218 16.4467 19.2218 16.7607 18.895C18.0796 17.555 19.3984 16.1824 20.6859 14.8098C21.0941 14.3849 21.0941 13.862 20.6545 13.4371C20.5289 13.3064 20.3719 13.143 20.2463 13.0123C19.8067 12.5547 19.367 12.5547 18.9274 13.0123C18.0796 13.8947 17.2003 14.8098 16.3525 15.6922C16.2897 15.7902 16.2583 15.8556 16.2269 15.9209Z" fill="#BFD4E4"/>
</svg>
