<svg width="16" height="16" viewBox="0 0 16 16" fill="none" xmlns="http://www.w3.org/2000/svg">
<path d="M6.03921 12.4662L6.03921 11.9492C6.03921 11.8151 6.15467 11.7098 6.29021 11.7098L11.5412 11.7098C11.6065 11.7098 11.6617 11.6572 11.6617 11.5949L11.6617 4.40445C11.6617 4.34221 11.6065 4.28955 11.5412 4.28955L6.29523 4.28955C6.15467 4.28955 6.04423 4.17945 6.04423 4.05019L6.04423 3.53317C6.04423 3.39912 6.15969 3.2938 6.29523 3.2938L12.5 3.2938C12.6155 3.2938 12.7059 3.37997 12.7059 3.49008L12.7059 12.5093C12.7059 12.6194 12.6155 12.7056 12.5 12.7056L6.29021 12.7056C6.14965 12.7056 6.03921 12.5955 6.03921 12.4662Z" fill="#64B55F"/>
<path d="M9.56865 8.05372L6.02733 5.64697V7.15853H3.55149C3.40737 7.15853 3.29413 7.27104 3.29413 7.40312V8.65541C3.29413 8.79238 3.41252 8.9 3.55149 8.9H6.02733V10.3529L9.56865 8.05372Z" fill="#64B55F"/>
</svg>
