<svg width="16" height="16" viewBox="0 0 16 16" fill="none" xmlns="http://www.w3.org/2000/svg">
<path d="M10.4189 3.53331V4.05033C10.4189 4.18438 10.3036 4.2897 10.1684 4.2897H4.92714C4.862 4.2897 4.80688 4.34236 4.80688 4.40459V11.5951C4.80688 11.6573 4.862 11.71 4.92714 11.71H10.1633C10.3036 11.71 10.4139 11.8201 10.4139 11.9493V12.4663C10.4139 12.6004 10.2986 12.7057 10.1633 12.7057H3.97009C3.85484 12.7057 3.76465 12.6195 3.76465 12.5094V3.49022C3.76465 3.38012 3.85484 3.29395 3.97009 3.29395H10.1684C10.3087 3.29395 10.4189 3.40405 10.4189 3.53331Z" fill="#F07A7A"/>
<path d="M13.1764 8.05372L9.63506 5.64697V7.15853H7.15922C7.0151 7.15853 6.90186 7.27104 6.90186 7.40312V8.65541C6.90186 8.79238 7.02024 8.9 7.15922 8.9H9.63506V10.3529L13.1764 8.05372Z" fill="#F07A7A"/>
</svg>
