<svg xmlns="http://www.w3.org/2000/svg" width="22" height="22" fill="none" viewBox="0 0 22 22">
  <path fill="#BFD4E4" d="M11 0c6.072 0 11 4.928 11 11s-4.928 11-11 11S0 17.023 0 11C0 4.928 4.928 0 11 0Zm8.76 11A8.741 8.741 0 0 0 11 2.24c-4.828 0-8.76 3.932-8.76 8.76 0 4.828 3.932 8.76 8.76 8.76 4.828 0 8.76-3.932 8.76-8.76Z"/>
  <path fill="#BFD4E4" d="M12.095 8.511v1.792c0 .15.05.299.15.398.845.896 1.741 1.742 2.588 2.589.348.348.447.846.248 1.244s-.597.697-1.045.647c-.249-.05-.547-.15-.746-.299l-3.136-3.135c-.2-.2-.349-.448-.349-.747V6.47c0-.547.448-.995.996-1.045.498-.05.995.25 1.145.747.05.15.05.348.05.498.099.647.099 1.244.099 1.841Z"/>
</svg>
