<svg width="34" height="34" viewBox="0 0 34 34" fill="none" xmlns="http://www.w3.org/2000/svg">
<path d="M17 7C22.5204 7 27 11.4796 27 17C27 22.5204 22.5204 27 17 27C11.4796 27 7 22.4751 7 17C7 11.4796 11.4796 7 17 7ZM24.9638 17C24.9638 12.5656 21.3891 9.0362 17 9.0362C12.6109 9.0362 9.0362 12.6109 9.0362 17C9.0362 21.3891 12.6109 24.9638 17 24.9638C21.3891 24.9638 24.9638 21.3891 24.9638 17Z" fill="#BFD4E4"/>
<path d="M17.9954 14.7375C17.9954 15.2805 17.9954 15.8235 17.9954 16.3665C17.9954 16.5023 18.0407 16.638 18.1312 16.7285C18.9004 17.543 19.7149 18.3122 20.4841 19.0814C20.8009 19.3982 20.8914 19.8507 20.7104 20.2127C20.5294 20.5746 20.1674 20.8461 19.7602 20.8009C19.5339 20.7556 19.2624 20.6651 19.0814 20.5294C18.1312 19.5792 17.181 18.6289 16.2307 17.6787C16.0497 17.4977 15.914 17.2715 15.914 17C15.914 15.6425 15.914 14.2851 15.914 12.8823C15.914 12.3846 16.3212 11.9774 16.819 11.9321C17.2715 11.8869 17.724 12.1584 17.8597 12.6108C17.905 12.7466 17.905 12.9276 17.905 13.0633C17.9954 13.6516 17.9954 14.1946 17.9954 14.7375Z" fill="#BFD4E4"/>
</svg>
