<svg width="34" height="34" viewBox="0 0 34 34" fill="none" xmlns="http://www.w3.org/2000/svg">
<path fill-rule="evenodd" clip-rule="evenodd" d="M23.092 12.4853C23.6778 11.8995 23.6778 10.9497 23.092 10.364C22.5062 9.77817 21.5565 9.77817 20.9707 10.364L16.728 14.6066L12.4854 10.364C11.8996 9.77817 10.9499 9.77817 10.3641 10.364C9.77828 10.9497 9.77828 11.8995 10.3641 12.4853L14.6067 16.7279L10.3641 20.9706C9.77828 21.5563 9.77828 22.5061 10.3641 23.0919C10.9499 23.6777 11.8996 23.6777 12.4854 23.0919L16.728 18.8492L20.9707 23.0919C21.5565 23.6777 22.5062 23.6777 23.092 23.0919C23.6778 22.5061 23.6778 21.5563 23.092 20.9706L18.8493 16.7279L23.092 12.4853Z" fill="#BFD4E4"/>
</svg>
