<?xml version="1.0" standalone="no"?>
<!DOCTYPE svg PUBLIC "-//W3C//DTD SVG 20010904//EN"
 "http://www.w3.org/TR/2001/REC-SVG-20010904/DTD/svg10.dtd">
<svg version="1.0" xmlns="http://www.w3.org/2000/svg"
 width="5000.000000pt" height="5004.000000pt" viewBox="0 0 5000.000000 5004.000000"
 preserveAspectRatio="xMidYMid meet">

<g transform="translate(0.000000,5004.000000) scale(0.100000,-0.100000)"
fill="#000000" stroke="none">
<path d="M24500 45571 l0 -719 87 -1 86 -2 -7 573 c-4 315 -9 590 -12 611 -7
41 10 52 21 15 16 -53 339 -608 365 -628 3 -3 10 -12 13 -20 4 -8 17 -31 30
-51 12 -19 33 -54 46 -77 14 -23 28 -42 33 -42 4 0 8 -5 8 -11 0 -16 111 -189
121 -189 5 0 8 -4 6 -9 -1 -5 20 -46 48 -90 l50 -81 92 0 93 0 0 720 0 720
-85 0 -85 0 1 -492 c0 -271 4 -540 8 -598 5 -58 7 -107 5 -109 -1 -2 -28 48
-60 110 -66 133 -190 341 -378 634 -74 116 -169 265 -211 333 l-76 122 -99 0
-100 0 0 -719z"/>
<path d="M24918 42976 c0 -22 -2 -52 -4 -66 -8 -80 -102 -1048 -103 -1060 0
-8 -11 -121 -25 -250 -13 -129 -24 -242 -24 -250 0 -8 -5 -53 -10 -100 -6 -47
-10 -92 -10 -100 -1 -8 -46 -472 -101 -1030 -55 -558 -102 -1040 -105 -1070
-3 -30 -10 -101 -16 -157 -6 -56 -10 -105 -8 -110 1 -4 -1 -21 -5 -38 -4 -16
-9 -64 -12 -105 -3 -41 -21 -230 -41 -420 -19 -190 -33 -357 -31 -372 2 -16 0
-28 -5 -28 -4 0 -7 -10 -7 -22 1 -13 -6 -90 -15 -173 -8 -82 -16 -159 -16
-170 1 -11 -26 -285 -58 -610 -33 -324 -60 -597 -60 -605 0 -8 -3 -37 -6 -65
-4 -27 -37 -363 -75 -746 -38 -384 -71 -701 -75 -707 -3 -5 -45 -12 -93 -16
-217 -18 -783 -102 -783 -117 0 -5 -6 -6 -14 -3 -19 7 -330 -58 -601 -126
-389 -98 -777 -222 -1141 -364 -135 -52 -389 -158 -423 -176 -9 -5 -62 -30
-119 -55 -257 -115 -627 -310 -927 -488 -319 -190 -904 -593 -897 -618 1 -6
-2 -8 -7 -5 -5 4 -15 0 -23 -7 -7 -7 -34 -28 -60 -46 -26 -19 -45 -38 -41 -44
3 -6 2 -7 -4 -4 -12 7 -200 -145 -410 -330 -80 -71 -163 -144 -186 -165 l-42
-36 -515 424 c-283 234 -522 428 -530 431 -8 4 -22 15 -30 25 -8 9 -213 179
-454 377 -340 279 -442 358 -453 350 -7 -6 -10 -16 -6 -22 3 -5 2 -7 -4 -4 -5
3 -27 -11 -48 -33 l-37 -38 38 -46 c21 -25 42 -46 46 -46 4 0 8 -4 8 -10 0
-10 1008 -1242 1044 -1275 12 -11 22 -24 23 -28 4 -16 126 -157 136 -157 6 0
8 -3 4 -6 -5 -5 114 -156 157 -200 6 -6 22 -26 36 -44 14 -18 46 -59 73 -91
26 -31 47 -61 47 -66 0 -5 -25 -37 -55 -70 -30 -33 -51 -64 -47 -68 4 -3 2 -5
-4 -3 -26 8 -634 -731 -634 -771 0 -6 -4 -11 -8 -11 -11 0 -182 -244 -182
-259 0 -6 -4 -11 -9 -11 -11 0 -204 -298 -204 -316 0 -8 -3 -12 -6 -9 -6 7
-70 -95 -71 -112 0 -7 -3 -13 -8 -13 -4 0 -19 -21 -32 -47 -14 -27 -28 -50
-31 -53 -8 -8 -146 -251 -160 -285 -8 -16 -17 -32 -20 -35 -13 -10 -249 -490
-324 -660 -97 -218 -247 -597 -249 -627 0 -13 -4 -23 -8 -23 -9 0 -147 -421
-202 -615 -82 -292 -185 -729 -211 -898 -3 -18 -18 -111 -35 -207 -16 -96 -32
-197 -34 -225 -3 -27 -8 -63 -11 -80 -3 -16 -14 -106 -25 -198 -10 -93 -21
-172 -25 -175 -5 -5 -350 -42 -630 -68 -38 -3 -176 -17 -305 -30 -129 -13
-273 -26 -320 -30 -46 -3 -92 -9 -101 -14 -9 -5 -19 -7 -22 -4 -6 6 -654 -55
-677 -63 -8 -3 -24 -5 -35 -4 -11 1 -180 -15 -375 -34 -195 -20 -362 -37 -370
-37 -8 0 -51 -4 -95 -9 -44 -5 -107 -11 -140 -14 -241 -21 -302 -27 -315 -32
-8 -4 -21 -5 -29 -4 -20 4 -462 -39 -481 -46 -8 -3 -24 -5 -36 -4 -11 1 -112
-7 -225 -19 -112 -11 -226 -23 -254 -25 -27 -3 -140 -14 -250 -25 -110 -12
-225 -23 -255 -25 -30 -3 -73 -7 -95 -9 -22 -3 -146 -14 -275 -26 -129 -12
-242 -24 -250 -27 -8 -3 -24 -5 -35 -4 -11 1 -83 -6 -160 -14 -77 -9 -147 -16
-155 -16 -15 -1 -999 -96 -1080 -104 -25 -3 -209 -21 -410 -40 -201 -20 -378
-37 -395 -39 -16 -2 -141 -14 -277 -27 l-248 -23 0 -78 c0 -48 4 -78 11 -78 5
0 146 -13 312 -30 166 -16 325 -31 352 -34 28 -2 145 -13 260 -25 116 -11 217
-20 225 -20 8 -1 188 -19 400 -40 212 -22 410 -42 440 -45 30 -3 195 -19 365
-36 171 -17 342 -32 380 -34 39 -3 77 -7 85 -9 12 -4 830 -85 1033 -102 29 -3
187 -18 352 -35 165 -16 327 -32 360 -35 33 -3 101 -10 150 -15 50 -6 99 -10
110 -10 23 -1 58 -4 255 -25 80 -9 153 -14 162 -11 10 2 20 0 23 -5 4 -5 16
-8 28 -8 12 1 278 -24 591 -55 313 -31 576 -56 585 -55 9 1 23 -1 31 -4 8 -3
258 -29 555 -57 297 -28 556 -53 575 -55 92 -12 361 -36 372 -34 7 1 20 0 28
-4 8 -3 69 -10 135 -17 71 -6 122 -16 127 -23 4 -7 8 -36 8 -64 0 -29 3 -53 8
-53 4 0 8 -33 9 -73 2 -90 51 -430 98 -688 39 -211 143 -671 154 -679 3 -3 7
-16 9 -30 12 -118 323 -1058 353 -1068 5 -2 7 -7 4 -12 -3 -4 26 -82 63 -172
257 -611 545 -1145 916 -1698 107 -159 322 -455 412 -568 11 -13 50 -63 88
-110 38 -48 76 -94 85 -103 9 -9 30 -34 46 -55 36 -45 55 -67 215 -247 67 -75
120 -143 117 -150 -3 -6 -121 -153 -264 -326 -142 -173 -257 -318 -256 -323 2
-4 -1 -8 -6 -8 -5 0 -52 -53 -105 -117 -53 -65 -102 -125 -109 -133 -45 -49
-477 -580 -477 -585 0 -4 -9 -14 -20 -23 -40 -34 -279 -336 -273 -345 3 -6 2
-7 -4 -4 -10 7 -73 -64 -73 -82 0 -5 -5 -11 -10 -13 -6 -2 14 -27 44 -57 l54
-53 338 277 c187 153 348 286 359 296 11 10 126 105 255 210 129 105 242 200
252 210 9 11 19 19 22 19 9 0 517 418 544 447 12 13 22 21 22 18 0 -3 38 26
84 64 46 39 87 71 91 71 4 0 40 -29 79 -65 40 -36 76 -61 80 -57 4 4 6 2 4 -5
-11 -39 950 -797 986 -776 6 3 8 2 4 -2 -9 -9 225 -168 442 -300 279 -169 710
-405 710 -388 0 4 4 3 8 -4 8 -12 231 -121 373 -183 41 -18 97 -43 126 -56 28
-13 58 -24 65 -24 8 0 18 -4 23 -9 28 -25 561 -225 815 -304 272 -86 745 -212
868 -233 15 -2 104 -20 197 -39 94 -19 186 -37 205 -40 19 -2 103 -15 185 -29
83 -13 173 -27 200 -30 28 -3 84 -10 125 -15 41 -6 102 -12 135 -15 33 -3 79
-8 102 -12 40 -6 42 -8 48 -48 3 -22 33 -320 66 -661 33 -341 62 -636 64 -655
2 -19 25 -258 51 -530 26 -272 51 -497 56 -498 4 -2 5 -8 2 -14 -7 -11 58
-708 66 -703 3 2 5 -22 5 -53 0 -32 4 -86 8 -122 4 -36 10 -94 13 -130 2 -36
16 -168 29 -295 14 -126 25 -240 25 -253 0 -13 20 -226 45 -475 46 -454 48
-479 60 -617 3 -41 8 -86 11 -100 3 -14 8 -53 10 -88 2 -35 24 -269 49 -520
25 -251 47 -479 50 -507 3 -27 12 -122 21 -210 8 -88 18 -185 20 -215 3 -30
19 -188 35 -350 17 -162 31 -302 31 -310 0 -8 13 -145 29 -305 16 -159 31
-310 33 -335 8 -101 19 -206 22 -220 1 -8 3 -32 3 -52 l1 -36 79 0 79 0 6 68
c4 37 9 98 12 136 3 38 20 215 38 394 18 179 36 352 39 385 3 33 69 706 146
1495 76 789 140 1442 140 1450 0 8 25 254 54 545 30 292 54 549 53 573 0 23 1
43 5 45 8 3 92 885 85 896 -4 5 -2 12 4 16 5 3 9 16 9 28 -1 12 6 92 14 177 9
85 19 182 21 215 3 33 8 80 11 105 3 25 43 431 89 903 46 472 86 860 88 862 2
3 83 13 179 24 253 29 547 72 639 92 25 6 59 12 75 15 44 6 138 24 155 31 8 3
30 7 48 9 92 9 580 134 880 225 302 92 747 258 1057 394 273 120 871 425 900
458 6 7 17 13 25 15 43 10 620 376 620 394 0 5 4 7 8 4 13 -8 499 348 676 496
185 154 258 217 372 320 72 65 135 118 139 118 4 0 45 -31 90 -70 46 -38 85
-66 89 -63 3 4 6 2 6 -4 0 -6 37 -41 83 -77 45 -37 102 -84 127 -105 129 -110
218 -179 224 -174 3 4 6 1 6 -5 0 -13 551 -468 562 -464 5 1 8 -2 8 -7 0 -11
482 -407 492 -403 4 1 8 -2 8 -7 0 -5 61 -60 136 -121 l137 -112 54 54 53 54
-796 968 c-437 533 -801 977 -807 986 -9 15 13 44 135 181 480 539 895 1118
1240 1731 147 261 407 787 420 848 2 8 6 17 10 20 9 7 122 281 193 470 282
748 469 1525 560 2323 13 115 25 210 27 213 6 6 369 44 415 44 23 -1 44 3 47
9 3 5 14 7 25 4 10 -2 137 7 282 22 329 32 307 30 315 37 3 4 12 4 19 2 8 -3
87 2 177 11 89 9 178 18 198 20 311 29 518 51 515 55 -2 4 8 5 23 3 15 -2 279
21 587 52 308 31 567 57 575 57 13 0 58 5 245 23 374 37 1422 139 1555 151 96
9 182 18 190 21 8 2 54 6 103 9 48 3 98 9 111 14 13 5 26 6 29 4 3 -3 49 0
103 6 55 6 126 13 159 16 33 2 633 61 1333 129 700 69 1277 125 1283 125 5 0
9 35 9 78 l0 78 -297 28 c-164 16 -314 30 -333 32 -788 78 -1259 123 -1275
124 -11 0 -193 18 -405 40 -212 22 -401 39 -422 37 -20 -1 -35 0 -32 4 3 6
-73 14 -226 25 -30 3 -113 11 -185 19 -71 8 -139 14 -150 14 -11 0 -149 13
-307 30 -157 16 -294 30 -305 30 -10 0 -173 16 -363 36 -190 19 -359 34 -377
32 -17 -1 -30 0 -28 3 2 3 -200 25 -448 49 -249 24 -465 45 -482 47 -43 5
-747 72 -765 73 -8 0 -121 12 -250 25 -129 14 -264 27 -300 31 -331 29 -1341
132 -1346 137 -3 4 -10 42 -15 85 -30 273 -48 408 -80 603 -37 227 -100 536
-140 690 -16 63 -32 128 -35 144 -16 84 -125 453 -204 686 -149 444 -307 823
-518 1245 -227 455 -456 839 -741 1245 -75 107 -182 252 -253 345 -93 120
-297 371 -359 440 -191 213 -249 281 -249 290 0 6 8 20 18 31 39 42 482 583
482 589 0 3 11 16 24 28 13 12 263 314 556 671 l532 649 -54 53 -53 54 -355
-291 c-195 -160 -362 -298 -370 -305 -8 -8 -262 -217 -565 -465 -302 -248
-549 -455 -547 -461 1 -5 -1 -7 -6 -4 -5 3 -35 -17 -68 -44 l-59 -48 -41 36
c-24 21 -107 94 -187 165 -79 70 -202 175 -273 233 -268 220 -753 572 -768
557 -3 -4 -6 -2 -6 4 0 21 -393 266 -695 433 -202 112 -605 311 -616 304 -5
-3 -9 -1 -9 4 0 24 -621 275 -968 392 -247 82 -590 182 -602 175 -5 -3 -10 -1
-12 3 -4 12 -265 75 -277 67 -6 -3 -11 -2 -11 3 0 14 -554 127 -670 137 -25 2
-53 6 -63 10 -9 4 -26 5 -37 2 -11 -3 -20 -2 -20 2 0 5 -47 14 -105 21 -58 6
-120 14 -138 16 -17 2 -84 9 -147 15 -63 7 -119 15 -124 19 -7 7 -176 1641
-176 1705 0 11 -12 135 -26 275 -14 140 -27 278 -30 305 -3 37 -162 1663 -198
2030 -2 22 -37 378 -77 790 -40 413 -76 752 -81 753 -4 2 -5 8 -2 14 9 14
-189 2037 -198 2032 -4 -3 -5 2 -2 11 4 9 -2 98 -11 199 l-18 183 -79 0 -78 0
-2 -41z m2 -9728 l0 -8053 -148 150 c-81 83 -286 294 -457 470 -170 176 -391
403 -490 505 -99 102 -217 223 -262 270 l-82 85 20 210 c11 116 43 437 70 715
93 947 158 1614 209 2135 27 286 57 583 65 660 21 206 68 691 235 2415 28 289
53 545 55 570 3 25 10 92 15 150 18 173 19 185 45 455 14 143 27 280 30 305 7
70 5 44 200 2050 286 2925 405 4136 444 4510 20 190 28 266 38 378 3 39 8 72
9 72 2 0 4 -3624 4 -8052z m-986 -323 c-120 -1225 -164 -1680 -204 -2080 -41
-407 -267 -2711 -277 -2820 -3 -33 -9 -66 -12 -73 -5 -9 -37 11 -107 68 -372
304 -1277 1046 -1389 1140 -44 36 -309 255 -590 485 -280 230 -555 456 -610
501 -55 46 -284 234 -510 419 -454 372 -429 352 -505 416 -30 25 -158 130
-285 234 -126 103 -231 191 -233 195 -6 15 455 397 638 529 308 223 568 396
805 533 840 487 1742 828 2680 1012 299 58 641 109 656 96 4 -3 -22 -297 -57
-655z m2307 630 c600 -87 1162 -230 1739 -440 80 -29 158 -56 174 -59 105 -25
867 -381 988 -462 29 -20 109 -69 179 -109 328 -191 683 -427 905 -601 270
-213 565 -461 563 -473 0 -4 -55 -51 -122 -106 -415 -338 -1411 -1156 -1457
-1195 -30 -25 -282 -233 -560 -461 -278 -229 -516 -425 -530 -437 -14 -12
-243 -199 -510 -417 -267 -218 -498 -411 -515 -429 -39 -42 -251 -216 -264
-216 -5 0 -67 -47 -138 -105 -106 -87 -129 -102 -135 -88 -11 30 -81 723 -173
1708 -25 275 -50 520 -55 545 -5 25 -29 268 -55 540 -43 459 -101 1049 -195
2000 -35 360 -52 549 -67 748 l-6 82 31 0 c16 0 108 -11 203 -25z m6248 -1197
c-28 -35 -84 -103 -123 -151 -67 -83 -2023 -2466 -2941 -3582 -230 -280 -698
-850 -1038 -1265 -341 -415 -627 -762 -636 -772 -17 -17 -29 -16 -626 45 -27
3 -99 10 -160 16 -60 6 -125 14 -144 17 l-34 6 2874 2874 c1581 1581 2876
2874 2877 2874 2 0 -20 -28 -49 -62z m-11566 -3396 c1255 -1255 2284 -2287
2285 -2292 2 -6 -6 -10 -17 -10 -24 0 -827 -77 -887 -85 l-41 -6 -109 133
c-59 73 -160 196 -224 273 -64 77 -489 595 -945 1150 -456 556 -832 1012 -835
1015 -4 3 -38 44 -76 91 -38 47 -107 132 -154 188 -47 57 -109 133 -139 170
-30 36 -152 185 -272 331 -549 668 -765 931 -900 1096 -81 99 -160 195 -177
214 -45 53 -727 886 -807 986 -188 235 -423 467 3298 -3254z m-1987 1410 c316
-385 548 -668 1620 -1972 215 -261 643 -783 953 -1160 309 -376 559 -686 554
-687 -4 -2 -561 -57 -1238 -123 -676 -66 -1482 -145 -1790 -175 -2164 -212
-2618 -256 -2622 -251 -2 2 5 73 17 158 204 1492 792 2899 1708 4093 170 221
435 536 451 534 3 0 160 -188 347 -417z m12643 229 c634 -737 1158 -1621 1504
-2536 182 -482 331 -1015 422 -1513 35 -190 83 -524 78 -539 -3 -6 -14 -10
-26 -8 -12 2 -51 6 -87 9 -159 14 -737 69 -960 91 -135 13 -477 47 -760 75
-283 27 -747 73 -1030 100 -1207 118 -1560 153 -2000 195 -475 46 -745 74
-768 81 -11 3 226 308 373 479 28 33 229 276 445 540 217 264 539 656 715 870
176 215 385 469 464 565 79 96 160 195 181 220 21 25 228 277 461 560 232 283
466 567 518 631 53 64 143 174 200 243 l104 127 46 -52 c25 -29 79 -91 120
-138z m-6854 -5759 c-44 -43 -172 -168 -285 -278 -113 -109 -369 -359 -570
-554 -201 -195 -406 -395 -457 -444 l-91 -88 -209 21 c-209 21 -785 77 -1738
170 -584 57 -1291 127 -2105 206 -311 31 -725 71 -920 90 -195 19 -422 41
-505 50 -82 8 -384 37 -670 65 -286 28 -747 73 -1025 101 -278 27 -737 72
-1020 99 -744 73 -1550 152 -2135 209 -636 63 -1399 137 -2050 201 -2110 206
-2237 219 -2243 225 -3 3 3619 5 8049 5 l8054 0 -80 -78z m16540 67 c-22 -4
-125 -15 -230 -24 -203 -17 -210 -18 -355 -35 -52 -6 -322 -33 -600 -60 -278
-27 -734 -72 -1015 -99 -280 -28 -744 -73 -1030 -101 -286 -28 -745 -73 -1020
-100 -275 -27 -527 -52 -560 -55 -33 -3 -287 -27 -565 -55 -2440 -239 -3430
-336 -4045 -395 -258 -24 -495 -47 -525 -50 -105 -11 -1147 -114 -1665 -165
-286 -28 -749 -73 -1030 -101 -797 -78 -1500 -147 -1734 -169 l-215 -21 -75
74 c-42 41 -335 325 -651 632 -316 307 -615 598 -665 646 l-90 89 8055 -1
c4430 -1 8037 -5 8015 -10z m-16345 -15859 c-3 -201 -7 -361 -8 -357 -2 8 -34
330 -97 972 -19 198 -66 684 -105 1080 -39 396 -78 790 -86 875 -8 85 -75 774
-149 1530 -74 756 -182 1861 -240 2455 -143 1471 -201 2064 -225 2295 -16 161
-62 649 -85 905 -3 33 -8 80 -10 105 -12 116 -16 159 -35 360 -12 118 -28 280
-36 360 -36 353 -156 1565 -274 2775 -28 286 -60 609 -71 718 l-20 197 193
199 c106 109 429 442 718 739 l525 539 5 -7691 c3 -4230 3 -7855 0 -8056z
m8670 14938 c0 -7 -13 -105 -30 -218 -223 -1542 -853 -2985 -1831 -4195 -141
-174 -310 -367 -319 -363 -4 2 -218 260 -476 573 -257 314 -569 694 -694 845
-124 151 -383 466 -575 700 -419 510 -490 596 -1080 1314 -253 307 -478 582
-499 610 -22 28 -63 80 -93 115 -30 35 -52 65 -50 67 2 3 42 9 88 15 60 7
5447 540 5547 548 6 1 12 -5 12 -11z m-16797 -28 c177 -17 457 -44 622 -60
682 -69 1103 -110 1315 -130 124 -11 630 -61 1125 -110 495 -49 934 -92 975
-95 273 -24 1220 -122 1226 -127 4 -4 -94 -127 -316 -397 -205 -248 -827
-1005 -886 -1077 -27 -33 -256 -312 -509 -619 -253 -308 -490 -596 -526 -640
-36 -44 -226 -276 -423 -515 -197 -239 -456 -555 -577 -702 -120 -146 -223
-269 -228 -272 -5 -3 -58 52 -119 122 -807 930 -1394 1991 -1746 3153 -144
478 -223 850 -310 1467 -6 40 -33 40 377 2z m15613 -6484 c19 -20 -298 236
-714 577 -880 722 -982 806 -1232 1012 -335 275 -825 678 -874 718 -22 18
-133 109 -246 202 -169 139 -2093 1720 -2283 1875 -30 25 -151 125 -269 222
l-214 177 32 323 c17 178 37 391 44 473 7 83 15 153 17 158 3 5 5634 -5624
5739 -5737z m-9070 5678 c3 -27 12 -107 20 -179 25 -219 72 -710 68 -716 -2
-4 -351 -292 -776 -640 -1179 -969 -1862 -1529 -2323 -1908 -1082 -889 -2577
-2115 -2689 -2205 -34 -27 1233 1245 2814 2827 1581 1582 2876 2875 2877 2873
2 -2 6 -25 9 -52z m115 -1171 c12 -103 106 -1050 269 -2728 28 -280 73 -742
101 -1025 117 -1199 138 -1415 155 -1608 9 -111 15 -204 12 -207 -6 -6 -373
47 -554 80 -819 150 -1692 448 -2394 817 -619 325 -1166 697 -1691 1150 -135
116 -140 121 -122 138 10 10 144 121 298 247 407 333 1177 966 1270 1043 44
37 271 224 505 415 234 192 475 390 535 440 61 50 324 267 585 481 261 215
538 442 615 506 232 191 400 325 404 322 2 -2 7 -34 12 -71z m3393 -153 c340
-278 1073 -879 1196 -982 213 -175 1125 -925 1214 -997 50 -41 288 -237 529
-435 241 -199 523 -430 625 -514 103 -84 232 -190 286 -235 l99 -81 -53 -49
c-259 -238 -684 -559 -1090 -824 -578 -376 -1375 -751 -2030 -956 -296 -92
-662 -186 -940 -241 -270 -54 -659 -112 -669 -100 -4 5 21 299 55 654 77 784
146 1491 219 2235 30 308 68 704 85 880 17 176 46 471 65 655 19 184 53 524
75 755 22 231 43 430 46 443 5 22 5 23 27 5 13 -10 130 -106 261 -213z"/>
<path d="M4150 25710 c0 -17 161 -653 168 -664 3 -6 8 -22 10 -36 4 -29 60
-258 69 -280 3 -8 7 -24 8 -36 3 -19 88 -355 101 -396 5 -16 19 -18 99 -18
l94 0 15 53 c38 131 126 455 129 472 2 11 7 27 10 35 15 35 117 434 138 535
12 61 25 113 29 118 3 4 12 -28 18 -70 16 -100 69 -338 138 -618 30 -121 57
-229 59 -240 3 -11 19 -80 36 -152 l31 -133 96 0 97 0 185 653 c101 358 184
660 184 670 0 9 3 17 7 17 4 0 9 12 13 28 3 15 8 37 12 50 7 23 6 23 -87 20
-75 -2 -94 -6 -95 -18 0 -8 -4 -22 -7 -30 -17 -39 -107 -401 -102 -409 3 -5 1
-11 -4 -13 -18 -7 -196 -741 -184 -762 4 -7 2 -8 -5 -1 -11 10 -28 86 -37 164
-3 24 -8 48 -11 53 -4 6 -9 26 -11 45 -3 20 -27 128 -54 242 -28 113 -52 215
-54 226 -3 11 -31 129 -62 262 l-58 243 -96 0 -95 0 -32 -122 c-18 -68 -75
-285 -127 -483 -52 -198 -107 -414 -121 -480 -14 -66 -28 -127 -31 -135 -5
-13 -71 262 -89 370 -3 19 -10 37 -15 38 -5 2 -7 8 -4 13 5 7 -116 548 -132
589 -3 8 -7 22 -8 30 -1 8 -10 52 -20 98 l-18 82 -94 0 c-57 0 -93 -4 -93 -10z"/>
<path d="M45050 25000 l0 -720 405 0 405 0 0 75 0 75 -315 0 -315 0 0 265 0
265 280 0 280 0 0 75 0 75 -280 0 -280 0 0 230 0 230 300 0 300 0 0 75 0 75
-390 0 -390 0 0 -720z"/>
<path d="M24795 5174 c-177 -39 -308 -155 -332 -295 -36 -215 47 -347 283
-448 165 -71 246 -112 282 -145 126 -115 98 -323 -53 -399 -50 -25 -154 -40
-230 -32 -73 7 -203 45 -243 71 -13 9 -26 13 -30 10 -3 -4 -15 -37 -27 -75
l-22 -68 56 -31 c161 -87 359 -99 519 -31 59 26 153 89 147 99 -3 5 4 11 14
15 28 8 76 72 109 142 23 49 27 71 27 143 0 78 -3 90 -34 148 -21 39 -59 85
-95 119 -57 51 -94 72 -308 172 -144 68 -221 157 -221 256 0 188 261 275 504
168 l46 -20 23 70 c22 69 22 71 4 84 -29 21 -152 56 -179 51 -13 -3 -22 -2
-20 2 8 14 -149 9 -220 -6z"/>
</g>
</svg>
