<svg xmlns="http://www.w3.org/2000/svg" width="23" height="18" fill="none" viewBox="0 0 23 18">
  <path fill="#BFD3E3" d="M19.607 0H2.327C1.062 0 0 1.12 0 2.44v13.12C0 16.88 1.063 18 2.393 18h17.28c1.264 0 2.394-1.12 2.394-2.44V2.44C22 1.12 20.937 0 19.607 0ZM7.777 3.824c1.462 0 2.592 1.121 2.592 2.572 0 1.45-1.13 2.571-2.593 2.571-1.462 0-2.592-1.12-2.592-2.571a2.585 2.585 0 0 1 2.592-2.572ZM12.96 14.11H2.592v-.923c0-1.846 3.456-2.901 5.184-2.901 1.729 0 5.185 1.055 5.185 2.9v.924Zm3.988-3.429h1.262l1.13 1.715-1.528 1.714c-.997-.857-1.795-2.044-2.127-3.429a7.133 7.133 0 0 1-.2-1.714c0-.593.067-1.187.2-1.714.332-1.385 1.063-2.572 2.127-3.429l1.528 1.714-1.063 1.715h-1.263c-.133.527-.266 1.12-.266 1.714 0 .593 0 1.187.2 1.714Z"/>
</svg>
