<svg width="34" height="34" viewBox="0 0 34 34" fill="none" xmlns="http://www.w3.org/2000/svg">
<path d="M24.3333 24H9.09524C7.95238 24 7 23.0244 7 21.8537V10.1463C7 8.97561 7.95238 8 9.09524 8H24.3333C25.4762 8 26.4286 8.97561 26.4286 10.1463V21.8537C26.4286 23.0244 25.4762 24 24.3333 24ZM9.09524 9.17073C8.5619 9.17073 8.14286 9.6 8.14286 10.1463V21.8537C8.14286 22.4 8.5619 22.8293 9.09524 22.8293H24.3333C24.8667 22.8293 25.2857 22.4 25.2857 21.8537V10.1463C25.2857 9.6 24.8667 9.17073 24.3333 9.17073H9.09524Z" fill="#BFD4E4"/>
<path d="M13.8576 15.9995C15.12 15.9995 16.1433 14.9762 16.1433 13.7138C16.1433 12.4514 15.12 11.4281 13.8576 11.4281C12.5952 11.4281 11.5719 12.4514 11.5719 13.7138C11.5719 14.9762 12.5952 15.9995 13.8576 15.9995Z" fill="#BFD4E4"/>
<path d="M18.4283 20.5713H9.2854V19.735C9.2854 18.0626 12.333 17.1427 13.8568 17.1427C15.3806 17.1427 18.4283 18.0626 18.4283 19.735V20.5713Z" fill="#BFD4E4"/>
<path d="M21.9706 17.5233H23.0908L24.1092 19.0471L22.7514 20.571C21.8688 19.8091 21.1898 18.7424 20.8843 17.5233C20.7825 17.0281 20.7146 16.5329 20.7146 15.9995C20.7146 15.4662 20.7825 14.971 20.9183 14.4757C21.2238 13.2567 21.8688 12.19 22.7853 11.4281L24.1432 12.9519L23.1248 14.4757H22.0046C21.8688 14.9329 21.7669 15.4662 21.7669 15.9995C21.7669 16.5329 21.8009 17.0662 21.9706 17.5233Z" fill="#BFD4E4"/>
</svg>
