<svg xmlns="http://www.w3.org/2000/svg" width="20" height="18" fill="none" viewBox="0 0 20 18">
  <path fill="#BFD4E4" d="M2.748 15.782h1.568c1.11 0 1.96-.824 1.96-1.902 0-1.014-.85-1.838-1.96-1.901H2.748v-1.331h1.437c.327 0 .654-.063.915-.19.85-.317 1.307-1.204 1.176-2.028-.196-.824-.98-1.458-1.895-1.458H2.748V5.768c0-.064.13-.127.261-.127h1.372c.98-.064 1.699-.634 1.895-1.585.196-1.014-.588-2.028-1.633-2.155H3.009c-.196 0-.326-.063-.261-.253v-.95c0-.444.196-.698.719-.698H18.82c.458.063.654.254.654.697v16.48c0 .126 0 .316-.066.443-.13.317-.457.38-.719.38H3.205c-.261-.063-.457-.19-.457-.444v-1.774Zm9.212-11.98H9.02c-.719 0-1.045.381-1.045 1.015v3.486c0 .634.326 1.014 1.045 1.014h5.88c.719 0 1.045-.38 1.045-1.078V4.754c0-.634-.392-1.015-1.045-1.015-.98.064-1.96.064-2.94.064Z"/>
  <path fill="#BFD4E4" d="M2.878 4.626H1.441c-.523 0-.915-.38-.915-.823 0-.507.392-.888.915-.888h2.875c.522 0 .914.38.914.824 0 .507-.392.887-.914.887H2.878Zm0 5.071H1.506c-.523 0-.915-.317-.915-.824 0-.507.392-.887.915-.887H4.38c.588 0 .915.38.915.887s-.392.824-.915.824H2.878Zm0 3.359h1.438c.522 0 .914.38.914.824 0 .507-.392.887-.914.887H1.44c-.523 0-.915-.38-.915-.887s.392-.824.915-.824h1.437Zm9.016-5.83h2.287c.326 0 .522.126.522.38 0 .253-.196.38-.522.38H9.542c-.327 0-.523-.127-.523-.38 0-.254.196-.38.523-.38h2.352Zm0-1.142H9.608c-.327 0-.523-.127-.523-.38 0-.254.196-.38.523-.38h4.704c.326 0 .522.126.522.38 0 .253-.196.38-.522.38h-2.418Z"/>
</svg>
