<svg width="34" height="34" viewBox="0 0 34 34" fill="none" xmlns="http://www.w3.org/2000/svg">
<path d="M9.74795 23.7817C10.2706 23.7817 10.7933 23.7817 11.316 23.7817C12.4267 23.7817 13.276 22.9577 13.276 21.8803C13.276 20.8662 12.4267 20.0423 11.316 19.9789C10.7933 19.9789 10.336 19.9789 9.74795 19.9789C9.74795 19.5352 9.74795 19.1549 9.74795 18.6479C10.2053 18.6479 10.728 18.6479 11.1853 18.6479C11.512 18.6479 11.8387 18.5845 12.1 18.4577C12.9493 18.1408 13.4067 17.2535 13.276 16.4296C13.08 15.6056 12.296 14.9718 11.3813 14.9718C10.8586 14.9718 10.336 14.9718 9.74795 14.9718C9.74795 14.5282 9.74795 14.1479 9.74795 13.7676C9.74795 13.7042 9.87862 13.6408 10.0093 13.6408C10.4666 13.6408 10.924 13.6408 11.3813 13.6408C12.3613 13.5775 13.08 13.007 13.276 12.0563C13.472 11.0423 12.688 10.0282 11.6426 9.90141C11.12 9.90141 10.5973 9.90141 10.0093 9.90141C9.81329 9.90141 9.68262 9.83803 9.74795 9.64789C9.74795 9.33099 9.74795 9.01408 9.74795 8.69718C9.74795 8.25352 9.94395 8 10.4666 8C10.924 8 11.4466 8 11.904 8C16.4121 8 20.9201 8 25.4282 8C25.5589 8 25.6895 8 25.8202 8C26.2776 8.06338 26.4736 8.25352 26.4736 8.69718C26.4736 10.1549 26.4736 11.5493 26.4736 13.007C26.4736 17.0634 26.4736 21.1197 26.4736 25.1761C26.4736 25.3028 26.4736 25.493 26.4082 25.6197C26.2775 25.9366 25.9509 26 25.6895 26C24.3829 26 23.1415 26 21.8348 26C18.1761 26 14.452 26 10.7933 26C10.5973 26 10.4013 26 10.2053 26C9.94396 25.9366 9.74795 25.8099 9.74795 25.5563C9.74795 24.9225 9.74795 24.4155 9.74795 23.7817ZM18.9601 11.8028C17.9801 11.8028 17.0001 11.8028 16.0201 11.8028C15.3014 11.8028 14.9747 12.1831 14.9747 12.8169C14.9747 13.9577 14.9747 15.162 14.9747 16.3028C14.9747 16.9366 15.3014 17.3169 16.0201 17.3169C17.9801 17.3169 19.9401 17.3169 21.9001 17.3169C22.6188 17.3169 22.9455 16.9366 22.9455 16.2394C22.9455 15.0986 22.9455 13.8944 22.9455 12.7535C22.9455 12.1197 22.5535 11.7394 21.9001 11.7394C20.9201 11.8028 19.9401 11.8028 18.9601 11.8028Z" fill="#BFD4E4"/>
<path d="M9.87834 12.6265C9.421 12.6265 8.89833 12.6265 8.44099 12.6265C7.91831 12.6265 7.52631 12.2462 7.52631 11.8025C7.52631 11.2955 7.91831 10.9152 8.44099 10.9152C9.421 10.9152 10.3357 10.9152 11.3157 10.9152C11.8384 10.9152 12.2304 11.2955 12.2304 11.7392C12.2304 12.2462 11.8384 12.6265 11.3157 12.6265C10.8584 12.6265 10.3357 12.6265 9.87834 12.6265Z" fill="#BFD4E4"/>
<path d="M9.87777 17.6973C9.42043 17.6973 8.96308 17.6973 8.50574 17.6973C7.98307 17.6973 7.59106 17.3804 7.59106 16.8733C7.59106 16.3663 7.98307 15.986 8.50574 15.986C9.09375 15.986 9.68176 15.986 10.2698 15.986C10.6618 15.986 10.9885 15.986 11.3805 15.986C11.9685 15.986 12.2951 16.3663 12.2951 16.8733C12.2951 17.3804 11.9031 17.6973 11.3805 17.6973C10.7924 17.6973 10.3351 17.6973 9.87777 17.6973Z" fill="#BFD4E4"/>
<path d="M9.87834 21.0559C10.3357 21.0559 10.8584 21.0559 11.3157 21.0559C11.8384 21.0559 12.2304 21.4362 12.2304 21.8799C12.2304 22.3869 11.8384 22.7672 11.3157 22.7672C10.3357 22.7672 9.421 22.7672 8.44099 22.7672C7.91831 22.7672 7.52631 22.3869 7.52631 21.8799C7.52631 21.3728 7.91831 21.0559 8.44099 21.0559C8.96366 21.0559 9.421 21.0559 9.87834 21.0559Z" fill="#BFD4E4"/>
<path d="M18.894 15.2255C19.678 15.2255 20.3967 15.2255 21.1807 15.2255C21.5074 15.2255 21.7034 15.3523 21.7034 15.6058C21.7034 15.8593 21.5074 15.9861 21.1807 15.9861C19.6127 15.9861 18.11 15.9861 16.542 15.9861C16.2153 15.9861 16.0193 15.8593 16.0193 15.6058C16.0193 15.3523 16.2153 15.2255 16.542 15.2255C17.3913 15.2255 18.1753 15.2255 18.894 15.2255Z" fill="#BFD4E4"/>
<path d="M18.8944 14.084C18.1104 14.084 17.3917 14.084 16.6077 14.084C16.281 14.084 16.085 13.9572 16.085 13.7037C16.085 13.4502 16.281 13.3234 16.6077 13.3234C18.1757 13.3234 19.7437 13.3234 21.3118 13.3234C21.6384 13.3234 21.8344 13.4502 21.8344 13.7037C21.8344 13.9572 21.6384 14.084 21.3118 14.084C20.4624 14.084 19.6784 14.084 18.8944 14.084Z" fill="#BFD4E4"/>
</svg>
