<svg width="34" height="34" viewBox="0 0 34 34" fill="none" xmlns="http://www.w3.org/2000/svg">
<path fill-rule="evenodd" clip-rule="evenodd" d="M18.0749 21.5599C17.7879 21.8469 17.4136 21.9933 17.0375 21.9991C17.0189 21.9997 17.0004 22 16.9818 22C16.9804 22 16.9789 22 16.9774 22C16.4613 22 16.0061 21.7394 15.7362 21.3426L10.2967 15.9031C9.71096 15.3173 9.71096 14.3676 10.2967 13.7818C10.8825 13.196 11.8323 13.196 12.4181 13.7818L15.4774 16.8411L15.4774 8.5C15.4774 7.67157 16.149 7 16.9774 7C17.8058 7 18.4774 7.67157 18.4774 8.5L18.4774 16.8868L21.5818 13.7825C22.1675 13.1967 23.1173 13.1967 23.7031 13.7825C24.2889 14.3683 24.2889 15.318 23.7031 15.9038L18.2337 21.3732C18.1867 21.4386 18.1337 21.5011 18.0749 21.5599Z" fill="#BFD4E4"/>
<rect x="8" y="23.8574" width="18" height="3" rx="1.5" fill="#BFD4E4"/>
</svg>
