<?xml version="1.0" standalone="no"?>
<!DOCTYPE svg PUBLIC "-//W3C//DTD SVG 20010904//EN"
 "http://www.w3.org/TR/2001/REC-SVG-20010904/DTD/svg10.dtd">
<svg version="1.0" xmlns="http://www.w3.org/2000/svg"
 width="626.000000pt" height="626.000000pt" viewBox="0 0 626.000000 626.000000"
 preserveAspectRatio="xMidYMid meet">
<metadata>
Created by potrace 1.16, written by Peter Selinger 2001-2019
</metadata>
<g transform="translate(0.000000,626.000000) scale(0.100000,-0.100000)"
fill="#000000" stroke="none">
<path d="M3113 6210 c-84 -17 -137 -60 -178 -145 l-26 -52 3 -449 3 -449 27
-47 c30 -49 87 -100 134 -119 47 -18 154 -15 199 7 60 28 120 95 136 151 11
38 14 140 14 478 0 383 -2 434 -17 467 -54 119 -173 183 -295 158z"/>
<path d="M1230 5571 c-78 -24 -157 -99 -178 -169 -31 -104 -7 -182 95 -309 32
-39 141 -176 243 -303 101 -127 199 -245 217 -261 126 -110 326 -70 403 81 15
29 20 59 20 112 0 93 -14 118 -195 343 -75 94 -149 185 -163 204 -88 112 -204
248 -224 262 -57 40 -157 58 -218 40z"/>
<path d="M4932 5464 c-39 -19 -79 -57 -168 -157 -64 -73 -145 -163 -179 -202
-286 -322 -305 -350 -305 -444 2 -147 96 -247 242 -259 59 -4 74 -1 121 22 59
28 72 42 277 276 74 85 150 170 168 189 88 94 174 202 192 242 38 84 19 203
-43 273 -78 86 -202 111 -305 60z"/>
<path d="M2990 4364 c-14 -2 -63 -9 -110 -15 -270 -34 -556 -162 -784 -351
-74 -61 -206 -202 -266 -284 -107 -145 -203 -347 -251 -530 -53 -199 -51 -165
-56 -1301 l-4 -1063 1611 0 1611 0 -4 1058 c-4 1147 -2 1115 -61 1322 -108
384 -335 694 -671 915 -166 109 -393 198 -590 230 -95 16 -372 28 -425 19z
m275 -364 c320 -30 601 -168 820 -402 164 -175 275 -393 321 -633 24 -127 25
-272 1 -307 -42 -61 -114 -79 -181 -43 -49 26 -66 69 -76 185 -23 262 -120
469 -303 647 -95 93 -187 155 -307 205 -98 42 -254 78 -337 78 -126 0 -181 28
-201 103 -20 72 30 160 96 170 48 7 56 7 167 -3z"/>
<path d="M195 3866 c-89 -29 -127 -59 -166 -135 -47 -92 -32 -201 41 -284 45
-51 106 -80 200 -97 36 -6 164 -31 285 -56 475 -96 474 -96 547 -67 62 24 94
51 129 105 56 87 50 205 -14 290 -58 77 -92 88 -517 172 -454 89 -453 89 -505
72z"/>
<path d="M5920 3734 c-15 -3 -186 -30 -550 -85 -236 -36 -282 -54 -336 -132
-104 -150 -28 -360 143 -398 58 -13 122 -8 363 31 63 10 194 30 290 45 234 35
283 48 334 90 63 51 91 114 91 200 -1 109 -50 184 -150 231 -46 22 -131 30
-185 18z"/>
<path d="M1233 358 c-55 -167 -98 -306 -96 -311 5 -9 3981 -9 3986 1 2 4 -41
143 -96 310 l-99 302 -1798 0 -1797 0 -100 -302z m1097 175 c0 -4 -82 -90
-182 -190 l-183 -183 -327 0 c-253 0 -328 3 -328 12 0 11 88 285 111 346 l9
22 450 0 c247 0 450 -3 450 -7z"/>
</g>
</svg>
