<svg width="34" height="34" viewBox="0 0 34 34" fill="none" xmlns="http://www.w3.org/2000/svg">
<path d="M27.1078 14.5051V8.62847C27.1078 7.56642 26.5414 7 25.4794 7C23.2845 7 19.5319 7 19.2487 7C18.6823 7.0708 18.1867 7.56642 18.1159 8.13285C18.0451 8.55766 18.1159 8.98248 18.3991 9.26569C18.6823 9.61971 19.1071 9.76131 19.5319 9.76131C20.0275 9.76131 20.594 9.76131 21.0896 9.76131H21.302H22.1516L21.5144 10.3985C19.7443 12.1686 15.9918 15.9212 14.0801 17.8328C13.7969 18.1161 13.6553 18.4701 13.6553 18.8241C13.6553 19.1781 13.7969 19.5321 14.0801 19.8153C14.6465 20.3818 15.4961 20.3109 16.0626 19.8153L24.2757 11.8854V14.5051C24.2757 15.0715 24.4881 15.4964 24.8421 15.7796C25.267 16.0628 25.8334 16.1336 26.329 15.9212C26.8246 15.638 27.1078 15.1423 27.1078 14.5051Z" fill="#BFD4E4"/>
<path d="M24.7007 19.4617C24.7007 18.8245 24.2051 18.3289 23.5679 18.3289C22.9307 18.3289 22.435 18.8245 22.435 19.4617V23.1435C22.435 23.7099 21.9394 24.2055 21.373 24.2055H10.3277C9.76131 24.2055 9.26569 23.7099 9.26569 23.1435V12.0982C9.26569 11.5318 9.76131 11.0362 10.3277 11.0362H14.7175C15.3547 11.0362 15.8504 10.5406 15.8504 9.90335C15.8504 9.26613 15.3547 8.77051 14.7175 8.77051H8.55766C7.70803 8.77051 7 9.47854 7 10.3282V24.8428C7 25.6924 7.70803 26.4004 8.55766 26.4004H23.0723C23.9219 26.4004 24.6299 25.6924 24.6299 24.8428V19.4617H24.7007Z" fill="#BFD4E4"/>
</svg>
