<svg xmlns="http://www.w3.org/2000/svg" width="21" height="20" fill="none" viewBox="0 0 21 20">
  <path fill="#BFD4E4" d="M20.108 7.505V1.628C20.108.566 19.54 0 18.479 0h-6.23a1.352 1.352 0 0 0-1.133 1.133c-.07.425 0 .85.283 1.133.283.354.708.495 1.133.495h2.62l-.638.638-7.434 7.434a1.398 1.398 0 0 0-.425.991c0 .354.142.708.425.991.567.567 1.416.496 1.983 0l8.213-7.93v2.62c0 .567.212.991.566 1.275a1.58 1.58 0 0 0 1.487.141c.496-.283.779-.779.779-1.416Z"/>
  <path fill="#BFD4E4" d="M17.7 12.462c0-.637-.495-1.133-1.132-1.133-.637 0-1.133.495-1.133 1.133v3.681a1.09 1.09 0 0 1-1.062 1.063H3.328a1.089 1.089 0 0 1-1.062-1.063V5.098c0-.566.495-1.062 1.062-1.062h4.39c.637 0 1.132-.495 1.132-1.133 0-.637-.495-1.132-1.132-1.132h-6.16A1.57 1.57 0 0 0 0 3.328v14.515c0 .85.708 1.557 1.558 1.557h14.514c.85 0 1.558-.708 1.558-1.557v-5.381h.07Z"/>
</svg>
