<svg width="34" height="34" viewBox="0 0 34 34" fill="none" xmlns="http://www.w3.org/2000/svg">
<path d="M17.253 12.2983C17.4529 12.2983 17.5529 12.2983 17.7029 12.2983C19.1025 12.2983 20.5021 12.2983 21.9017 12.2983C22.5015 12.2983 22.8514 12.8481 22.6515 13.398C22.6015 13.5479 22.4515 13.6479 22.3516 13.7479C20.0522 16.1472 17.7528 18.5465 15.4535 20.8959C13.604 22.7954 11.7545 24.7448 9.95499 26.6443C9.80504 26.8442 9.60509 26.9942 9.45513 26.9942C8.8553 27.0942 8.45541 26.5943 8.60537 25.9945C8.95527 24.5449 9.30517 23.0953 9.70506 21.6957C9.95499 20.7459 10.1549 19.7962 10.4049 18.8964C10.4049 18.8464 10.4549 18.7465 10.4549 18.6465C10.3549 18.6465 10.2549 18.6465 10.1549 18.6465C9.40515 18.6465 8.65535 18.6465 7.90556 18.6465C7.20575 18.6465 6.85585 18.1966 7.0558 17.5468C8.05552 13.8978 9.05524 10.2488 10.105 6.64982C10.2549 6.19994 10.5048 6 10.9547 6C13.3541 6 15.7534 6 18.1527 6C18.8025 6 19.1525 6.49986 18.9525 7.0997C18.4027 8.74924 17.8528 10.3488 17.303 11.9983C17.303 12.0983 17.303 12.1983 17.253 12.2983ZM17.153 7.54957C17.003 7.54957 16.9531 7.54957 16.8531 7.54957C15.1536 7.54957 13.454 7.54957 11.7045 7.54957C11.5046 7.54957 11.4546 7.64954 11.4046 7.84949C10.7048 10.2488 10.055 12.6482 9.35516 15.0475C9.15522 15.6973 9.00526 16.3471 8.80531 17.0469C8.90528 17.0469 9.00526 17.0469 9.10523 17.0469C9.85502 17.0469 10.6048 17.0469 11.3546 17.0469C12.0044 17.0469 12.3543 17.4968 12.1544 18.0967C11.8045 19.3963 11.5046 20.7459 11.1547 22.0456C11.0547 22.5454 10.9547 22.9953 10.8048 23.4952H10.8547C13.9039 20.296 16.9531 17.0969 20.1022 13.8478C19.9522 13.8478 19.8523 13.8478 19.7523 13.8478C18.6026 13.8478 17.4529 13.8478 16.3032 13.8478C15.5534 13.8478 15.2035 13.398 15.4535 12.6482C15.8034 11.5985 16.1533 10.5487 16.5032 9.49903C16.7031 8.8992 16.9531 8.24938 17.153 7.54957Z" fill="#BFD4E4"/>
<path d="M27.9998 26.244C27.9498 26.6438 27.6999 26.9438 27.35 26.9937C26.9501 27.0937 26.6002 26.8938 26.4502 26.4939C26.1503 25.7941 25.9004 25.0443 25.6005 24.3445C25.4005 23.8446 25.4005 23.8446 24.8507 23.8446C23.701 23.8446 22.5513 23.8446 21.4016 23.8446C21.1517 23.8446 21.0517 23.8946 20.9518 24.1445C20.6518 24.8943 20.3519 25.6941 20.052 26.4439C19.8521 26.8938 19.4522 27.0937 19.0523 26.9438C18.6024 26.7938 18.4025 26.3439 18.6024 25.8441C19.1023 24.5444 19.6021 23.2448 20.152 21.9951C20.9518 19.9957 21.7515 17.9962 22.5013 15.9968C22.6013 15.6969 22.8012 15.4969 23.1511 15.4469C23.551 15.397 23.851 15.5969 24.0009 15.9968C24.5008 17.2464 25.0006 18.4961 25.4505 19.7458C26.2503 21.7452 27.0501 23.7446 27.7999 25.7441C27.8998 25.944 27.9498 26.094 27.9998 26.244ZM21.7016 22.295C22.7513 22.295 23.751 22.295 24.7507 22.295C24.2508 20.9954 23.751 19.7458 23.2011 18.3961C22.7013 19.6958 22.2014 20.9954 21.7016 22.295Z" fill="#BFD4E4"/>
</svg>
