<svg xmlns="http://www.w3.org/2000/svg" width="21" height="22" fill="none" viewBox="0 0 21 22">
  <path fill="#BFD4E4" d="M10.253 6.298h4.649c.6 0 .95.55.75 1.1-.05.15-.2.25-.3.35-2.3 2.4-4.6 4.798-6.899 7.148a607.433 607.433 0 0 0-5.498 5.748c-.15.2-.35.35-.5.35-.6.1-1-.4-.85-1 .35-1.45.7-2.899 1.1-4.298.25-.95.45-1.9.7-2.8 0-.05.05-.15.05-.25H.905c-.7 0-1.05-.45-.85-1.1 1-3.648 2-7.297 3.05-10.896.15-.45.4-.65.85-.65h7.198c.65 0 1 .5.8 1.1-.55 1.65-1.1 3.249-1.65 4.898 0 .1 0 .2-.05.3Zm-.1-4.748H4.705c-.2 0-.25.1-.3.3-.7 2.399-1.35 4.798-2.05 7.197-.2.65-.35 1.3-.55 2h2.55c.65 0 1 .45.8 1.05-.35 1.3-.65 2.649-1 3.949-.1.5-.2.95-.35 1.45h.05c3.049-3.2 6.098-6.4 9.247-9.648H9.303c-.75 0-1.1-.45-.85-1.2L9.503 3.5c.2-.6.45-1.25.65-1.95ZM21 20.244c-.05.4-.3.7-.65.75-.4.1-.75-.1-.9-.5-.3-.7-.55-1.45-.85-2.15-.2-.5-.2-.5-.75-.5h-3.448c-.25 0-.35.05-.45.3-.3.75-.6 1.55-.9 2.3-.2.45-.6.65-1 .5-.45-.15-.65-.6-.45-1.1.5-1.3 1-2.6 1.55-3.849.8-2 1.6-3.999 2.35-5.998.1-.3.3-.5.65-.55.399-.05.699.15.849.55.5 1.25 1 2.5 1.45 3.749.8 2 1.6 3.999 2.349 5.998.1.2.15.35.2.5Zm-6.298-3.949h3.049c-.5-1.3-1-2.55-1.55-3.899l-1.5 3.899Z"/>
</svg>
