<svg width="34" height="34" viewBox="0 0 34 34" fill="none" xmlns="http://www.w3.org/2000/svg">
<path d="M18.6891 10.8394C18.6891 9.72598 18.6891 8.65094 18.6891 7.53751C18.6891 7.15357 18.8523 7 19.2604 7C21.5452 7 23.7892 7 26.074 7C26.482 7 26.6452 7.15357 26.6452 7.53751C26.6452 9.72598 26.6452 11.9144 26.6452 14.1029C26.6452 14.4868 26.482 14.6788 26.0332 14.6788C23.7892 14.6788 21.5044 14.6788 19.2604 14.6788C18.8523 14.6788 18.6891 14.5252 18.6891 14.1029C18.6891 13.0279 18.6891 11.9144 18.6891 10.8394Z" fill="#BFD4E4"/>
<path d="M15.9561 10.8394C15.9561 11.9144 15.9561 13.0279 15.9561 14.1029C15.9561 14.4868 15.7929 14.6788 15.3849 14.6788C13.1409 14.6788 10.856 14.6788 8.61201 14.6788C8.204 14.6788 8 14.5252 8 14.1029C8 11.9144 8 9.72598 8 7.53751C8 7.15357 8.1632 7 8.5712 7C10.856 7 13.1001 7 15.3849 7C15.7929 7 15.9561 7.15357 15.9561 7.53751C15.9561 8.65094 15.9561 9.72598 15.9561 10.8394Z" fill="#BFD4E4"/>
<path d="M15.9561 20.8238C15.9561 21.8988 15.9561 23.0122 15.9561 24.0873C15.9561 24.5096 15.7929 24.6632 15.3441 24.6632C13.1001 24.6632 10.856 24.6632 8.61201 24.6632C8.1632 24.6632 8 24.5096 8 24.0873C8 21.8988 8 19.7487 8 17.5603C8 17.138 8.1632 16.9844 8.61201 16.9844C10.856 16.9844 13.1001 16.9844 15.3441 16.9844C15.8337 16.9844 15.9561 17.1379 15.9561 17.5987C15.9561 18.6737 15.9561 19.7487 15.9561 20.8238Z" fill="#BFD4E4"/>
<path d="M26.7528 20.4203H24.0862V17.6828C24.0862 16.9763 23.527 16.4023 22.8389 16.4023C22.1507 16.4023 21.5916 16.9763 21.5916 17.6828V20.4203H18.9249C18.2367 20.4203 17.6776 20.9943 17.6776 21.7007C17.6776 22.4072 18.2367 22.9812 18.9249 22.9812H21.5916V25.7187C21.5916 26.4251 22.1507 26.9991 22.8389 26.9991C23.527 26.9991 24.0862 26.4251 24.0862 25.7187V22.9812H26.7528C27.441 22.9812 28.0001 22.4072 28.0001 21.7007C28.0001 20.9943 27.441 20.4203 26.7528 20.4203Z" fill="#BFD4E4"/>
</svg>
