<svg xmlns="http://www.w3.org/2000/svg" width="20" height="22" fill="none" viewBox="0 0 20 22">
  <path fill="#BFD3E3" d="M12.333 5.36H5.556v1.676h6.777V5.36ZM10 21.888H2.111c-.555 0-1.111-.111-1.555-.558C.222 20.995 0 20.548 0 20.102V10.05c.111-.894.556-1.452 1.333-1.675.445-.224.89-.224 1.334-.224h8.222c.111 0 .333.112.444.224.556.67 1.223 2.903 1.89 3.573.11.112.11.112.221.112h4.445c.555 0 1 .112 1.444.558.334.335.556.782.556 1.229v6.365c0 .782-.445 1.229-1.111 1.564-.334.111-.667.223-1 .223-2.556-.112-5.111-.112-7.778-.112Z"/>
  <path fill="#BFD3E3" d="M16.555 1.675v9.604h1.778V0h-13v1.675h11.222Z"/>
  <path fill="#BFD3E3" d="M3.111 7.147h1v-2.68h9.556v6.365s0 .112.11.112c.112.112.112.112.223.112h1.444V2.68H2.333v4.467h.778Z"/>
</svg>
