<svg width="34" height="34" viewBox="0 0 34 34" fill="none" xmlns="http://www.w3.org/2000/svg">
<path d="M19.3333 11.3604C17 11.3604 14.7778 11.3604 12.5555 11.3604C12.5555 11.9188 12.5555 12.4772 12.5555 13.0355C14.8889 13.0355 17.1111 13.0355 19.3333 13.0355C19.3333 12.4772 19.3333 11.9188 19.3333 11.3604Z" fill="#BFD3E3"/>
<path d="M17 27.8883C14.3333 27.8883 11.7778 27.8883 9.11111 27.8883C8.55556 27.8883 8 27.7766 7.55556 27.3299C7.22222 26.9949 7 26.5482 7 26.1015C7 22.9746 7 19.9594 7 16.8325C7 16.6091 7 16.2741 7 16.0508C7.11111 15.1574 7.55556 14.599 8.33333 14.3756C8.77778 14.1523 9.22222 14.1523 9.66667 14.1523C12.2222 14.1523 14.7778 14.1523 17.2222 14.1523C17.4444 14.1523 17.6667 14.1523 17.8889 14.1523C18 14.1523 18.2222 14.264 18.3333 14.3756C18.8889 15.0457 19.5556 17.2792 20.2222 17.9492C20.3333 18.0609 20.3333 18.0609 20.4444 18.0609C21.8889 18.0609 23.4444 18.0609 24.8889 18.0609C25.4444 18.0609 25.8889 18.1726 26.3333 18.6193C26.6667 18.9543 26.8889 19.401 26.8889 19.8477C26.8889 22.5279 26.8889 23.6447 26.8889 26.2132C26.8889 26.9949 26.4444 27.4416 25.7778 27.7766C25.4444 27.8883 25.1111 28 24.7778 28C22.2222 27.8883 19.6667 27.8883 17 27.8883Z" fill="#BFD3E3"/>
<path d="M23.5555 7.67513V17.2792C24.1111 17.2792 24.7778 17.2792 25.3333 17.2792V6H12.3333V7.67513H23.5555Z" fill="#BFD3E3"/>
<path d="M10.1111 13.1472C10.4444 13.1472 10.7778 13.1472 11.1111 13.1472V10.467H20.6666V16.8325C20.6666 16.8325 20.6666 16.9442 20.7778 16.9442C20.8889 17.0558 20.8889 17.0558 21 17.0558C21.4444 17.0558 22 17.0558 22.4444 17.0558V8.68021H22.3333H19.3333H18H16.3333H14.7778H9.33331V13.1472C9.66665 13.1472 9.88887 13.1472 10.1111 13.1472Z" fill="#BFD3E3"/>
</svg>
