<svg xmlns="http://www.w3.org/2000/svg" width="22" height="22" fill="none" viewBox="0 0 22 22">
  <path fill="#BFD3E3" d="M14.246 18.123V22H.18c-.09 0-.09 0-.09-.09V3.967h7.754V.09h8.386c-.09-.09 0-.09 0 0l5.68 5.68s.09.09.09.18v12.173c0 .09 0 .18-.18.18h-7.394c-.09-.18-.09-.18-.18-.18ZM9.557 1.893V16.32h10.46V7.123h-5.32v-5.23h-5.14Zm2.795 16.32H7.754V5.77h-5.86v14.427h10.458v-1.984ZM18.754 5.23 16.77 3.246v1.983h1.984Z"/>
  <path fill="#BFD3E3" d="M11.09 11.18V9.287h7.394v1.893H11.09Zm7.484 1.533v1.894H11.18v-1.894h7.394ZM3.426 16.05H5.41v1.893H3.426v-1.894Zm0-6.312V7.844H5.41v1.894H3.426Zm1.984 2.254v1.893H3.426v-1.893H5.41Z"/>
</svg>
