<svg width="34" height="34" viewBox="0 0 34 34" fill="none" xmlns="http://www.w3.org/2000/svg">
<path d="M20.2459 24.1229C20.2459 25.3852 20.2459 26.6475 20.2459 28C19.9754 28 19.7049 28 19.5246 28C15.918 28 12.2213 28 8.61474 28C7.80326 28 6.99179 28 6.18031 28C6.09015 28 6.09015 28 6.09015 27.9098C6.09015 24.2131 6.09015 20.5164 6.09015 16.9098C6.09015 14.6557 6.09015 12.3115 6.09015 10.0574V9.96721C8.7049 9.96721 11.2295 9.96721 13.8442 9.96721C13.8442 8.70491 13.8442 7.44262 13.8442 6.09016C13.9344 6.09016 13.9344 6.09016 14.0246 6.09016C16.7295 6.09016 19.5246 6.09016 22.2295 6.09016C22.1393 6 22.2295 6 22.2295 6.09016C24.1229 7.9836 26.0164 9.87705 27.9098 11.7705C27.9098 11.7705 28 11.8607 28 11.9508C28 14.6557 28 17.3607 28 20.0656C28 21.418 28 22.7705 28 24.1229C28 24.2131 28 24.3033 27.8197 24.3033C25.3852 24.3033 22.8606 24.3033 20.4262 24.3033C20.3361 24.1229 20.3361 24.1229 20.2459 24.1229ZM15.5574 7.89344C15.5574 12.6721 15.5574 17.4508 15.5574 22.3197C19.0738 22.3197 22.5901 22.3197 26.0164 22.3197C26.0164 19.2541 26.0164 16.1885 26.0164 13.1229C24.2131 13.1229 22.5 13.1229 20.6967 13.1229C20.6967 11.4098 20.6967 9.60655 20.6967 7.89344C19.0738 7.89344 17.3606 7.89344 15.5574 7.89344ZM18.3524 24.2131C16.8197 24.2131 15.2869 24.2131 13.7541 24.2131C13.7541 20.0656 13.7541 15.918 13.7541 11.7705C11.7705 11.7705 9.87703 11.7705 7.89343 11.7705C7.89343 16.5492 7.89343 21.3279 7.89343 26.1967C11.4098 26.1967 14.8361 26.1967 18.3524 26.1967C18.3524 25.4754 18.3524 24.8443 18.3524 24.2131ZM24.7541 11.2295C24.1229 10.5984 23.4016 9.87705 22.7705 9.2459C22.7705 9.87705 22.7705 10.5984 22.7705 11.2295C23.4016 11.2295 24.1229 11.2295 24.7541 11.2295Z" fill="#BFD3E3"/>
<path d="M17.0901 17.1803C17.0901 16.5492 17.0901 15.918 17.0901 15.2869C19.5246 15.2869 22.0492 15.2869 24.4836 15.2869C24.4836 15.918 24.4836 16.5492 24.4836 17.1803C22.0492 17.1803 19.6147 17.1803 17.0901 17.1803Z" fill="#BFD3E3"/>
<path d="M24.5737 18.7131C24.5737 19.3443 24.5737 19.9754 24.5737 20.6065C22.0492 20.6065 19.6147 20.6065 17.1803 20.6065C17.1803 19.9754 17.1803 19.3443 17.1803 18.7131C19.6147 18.7131 22.0492 18.7131 24.5737 18.7131Z" fill="#BFD3E3"/>
<path d="M9.42621 22.0492C10.3278 22.0492 10.5983 22.0492 11.4098 22.0492C11.4098 22.6803 11.4098 23.3115 11.4098 23.9426C10.5082 23.9426 10.2377 23.9426 9.42621 23.9426C9.42621 23.3115 9.42621 22.6803 9.42621 22.0492Z" fill="#BFD3E3"/>
<path d="M9.42621 15.7377C9.42621 15.1065 9.42621 14.4754 9.42621 13.8443C10.3278 13.8443 10.5983 13.8443 11.4098 13.8443C11.4098 14.4754 11.4098 15.1065 11.4098 15.7377C10.5983 15.7377 10.3278 15.7377 9.42621 15.7377Z" fill="#BFD3E3"/>
<path d="M11.4098 17.9918C11.4098 18.623 11.4098 19.2541 11.4098 19.8852C10.5082 19.8852 10.2377 19.8852 9.42621 19.8852C9.42621 19.2541 9.42621 18.623 9.42621 17.9918C10.3278 17.9918 10.5983 17.9918 11.4098 17.9918Z" fill="#BFD3E3"/>
</svg>
