<svg width="34" height="34" viewBox="0 0 34 34" fill="none" xmlns="http://www.w3.org/2000/svg">
<path d="M15.1271 6C16.3933 6 17.6595 6 18.9257 6C19.4005 6.21103 19.6115 6.58034 19.5588 7.10791C19.5588 7.42446 19.5588 7.68825 19.5588 8.0048C19.5588 8.53237 19.7698 8.95444 20.2974 9.11271C20.7722 9.32374 21.247 9.21823 21.6163 8.84892C21.8801 8.58513 22.1439 8.32134 22.4077 8.05755C22.777 7.68825 23.2518 7.68825 23.6211 8.05755C24.4125 8.84892 25.2038 9.64029 25.9952 10.4317C26.3645 10.801 26.3645 11.2758 25.9952 11.6451C25.7314 11.9089 25.5204 12.1727 25.2566 12.3837C24.8873 12.753 24.729 13.2278 24.94 13.7026C25.1511 14.2302 25.5731 14.4412 26.1007 14.4412C26.47 14.4412 26.7866 14.4412 27.1559 14.4412C27.7362 14.4412 28.0528 14.7578 28.0528 15.3381C28.0528 16.3933 28.0528 17.5012 28.0528 18.5564C28.0528 19.1367 27.7362 19.4532 27.1559 19.506C26.7866 19.506 26.4173 19.506 26.048 19.506C25.5204 19.506 25.0983 19.717 24.94 20.2446C24.729 20.7194 24.8345 21.1942 25.2038 21.5635C25.4676 21.8273 25.7314 22.0911 25.9424 22.3549C26.3117 22.7242 26.3117 23.2518 25.9424 23.6211C25.1511 24.4125 24.4125 25.2038 23.6211 25.9424C23.2518 26.3118 22.777 26.3118 22.3549 25.9424C22.0911 25.6787 21.8801 25.4676 21.6163 25.2038C21.247 24.8345 20.7722 24.6763 20.2974 24.8873C19.8225 25.0983 19.5588 25.4676 19.5588 25.9952C19.5588 26.3645 19.5588 26.7338 19.5588 27.1031C19.5588 27.6307 19.1894 28 18.6619 28C17.554 28 16.4988 28 15.3909 28C14.8633 28 14.494 27.6307 14.494 27.1031C14.494 26.7338 14.494 26.3645 14.494 25.9424C14.494 25.4149 14.283 24.9928 13.7554 24.8345C13.2806 24.6235 12.8058 24.729 12.4365 25.0983C12.1727 25.3621 11.9089 25.6259 11.6451 25.8369C11.2758 26.2062 10.801 26.2062 10.3789 25.8369C9.58753 25.0983 8.84892 24.307 8.05755 23.5683C7.63549 23.199 7.63549 22.6715 8.05755 22.3022C8.32134 22.0384 8.58513 21.7746 8.84892 21.5108C9.21823 21.1415 9.32374 20.7194 9.11271 20.2446C8.90168 19.7698 8.53237 19.5588 8.0048 19.506C7.68825 19.506 7.3717 19.506 7.05516 19.506C6.52758 19.5588 6.21103 19.3477 6 18.8729C6 17.6067 6 16.3405 6 15.0743C6.21103 14.5995 6.58034 14.3885 7.10791 14.4412C7.42446 14.4412 7.74101 14.4412 8.05755 14.4412C8.58513 14.4412 8.95444 14.2302 9.16547 13.7554C9.3765 13.2806 9.27098 12.8058 8.90168 12.4365C8.69065 12.1727 8.42686 11.9089 8.16307 11.6978C7.74101 11.2758 7.74101 10.801 8.16307 10.3789C8.90168 9.64029 9.64029 8.84892 10.3789 8.11031C10.801 7.68825 11.2758 7.68825 11.6978 8.11031C11.9616 8.3741 12.2254 8.63789 12.4892 8.84892C12.8585 9.21823 13.2806 9.32374 13.7554 9.11271C14.2302 8.90168 14.494 8.53237 14.494 8.0048C14.494 7.68825 14.494 7.3717 14.494 7.10791C14.4412 6.58034 14.6523 6.21103 15.1271 6ZM26.3117 16.1295C24.9928 16.1823 23.9376 15.7074 23.3573 14.4412C22.777 13.1223 23.1463 11.9616 24.1487 11.012C23.7266 10.5899 23.3573 10.2206 22.9352 9.79856C22.0384 10.801 20.8777 11.1703 19.6115 10.6427C18.2926 10.1151 17.8177 9.00719 17.8705 7.68825C17.2902 7.68825 16.7626 7.68825 16.1823 7.68825C16.235 9.05995 15.7074 10.1151 14.3885 10.6954C13.0695 11.223 11.9616 10.801 11.0647 9.85132C10.6954 10.2734 10.3261 10.6427 9.90408 11.0647C10.9065 11.9616 11.2758 13.1223 10.7482 14.3885C10.2206 15.7074 9.11271 16.1823 7.79376 16.1295C7.79376 16.7098 7.79376 17.2374 7.79376 17.8177C9.16547 17.765 10.2206 18.2926 10.801 19.6115C11.3285 20.9305 10.9065 22.0384 9.95683 22.9353C10.3789 23.3573 10.7482 23.7266 11.1175 24.1487C12.0144 23.1463 13.1751 22.777 14.4412 23.3046C15.7602 23.8321 16.235 24.94 16.1823 26.259C16.7626 26.259 17.2902 26.259 17.8705 26.259C17.976 24.6763 18.3981 23.8321 19.4532 23.3573C20.8249 22.7242 21.9856 23.0935 22.9352 24.0959C23.3573 23.6739 23.7266 23.3046 24.1487 22.9353C23.199 22.0384 22.8297 20.9832 23.3046 19.717C23.8321 18.3453 24.8873 17.8177 26.3117 17.8705C26.3117 17.2374 26.3117 16.7098 26.3117 16.1295Z" fill="#BFD4E4"/>
<path d="M17.0265 12.7528C19.3478 12.7528 21.2471 14.6521 21.2471 16.9734C21.2471 19.2948 19.3478 21.1941 17.0265 21.1941C14.7051 21.1941 12.8058 19.2948 12.8058 16.9734C12.8058 14.6521 14.7051 12.7528 17.0265 12.7528ZM17.0265 19.5058C18.3982 19.5058 19.5588 18.3451 19.5588 16.9734C19.5588 15.6017 18.3982 14.4411 17.0265 14.4411C15.6548 14.4411 14.4941 15.6017 14.4941 16.9734C14.4941 18.3979 15.6548 19.5058 17.0265 19.5058Z" fill="#BFD4E4"/>
</svg>
