<svg xmlns="http://www.w3.org/2000/svg" width="22" height="22" fill="none" viewBox="0 0 22 22">
  <path fill="#BFD3E3" d="M0 11.978V9.94c.163-.57.489-.815.978-.978.163-.082.326-.082.489-.163.489-.081.814-.326.977-.652.163-.326.326-.733.49-1.14.162-.408.08-.734-.082-1.141a1.705 1.705 0 0 1-.326-.49c-.245-.57-.326-1.058.081-1.547L3.83 2.607c.326-.244.733-.326 1.059-.244.326.081.57.244.815.326.326.163.652.407 1.059.244.489-.081.978-.326 1.467-.489.326-.163.489-.407.57-.814.081-.163.081-.408.163-.57C9.207.325 9.696 0 10.348 0h1.304c.57 0 1.06.326 1.304.896.081.163.162.408.162.652.082.489.326.815.815.978a5.66 5.66 0 0 0 1.06.407c.407.163.814.082 1.14-.163l.49-.244c.57-.326 1.14-.245 1.629.163.407.326.733.733 1.06 1.06.406.407.488.895.244 1.384-.082.245-.245.408-.326.57-.163.327-.326.571-.245.978.163.652.326 1.223.733 1.712.163.163.408.326.57.407.245.081.408.081.653.163.652.163.978.652.978 1.385v1.385c0 .57-.245.897-.734 1.141a5.412 5.412 0 0 1-.652.244c-.57.082-.977.408-1.222.978a3.97 3.97 0 0 0-.326.897c-.163.407-.081.733.082 1.14a1.7 1.7 0 0 0 .326.49c.325.57.325 1.14-.082 1.547-.407.408-.733.815-1.222 1.223-.326.244-.733.407-1.14.244-.327-.081-.571-.244-.816-.407-.407-.245-.814-.326-1.303-.163-.163.081-.326.163-.57.244-.734.245-1.142.733-1.304 1.548-.082.57-.408.978-1.06 1.141H9.941c-.652-.244-.978-.733-1.141-1.385 0-.082 0-.163-.081-.163-.082-.408-.408-.734-.815-.978a5.65 5.65 0 0 0-1.06-.407c-.407-.163-.733-.082-1.14.081-.163.082-.326.245-.49.326-.488.244-1.058.326-1.547-.081L2.444 18.17c-.244-.326-.407-.652-.244-1.059.081-.244.163-.57.326-.815.326-.489.407-1.059.163-1.548-.082-.163-.163-.407-.245-.57-.244-.57-.651-.897-1.222-1.06-.163 0-.407-.081-.57-.162-.326-.245-.489-.57-.652-.978ZM7.578 11c0 1.874 1.548 3.422 3.422 3.422s3.422-1.548 3.422-3.422S12.874 7.578 11 7.578 7.578 9.126 7.578 11Z"/>
</svg>
