<svg width="34" height="34" viewBox="0 0 34 34" fill="none" xmlns="http://www.w3.org/2000/svg">
<path fill-rule="evenodd" clip-rule="evenodd" d="M25.5599 15.0675C25.8469 15.3545 25.9933 15.7288 25.9991 16.1049C25.9997 16.1235 26 16.1421 26 16.1606C26 16.1621 26 16.1636 26 16.165C26 16.6811 25.7394 17.1363 25.3426 17.4062L19.9031 22.8457C19.3173 23.4315 18.3676 23.4315 17.7818 22.8457C17.196 22.2599 17.196 21.3102 17.7818 20.7244L20.8411 17.665L9.5 17.665C8.67157 17.665 8 16.9935 8 16.165C8 15.3366 8.67157 14.665 9.5 14.665L20.8868 14.665L17.7825 11.5607C17.1967 10.9749 17.1967 10.0252 17.7825 9.43937C18.3683 8.85358 19.318 8.85358 19.9038 9.43937L25.3732 14.9088C25.4386 14.9558 25.5011 15.0087 25.5599 15.0675Z" fill="#BFD4E4"/>
</svg>
