<svg xmlns="http://www.w3.org/2000/svg" width="26" height="26" fill="none" viewBox="0 0 26 26">
  <path fill="#BFD4E4" d="M19.884 21.517C17.784 22.801 15.45 23.5 13 23.5 6.7 23.5 1.45 18.95.4 13c.467-2.683 1.867-5.25 3.85-7.116L.634 2.267 2.267.634l23.1 23.1-1.634 1.633-3.85-3.85Zm-14-14C4.25 8.917 3.2 10.9 2.734 13.001c1.283 5.6 6.883 9.216 12.6 7.933.933-.233 1.983-.584 2.8-1.05L15.8 17.55c-2.45 1.517-5.716.817-7.233-1.633a5.372 5.372 0 0 1 0-5.6l-2.683-2.8Zm8.166 8.167-3.733-3.733c-.583 1.516.117 3.15 1.633 3.733.7.35 1.4.35 2.1 0Zm9.217 2.683-1.633-1.633c.816-1.167 1.283-2.334 1.633-3.734-1.284-5.6-6.883-9.216-12.6-7.933-.117 0-.35.117-.467.117L8.334 3.317c1.4-.583 3.033-.933 4.666-.933 6.3 0 11.55 4.55 12.6 10.5-.35 2.1-1.167 3.85-2.333 5.483ZM12.65 7.75c2.917-.233 5.367 1.984 5.6 4.9v.7l-5.6-5.6Z"/>
</svg>
