<svg width="34" height="34" viewBox="0 0 34 34" fill="none" xmlns="http://www.w3.org/2000/svg">
<path d="M23.8835 25.5171C21.7835 26.8005 19.4502 27.5005 17.0002 27.5005C10.7002 27.5005 5.45021 22.9505 4.40021 17.0005C4.86687 14.3171 6.26688 11.7505 8.25021 9.88379L4.63354 6.26712L6.26687 4.63379L29.3669 27.7338L27.7335 29.3671L23.8835 25.5171ZM9.88354 11.5171C8.25021 12.9171 7.20021 14.9005 6.73354 17.0005C8.01687 22.6005 13.6169 26.2171 19.3335 24.9338C20.2669 24.7005 21.3169 24.3505 22.1335 23.8838L19.8002 21.5505C17.3502 23.0671 14.0835 22.3671 12.5669 19.9171C11.5169 18.1671 11.5169 16.0671 12.5669 14.3171L9.88354 11.5171ZM18.0502 19.6838L14.3169 15.9505C13.7335 17.4671 14.4335 19.1005 15.9502 19.6838C16.6502 20.0338 17.3502 20.0338 18.0502 19.6838ZM27.2669 22.3671L25.6335 20.7338C26.4502 19.5671 26.9169 18.4005 27.2669 17.0005C25.9835 11.4005 20.3835 7.78379 14.6669 9.06712C14.5502 9.06712 14.3169 9.18379 14.2002 9.18379L12.3335 7.31712C13.7335 6.73379 15.3669 6.38379 17.0002 6.38379C23.3002 6.38379 28.5502 10.9338 29.6002 16.8838C29.2502 18.9838 28.4335 20.7338 27.2669 22.3671ZM16.6502 11.7505C19.5669 11.5171 22.0169 13.7338 22.2502 16.6505C22.2502 16.8838 22.2502 17.1171 22.2502 17.3505L16.6502 11.7505Z" fill="#BFD4E4"/>
</svg>
