<svg width="34" height="34" viewBox="0 0 34 34" fill="none" xmlns="http://www.w3.org/2000/svg">
<path d="M18.8571 6C12.7038 6 7.71429 11.1494 7.71429 17.5H4L8.81619 22.4706L8.90286 22.6494L13.9048 17.5H10.1905C10.1905 12.555 14.0657 8.55556 18.8571 8.55556C23.6486 8.55556 27.5238 12.555 27.5238 17.5C27.5238 22.445 23.6486 26.4444 18.8571 26.4444C16.4676 26.4444 14.301 25.435 12.741 23.8122L10.9829 25.6267C13.001 27.7094 15.7743 29 18.8571 29C25.0105 29 30 23.8506 30 17.5C30 11.1494 25.0105 6 18.8571 6ZM17.619 12.3889V18.7778L22.9181 22.0233L23.8095 20.4772L19.4762 17.8194V12.3889H17.619Z" fill="#BFD4E4"/>
</svg>
