<svg xmlns="http://www.w3.org/2000/svg" width="22" height="20" fill="none" viewBox="0 0 22 20">
  <path fill="#BFD4E4" d="M9.3 1.658c1.7 0 3.029 1.436 3.029 3.149 0 1.768-1.382 3.15-3.03 3.15-1.646 0-3.028-1.437-3.028-3.15 0-1.713 1.328-3.15 3.029-3.15ZM9.3 0C6.75 0 4.677 2.155 4.677 4.807c0 2.652 2.072 4.807 4.623 4.807 2.55 0 4.623-2.155 4.623-4.807C13.923 2.155 11.851 0 9.3 0Zm0 13.537c.265 0 .531 0 .85.055-.16.608-.213 1.215-.213 1.878 0 .663.107 1.382.266 1.99H1.594v-.111c0-1.99 4.783-3.812 7.706-3.812Zm0-1.658c-3.083 0-9.3 1.934-9.3 5.47v1.768h12.648c-.691-1.05-1.117-2.32-1.117-3.647 0-1.16.266-2.21.798-3.149a10.776 10.776 0 0 0-3.03-.442Zm9.033-.94h-1.488c-.212.11-.265.22-.265.442v.387c0 .22-.107.386-.32.442-.052.055-.106.055-.212.055s-.212-.055-.319-.166l-.318-.331c-.107-.11-.16-.11-.266-.11-.106 0-.16.054-.266.11l-.903.939a.379.379 0 0 0 0 .552l.319.332c.159.166.212.331.106.552-.106.221-.213.277-.425.277h-.425c-.16 0-.32.11-.372.276v1.547c.053.166.16.276.372.276h.425c.212 0 .372.11.425.332.106.22.053.386-.106.497l-.32.331c-.159.166-.159.387 0 .498l.904.939c.106.055.16.11.266.11.106 0 .16-.055.266-.11l.318-.331c.107-.111.213-.166.32-.166.052 0 .105 0 .212.055.212.055.319.221.319.442v.497c0 .221.16.387.372.387h1.275c.213 0 .372-.166.372-.387v-.442c0-.22.106-.386.319-.442.053 0 .106-.055.16-.055.106 0 .265.055.371.166l.32.331c.105.056.159.11.265.11.106 0 .16-.054.265-.11l.904-.939c.16-.166.16-.387 0-.497l-.319-.332c-.16-.166-.212-.331-.106-.552.053-.221.212-.332.425-.332h.425c.213 0 .372-.166.372-.387v-1.326c0-.22-.106-.386-.372-.386h-.425c-.213 0-.372-.11-.478-.332-.107-.22 0-.387.106-.552l.319-.332c.16-.166.16-.331 0-.497l-.957-.995a.398.398 0 0 0-.266-.11c-.106 0-.159.055-.265.11l-.319.332c-.106.11-.213.166-.319.166-.053 0-.106 0-.212-.056-.213-.055-.32-.22-.32-.442v-.386c.107-.11 0-.277-.159-.387Zm-.797 6.298c-.903 0-1.7-.773-1.7-1.768 0-.939.744-1.768 1.7-1.768.904 0 1.7.774 1.7 1.768 0 .94-.743 1.768-1.7 1.768Z"/>
</svg>
