<svg width="34" height="34" viewBox="0 0 34 34" fill="none" xmlns="http://www.w3.org/2000/svg">
<path d="M15.2999 8.65752C17.0004 8.65752 18.3289 10.094 18.3289 11.8068C18.3289 13.5748 16.9472 14.9561 15.2999 14.9561C13.6525 14.9561 12.2709 13.5196 12.2709 11.8068C12.2709 10.094 13.5994 8.65752 15.2999 8.65752ZM15.2999 7C12.7491 7 10.6766 9.15478 10.6766 11.8068C10.6766 14.4589 12.7491 16.6136 15.2999 16.6136C17.8506 16.6136 19.9231 14.4589 19.9231 11.8068C19.9231 9.15478 17.8506 7 15.2999 7Z" fill="#BFD4E4"/>
<path d="M15.2996 20.5366C15.5653 20.5366 15.831 20.5366 16.1499 20.5919C15.9905 21.1997 15.9373 21.8074 15.9373 22.4704C15.9373 23.1334 16.0436 23.8517 16.203 24.4595H7.59422V24.349C7.59422 22.3599 12.3769 20.5366 15.2996 20.5366ZM15.2996 18.8791C12.2175 18.8791 6 20.8129 6 24.349V26.117H18.6475C17.9567 25.0672 17.5315 23.7964 17.5315 22.4704C17.5315 21.3102 17.7972 20.2604 18.3287 19.3211C17.2127 18.9896 16.1499 18.8791 15.2996 18.8791Z" fill="#BFD4E4"/>
<path d="M24.3333 17.9388C23.855 17.9388 23.3236 17.9388 22.8454 17.9388C22.6328 18.0493 22.5797 18.1598 22.5797 18.3808C22.5797 18.4914 22.5797 18.6019 22.5797 18.7676C22.5797 18.9886 22.4734 19.1544 22.2608 19.2096C22.2077 19.2649 22.1545 19.2649 22.0483 19.2649C21.942 19.2649 21.8357 19.2096 21.7294 19.0991C21.6231 18.9886 21.5168 18.8781 21.4106 18.7676C21.3043 18.6571 21.2511 18.6571 21.1449 18.6571C21.0386 18.6571 20.9854 18.7124 20.8792 18.7676C20.5603 19.0991 20.2946 19.3754 19.9758 19.7069C19.8163 19.8726 19.8163 20.0936 19.9758 20.2594C20.082 20.3699 20.1883 20.4804 20.2946 20.5909C20.454 20.7566 20.5072 20.9224 20.4009 21.1434C20.2946 21.3644 20.1883 21.4196 19.9758 21.4196C19.8695 21.4196 19.7101 21.4196 19.6038 21.4196H19.5506C19.3912 21.4196 19.2318 21.5301 19.1786 21.6959C19.1786 22.1932 19.1786 22.7457 19.1786 23.2429C19.2318 23.4087 19.3381 23.5192 19.5506 23.5192H19.6038C19.7101 23.5192 19.8695 23.5192 19.9758 23.5192C20.1883 23.5192 20.3477 23.6297 20.4009 23.8507C20.5072 24.0717 20.454 24.2374 20.2946 24.3479C20.1883 24.4584 20.082 24.5689 19.9758 24.6794C19.8163 24.8452 19.8163 25.0662 19.9758 25.1767C20.2946 25.5082 20.5603 25.7845 20.8792 26.116C20.9854 26.1712 21.0386 26.2265 21.1449 26.2265C21.2511 26.2265 21.3043 26.1712 21.4106 26.116C21.5168 26.0055 21.6231 25.895 21.7294 25.7845C21.8357 25.674 21.942 25.6187 22.0483 25.6187C22.1014 25.6187 22.1545 25.6187 22.2608 25.674C22.4734 25.7292 22.5797 25.895 22.5797 26.116C22.5797 26.2817 22.5797 26.4475 22.5797 26.6132C22.5797 26.8342 22.7391 27 22.9516 27C23.3768 27 23.8019 27 24.227 27C24.4396 27 24.599 26.8342 24.599 26.6132C24.599 26.4475 24.599 26.2817 24.599 26.1712C24.599 25.9502 24.7053 25.7845 24.9179 25.7292C24.971 25.7292 25.0241 25.674 25.0773 25.674C25.1836 25.674 25.343 25.7292 25.4493 25.8397C25.5555 25.9502 25.6618 26.0607 25.7681 26.1712C25.8744 26.2265 25.9275 26.2817 26.0338 26.2817C26.1401 26.2817 26.1932 26.2265 26.2995 26.1712C26.6184 25.8397 26.8841 25.5635 27.2029 25.232C27.3623 25.0662 27.3623 24.8452 27.2029 24.7347C27.0966 24.6242 26.9903 24.5137 26.8841 24.4032C26.7246 24.2374 26.6715 24.0717 26.7778 23.8507C26.8309 23.6297 26.9903 23.5192 27.2029 23.5192C27.3623 23.5192 27.5217 23.5192 27.628 23.5192C27.8406 23.5192 28 23.3534 28 23.1324C28 22.6904 28 22.2484 28 21.8064C28 21.5854 27.8937 21.4196 27.628 21.4196C27.4686 21.4196 27.3623 21.4196 27.2029 21.4196C26.9903 21.4196 26.8309 21.3091 26.7246 21.0881C26.6184 20.8671 26.7246 20.7014 26.8309 20.5356C26.9372 20.4251 27.0435 20.3146 27.1498 20.2041C27.3092 20.0384 27.3092 19.8726 27.1498 19.7069C26.8309 19.3754 26.5121 19.0439 26.1932 18.7124C26.1401 18.6571 26.0338 18.6019 25.9275 18.6019C25.8212 18.6019 25.7681 18.6571 25.6618 18.7124C25.5555 18.8229 25.4493 18.9334 25.343 19.0439C25.2367 19.1544 25.1304 19.2096 25.0241 19.2096C24.971 19.2096 24.9178 19.2096 24.8116 19.1544C24.599 19.0991 24.4927 18.9334 24.4927 18.7124C24.4927 18.6019 24.4927 18.4914 24.4927 18.3256C24.599 18.2151 24.4927 18.0493 24.3333 17.9388ZM23.5362 24.2374C22.6328 24.2374 21.8357 23.4639 21.8357 22.4694C21.8357 21.5301 22.5797 20.7014 23.5362 20.7014C24.4396 20.7014 25.2367 21.4749 25.2367 22.4694C25.2367 23.4087 24.4927 24.2374 23.5362 24.2374Z" fill="#BFD4E4"/>
</svg>
