<svg xmlns="http://www.w3.org/2000/svg" width="22" height="20" fill="none" viewBox="0 0 22 20">
  <path fill="#BFD4E4" d="M9.353 9.695c2.565 0 4.65-2.16 4.65-4.82C14.002 2.161 11.918 0 9.352 0s-4.65 2.16-4.65 4.82c0 2.715 2.084 4.875 4.65 4.875Zm3.047 2.659c-1.123-.276-2.192-.443-3.047-.443-3.1 0-9.353 1.94-9.353 5.485v1.773h12.72c-.695-1.053-1.122-2.327-1.122-3.657 0-1.163.267-2.271.801-3.158Zm9.299 2.106h-.428c-.214 0-.374-.11-.48-.333-.108-.221 0-.387.106-.554l.32-.332c.161-.166.161-.332 0-.499l-.961-.997c-.16-.166-.321-.166-.481 0l-.321.333c-.16.166-.32.221-.534.11-.214-.055-.321-.221-.321-.443v-.388c0-.221-.053-.387-.267-.443h-1.497c-.213.111-.267.222-.267.443v.388c0 .222-.107.388-.32.443-.214.111-.375.056-.482-.11l-.32-.333c-.16-.166-.374-.166-.535 0l-.908.942a.38.38 0 0 0 0 .554l.32.332c.16.167.214.333.107.554-.107.222-.214.277-.427.277h-.374c-.214 0-.375.056-.428.277v1.552c.107.221.214.277.428.277h.374c.213 0 .374.11.427.332.107.222.054.388-.107.499l-.32.332c-.16.166-.16.388 0 .499l.908.942c.16.166.374.166.481 0l.32-.333c.161-.166.322-.221.535-.11.214.055.321.221.321.443v.498c0 .222.16.388.374.388h1.283c.214 0 .374-.166.374-.388v-.443c0-.222.107-.388.32-.443.214-.111.375 0 .535.11l.32.333c.161.166.375.166.482 0l.908-.942c.16-.166.16-.388 0-.498l-.32-.333c-.16-.166-.214-.332-.107-.554.053-.221.214-.332.427-.332h.428a.372.372 0 0 0 .374-.388v-1.33c.107-.166-.053-.332-.267-.332Zm-4.062 2.825c-.909 0-1.71-.775-1.71-1.773 0-.941.748-1.772 1.71-1.772.909 0 1.71.775 1.71 1.772 0 .942-.748 1.773-1.71 1.773Z"/>
</svg>
