<svg width="34" height="34" viewBox="0 0 34 34" fill="none" xmlns="http://www.w3.org/2000/svg">
<path d="M15.3528 16.6952C17.9181 16.6952 20.0025 14.5346 20.0025 11.8753C20.0025 9.16065 17.9181 7 15.3528 7C12.7874 7 10.7031 9.16065 10.7031 11.8199C10.7031 14.5346 12.7874 16.6952 15.3528 16.6952Z" fill="#BFD4E4"/>
<path d="M18.3992 19.3545C17.2769 19.0775 16.208 18.9113 15.3529 18.9113C12.2531 18.9113 6 20.8503 6 24.396V26.1689H18.7199C18.0251 25.1162 17.5976 23.842 17.5976 22.5124C17.5976 21.3489 17.8648 20.2409 18.3992 19.3545Z" fill="#BFD4E4"/>
<path d="M27.6987 21.4599C27.5384 21.4599 27.4315 21.4599 27.2712 21.4599C27.0574 21.4599 26.8971 21.3491 26.7902 21.1275C26.6833 20.9059 26.7902 20.7397 26.8971 20.5734C27.004 20.4626 27.1108 20.3518 27.2177 20.241C27.3781 20.0748 27.3781 19.9086 27.2177 19.7424C26.8971 19.41 26.5764 19.0776 26.2557 18.7452C26.0954 18.579 25.935 18.579 25.7747 18.7452C25.6678 18.856 25.5609 18.9668 25.454 19.0776C25.2937 19.2438 25.1334 19.2992 24.9196 19.1884C24.7058 19.133 24.5989 18.9668 24.5989 18.7452C24.5989 18.6344 24.5989 18.5236 24.5989 18.3574C24.5989 18.1358 24.5455 17.9696 24.3317 17.9142C23.8507 17.9142 23.3162 17.9142 22.8352 17.9142C22.6215 18.025 22.568 18.1358 22.568 18.3574C22.568 18.4682 22.568 18.579 22.568 18.7452C22.568 18.9668 22.4611 19.133 22.2473 19.1884C22.0336 19.2992 21.8732 19.2438 21.7663 19.0776C21.6595 18.9668 21.5526 18.856 21.4457 18.7452C21.2853 18.579 21.0716 18.579 20.9112 18.7452C20.5906 19.0776 20.3233 19.3546 20.0027 19.687C19.8423 19.8532 19.8423 20.0748 20.0027 20.241C20.1096 20.3518 20.2164 20.4626 20.3233 20.5734C20.4837 20.7397 20.5371 20.9059 20.4302 21.1275C20.3233 21.3491 20.2164 21.4045 20.0027 21.4045C19.8958 21.4045 19.7354 21.4045 19.6285 21.4045C19.4148 21.4045 19.2544 21.4599 19.201 21.6815C19.201 22.1801 19.201 22.7341 19.201 23.2327C19.3079 23.4543 19.4148 23.5097 19.6285 23.5097C19.7354 23.5097 19.8958 23.5097 20.0027 23.5097C20.2164 23.5097 20.3768 23.6205 20.4302 23.8421C20.5371 24.0637 20.4837 24.2299 20.3233 24.3407C20.2164 24.4515 20.1096 24.5623 20.0027 24.6732C19.8423 24.8394 19.8423 25.061 20.0027 25.1718C20.3233 25.5042 20.5906 25.7812 20.9112 26.1136C21.0716 26.2798 21.2853 26.2798 21.3922 26.1136C21.4991 26.0028 21.606 25.892 21.7129 25.7812C21.8732 25.615 22.0336 25.5596 22.2473 25.6704C22.4611 25.7258 22.568 25.892 22.568 26.1136C22.568 26.2798 22.568 26.446 22.568 26.6122C22.568 26.8338 22.7284 27 22.9421 27C23.3697 27 23.7973 27 24.2248 27C24.4386 27 24.5989 26.8338 24.5989 26.6122C24.5989 26.446 24.5989 26.2798 24.5989 26.169C24.5989 25.9474 24.7058 25.7812 24.9196 25.7258C25.1334 25.615 25.2937 25.7258 25.454 25.8366C25.5609 25.9474 25.6678 26.0582 25.7747 26.169C25.935 26.3352 26.1488 26.3352 26.2557 26.169C26.5764 25.8366 26.8436 25.5596 27.1643 25.2272C27.3246 25.061 27.3246 24.8394 27.1643 24.7286C27.0574 24.6177 26.9505 24.5069 26.8436 24.3961C26.6833 24.2299 26.6298 24.0637 26.7367 23.8421C26.7902 23.6205 26.9505 23.5097 27.1643 23.5097C27.3246 23.5097 27.485 23.5097 27.5918 23.5097C27.8056 23.5097 27.966 23.3435 27.966 23.1219C27.966 22.6787 27.966 22.2355 27.966 21.7923C28.0729 21.6261 27.9125 21.4599 27.6987 21.4599ZM23.6369 24.2853C22.7284 24.2853 21.9267 23.5097 21.9267 22.5125C21.9267 21.5707 22.6749 20.7397 23.6369 20.7397C24.5455 20.7397 25.3472 21.5153 25.3472 22.5125C25.3472 23.4543 24.5989 24.2853 23.6369 24.2853Z" fill="#BFD4E4"/>
</svg>
