<svg width="34" height="34" viewBox="0 0 34 34" fill="none" xmlns="http://www.w3.org/2000/svg">
<path d="M27 16.697C26.9196 18.1035 26.8392 19.5501 26.7185 20.9565C26.6381 21.8004 26.4371 22.6443 26.1556 23.4881C25.5525 25.0151 24.4266 25.9394 22.8584 26.4216C21.6923 26.7833 20.4458 26.9038 19.2396 26.944C17.4703 27.0244 15.7413 27.0244 13.9721 26.9038C12.9669 26.8234 11.9616 26.7029 10.9966 26.3814C9.22736 25.859 8.1015 24.6937 7.57877 22.9256C7.2571 21.7602 7.09626 20.5547 7.05605 19.3492C6.97563 17.5811 6.97563 15.7728 7.09626 14.0047C7.17668 12.9197 7.33751 11.8347 7.65919 10.7899C8.22213 9.10219 9.3882 8.0574 11.077 7.57519C12.2431 7.25371 13.4494 7.09297 14.6557 7.05279C16.6259 6.97242 18.5962 6.97242 20.5665 7.13316C21.4511 7.21353 22.3357 7.37426 23.1801 7.65555C24.8689 8.21813 25.8741 9.34329 26.3969 11.031C26.7185 12.1964 26.8794 13.4019 26.9196 14.6074C26.9598 15.2906 26.9196 15.9737 26.9196 16.6568C26.9196 16.697 26.9598 16.697 27 16.697ZM15.1382 16.4961C15.1382 18.0633 15.1382 19.5903 15.1382 21.1173C15.0578 21.1173 14.9773 21.1173 14.9371 21.1173C14.2134 21.1575 13.771 21.6397 13.771 22.363C13.771 23.0059 14.2938 23.5283 14.9773 23.5283C16.3043 23.5283 17.6714 23.5283 18.9983 23.5283C19.6416 23.5283 20.1644 23.0461 20.2046 22.4032C20.2448 21.72 19.7623 21.1976 19.0787 21.1575C18.9983 21.1575 18.9179 21.1575 18.7972 21.1575C18.7972 21.0369 18.7972 20.9565 18.7972 20.8762C18.7972 19.4295 18.7972 17.9829 18.7972 16.5765C18.7972 15.8531 18.3147 15.3709 17.6312 15.3709C16.5455 15.3709 15.4599 15.3709 14.3742 15.3709C13.9721 15.3709 13.7308 15.612 13.7308 15.9737C13.7308 16.3354 13.9721 16.5765 14.3742 16.5765C14.6154 16.5363 14.8567 16.4961 15.1382 16.4961ZM16.9476 14.1252C17.9528 14.1252 18.757 13.3215 18.7972 12.3169C18.7972 11.3123 17.9931 10.4685 16.9878 10.4685C15.9826 10.4685 15.1784 11.2721 15.1382 12.2767C15.1382 13.2813 15.9424 14.1252 16.9476 14.1252Z" fill="#BFD4E4"/>
</svg>
