<svg xmlns="http://www.w3.org/2000/svg" width="20" height="20" fill="none" viewBox="0 0 20 20">
  <path fill="#BFD4E4" d="M20 9.697c-.08 1.407-.16 2.853-.282 4.26a11.41 11.41 0 0 1-.562 2.531c-.604 1.527-1.73 2.451-3.298 2.934-1.166.361-2.412.482-3.618.522-1.77.08-3.499.08-5.268-.04-1.005-.08-2.01-.201-2.975-.523-1.77-.522-2.895-1.687-3.418-3.455a15.37 15.37 0 0 1-.523-3.577 47.4 47.4 0 0 1 .04-5.344C.176 5.92.338 4.835.66 3.79 1.222 2.102 2.39 1.057 4.077.575A15.397 15.397 0 0 1 7.656.053c1.97-.08 3.94-.08 5.91.08.885.08 1.77.241 2.614.523 1.689.562 2.694 1.687 3.217 3.375.322 1.165.482 2.37.523 3.576.04.684 0 1.367 0 2.05 0 .04.04.04.08.04Zm-11.862-.2v4.62h-.2c-.725.04-1.167.523-1.167 1.246 0 .643.523 1.165 1.206 1.165h4.021c.644 0 1.166-.482 1.207-1.125.04-.683-.443-1.205-1.126-1.245h-.282V9.576c0-.723-.482-1.205-1.166-1.205H7.374c-.402 0-.643.241-.643.603 0 .361.241.602.643.602.241-.04.483-.08.764-.08Zm1.81-2.372c1.005 0 1.809-.803 1.85-1.808 0-1.005-.805-1.849-1.81-1.849s-1.81.804-1.85 1.809c0 1.004.804 1.848 1.81 1.848Z"/>
</svg>
