<svg width="34" height="34" viewBox="0 0 34 34" fill="none" xmlns="http://www.w3.org/2000/svg">
<path d="M16.99 26.888C14.6113 26.888 12.2687 26.888 9.8901 26.888C9.3495 26.888 8.88097 26.7401 8.48453 26.3705C8.16017 26.0747 8.01602 25.7051 8.01602 25.2984C8.01602 22.5259 8.01602 19.7534 8.01602 17.0179C8.01602 16.7592 7.97998 16.5004 8.01602 16.2786C8.0881 15.5023 8.52057 15.0217 9.20534 14.763C9.60178 14.6151 9.99822 14.5781 10.4307 14.5781C12.7012 14.5781 15.0078 14.5781 17.2783 14.5781C17.4945 14.5781 17.7108 14.5781 17.927 14.5781C18.0712 14.5781 18.2154 14.6521 18.3235 14.763C18.8641 15.3544 19.4407 17.3506 19.9813 17.9421C20.0534 18.016 20.0894 18.016 20.1615 18.016C21.495 18.016 22.8285 18.016 24.162 18.016C24.6665 18.016 25.099 18.1639 25.4954 18.4966C25.8198 18.7923 26 19.162 26 19.6425C26 22.0084 26 23.0065 26 25.3724C26 26.0747 25.6396 26.5183 25.0269 26.8141C24.7386 26.9619 24.4142 26.9989 24.0899 26.9989C21.7473 26.888 19.3686 26.888 16.99 26.888Z" fill="#BFD4E4"/>
<path d="M23.8033 16.9472C23.7672 16.9472 23.7312 16.9472 23.6952 16.9472C22.65 16.9472 21.6409 16.9472 20.5957 16.9472C20.5236 16.9472 20.4876 16.9103 20.4516 16.8733C19.911 16.2818 19.3343 14.2856 18.7577 13.6942C18.6496 13.5833 18.5054 13.5093 18.3612 13.5093C16.5953 13.5093 14.8293 13.5093 13.0633 13.5093C12.1263 13.5093 11.1893 13.5093 10.2522 13.5093C10.2162 13.5093 10.1801 13.5093 10.1441 13.5093C10.1441 13.4724 10.1441 13.4354 10.1441 13.3984C10.1441 12.5113 10.1441 11.6241 10.1441 10.7369C10.1441 9.81269 10.7568 9.07336 11.6578 8.88853C11.7659 8.85156 11.874 8.85156 11.9821 8.85156C15.2978 8.85156 18.6496 8.85156 21.9652 8.85156C22.8662 8.85156 23.587 9.44303 23.7672 10.3672C23.8033 10.4781 23.8033 10.589 23.8033 10.7369C23.8033 12.2895 23.8033 15.2468 23.8033 16.7994C23.8393 16.8733 23.8393 16.9103 23.8033 16.9472ZM20.884 10.6999C18.2891 10.6999 15.6943 10.6999 13.1354 10.6999C13.1354 10.9956 13.1354 11.2914 13.1354 11.6241C15.7303 11.6241 18.3252 11.6241 20.884 11.6241C20.884 11.2914 20.884 10.9956 20.884 10.6999Z" fill="#BFD4E4"/>
<path d="M22.9708 7C20.1957 7 16.0511 7 13.9608 7C13.8527 7 13.7445 7 13.6364 7.03697C12.9877 7.14787 12.4831 7.59147 12.2669 8.18293C12.339 8.18293 12.375 8.14596 12.4471 8.14596C12.5192 8.14596 19.2226 8.109 22.6104 8.109C23.6916 8.109 24.5566 8.9962 24.5566 10.1052C24.5566 12.1014 24.5926 16.3156 24.5926 17.1288C25.6017 17.3137 25.7819 17.7573 25.7819 17.7203C25.7819 16.7961 25.7819 12.3232 25.7819 9.92036C25.7819 8.29383 24.5205 7 22.9708 7Z" fill="#BFD4E4"/>
</svg>
