<svg width="34" height="34" viewBox="0 0 34 34" fill="none" xmlns="http://www.w3.org/2000/svg">
<path d="M15.5612 6C16.1788 6 16.8212 6 17.4388 6C17.4388 6.59086 17.4635 7.18171 17.4388 7.79719C17.4388 7.9449 17.4882 7.99414 17.6365 8.01876C17.9082 8.04338 18.1553 8.09261 18.4271 8.16647C21.8612 8.92966 24.5788 11.9086 24.9988 15.3552C25.0235 15.5275 25.0729 15.5768 25.2459 15.5768C25.8388 15.5768 26.4318 15.5768 27 15.5768C27 16.1923 27 16.8324 27 17.4478C26.4071 17.4478 25.8141 17.4478 25.2212 17.4478C25.0729 17.4478 25.0235 17.4971 24.9988 17.6448C24.9741 17.9156 24.9247 18.1618 24.8506 18.4326C24.1094 21.83 21.0953 24.5873 17.6612 24.9812C17.4882 25.0059 17.4388 25.0551 17.4388 25.2274C17.4388 25.8183 17.4388 26.4091 17.4388 27C16.8212 27 16.1788 27 15.5612 27C15.5612 26.4091 15.5365 25.8183 15.5612 25.2028C15.5612 25.0551 15.5118 25.0059 15.3635 24.9812C15.0424 24.932 14.7459 24.8828 14.4494 24.8089C11.0153 23.9472 8.49529 21.1407 8.00118 17.6448C7.97647 17.4971 7.92706 17.4478 7.77882 17.4478C7.26 17.4478 6.76588 17.4478 6.24706 17.4478C6.17294 17.4478 6.09882 17.4478 6 17.4232C6 16.7831 6 16.1676 6 15.5275C6.09882 15.5275 6.17294 15.5275 6.24706 15.5275C6.74118 15.5275 7.23529 15.5275 7.75412 15.5275C7.92706 15.5522 8.00118 15.5029 8.00118 15.3552C8.02588 15.0844 8.07529 14.8382 8.14941 14.5674C8.89059 11.17 11.9047 8.41266 15.3388 8.01876C15.5118 7.99414 15.5612 7.9449 15.5612 7.77257C15.5612 7.18171 15.5612 6.59086 15.5612 6ZM23.1953 16.5123C23.22 12.8195 20.2306 9.84056 16.5247 9.81594C12.8435 9.79132 9.85412 12.7456 9.82941 16.4385C9.80471 20.1067 12.7694 23.1102 16.4753 23.1348C20.1565 23.1841 23.1706 20.2052 23.1953 16.5123Z" fill="#BFD4E4"/>
<path d="M16.5247 20.3034C14.4247 20.3034 12.72 18.6293 12.6953 16.5121C12.6953 14.3948 14.3753 12.6961 16.5 12.6715C18.6247 12.6715 20.3294 14.3702 20.3294 16.4875C20.3294 18.6047 18.6247 20.3034 16.5247 20.3034Z" fill="#BFD4E4"/>
</svg>
