<svg xmlns="http://www.w3.org/2000/svg" width="21" height="21" fill="none" viewBox="0 0 21 21">
  <path fill="#BFD4E4" d="M9.561 0h1.878c0 .59.024 1.182 0 1.797 0 .148.05.197.197.222.272.024.52.074.791.147C15.861 2.93 18.58 5.91 19 9.356c.024.172.074.22.247.22H21v1.872h-1.779c-.148 0-.198.05-.222.197a4.42 4.42 0 0 1-.148.788c-.742 3.397-3.756 6.154-7.19 6.548-.173.025-.222.074-.222.246V21H9.56c0-.59-.025-1.182 0-1.797 0-.148-.05-.197-.197-.222a10 10 0 0 1-.915-.172A8.585 8.585 0 0 1 2 11.645c-.025-.148-.074-.197-.222-.197H.247c-.074 0-.148 0-.247-.025V9.528h1.754c.173.024.247-.025.247-.173a4.42 4.42 0 0 1 .148-.788C2.891 5.17 5.905 2.413 9.34 2.02c.173-.025.222-.074.222-.246V0Zm7.634 10.512c.025-3.693-2.964-6.671-6.67-6.696a6.647 6.647 0 0 0-6.696 6.622c-.024 3.669 2.94 6.672 6.646 6.697 3.681.05 6.696-2.93 6.72-6.623Z"/>
  <path fill="#BFD4E4" d="M10.525 14.303a3.82 3.82 0 0 1-3.83-3.79A3.826 3.826 0 0 1 10.5 6.671a3.81 3.81 0 0 1 3.83 3.816 3.805 3.805 0 0 1-3.805 3.815Z"/>
</svg>
