<svg xmlns="http://www.w3.org/2000/svg" width="20" height="20" fill="none" viewBox="0 0 20 20">
  <g clip-path="url(#a)">
    <path fill="#BFD3E3" d="M20 8c-.396-3.5-3.366-6.1-7.03-6.2-.198 0-.594 0-1.089.1-4.158.8-6.633 4.9-5.346 9 .495 1.5 1.287 2.7 2.277 3.8 1.386 1.7 2.97 3.2 4.158 5.1.1.2.198.2.297 0 .891-1.4 2.08-2.7 3.169-4 .89-1.1 1.88-2.2 2.574-3.5.792-1.3 1.188-2.7.99-4.3Zm-1.881 1.4c0 .2-.1.4-.297.5-.1 0-.198.1-.297.1-.297 0-.396.2-.495.4-.1.1-.1.3-.198.4-.1.2 0 .4 0 .5 0 .1.099.2.099.2.099.3.099.5-.1.7l-.494.5c-.1.1-.297.2-.495.1-.1 0-.298-.1-.397-.2-.197-.1-.396-.1-.594-.1-.099 0-.198.1-.198.1-.297.1-.495.3-.594.7 0 .3-.198.5-.495.5h-.89c-.298-.1-.496-.3-.496-.6v-.1a.777.777 0 0 0-.396-.4c-.198-.1-.297-.1-.495-.2s-.297 0-.495.1c-.099 0-.198.1-.198.1-.198.1-.495.1-.693 0l-.594-.6c-.1-.1-.198-.3-.1-.5 0-.1.1-.3.199-.4.198-.2.198-.5.099-.7 0-.1-.1-.2-.1-.3-.098-.3-.296-.4-.593-.5-.1 0-.198 0-.297-.1-.198.3-.297.1-.297-.1v-.9c.099-.2.198-.4.495-.5.099 0 .198 0 .198-.1.198 0 .297-.2.396-.3.099-.2.099-.3.198-.5s0-.3-.1-.5c0-.1-.098-.2-.098-.2-.1-.2-.1-.5.099-.7.099-.2.297-.4.495-.5.099-.1.297-.2.495-.1.099 0 .198.1.396.2s.297.2.495.1.495-.2.693-.3c.1-.1.198-.2.297-.4 0-.1 0-.2.1-.3.098-.3.296-.5.593-.5h.594c.297 0 .495.1.594.4 0 .1.1.2.1.3 0 .2.197.4.396.5.197.1.296.1.495.2.198.1.396 0 .495-.1.099 0 .099-.1.198-.1.297-.1.495-.1.693.1l.495.5c.198.2.198.4.099.6 0 .1-.1.2-.1.3-.197.1-.296.3-.296.4.099.3.198.5.297.8.099.1.297.1.297.2.099 0 .198.1.297.1.297.1.495.3.495.6v.6Z"/>
    <path fill="#BFD3E3" d="M13.168 7.5c-.89 0-1.584.7-1.584 1.6 0 .9.693 1.6 1.584 1.6.891 0 1.585-.7 1.585-1.6 0-.9-.694-1.6-1.585-1.6Zm-6.732 5.1c-.495-1-.792-1.9-.891-2.9H5.05c-.1-.1-.1 0-.199 0-.198.1-.396.1-.594 0-.099-.2-.297-.3-.396-.5-.099-.1-.198-.2-.099-.4 0-.1.1-.2.1-.3.098-.1.197-.3.098-.5 0-.1-.099-.1-.099-.2-.099-.2-.297-.4-.495-.4-.099 0-.099 0-.198-.1-.099 0-.198-.2-.297-.3v-.7c.1-.3.198-.4.396-.4h.198c.198 0 .297-.1.297-.3.1-.2.1-.3.198-.4v-.5c0-.1-.099-.1-.099-.2-.198-.1-.198-.3 0-.5.1-.2.297-.3.396-.5.1-.1.198-.1.396-.1.1 0 .199.1.298.1.099.1.198.1.396.1.198-.1.396-.1.495-.2.099 0 .198-.1.198-.2s0-.1.099-.2c.099-.3.198-.4.495-.4h.495c.198 0 .396.1.495.3 0 .1 0 .1.099.2v.1c.594-.6 1.386-1.1 2.178-1.6.297-.2.594-.3.891-.4 0 0-.099 0-.099-.1C9.208.2 7.723-.2 6.04 0 1.683.7-.99 5 .396 9.2c.396 1.4 1.188 2.5 2.08 3.6 1.385 1.7 2.97 3.3 4.257 5.2.099.2.198.1.297 0 .594-.7 1.089-1.5 1.683-2.2-.1-.1-.198-.2-.297-.4-.693-.9-1.485-1.8-1.98-2.8Z"/>
  </g>
  <defs>
    <clipPath id="a">
      <path fill="#fff" d="M0 0h20v20H0z"/>
    </clipPath>
  </defs>
</svg>
