<svg width="34" height="34" viewBox="0 0 34 34" fill="none" xmlns="http://www.w3.org/2000/svg">
<g clip-path="url(#clip0_2443_6878)">
<path d="M27 15C26.604 11.5 23.6337 8.9 19.9703 8.8C19.7723 8.8 19.3762 8.8 18.8812 8.9C14.7228 9.7 12.2475 13.8 13.5346 17.9C14.0297 19.4 14.8218 20.6 15.8119 21.7C17.198 23.4 18.7822 24.9 19.9703 26.8C20.0693 27 20.1683 27 20.2673 26.8C21.1584 25.4 22.3465 24.1 23.4356 22.8C24.3267 21.7 25.3168 20.6 26.0099 19.3C26.802 18 27.198 16.6 27 15ZM25.1188 16.4C25.1188 16.6 25.0198 16.8 24.8218 16.9C24.7228 16.9 24.6238 17 24.5247 17C24.2277 17 24.1287 17.2 24.0297 17.4C23.9307 17.5 23.9307 17.7 23.8317 17.8C23.7327 18 23.8317 18.2 23.8317 18.3C23.8317 18.4 23.9307 18.5 23.9307 18.5C24.0297 18.8 24.0297 19 23.8317 19.2C23.6337 19.4 23.4356 19.6 23.3366 19.7C23.2376 19.8 23.0396 19.9 22.8416 19.8C22.7426 19.8 22.5445 19.7 22.4455 19.6C22.2475 19.5 22.0495 19.5 21.8515 19.5C21.7525 19.5 21.6535 19.6 21.6535 19.6C21.3564 19.7 21.1584 19.9 21.0594 20.3C21.0594 20.6 20.8614 20.8 20.5644 20.8C20.2673 20.8 19.9703 20.8 19.6733 20.8C19.3762 20.7 19.1782 20.5 19.1782 20.2V20.1C19.0792 19.9 18.9802 19.8 18.7822 19.7C18.5842 19.6 18.4851 19.6 18.2871 19.5C18.0891 19.4 17.9901 19.5 17.7921 19.6C17.6931 19.6 17.5941 19.7 17.5941 19.7C17.396 19.8 17.099 19.8 16.901 19.7C16.703 19.5 16.5049 19.3 16.3069 19.1C16.2079 19 16.1089 18.8 16.2079 18.6C16.2079 18.5 16.3069 18.3 16.4059 18.2C16.604 18 16.604 17.7 16.5049 17.5C16.5049 17.4 16.4059 17.3 16.4059 17.2C16.3069 16.9 16.1089 16.8 15.8119 16.7C15.7129 16.7 15.6139 16.7 15.5148 16.6C15.3168 16.9 15.2178 16.7 15.2178 16.5C15.2178 16.2 15.2178 15.9 15.2178 15.6C15.3168 15.4 15.4158 15.2 15.7129 15.1C15.8119 15.1 15.9109 15.1 15.9109 15C16.1089 15 16.2079 14.8 16.3069 14.7C16.4059 14.5 16.4059 14.4 16.5049 14.2C16.604 14 16.5049 13.9 16.4059 13.7C16.4059 13.6 16.3069 13.5 16.3069 13.5C16.2079 13.3 16.2079 13 16.4059 12.8C16.5049 12.6 16.703 12.4 16.901 12.3C17 12.2 17.198 12.1 17.396 12.2C17.495 12.2 17.5941 12.3 17.7921 12.4C17.9901 12.5 18.0891 12.6 18.2871 12.5C18.4851 12.4 18.7822 12.3 18.9802 12.2C19.0792 12.1 19.1782 12 19.2772 11.8C19.2772 11.7 19.2772 11.6 19.3762 11.5C19.4752 11.2 19.6733 11 19.9703 11C20.1683 11 20.3663 11 20.5644 11C20.8614 11 21.0594 11.1 21.1584 11.4C21.1584 11.5 21.2574 11.6 21.2574 11.7C21.2574 11.9 21.4554 12.1 21.6535 12.2C21.8515 12.3 21.9505 12.3 22.1485 12.4C22.3465 12.5 22.5445 12.4 22.6436 12.3C22.7426 12.3 22.7426 12.2 22.8416 12.2C23.1386 12.1 23.3366 12.1 23.5346 12.3C23.7327 12.5 23.8317 12.6 24.0297 12.8C24.2277 13 24.2277 13.2 24.1287 13.4C24.1287 13.5 24.0297 13.6 24.0297 13.7C23.8317 13.8 23.7327 14 23.7327 14.1C23.8317 14.4 23.9307 14.6 24.0297 14.9C24.1287 15 24.3267 15 24.3267 15.1C24.4257 15.1 24.5247 15.2 24.6238 15.2C24.9208 15.3 25.1188 15.5 25.1188 15.8C25.1188 16 25.1188 16.2 25.1188 16.4Z" fill="#BFD3E3"/>
<path d="M20.1683 14.5C19.2772 14.5 18.5842 15.2 18.5842 16.1C18.5842 17 19.2772 17.7 20.1683 17.7C21.0594 17.7 21.7525 17 21.7525 16.1C21.7525 15.2 21.0594 14.5 20.1683 14.5Z" fill="#BFD3E3"/>
<path d="M13.4357 19.6C12.9406 18.6 12.6436 17.7 12.5446 16.7H12.4456C12.3466 16.7 12.1485 16.7 12.0495 16.7C11.9505 16.6 11.9505 16.7 11.8515 16.7C11.6535 16.8 11.4555 16.8 11.2574 16.7C11.1584 16.5 10.9604 16.4 10.8614 16.2C10.7624 16.1 10.6634 16 10.7624 15.8C10.7624 15.7 10.8614 15.6 10.8614 15.5C10.9604 15.4 11.0594 15.2 10.9604 15C10.9604 14.9 10.8614 14.9 10.8614 14.8C10.7624 14.6 10.5644 14.4 10.3664 14.4C10.2673 14.4 10.2673 14.4 10.1683 14.3C10.0693 14.3 9.97032 14.1 9.87131 14C9.87131 13.8 9.87131 13.5 9.87131 13.3C9.97032 13 10.0693 12.9 10.2673 12.9C10.3664 12.9 10.3664 12.9 10.4654 12.9C10.6634 12.9 10.7624 12.8 10.7624 12.6C10.8614 12.4 10.8614 12.3 10.9604 12.2C10.9604 12 10.9604 11.9 10.9604 11.7C10.9604 11.6 10.8614 11.6 10.8614 11.5C10.6634 11.4 10.6634 11.2 10.8614 11C10.9604 10.8 11.1584 10.7 11.2574 10.5C11.3565 10.4 11.4555 10.4 11.6535 10.4C11.7525 10.4 11.8515 10.5 11.9505 10.5C12.0495 10.6 12.1485 10.6 12.3466 10.6C12.5446 10.5 12.7426 10.5 12.8416 10.4C12.9406 10.4 13.0396 10.3 13.0396 10.2C13.0396 10.1 13.0396 10.1 13.1386 10C13.2376 9.7 13.3367 9.6 13.6337 9.6C13.8317 9.6 13.9307 9.6 14.1287 9.6C14.3268 9.6 14.5248 9.7 14.6238 9.9C14.6238 10 14.6238 10 14.7228 10.1C14.7228 10.1 14.7228 10.1 14.7228 10.2C15.3169 9.6 16.1089 9.1 16.901 8.6C17.198 8.4 17.4951 8.3 17.7921 8.2C17.7921 8.2 17.6931 8.2 17.6931 8.1C16.2079 7.2 14.7228 6.8 13.0396 7C8.68319 7.7 6.00992 12 7.39606 16.2C7.7921 17.6 8.58418 18.7 9.47527 19.8C10.8614 21.5 12.4456 23.1 13.7327 25C13.8317 25.2 13.9307 25.1 14.0297 25C14.6238 24.3 15.1188 23.5 15.7129 22.8C15.6139 22.7 15.5149 22.6 15.4159 22.4C14.7228 21.5 13.9307 20.6 13.4357 19.6Z" fill="#BFD3E3"/>
</g>
<defs>
<clipPath id="clip0_2443_6878">
<rect width="20" height="20" fill="white" transform="translate(7 7)"/>
</clipPath>
</defs>
</svg>
