<svg xmlns="http://www.w3.org/2000/svg" width="21" height="20" fill="none" viewBox="0 0 21 20">
  <path fill="#BFD3E3" d="M12.9 15.6c-.7-1-1.4-1.9-2.2-2.9v5c0 .5-.5.9-.9.7-.1 0-.1-.1-.2-.1-1.5-1.1-3-2.2-4.4-3.3H.8c-.5 0-.8-.3-.8-.8V5.9c0-.6.3-.9.8-.9H5c0-.1-.1-.1-.1-.1-.7-.9-1.3-1.8-2-2.7-.3-.4-.3-.9.1-1.2.4-.3.7-.6 1.1-.8.4-.3.8-.2 1.1.2.7.9 1.4 1.9 2.1 2.8 2.4 3.2 4.8 6.5 7.2 9.7 1.2 1.7 2.5 3.3 3.7 5 .3.4.2.8-.2 1.1-.4.3-.7.6-1.1.8-.4.3-.8.2-1.1-.2-.3-.5-.7-.9-1-1.4-.1-.1-.1-.1-.2-.1-.5.2-.9.3-1.4.5-.5.1-.9-.2-.9-.7v-1.6c0-.3.2-.5.6-.7Zm5 .2c-.6-.9-1.3-1.7-1.9-2.5.3-.5.5-1 .7-1.5.9-3-.8-6.3-3.7-7.3-.3-.1-.5-.3-.6-.6V2.2c0-.5.4-.9 1-.8 3.2.8 5.8 3.4 6.5 6.8.5 2.8-.2 5.3-2 7.6Z"/>
  <path fill="#BFD3E3" d="M15 11.9c-.2-.2-.3-.4-.5-.7-.7-.9-1.4-1.9-2.1-2.8-.1-.1-.1-.2-.1-.3V7c0-.3.1-.6.4-.7.3-.2.5-.1.8.1 1 .7 1.7 1.7 1.8 3 .2.8.1 1.7-.3 2.5 0-.1 0 0 0 0Zm-4.3-5.7C9.8 5 9 3.8 8.1 2.7c.3-.3.7-.5 1-.7.1-.1.3-.2.4-.3.2-.2.5-.2.7-.1.3.1.4.4.4.7v3.9c.1-.1.1-.1.1 0Z"/>
</svg>
