<svg width="34" height="34" viewBox="0 0 34 34" fill="none" xmlns="http://www.w3.org/2000/svg">
<path d="M19.9 22.6C19.2 21.6 18.5 20.7 17.7 19.7V19.8C17.7 21.4 17.7 23.1 17.7 24.7C17.7 25.2 17.2 25.6 16.8 25.4C16.7 25.4 16.7 25.3 16.6 25.3C15.1 24.2 13.6 23.1 12.2 22C12 22 11.9 22 11.7 22C10.4 22 9.1 22 7.8 22C7.3 22 7 21.7 7 21.2C7 18.4 7 15.7 7 12.9C7 12.3 7.3 12 7.8 12C9.1 12 10.5 12 11.8 12C11.8 12 11.9 12 12 12C12 11.9 11.9 11.9 11.9 11.9C11.2 11 10.6 10.1 9.9 9.20001C9.6 8.80001 9.6 8.30001 10 8.00001C10.4 7.70001 10.7 7.40001 11.1 7.20001C11.5 6.90001 11.9 7.00001 12.2 7.40001C12.9 8.30001 13.6 9.30001 14.3 10.2C16.7 13.4 19.1 16.7 21.5 19.9C22.7 21.6 24 23.2 25.2 24.9C25.5 25.3 25.4 25.7 25 26C24.6 26.3 24.3 26.6 23.9 26.8C23.5 27.1 23.1 27 22.8 26.6C22.5 26.1 22.1 25.7 21.8 25.2C21.7 25.1 21.7 25.1 21.6 25.1C21.1 25.3 20.7 25.4 20.2 25.6C19.7 25.7 19.3 25.4 19.3 24.9C19.3 24.4 19.3 23.9 19.3 23.3C19.3 23 19.5 22.8 19.9 22.6Z" fill="#BFD3E3"/>
<path d="M24.9 22.8C24.3 21.9 23.6 21.1 23 20.3C23.3 19.8 23.5 19.3 23.7 18.8C24.6 15.8 22.9 12.5 20 11.5C19.7 11.4 19.5 11.2 19.4 10.9C19.4 10.8 19.4 10.8 19.4 10.7C19.4 10.2 19.4 9.70001 19.4 9.20001C19.4 8.70001 19.8 8.30001 20.4 8.40001C23.6 9.20001 26.2 11.8 26.9 15.2C27.4 18 26.7 20.5 24.9 22.8Z" fill="#BFD3E3"/>
<path d="M22 18.9C21.8 18.7 21.7 18.5 21.5 18.2C20.8 17.3 20.1 16.3 19.4 15.4C19.3 15.3 19.3 15.2 19.3 15.1C19.3 14.7 19.3 14.3 19.3 14C19.3 13.7 19.4 13.4 19.7 13.3C20 13.1 20.2 13.2 20.5 13.4C21.5 14.1 22.2 15.1 22.3 16.4C22.5 17.2 22.4 18.1 22 18.9C22 18.8 22 18.9 22 18.9Z" fill="#BFD3E3"/>
<path d="M17.7 13.2C16.8 12 16 10.8 15.1 9.7C15.4 9.4 15.8 9.2 16.1 9C16.2 8.9 16.4 8.8 16.5 8.7C16.7 8.5 17 8.5 17.2 8.6C17.5 8.7 17.6 9 17.6 9.3C17.6 10.1 17.6 10.9 17.6 11.7C17.6 12.2 17.6 12.7 17.6 13.2C17.7 13.1 17.7 13.1 17.7 13.2Z" fill="#BFD3E3"/>
</svg>
