<svg xmlns="http://www.w3.org/2000/svg" width="17" height="21" fill="none" viewBox="0 0 17 21">
  <path fill="#BFD4E4" fill-rule="evenodd" d="M8.5 0C4.338 0 .952 3.468.952 7.731c0 1.112.222 2.174.66 3.156 1.887 4.23 5.505 8.696 6.57 9.964a.416.416 0 0 0 .636 0c1.064-1.268 4.682-5.733 6.57-9.964.438-.982.66-2.044.66-3.156C16.048 3.468 12.662 0 8.5 0Zm0 11.747c-2.162 0-3.921-1.801-3.921-4.016 0-2.214 1.759-4.016 3.92-4.016 2.163 0 3.922 1.802 3.922 4.016 0 2.215-1.76 4.016-3.921 4.016Z" clip-rule="evenodd"/>
</svg>
