<svg width="34" height="34" viewBox="0 0 34 34" fill="none" xmlns="http://www.w3.org/2000/svg">
<path fill-rule="evenodd" clip-rule="evenodd" d="M16.4997 5C12.3379 5 8.9516 8.46834 8.9516 12.7314C8.9516 13.8434 9.17381 14.9051 9.61173 15.8873C11.499 20.1171 15.1173 24.5828 16.1816 25.8506C16.2613 25.9454 16.3776 26 16.4999 26C16.6222 26 16.7385 25.9454 16.8182 25.8506C17.8821 24.583 21.5004 20.1175 23.3883 15.8873C23.8264 14.9051 24.0484 13.8434 24.0484 12.7314C24.048 8.46834 20.6617 5 16.4997 5ZM16.4997 16.7473C14.3378 16.7473 12.5788 14.9457 12.5788 12.7314C12.5788 10.5169 14.3378 8.71523 16.4997 8.71523C18.6616 8.71523 20.4206 10.5169 20.4206 12.7314C20.4209 14.9457 18.6618 16.7473 16.4997 16.7473Z" fill="#BFD4E4"/>
</svg>
