<svg width="34" height="34" viewBox="0 0 34 34" fill="none" xmlns="http://www.w3.org/2000/svg">
<path d="M25.5 7.6C24.9 7.6 24.2 7.6 23.6 7.6H23.5V7.5C23.5 6.9 23.5 6.2 23.5 5.6C23.5 5.2 23.3 5 22.9 5C22.6 5 22.2 5 21.9 5C21.5 5 21.3 5.2 21.3 5.7C21.3 6.3 21.3 7 21.3 7.6V7.7C20.6 7.7 20 7.7 19.3 7.7C18.9 7.7 18.7 7.9 18.7 8.3C18.7 8.6 18.7 9 18.7 9.3C18.7 9.7 18.9 9.9 19.3 9.9C19.9 9.9 20.6 9.9 21.2 9.9H21.3V10C21.3 10.6 21.3 11.3 21.3 11.9C21.3 12.2 21.5 12.5 21.8 12.5C22.2 12.5 22.6 12.5 23 12.5C23.3 12.5 23.5 12.2 23.5 11.9C23.5 11.8 23.5 11.8 23.5 11.7C23.5 11.1 23.5 10.4 23.5 9.8H23.6C24.2 9.8 24.9 9.8 25.5 9.8C25.9 9.8 26.1 9.6 26.1 9.2C26.1 8.9 26.1 8.5 26.1 8.2C26.2 7.9 26 7.6 25.5 7.6Z" fill="#BFD3E3"/>
<path d="M15.0652 25C16.7391 25 18.5652 25 20.2391 25C20.6957 25 21 24.8451 21 24.2254C21 21.9014 21 19.4225 21 17.0986C21 15.3944 19.6304 14 17.9565 14C14.6087 14 11.2609 14 7.91304 14C7.15217 14.1549 7 14.3099 7 14.9296C7 17.2535 7 19.5775 7 21.9014C7 23.7606 8.21739 25 10.1957 25C11.7174 25 13.3913 25 15.0652 25Z" fill="#BFD3E3"/>
<path d="M25.8438 19.5797C25.8438 17.9855 25.8438 16.2319 25.8438 14.4783C25.8438 14.3188 25.8438 14.1594 25.6875 14C25.5313 14 25.375 14 25.2188 14.1594C23.8125 15.1159 22.5625 16.0725 21.1563 17.029C21 17.3478 21 17.3478 21 17.6667C21 18.942 21 20.2174 21 21.4928C21 21.6522 21 21.8116 21.3125 21.971C22.7187 22.9275 23.9688 23.8841 25.375 24.8406C25.5313 25 25.6875 25 25.8438 25C26 25 26 24.6812 26 24.5217C25.8438 22.9275 25.8438 21.1739 25.8438 19.5797Z" fill="#BFD3E3"/>
</svg>
