<svg xmlns="http://www.w3.org/2000/svg" width="20" height="20" fill="none" viewBox="0 0 20 20">
  <path fill="#BFD3E3" d="M18.5 2.6h-2v-2c0-.4-.2-.6-.6-.6h-1c-.4 0-.6.2-.6.7v2h-2c-.4 0-.6.2-.6.6v1c0 .4.2.6.6.6h2v2c0 .3.2.6.5.6H16c.3 0 .5-.3.5-.6V4.8h2c.4 0 .6-.2.6-.6v-1c.1-.3-.1-.6-.6-.6ZM8.065 20h5.174c.457 0 .761-.155.761-.775V12.1c0-1.706-1.37-3.1-3.043-3.1H.912c-.76.155-.913.31-.913.93v6.97C0 18.761 1.217 20 3.196 20h4.87Zm10.779-5.42V9.478c0-.16 0-.319-.157-.478-.156 0-.312 0-.468.16-1.407.956-2.657 1.912-4.063 2.869-.156.319-.156.319-.156.638v3.826c0 .16 0 .319.313.478 1.406.956 2.656 1.913 4.062 2.87.156.159.313.159.469.159.156 0 .156-.319.156-.478-.156-1.595-.156-3.348-.156-4.942Z"/>
</svg>
