<svg width="34" height="34" viewBox="0 0 34 34" fill="none" xmlns="http://www.w3.org/2000/svg">
<path d="M27.8 15.1C27.2 11.8 25.4 9.2 22.5 7.5C18.5 5.2 13.6 5.6 9.99998 8.5C7.69998 10.4 6.39998 12.8 6.09998 15.7C6.09998 16 6.09998 16.2 6.09998 16.5C6.19998 16.3 6.29998 16.2 6.59998 16.2C8.79998 16.2 11 16.2 13.2 16.2C14.3 16.2 15.2 17 15.2 18.2C15.2 19.7 15.2 21.3 15.2 22.8C15.2 23.1 15.1 23.3 14.7 23.3C13.6 23.3 12.4 23.3 11.3 23.3C10.2 23.3 9.19998 23.3 8.09998 23.3H7.99998C8.69998 24.2 9.49998 25.1 10.4 25.8C12.1 27.1 14 27.8 16.1 28C16.2 28 16.2 28 16.3 28C16.8 28 17.2 28 17.7 28C18.1 27.9 18.5 27.9 18.9 27.8C22 27.2 24.4 25.6 26.2 23C27.3 21.4 27.8 19.7 28 17.8C28 17.7 28 17.7 28 17.6C28 17.1 28 16.7 28 16.2C27.9 15.9 27.9 15.5 27.8 15.1ZM18.6 22.9C18.6 23 18.6 23.2 18.5 23.2C18.4 23.2 18.3 23.2 18.2 23.1C17.3 22.5 16.5 21.9 15.6 21.3C15.5 21.2 15.4 21.1 15.4 21C15.4 20.2 15.4 19.4 15.4 18.6C15.4 18.5 15.4 18.4 15.6 18.3C16.5 17.7 17.3 17.1 18.2 16.5C18.3 16.4 18.4 16.4 18.5 16.4C18.6 16.4 18.6 16.6 18.6 16.7C18.6 17.7 18.6 18.8 18.6 19.9C18.6 20.8 18.6 21.8 18.6 22.9ZM25.6 13.4C25.6 13.8 25.4 14 25 14C24.4 14 23.7 14 23.1 14H23C23 14.7 23 15.3 23 15.9C23 16 23 16 23 16.1C23 16.4 22.8 16.6 22.5 16.7C22.1 16.7 21.7 16.7 21.3 16.7C21 16.7 20.8 16.4 20.8 16.1C20.8 15.5 20.8 14.8 20.8 14.2V14.1H20.7C20.1 14.1 19.4 14.1 18.8 14.1C18.4 14.1 18.2 13.9 18.2 13.5C18.2 13.2 18.2 12.8 18.2 12.5C18.2 12.1 18.4 11.9 18.8 11.9C19.5 11.9 20.1 11.9 20.8 11.9V11.8C20.8 11.2 20.8 10.5 20.8 9.9C20.8 9.5 21 9.2 21.4 9.2C21.7 9.2 22.1 9.2 22.4 9.2C22.8 9.2 23 9.4 23 9.8C23 10.4 23 11.1 23 11.7V11.8C23.1 11.8 23.1 11.8 23.1 11.8C23.7 11.8 24.4 11.8 25 11.8C25.4 11.8 25.6 12 25.6 12.4C25.6 12.8 25.6 13.1 25.6 13.4Z" fill="#BFD3E3"/>
</svg>
