<svg xmlns="http://www.w3.org/2000/svg" width="22" height="22" fill="none" viewBox="0 0 22 22">
  <path fill="#BFD3E3" d="M21.8 9.1c-.6-3.3-2.4-5.9-5.3-7.6-4-2.3-8.9-1.9-12.5 1C1.7 4.4.4 6.8.1 9.7v.8c.1-.2.2-.3.5-.3h6.6c1.1 0 2 .8 2 2v4.6c0 .3-.1.5-.5.5H2c.7.9 1.5 1.8 2.4 2.5 1.7 1.3 3.6 2 5.7 2.2h1.6c.4-.1.8-.1 1.2-.2 3.1-.6 5.5-2.2 7.3-4.8 1.1-1.6 1.6-3.3 1.8-5.2v-1.6c-.1-.3-.1-.7-.2-1.1Zm-9.2 7.8c0 .1 0 .3-.1.3s-.2 0-.3-.1c-.9-.6-1.7-1.2-2.6-1.8-.1-.1-.2-.2-.2-.3v-2.4c0-.1 0-.2.2-.3.9-.6 1.7-1.2 2.6-1.8.1-.1.2-.1.3-.1.1 0 .1.2.1.3v6.2Zm7-9.5c0 .4-.2.6-.6.6h-2v2.1c0 .3-.2.5-.5.6h-1.2c-.3 0-.5-.3-.5-.6v-2h-2c-.4 0-.6-.2-.6-.6v-1c0-.4.2-.6.6-.6h2v-2c0-.4.2-.7.6-.7h1c.4 0 .6.2.6.6v2h2c.4 0 .6.2.6.6v1Z"/>
</svg>
