<svg xmlns="http://www.w3.org/2000/svg" width="18" height="22" fill="none" viewBox="0 0 18 22">
  <path fill="#BFD4E4" d="M2.515 11.546V9.557c0-.925.186-1.757.606-2.59.512-.971 1.21-1.758 2.235-2.267.186-.092.186-.185.186-.37-.046-.925.233-1.757.932-2.451 1.537-1.573 4.099-.972 4.844 1.11.186.463.233.925.186 1.388 0 .138.047.23.186.323 1.677.926 2.609 2.36 2.795 4.256.046.74.046 1.526.046 2.266v.324c.513.139.979.324 1.351.648.606.555.978 1.202 1.071 1.989.094.74.14 1.526-.046 2.266-.326 1.25-1.071 2.036-2.376 2.36-.232.046-.465.046-.652.046H11.55c-.046 1.017-.372 1.85-1.164 2.451A2.705 2.705 0 0 1 8.57 22a2.751 2.751 0 0 1-2.143-.971c-.558-.602-.838-1.342-.838-2.174H3.214c-1.398 0-2.562-.833-2.935-2.174a5.663 5.663 0 0 1 0-3.053c.28-1.11 1.072-1.804 2.236-2.082Zm6.008 5.18h5.589c.466-.045.885-.415.885-.924v-1.295c0-.417-.326-.787-.745-.88-.186-.046-.373 0-.559-.046-.745 0-1.164-.416-1.164-1.156V9.372c0-.277-.047-.555-.093-.832-.326-1.388-1.537-2.313-2.935-2.313H7.685c-.186 0-.42 0-.606.046-1.397.278-2.421 1.527-2.468 2.96v3.238c0 .648-.466 1.11-1.118 1.11h-.326c-.605 0-1.025.417-1.025 1.018v.971c0 .787.373 1.157 1.165 1.157h5.216Zm-.978 2.175c0 .601.42 1.018.978 1.018a.926.926 0 0 0 .932-1.018h-1.91ZM9.501 4.145c-.046-.647-.465-1.017-1.024-1.017-.513 0-.932.462-.932 1.017h1.956Z"/>
</svg>
