<svg width="34" height="34" viewBox="0 0 34 34" fill="none" xmlns="http://www.w3.org/2000/svg">
<path d="M10.5151 16.5462C10.5151 15.8524 10.5151 15.2048 10.5151 14.5572C10.5151 13.6321 10.7014 12.7995 11.1206 11.9669C11.6329 10.9956 12.3315 10.2092 13.3562 9.70041C13.5425 9.6079 13.5425 9.51539 13.5425 9.33037C13.4959 8.40526 13.7754 7.57266 14.474 6.87882C16.011 5.30614 18.5726 5.90746 19.3178 7.98896C19.5041 8.45151 19.5507 8.91407 19.5041 9.37662C19.5041 9.51539 19.5507 9.6079 19.6904 9.70041C21.3671 10.6255 22.2987 12.0594 22.485 13.9559C22.5315 14.696 22.5315 15.4823 22.5315 16.2224C22.5315 16.3149 22.5315 16.4075 22.5315 16.5462C23.0439 16.685 23.5096 16.87 23.8822 17.1938C24.4877 17.7489 24.8603 18.3964 24.9534 19.1828C25.0466 19.9229 25.0932 20.7092 24.9069 21.4493C24.5808 22.6982 23.8356 23.4846 22.5315 23.8083C22.2987 23.8546 22.0658 23.8546 21.8795 23.8546C21.1808 23.8546 20.5288 23.8546 19.8302 23.8546C19.737 23.8546 19.6439 23.8546 19.5507 23.8546C19.5041 24.8722 19.1781 25.7048 18.3863 26.3061C17.874 26.7687 17.2219 27 16.5699 27C15.7315 27 14.9863 26.6762 14.4274 26.0286C13.8685 25.4273 13.5891 24.6872 13.5891 23.8546C13.4959 23.8546 13.4028 23.8546 13.3096 23.8546C12.611 23.8546 11.9124 23.8546 11.2137 23.8546C9.81646 23.8546 8.65208 23.022 8.27947 21.6806C8.00002 20.663 8.00002 19.6453 8.27947 18.6277C8.55893 17.5176 9.35071 16.8238 10.5151 16.5462ZM16.5233 21.7268C17.3151 21.7268 18.0603 21.7268 18.8521 21.7268C19.6439 21.7268 20.4356 21.7268 21.2274 21.7268C21.5069 21.7268 21.7863 21.7268 22.1124 21.7268C22.5781 21.6806 22.9973 21.3105 22.9973 20.8017C22.9973 20.3854 22.9973 19.9691 22.9973 19.5066C22.9973 19.0903 22.6713 18.7202 22.2521 18.6277C22.0658 18.5815 21.8795 18.6277 21.6932 18.5815C20.948 18.5815 20.5288 18.1652 20.5288 17.4251C20.5288 16.4075 20.5288 15.3898 20.5288 14.3722C20.5288 14.0947 20.4822 13.8171 20.4356 13.5396C20.1096 12.152 18.8987 11.2268 17.5014 11.2268C16.8959 11.2268 16.2904 11.2268 15.685 11.2268C15.4987 11.2268 15.2658 11.2268 15.0795 11.2731C13.6822 11.5506 12.6576 12.7995 12.611 14.2334C12.611 15.2973 12.611 16.4075 12.611 17.4713C12.611 18.1189 12.1452 18.5815 11.4932 18.5815C11.4 18.5815 11.2603 18.5815 11.1671 18.5815C10.5617 18.5815 10.1425 18.9978 10.1425 19.5991C10.1425 19.9229 10.1425 20.2467 10.1425 20.5705C10.1425 21.3568 10.5151 21.7268 11.3069 21.7268C12.9836 21.7268 14.7534 21.7268 16.5233 21.7268ZM15.5452 23.9009C15.5452 24.5022 15.9644 24.9185 16.5233 24.9185C17.0822 24.9185 17.5014 24.4559 17.4548 23.9009C16.8493 23.9009 16.1973 23.9009 15.5452 23.9009ZM17.5014 9.14534C17.4548 8.49777 17.0356 8.12772 16.4767 8.12772C15.9644 8.12772 15.5452 8.59028 15.5452 9.14534C16.1973 9.14534 16.8493 9.14534 17.5014 9.14534Z" fill="#BFD4E4"/>
</svg>
