<svg xmlns="http://www.w3.org/2000/svg" width="22" height="18" fill="none" viewBox="0 0 22 18">
  <g clip-path="url(#a)">
    <path fill="#BFD3E3" d="M11.4 9v8.1c0 .4-.3.8-.7.8-.2 0-.4 0-.5-.1l-4.5-3.3c-.1-.1-.3-.2-.4-.3H.9c-.5 0-.9-.3-.9-.9V4.6c0-.5.3-.9.9-.9h4.2c.1 0 .2 0 .2-.1C6.9 2.4 8.5 1.3 10.1.1c.3-.2.5-.2.8-.1.3.1.4.4.4.7v6.7c.1.6.1 1.1.1 1.6Zm8.3 0c.6.7 1.3 1.3 1.9 1.9l.2.2c.3.3.3.8 0 1.1l-1.2 1.2c-.3.3-.8.3-1.1-.1-.6-.6-1.2-1.3-1.9-1.9l-.1-.1-.1.1c-.6.6-1.2 1.2-1.8 1.9-.4.4-.8.4-1.2 0l-1-1c-.4-.4-.4-.8 0-1.2.6-.7 1.3-1.3 2-2l-.1-.1c-.7-.7-1.3-1.3-1.9-2-.4-.4-.4-.9 0-1.3.3-.3.6-.7 1-1 .4-.4.8-.4 1.2 0l1.9 1.9.1.1.1-.1c.6-.6 1.2-1.2 1.8-1.9.4-.4.8-.4 1.2 0l1 1c.4.4.4.8 0 1.2-.6.6-1.2 1.2-1.8 1.9l-.2.2Z"/>
  </g>
  <defs>
    <clipPath id="a">
      <path fill="#fff" d="M0 0h22v18H0z"/>
    </clipPath>
  </defs>
</svg>
