<svg width="34" height="34" viewBox="0 0 34 34" fill="none" xmlns="http://www.w3.org/2000/svg">
<g clip-path="url(#clip0_2443_8264)">
<path d="M17.4 17C17.4 19.7 17.4 22.4 17.4 25.1C17.4 25.5 17.1 25.9 16.7 25.9C16.5 25.9 16.3 25.9 16.2 25.8C14.7 24.7 13.2 23.6 11.7 22.5C11.6 22.4 11.4 22.3 11.3 22.2C11.2 22.2 11.1 22.2 11 22.2C9.6 22.2 8.3 22.2 6.9 22.2C6.4 22.2 6 21.9 6 21.3C6 18.4 6 15.5 6 12.6C6 12.1 6.3 11.7 6.9 11.7C8.3 11.7 9.7 11.7 11.1 11.7C11.2 11.7 11.3 11.7 11.3 11.6C12.9 10.4 14.5 9.3 16.1 8.1C16.4 7.9 16.6 7.9 16.9 8C17.2 8.1 17.3 8.4 17.3 8.7C17.3 10.9 17.3 13.2 17.3 15.4C17.4 16 17.4 16.5 17.4 17Z" fill="#BFD3E3"/>
<path d="M25.7 17C26.3 17.7 27 18.3 27.6 18.9C27.7 19 27.7 19 27.8 19.1C28.1 19.4 28.1 19.9 27.8 20.2C27.4 20.6 27 21 26.6 21.4C26.3 21.7 25.8 21.7 25.5 21.3C24.9 20.7 24.3 20 23.6 19.4L23.5 19.3L23.4 19.4C22.8 20 22.2 20.6 21.6 21.3C21.2 21.7 20.8 21.7 20.4 21.3C20.1 21 19.7 20.6 19.4 20.3C19 19.9 19 19.5 19.4 19.1C20 18.4 20.7 17.8 21.4 17.1L21.3 17C20.6 16.3 20 15.7 19.4 15C19 14.6 19 14.1 19.4 13.7C19.7 13.4 20 13 20.4 12.7C20.8 12.3 21.2 12.3 21.6 12.7C22.2 13.3 22.8 13.9 23.5 14.6L23.6 14.7C23.7 14.6 23.7 14.6 23.7 14.6C24.3 14 24.9 13.4 25.5 12.7C25.9 12.3 26.3 12.3 26.7 12.7C27 13 27.4 13.4 27.7 13.7C28.1 14.1 28.1 14.5 27.7 14.9C27.1 15.5 26.5 16.1 25.9 16.8C25.8 16.9 25.8 16.9 25.7 17Z" fill="#BFD3E3"/>
</g>
<defs>
<clipPath id="clip0_2443_8264">
<rect width="22" height="18" fill="white" transform="translate(6 8)"/>
</clipPath>
</defs>
</svg>
