<svg width="34" height="34" viewBox="0 0 34 34" fill="none" xmlns="http://www.w3.org/2000/svg">
<path d="M17 7C22.5 7 27 11.5 27 17C27 22.5 22.5 27 17 27C11.5 27 7 22.5 7 17C7 11.5 11.5 7 17 7ZM18.2 17C18.2 17.5 18.2 18 18.2 18.4C18.2 18.9 18.2 19.4 18.2 19.9C18.2 20.4 18.5 20.8 19 20.9C19.3 21 19.7 21 20.1 20.9C20.6 20.8 21 20.4 21 19.8C21 19.3 21 18.7 21 18.2C21 16.9 21 15.6 21 14.2C21 13.6 20.7 13.1 20.1 13.1C19.8 13 19.4 13.1 19.1 13.1C18.6 13.2 18.2 13.6 18.2 14.2C18.2 15.1 18.2 16.1 18.2 17ZM15.8 17C15.8 16.5 15.8 16 15.8 15.5C15.8 15 15.8 14.5 15.8 14C15.8 13.5 15.4 13.1 15 13C14.7 13 14.4 13 14.1 13C13.6 13 13.2 13.3 13.1 13.8C13 14 13 14.2 13 14.3C13 16.1 13 17.9 13 19.7C13 20.3 13.3 20.8 13.9 20.8C14.2 20.9 14.6 20.9 14.9 20.8C15.4 20.7 15.8 20.3 15.8 19.7C15.8 18.9 15.8 18 15.8 17Z" fill="#BFD3E3"/>
</svg>
