<svg width="34" height="34" viewBox="0 0 34 34" fill="none" xmlns="http://www.w3.org/2000/svg">
<path d="M8 22.992C8 20.988 8 18.984 8 16.98C8 16.9399 8.04 16.8597 8.04 16.8196C8.16 16.3788 8.4 16.018 8.8 15.7776C8.96 15.6974 9 15.5772 9 15.4168C9 13.3327 9 11.2485 9 9.12424C9 7.84168 9.84 7 11.12 7C13 7 14.84 7 16.72 7C16.8 7 16.88 7 17 7C17 7.12024 17 7.20039 17 7.28055C17 9.12424 17 10.9679 17 12.8517C17 12.9719 17 13.1323 17.04 13.2525C17.2 14.2946 18 14.976 19.08 14.976C20.92 14.976 22.8 14.976 24.64 14.976C25.04 14.976 25 14.9359 25 15.3367C25 15.5371 25.04 15.6974 25.24 15.8176C25.72 16.1383 26 16.6192 26 17.2204C26 19.0641 26 20.9078 26 22.7916C26 23.3527 25.8 23.8337 25.32 24.1142C25.04 24.3146 24.96 24.515 25 24.7956C25 24.8357 25 24.8357 25 24.8757C25 26.1583 24.16 27 22.88 27C18.96 27 15.08 27 11.16 27C11 27 10.84 27 10.68 26.9599C9.68 26.7595 9.04 25.9579 9.04 24.9158C9.04 24.5551 9 24.2745 8.64 24.0741C8.24 23.8337 8.12 23.3928 8 22.992ZM16.96 22.992C19.32 22.992 21.68 22.992 24.04 22.992C24.4 22.992 24.44 22.9519 24.44 22.5912C24.44 20.8677 24.44 19.1042 24.44 17.3808C24.44 17.0601 24.36 16.98 24.04 16.98C19.32 16.98 14.56 16.98 9.84 16.98C9.52 16.98 9.44 17.0601 9.44 17.3808C9.44 19.1042 9.44 20.8677 9.44 22.5912C9.44 22.9519 9.48 22.992 9.84 22.992C12.24 22.992 14.6 22.992 16.96 22.992Z" fill="#BFD4E4"/>
<path d="M18.479 7.55859C20.439 9.52252 22.399 11.4864 24.399 13.4504C24.319 13.4504 24.239 13.4504 24.199 13.4504C22.519 13.4504 20.839 13.4504 19.159 13.4504C18.679 13.4504 18.519 13.2901 18.519 12.8091C18.519 11.1257 18.519 9.44236 18.519 7.75899C18.479 7.67883 18.479 7.63875 18.479 7.55859Z" fill="#BFD4E4"/>
<path d="M16.0015 19.9845C16.0015 19.5035 16.0015 19.0226 16.0015 18.5416C16.0015 18.1809 16.1615 17.9805 16.5615 17.9805C16.9215 17.9805 17.3215 17.9805 17.6815 18.1007C18.5615 18.3813 19.0815 19.3031 18.9615 20.265C18.8415 21.1067 18.1215 21.8282 17.2415 21.9484C17.0015 21.9885 16.8015 21.9885 16.5615 21.9885C16.2015 21.9885 16.0015 21.7881 16.0015 21.4274C16.0015 20.9464 16.0015 20.4654 16.0015 19.9845ZM17.0015 20.9464C17.5215 20.9865 17.9615 20.5456 18.0015 19.9845C18.0015 19.4234 17.5615 18.9825 17.0015 18.9825C17.0015 19.6638 17.0015 20.3051 17.0015 20.9464Z" fill="#BFD4E4"/>
<path d="M13.0007 20.9496C13.0007 21.15 13.0007 21.3103 13.0007 21.4306C13.0007 21.7512 12.7607 21.9516 12.5207 21.9516C12.2407 21.9516 12.0407 21.7512 12.0407 21.4306C12.0407 20.4286 12.0407 19.4666 12.0407 18.4646C12.0407 18.144 12.2407 17.9436 12.5207 17.9436C12.9207 17.9436 13.3207 17.9035 13.6807 17.9436C14.4807 18.0238 15.0007 18.665 15.0007 19.5067C14.9607 20.2682 14.3607 20.8694 13.6007 20.9095C13.3607 20.9897 13.2007 20.9496 13.0007 20.9496ZM13.0007 18.9857C13.0007 19.3464 13.0007 19.667 13.0007 19.9877C13.3207 19.9476 13.6807 20.1079 13.9207 19.7472C14.0407 19.5468 14.0407 19.3865 13.9207 19.1861C13.6807 18.8654 13.3207 19.0258 13.0007 18.9857Z" fill="#BFD4E4"/>
<path d="M20.9594 20.9865C20.9594 21.1869 20.9594 21.3472 20.9594 21.5075C20.9594 21.7881 20.7194 21.9885 20.4794 21.9885C20.2394 21.9885 19.9994 21.7881 19.9994 21.5075C19.9994 20.5055 19.9994 19.4634 19.9994 18.4614C19.9994 18.1809 20.1994 17.9805 20.4394 17.9805C20.9594 17.9805 21.4794 17.9805 21.9994 17.9805C22.2794 17.9805 22.4394 18.2209 22.4394 18.4614C22.4394 18.742 22.2394 18.9424 21.9594 18.9424C21.6394 18.9424 21.3194 18.9424 20.9594 18.9424C20.9594 19.3031 20.9594 19.5837 20.9594 19.9444C21.2794 19.9444 21.5994 19.9444 21.9194 19.9444C22.2394 19.9444 22.4394 20.1448 22.4394 20.4254C22.4394 20.7059 22.2394 20.9063 21.9594 20.9464C21.6394 20.9865 21.3194 20.9865 20.9594 20.9865Z" fill="#BFD4E4"/>
</svg>
