<svg xmlns="http://www.w3.org/2000/svg" width="18" height="20" fill="none" viewBox="0 0 18 20">
  <path fill="#BFD3E3" d="M9.439 10.22H3.951v2.088H9.44V10.22Zm0-3.736H3.951V8.57H9.44V6.484Zm-5.598 9.56H9.33v-2.088H3.841v2.088Z"/>
  <path fill="#BFD3E3" d="M18 18.791V0H0v20h18v-1.209Zm-2.085-.989H2.085V2.088h13.72v15.714h.11Z"/>
  <path fill="#BFD3E3" d="M12.402 6.923c.22-.22.44-.33.659-.55.22-.22.439-.33.659-.549a.53.53 0 0 1 .768 0c.22.22.22.55 0 .77-.549.549-1.098.988-1.647 1.538a.53.53 0 0 1-.768 0c-.33-.33-.658-.66-.878-.99a.532.532 0 0 1 0-.768.53.53 0 0 1 .768 0c.11.22.22.33.44.55Zm0 3.847c.33-.33.769-.66 1.098-.99.11 0 .11-.11.11-.11a.53.53 0 0 1 .768 0c.22.22.22.55 0 .77-.33.33-.659.659-1.098.989-.219.11-.329.33-.548.44-.33.219-.659.219-.878 0-.33-.33-.55-.66-.878-.99-.22-.22-.11-.66.11-.77.329-.219.548-.219.768 0 .22.22.329.33.548.66 0-.11 0 0 0 0Zm1.098 4.285.659-.66a.53.53 0 0 0 0-.769.53.53 0 0 0-.769 0c-.11 0-.329.33-.658.66l-.11-.11c-.11-.11-.33-.33-.549-.44-.22-.22-.549-.22-.658 0-.22.22-.22.55 0 .77l.548.549-.658.66a.53.53 0 0 0 0 .768c.22.22.549.22.768 0 .11 0 .33-.22.659-.659l.11.11.548.55c.22.22.549.22.659 0 .22-.22.22-.55 0-.77-.22-.33-.33-.44-.549-.659Z"/>
</svg>
