<svg width="34" height="34" viewBox="0 0 34 34" fill="none" xmlns="http://www.w3.org/2000/svg">
<path d="M26.0343 7.48622C26.0343 7.41754 26.0343 7.34261 26.0093 7.27393C25.9403 6.96798 25.7022 6.77441 25.3388 6.77441C23.4338 6.77441 21.5225 6.77441 19.6175 6.77441C16.1834 6.77441 12.7745 6.77441 9.34044 6.77441C8.93312 6.77441 8.601 7.06163 8.62607 7.48622C8.62607 7.72349 8.62607 7.98573 8.62607 8.223C8.62607 8.62885 8.601 9.05344 8.62607 9.45929C8.62607 9.81519 8.95819 10.0774 9.31538 10.0525C9.67257 10.0275 9.9107 9.76524 9.9107 9.38437C9.9107 8.97851 9.9107 8.59763 9.9107 8.19802C9.9107 8.14807 9.9107 8.12934 9.9107 8.07939C14.8675 8.07939 19.7804 8.07939 24.7184 8.07939C24.7184 8.12934 24.7184 8.17305 24.7434 8.223C24.7434 10.833 24.7434 13.4741 24.7434 16.0841C24.7434 17.3016 24.7434 22.1469 24.7434 24.4134C24.7309 24.4509 24.7246 24.4946 24.7184 24.5383C24.7184 24.7756 24.7184 25.0128 24.7184 25.2501C24.7184 25.3001 24.7184 25.3188 24.7184 25.3688C19.7804 25.3688 14.8487 25.3688 9.9107 25.3688C9.9107 25.3188 9.9107 25.2751 9.9107 25.2002C9.9107 21.3727 9.9107 17.5764 9.9107 13.7489C9.9107 13.6802 9.9107 13.6052 9.9107 13.5366C9.86057 13.1807 9.50337 12.9434 9.17125 12.9871C8.83913 13.0558 8.6198 13.293 8.6198 13.6739C8.6198 17.7574 8.6198 21.8472 8.6198 25.9307C8.6198 25.9994 8.6198 26.0743 8.64486 26.143C8.7138 26.4739 8.97699 26.6425 9.33418 26.6425C13.8899 26.6425 18.4644 26.6425 23.0202 26.6425C23.7847 26.6425 24.568 26.6425 25.3325 26.6425C25.7148 26.6425 26.003 26.4052 26.003 26.0493C26.003 25.8745 26.003 25.6997 26.003 25.5311C26.0155 25.4687 26.0281 25.4 26.0281 25.3313C26.0343 21.0417 26.0343 11.7883 26.0343 7.48622Z" fill="#BFD4E4"/>
<path d="M12.1854 12.1691C10.8256 12.1691 9.46581 12.1691 8.10599 12.1691C7.65481 12.1691 7.39162 11.8382 7.41668 11.4823C7.44175 11.1763 7.65481 10.9141 7.96813 10.8891C8.01826 10.8891 8.08719 10.8891 8.13732 10.8891C10.857 10.8891 13.5515 10.8891 16.2649 10.8891C16.6471 10.8891 16.9354 11.1014 16.9542 11.4573C17.0043 11.8132 16.7161 12.1442 16.3839 12.1442C16.0268 12.1691 15.6696 12.1442 15.3124 12.1442C14.2847 12.1691 13.2319 12.1691 12.1854 12.1691Z" fill="#BFD4E4"/>
<path d="M14.3411 15.8718C13.3886 15.8718 12.4424 15.8718 11.5149 15.8718C11.1577 15.8718 10.8945 15.6845 10.8507 15.3473C10.7817 14.9914 11.0387 14.6355 11.3708 14.5855C11.4209 14.5855 11.4648 14.5855 11.54 14.5855C13.4137 14.5855 15.3187 14.5855 17.1924 14.5855C17.5245 14.5855 17.7877 14.7541 17.8566 15.0351C17.9757 15.441 17.6874 15.8406 17.2613 15.8655C16.7412 15.8655 16.1897 15.8655 15.6696 15.8655C15.2184 15.8718 14.7923 15.8718 14.3411 15.8718Z" fill="#BFD4E4"/>
<path d="M14.3411 23.3457C13.3886 23.3457 12.4424 23.3457 11.5149 23.3457C11.1577 23.3457 10.8945 23.1584 10.8507 22.8212C10.7817 22.4653 11.0387 22.1094 11.3708 22.0595C11.4209 22.0595 11.4648 22.0595 11.54 22.0595C13.4137 22.0595 15.3187 22.0595 17.1924 22.0595C17.5245 22.0595 17.7877 22.2281 17.8566 22.509C17.9757 22.9149 17.6874 23.3145 17.2613 23.3395C16.7412 23.3395 16.1897 23.3395 15.6696 23.3395C15.2184 23.3457 14.7923 23.3457 14.3411 23.3457Z" fill="#BFD4E4"/>
<path d="M14.2847 19.5807C13.3572 19.5807 12.4486 19.5807 11.5212 19.5807C11.164 19.5807 10.9008 19.3933 10.8507 19.0562C10.7817 18.7003 11.0386 18.3693 11.377 18.3194C11.4272 18.3194 11.471 18.3194 11.5212 18.3194C13.3572 18.3194 15.1933 18.3194 17.0294 18.3194C17.3615 18.3194 17.5997 18.488 17.6999 18.744C17.844 19.1498 17.5558 19.5744 17.1297 19.5994C16.5093 19.6244 15.8889 19.5994 15.2685 19.5994C14.9239 19.5807 14.6168 19.5807 14.2847 19.5807Z" fill="#BFD4E4"/>
<path d="M20.9084 14.5668C21.1278 14.3732 21.3659 14.1734 21.5852 13.9549C21.8045 13.7613 22.0239 13.5615 22.262 13.368C22.5252 13.1494 22.8761 13.1744 23.0892 13.4117C23.3022 13.6489 23.3085 14.0236 23.0453 14.2359C22.4312 14.7791 21.8421 15.3223 21.2343 15.8468C20.9962 16.0653 20.6453 16.0404 20.4071 15.8031C20.0813 15.4347 19.7491 15.085 19.4233 14.7167C19.204 14.4794 19.229 14.1048 19.4672 13.8925C19.7053 13.6739 20.0813 13.6989 20.2943 13.9362C20.4698 14.1297 20.6452 14.3295 20.7956 14.5044C20.8646 14.4981 20.8896 14.5231 20.9084 14.5668Z" fill="#BFD4E4"/>
<path d="M20.8771 18.3256C21.2719 17.976 21.6604 17.6263 22.0552 17.2829C22.1179 17.2392 22.1618 17.1768 22.2307 17.133C22.4939 16.9145 22.8448 16.9395 23.0579 17.1768C23.2772 17.414 23.2521 17.7887 23.014 18.0009C22.6192 18.3506 22.2495 18.7003 21.8547 19.0249C21.6604 19.1998 21.4599 19.3746 21.2656 19.5494C20.9586 19.8117 20.6076 19.8117 20.3507 19.5057C20.0437 19.1561 19.7178 18.8064 19.4107 18.438C19.1914 18.1758 19.2353 17.7824 19.5173 17.5701C19.7554 17.3953 20.0875 17.4203 20.2818 17.6575C20.4573 17.8511 20.6327 18.0509 20.7831 18.2257C20.8332 18.2819 20.852 18.3069 20.8771 18.3256Z" fill="#BFD4E4"/>
<path d="M22.0239 22.4903C22.2495 22.2655 22.5377 21.9846 22.7508 21.7473C22.9638 21.51 22.9513 21.1416 22.7132 20.9293C22.475 20.717 22.1241 20.7295 21.8923 20.9668C21.8296 21.0167 21.5413 21.279 21.1842 21.6599C21.1591 21.6411 21.134 21.6224 21.0839 21.56C20.9147 21.4039 20.7204 21.229 20.5324 21.0542C20.3131 20.8357 19.9873 20.8482 19.7679 21.048C19.511 21.2915 19.5047 21.6848 19.7491 21.9159C19.9434 22.1094 20.1439 22.2905 20.3445 22.4716C20.1063 22.6776 19.8243 22.9274 19.6113 23.1459C19.3857 23.3769 19.3919 23.7453 19.6238 23.9701C19.8557 24.1949 20.2003 24.1949 20.451 23.9576C20.5136 23.9077 20.8395 23.6767 21.203 23.3083C21.228 23.327 21.2468 23.3457 21.297 23.4082C21.4599 23.5705 21.6479 23.7516 21.8296 23.9389C22.0427 24.1637 22.3622 24.1637 22.5941 23.9764C22.8636 23.7453 22.8761 23.352 22.6442 23.1085C22.4374 22.8962 22.2307 22.6964 22.0239 22.4903Z" fill="#BFD4E4"/>
</svg>
