<svg xmlns="http://www.w3.org/2000/svg" width="18" height="20" fill="none" viewBox="0 0 18 20">
  <path fill="#BFD4E4" d="M8.905 20c-.556-.557-1.15-1.113-1.67-1.707-.296-.297-.593-.445-1.001-.445-1.522.037-3.785 0-5.306 0-.594 0-.928-.334-.928-.928V.928C0 .334.334 0 .928 0H16.92c.631 0 .928.334.928.928v15.955c0 .63-.297.965-.965.965h-5.64a.66.66 0 0 0-.371.148l-1.781 1.781c-.037.112-.111.149-.186.223ZM7.273 5.38c0-.111.037-.185.037-.26.148-.816.853-1.372 1.632-1.335.78 0 1.448.593 1.559 1.41.037.334.037.668.037 1.002v.853H6.531c-1.448 0-2.524 1.076-2.524 2.523v3.154c0 1.447 1.076 2.524 2.524 2.524h4.786c1.447 0 2.523-1.077 2.523-2.524V9.573c0-1.039-.519-1.818-1.447-2.263-.148-.074-.185-.149-.185-.297V5.417c0-1.558-1.188-2.93-2.672-3.19-1.632-.26-3.154.63-3.673 2.151-.112.334-.149.668-.223 1.04a23.975 23.975 0 0 1 1.633-.038Z"/>
  <path fill="#BFD4E4" d="M8.905 13.578H6.531c-.557 0-.89-.334-.89-.89V9.57c0-.557.333-.89.89-.89h4.712c.557 0 .89.333.89.89v3.117c0 .556-.333.89-.89.89H8.905Z"/>
</svg>
