<svg width="34" height="34" viewBox="0 0 34 34" fill="none" xmlns="http://www.w3.org/2000/svg">
<path d="M5 8C5.09959 8 5.19917 8 5.29876 8C7.98755 8 10.5768 8 13.2656 8C13.4647 8 13.5643 8.09783 13.6639 8.29348C13.8631 8.88043 14.0622 9.36957 14.2614 9.8587C14.361 10.0543 14.4606 10.1522 14.6598 10.1522C17.8465 10.1522 21.0332 10.1522 24.2199 10.1522C24.3195 10.1522 24.4191 10.1522 24.5187 10.1522C24.5187 10.837 24.5187 11.5217 24.5187 12.2065C24.4191 12.2065 24.3195 12.2065 24.2199 12.2065C20.5353 12.2065 16.8506 12.2065 13.166 12.2065C13.0664 12.2065 12.9668 12.1087 12.8672 11.913C12.668 11.3261 12.4689 10.837 12.1701 10.25C12.1701 10.1522 11.971 10.0543 11.971 10.0543C10.3776 10.0543 8.78423 10.0543 7.19087 10.0543C7.19087 10.0543 7.19087 10.0543 7.09129 10.0543C7.09129 10.1522 7.09129 10.25 7.09129 10.3478C7.09129 14.4565 7.09129 18.4674 7.09129 22.5761C7.09129 22.8696 7.09129 23.163 7.19087 23.4565C7.39004 24.0435 8.08714 24.1413 8.48548 23.6522C8.58506 23.5543 8.68465 23.3587 8.68465 23.2609C10.0788 20.2283 11.473 17.1957 12.7676 14.163C12.8672 13.9674 12.9668 13.8696 13.166 13.8696C18.3444 13.8696 23.5228 13.8696 28.7012 13.8696C28.8008 13.8696 28.8008 13.8696 28.9004 13.8696C28.9004 13.9674 28.9004 14.0652 28.9004 14.163C27.5062 17.3913 26.112 20.7174 24.7178 23.9457C24.6183 24.1413 24.5187 24.2391 24.5187 24.4348C24.0207 25.413 23.1245 26 21.9295 26C19.3402 26 16.6515 26 14.0622 26C12.0705 26 10.0788 26 8.08714 26C6.59336 26 5.59751 25.1196 5.29876 23.9457C5.19917 23.4565 5.09959 22.9674 5.09959 22.4783C5 17.7826 5 12.9891 5 8.19565C5 8.19565 5 8.09783 5 8ZM25.8133 15.9239C25.7137 15.9239 25.6141 15.9239 25.5145 15.9239C21.8299 15.9239 18.1452 15.9239 14.5602 15.9239C14.361 15.9239 14.2614 16.0217 14.1618 16.1196C13.0664 18.663 11.971 21.2065 10.8755 23.6522C10.8755 23.75 10.7759 23.75 10.7759 23.9457C10.8755 23.9457 10.9751 23.9457 11.0747 23.9457C14.6598 23.9457 18.1452 23.9457 21.7303 23.9457C22.2282 23.9457 22.527 23.75 22.7261 23.3587C22.7261 23.2609 22.7261 23.2609 22.8257 23.2609C23.6224 21.4022 24.4191 19.4457 25.2158 17.587C25.4149 17 25.6141 16.5109 25.8133 15.9239Z" fill="#BFD3E3"/>
<path d="M20.3361 19.25C20.2365 19.25 20.2365 19.1522 20.3361 19.1522C20.4357 18.9565 20.4357 18.7609 20.5353 18.4674C20.7344 17.8804 20.4357 17.2935 19.7386 17.1956C19.0415 17.0978 18.2448 17.4891 17.8465 18.0761C17.7469 18.1739 17.6473 18.3696 17.6473 18.4674C17.8465 18.4674 18.1452 18.4674 18.3444 18.4674C18.3444 18.4674 18.3444 18.3696 18.444 18.3696C18.6432 18.0761 19.0415 17.7826 19.3403 17.7826C19.639 17.7826 19.9378 17.9783 19.8382 18.3696C19.8382 18.4674 19.7386 18.663 19.7386 18.7609C19.7386 18.8587 19.639 18.9565 19.639 19.1522C19.5394 19.1522 19.5394 19.1522 19.5394 19.1522C19.0415 19.1522 18.444 19.1522 17.9461 19.1522C17.3486 19.1522 16.6515 19.5435 16.5519 20.1304C16.4523 20.5217 16.2531 21.0109 16.1535 21.4022C15.9544 21.9891 16.2531 22.3804 16.9502 22.3804C17.6473 22.3804 18.3444 22.3804 19.0415 22.3804C19.639 22.3804 20.3361 21.9891 20.4357 21.4022C20.5353 21.0109 20.7344 20.5217 20.834 20.1304C20.7344 19.7391 20.6349 19.4456 20.3361 19.25Z" fill="#BFD3E3"/>
</svg>
