<svg width="34" height="34" viewBox="0 0 34 34" fill="none" xmlns="http://www.w3.org/2000/svg">
<path d="M16.9054 27C16.3488 26.4434 15.7551 25.8868 15.2356 25.2931C14.9388 24.9963 14.6419 24.8479 14.2338 24.8479C12.7124 24.885 10.449 24.8479 8.92764 24.8479C8.33395 24.8479 8 24.5139 8 23.9202C8 19.0965 8 12.7514 8 7.92764C8 7.33395 8.33395 7 8.92764 7C13.7514 7 20.0594 7 24.9202 7C25.551 7 25.8479 7.33395 25.8479 7.92764C25.8479 12.7514 25.8479 19.0594 25.8479 23.8831C25.8479 24.5139 25.551 24.8479 24.8831 24.8479C23.2505 24.8479 20.8757 24.8479 19.243 24.8479C19.1317 24.8479 18.9462 24.9221 18.872 24.9963C18.2783 25.59 17.6846 26.1837 17.0909 26.7774C17.0538 26.8887 16.9796 26.9258 16.9054 27ZM15.2727 12.3803C15.2727 12.269 15.3098 12.1948 15.3098 12.1206C15.4583 11.3043 16.1633 10.7477 16.9425 10.7848C17.7217 10.7848 18.3896 11.3785 18.5009 12.1948C18.538 12.5288 18.538 12.8627 18.538 13.1967C18.538 13.4564 18.538 13.7532 18.538 14.0501C18.3896 14.0501 18.3154 14.0501 18.2041 14.0501C16.9796 14.0501 15.7551 14.0501 14.5306 14.0501C13.0835 14.0501 12.0074 15.1262 12.0074 16.5733C12.0074 17.6122 12.0074 18.6512 12.0074 19.7273C12.0074 21.1744 13.0835 22.2505 14.5306 22.2505C16.1262 22.2505 17.7217 22.2505 19.3173 22.2505C20.7644 22.2505 21.8404 21.1744 21.8404 19.7273C21.8404 18.6883 21.8404 17.6122 21.8404 16.5733C21.8404 15.5343 21.321 14.7551 20.3933 14.3098C20.2449 14.2356 20.2078 14.1614 20.2078 14.013C20.2078 13.4935 20.2078 12.9369 20.2078 12.4174C20.2078 10.859 19.0204 9.48608 17.5362 9.22634C15.9035 8.9666 14.3822 9.85714 13.8627 11.3785C13.7514 11.7124 13.7143 12.0464 13.6401 12.4174C14.1967 12.3803 14.7161 12.3803 15.2727 12.3803Z" fill="#BFD4E4"/>
<path d="M16.9054 20.5784C16.1262 20.5784 15.3098 20.5784 14.5306 20.5784C13.974 20.5784 13.6401 20.2444 13.6401 19.6878C13.6401 18.6489 13.6401 17.6099 13.6401 16.5709C13.6401 16.0144 13.974 15.6804 14.5306 15.6804C16.0891 15.6804 17.6846 15.6804 19.243 15.6804C19.7996 15.6804 20.1336 16.0144 20.1336 16.5709C20.1336 17.6099 20.1336 18.6489 20.1336 19.6878C20.1336 20.2444 19.7996 20.5784 19.243 20.5784C18.5009 20.5784 17.6846 20.5784 16.9054 20.5784Z" fill="#BFD4E4"/>
</svg>
