<svg xmlns="http://www.w3.org/2000/svg" width="24" height="18" fill="none" viewBox="0 0 24 18">
  <path fill="#BFD3E3" d="M0 0h8.266c.199 0 .298.098.398.293.2.587.398 1.077.597 1.566.1.195.2.293.399.293h9.859v2.055H8.166c-.1 0-.2-.098-.299-.294A11.766 11.766 0 0 0 7.17 2.25c0-.098-.199-.196-.199-.196h-4.88v12.522c0 .294 0 .587.1.88.199.588.896.685 1.294.196.1-.098.2-.293.2-.391 1.394-3.033 2.788-6.065 4.083-9.098.1-.196.199-.293.398-.293h15.735v.293c-1.395 3.228-2.789 6.554-4.183 9.783-.1.195-.2.293-.2.489-.497.978-1.393 1.565-2.588 1.565H3.087C1.593 18 .597 17.12.3 15.946c-.1-.49-.2-.979-.2-1.468C0 9.783 0 4.99 0 .196V0Zm20.813 7.924H9.56c-.199 0-.299.098-.398.196-1.096 2.543-2.191 5.087-3.286 7.532 0 .098-.1.098-.1.294H16.73c.498 0 .797-.196.996-.587 0-.098 0-.098.1-.098.796-1.859 1.593-3.815 2.39-5.674.199-.587.398-1.076.597-1.663Z"/>
  <path fill="#BFD3E3" d="M15.336 11.25c-.1 0-.1-.098 0-.098.1-.195.1-.391.2-.685.198-.587-.1-1.174-.797-1.271-.698-.098-1.494.293-1.893.88-.1.098-.199.294-.199.391h.697s0-.097.1-.097c.2-.294.597-.587.896-.587.299 0 .598.195.498.587 0 .097-.1.293-.1.39 0 .099-.099.197-.099.392h-1.693c-.597 0-1.294.392-1.394.978-.1.392-.299.88-.399 1.272-.199.587.1.978.797.978h2.091c.598 0 1.295-.39 1.395-.978.1-.391.298-.88.398-1.272-.1-.39-.2-.684-.498-.88Z"/>
</svg>
