<svg xmlns="http://www.w3.org/2000/svg" width="20" height="20" fill="none" viewBox="0 0 20 20">
  <path fill="#BFD4E4" d="M10.028 1.734c1.834 0 3.267 1.503 3.267 3.295a3.28 3.28 0 0 1-3.267 3.295c-1.776 0-3.266-1.503-3.266-3.295-.057-1.792 1.433-3.295 3.266-3.295Zm0-1.734c-2.75 0-4.985 2.254-4.985 5.029s2.235 5.029 4.985 5.029c2.751 0 4.986-2.254 4.986-5.029S12.78 0 10.028 0Zm.001 14.162c3.094 0 8.31 1.907 8.31 3.988v.116H1.718v-.116c0-2.08 5.158-3.988 8.31-3.988Zm0-1.734C6.648 12.428 0 14.45 0 18.15V20h20v-1.85c0-3.7-6.648-5.722-9.971-5.722Z"/>
</svg>
