<svg width="34" height="34" viewBox="0 0 34 34" fill="none" xmlns="http://www.w3.org/2000/svg">
<path d="M17.0285 8.73414C18.8623 8.73414 20.295 10.2371 20.295 12.029C20.295 13.8788 18.805 15.3239 17.0285 15.3239C15.252 15.3239 13.762 13.821 13.762 12.029C13.7047 10.2371 15.1947 8.73414 17.0285 8.73414ZM17.0285 7C14.2778 7 12.0428 9.25439 12.0428 12.029C12.0428 14.8036 14.2778 17.058 17.0285 17.058C19.7792 17.058 22.0142 14.8036 22.0142 12.029C22.0142 9.25439 19.7792 7 17.0285 7Z" fill="#BFD4E4"/>
<path d="M17.0286 21.1617C20.1232 21.1617 25.3381 23.0693 25.3381 25.1502V25.2658H8.7192V25.1502C8.7192 23.0693 13.8768 21.1617 17.0286 21.1617ZM17.0286 19.4276C13.6476 19.4276 7 21.4507 7 25.1502V27H27V25.1502C27 21.4507 20.3524 19.4276 17.0286 19.4276Z" fill="#BFD4E4"/>
</svg>
