<svg width="34" height="34" viewBox="0 0 34 34" fill="none" xmlns="http://www.w3.org/2000/svg">
<path d="M9.1599 12.1045C9.1599 16.3587 9.1599 20.5915 9.1599 24.8456C14.401 24.8456 19.6205 24.8456 24.8616 24.8456C24.8616 20.6128 24.8616 16.3587 24.8616 12.1045C24.8401 12.1045 24.7971 12.1045 24.7542 12.1045C23.852 12.1045 22.9714 12.1045 22.0692 12.1045C21.7685 12.1045 21.5322 11.9335 21.4678 11.6556C21.3819 11.3349 21.6181 10.9929 21.9618 10.9501C22.0048 10.9501 22.0477 10.9501 22.0907 10.9501C23.1862 10.9501 24.2816 10.9501 25.3556 10.9501C25.463 10.9501 25.5704 10.9715 25.6563 11.0143C25.8926 11.1212 26 11.3136 26 11.5701C26 13.0238 26 14.4774 26 15.9311C26 19.0523 26 22.1734 26 25.2732C26 25.3587 26 25.4228 26 25.5083C25.957 25.8076 25.7208 26 25.3986 26C24.6253 26 23.8735 26 23.1002 26C18.2673 26 13.4344 26 8.62291 26C8.51551 26 8.40811 26 8.3222 25.9572C8.1074 25.8504 8 25.658 8 25.4014C8 24.2684 8 23.1354 8 21.981C8 18.5178 8 15.0333 8 11.5701C8 11.2708 8.15036 11.057 8.42959 10.9715C8.49403 10.9501 8.55847 10.9501 8.62291 10.9501C9.73986 10.9501 10.8568 10.9501 11.9737 10.9501C12.3604 10.9501 12.6181 11.228 12.5967 11.5701C12.5752 11.8266 12.3604 12.0618 12.1026 12.0831C12.0597 12.0831 11.9952 12.0831 11.9523 12.0831C11.0716 12.0831 10.1909 12.0831 9.31026 12.0831C9.24582 12.1045 9.20286 12.1045 9.1599 12.1045Z" fill="#BFD4E4"/>
<path d="M18.7182 9.90261C19.2122 9.90261 19.7062 9.90261 20.1788 9.90261C20.458 9.90261 20.6728 10.0736 20.7373 10.3302C20.7588 10.3943 20.7588 10.4584 20.7588 10.5226C20.7588 11.1853 20.7588 11.848 20.7588 12.4893C20.7588 12.8955 20.5225 13.1306 20.1144 13.1306C18.0523 13.1306 15.9688 13.1306 13.9067 13.1306C13.5201 13.1306 13.2838 12.8955 13.2838 12.5107C13.2838 11.848 13.2838 11.1639 13.2838 10.5012C13.2838 10.1164 13.5201 9.88123 13.9067 9.88123C14.3363 9.88123 14.7874 9.88123 15.217 9.88123C15.2599 9.88123 15.2814 9.88123 15.3244 9.88123C15.3029 9.88123 15.3029 9.83848 15.2814 9.8171C15.1096 9.49643 14.9163 9.19715 14.7444 8.87648C14.5511 8.51306 14.723 8.10689 15.1096 8.02138C15.1525 8 15.217 8 15.2814 8C16.4413 8 17.6012 8 18.7826 8C19.1478 8 19.427 8.25653 19.4055 8.59857C19.4055 8.70546 19.3626 8.81235 19.2981 8.89786C19.1263 9.19715 18.9545 9.49643 18.7826 9.8171C18.7397 9.83848 18.7397 9.88123 18.7182 9.90261ZM14.4437 11.9976C16.1621 11.9976 17.8805 11.9976 19.5774 11.9976C19.5774 11.6983 19.5774 11.3777 19.5774 11.0784C17.859 11.0784 16.1406 11.0784 14.4437 11.0784C14.4437 11.3777 14.4437 11.677 14.4437 11.9976ZM16.248 9.17577C16.3984 9.4323 16.5272 9.64608 16.6561 9.88123C16.6776 9.90261 16.7206 9.90261 16.742 9.90261C16.9139 9.90261 17.1072 9.90261 17.279 9.90261C17.3435 9.90261 17.365 9.88123 17.4079 9.83848C17.5153 9.64608 17.6442 9.4323 17.7516 9.2399C17.7731 9.21853 17.7731 9.19715 17.7946 9.17577C17.279 9.17577 16.7635 9.17577 16.248 9.17577Z" fill="#BFD4E4"/>
<path d="M17.2581 16.2732C16.8285 16.5083 16.3989 16.7435 15.9694 16.9786C15.8405 17.0428 15.7116 17.1283 15.5827 17.1924C15.282 17.3421 14.9383 17.2566 14.788 16.9786C14.6376 16.7007 14.7235 16.3373 15.0457 16.1877C15.819 15.7601 16.5923 15.3539 17.3655 14.9264C17.5588 14.8195 17.7522 14.7126 17.9455 14.6057C18.2677 14.4347 18.5899 14.5416 18.7617 14.8409C19.2987 15.8029 19.8142 16.7649 20.3297 17.7269C20.523 18.0903 20.3512 18.5178 19.9431 18.6033C19.6853 18.6461 19.4491 18.5392 19.3202 18.3041C19.0839 17.8979 18.8691 17.4703 18.6328 17.0642C18.5469 16.9145 18.4825 16.7862 18.3966 16.6152C18.3751 16.658 18.3751 16.7007 18.3536 16.7221C18.0744 17.6627 17.6877 18.5606 17.1937 19.3943C16.0767 21.2756 14.4873 22.5582 12.3822 23.2423C12.1245 23.3278 11.8667 23.3919 11.609 23.4561C11.2653 23.5416 10.9646 23.3706 10.8787 23.0499C10.7927 22.7292 10.9861 22.4299 11.3297 22.3444C11.9097 22.1948 12.4682 22.0024 13.0266 21.7459C14.208 21.1687 15.1531 20.3349 15.9049 19.2447C16.5063 18.3468 16.9359 17.3634 17.2581 16.3373C17.2581 16.3159 17.2581 16.3159 17.2581 16.2732Z" fill="#BFD4E4"/>
<path d="M22.0045 20.5058C22.3482 20.1637 22.6919 19.8217 23.0355 19.4796C23.1859 19.33 23.3577 19.2659 23.5725 19.2872C23.8088 19.33 23.9592 19.4583 24.0236 19.6934C24.088 19.9072 24.0451 20.121 23.8732 20.2706C23.551 20.5913 23.2289 20.912 22.9067 21.2326C22.8852 21.254 22.8637 21.2754 22.8207 21.2967C22.8422 21.3395 22.8637 21.3609 22.8852 21.3823C23.2074 21.7029 23.5296 22.0236 23.8518 22.3443C24.0236 22.5153 24.0666 22.7077 24.0021 22.9215C23.9377 23.1352 23.7873 23.2635 23.5725 23.3062C23.3577 23.349 23.1644 23.2849 23.0141 23.1352C22.6919 22.8146 22.3911 22.5153 22.0689 22.1946C22.0475 22.1732 22.026 22.1519 22.0045 22.1091C21.9615 22.1305 21.9401 22.1519 21.9186 22.1946C21.5964 22.5153 21.2742 22.8359 20.952 23.1566C20.7802 23.3276 20.5868 23.3704 20.3506 23.3062C20.1358 23.2421 19.9854 23.0711 19.9639 22.8573C19.921 22.6649 19.9854 22.4725 20.1358 22.3443C20.458 22.0236 20.7802 21.7029 21.1024 21.3823C21.1238 21.3609 21.1453 21.3395 21.1668 21.2967C21.1453 21.2754 21.1238 21.254 21.1024 21.2326C20.7802 20.912 20.458 20.5913 20.1358 20.2706C19.9639 20.0996 19.921 19.9072 19.9854 19.672C20.0499 19.4583 20.2217 19.3086 20.4365 19.2659C20.6513 19.2231 20.8231 19.2872 20.9735 19.4369C21.2957 19.7576 21.6179 20.0782 21.9186 20.3775C21.9615 20.4416 21.983 20.463 22.0045 20.5058Z" fill="#BFD4E4"/>
<path d="M11.201 16.9786C11.1795 16.9572 11.158 16.9358 11.1366 16.8931C10.8144 16.5724 10.4922 16.2517 10.17 15.9311C9.86925 15.6104 9.99813 15.0973 10.4062 14.9691C10.6425 14.9049 10.8358 14.9477 11.0077 15.1187C11.3299 15.4394 11.6521 15.76 11.9743 16.0807C11.9957 16.1021 12.0172 16.1235 12.0387 16.1662C12.0602 16.1662 12.0602 16.1662 12.0817 16.1876C12.1031 16.1662 12.1031 16.1235 12.1246 16.1021C12.4468 15.7814 12.769 15.4608 13.0912 15.1401C13.4134 14.8194 13.9289 14.9477 14.0578 15.3539C14.1437 15.589 14.0578 15.8028 13.886 15.9738C13.5638 16.2945 13.263 16.5938 12.9409 16.9144C12.9194 16.9358 12.8979 16.9572 12.8549 16.9786C12.8979 17.0213 12.9194 17.0427 12.9409 17.0641C13.263 17.3847 13.5852 17.7054 13.9074 18.0261C14.1867 18.3254 14.1222 18.7743 13.7571 18.9453C13.5423 19.0522 13.263 19.0094 13.0697 18.8384C12.7475 18.5178 12.4253 18.1971 12.1031 17.8764C12.0817 17.8551 12.0602 17.8337 12.0387 17.7909C11.9957 17.8123 11.9743 17.8337 11.9528 17.8551C11.6306 18.1757 11.3084 18.4964 10.9862 18.817C10.6855 19.1163 10.2129 19.0308 10.0411 18.646C9.93369 18.4322 9.99813 18.1757 10.17 17.9833C10.4922 17.6627 10.8144 17.342 11.1366 17.0213C11.158 17.0213 11.1795 16.9999 11.201 16.9786Z" fill="#BFD4E4"/>
</svg>
