<svg xmlns="http://www.w3.org/2000/svg" width="18" height="18" fill="none" viewBox="0 0 18 18">
  <path fill="#BFD4E4" d="M1.16 4.105v12.74h15.702V4.106h-2.793c-.3 0-.537-.171-.601-.45-.086-.32.15-.662.494-.705h3.394c.107 0 .214.022.3.064.237.107.344.3.344.556v13.937c-.043.3-.28.492-.601.492H.623c-.107 0-.215 0-.3-.043C.106 17.85 0 17.658 0 17.401V3.571c0-.3.15-.514.43-.6.064-.02.128-.02.193-.02h3.35c.387 0 .645.277.624.62-.022.256-.237.49-.494.512H1.31c-.064.022-.107.022-.15.022Z"/>
  <path fill="#BFD4E4" d="M10.718 1.903h1.46c.28 0 .495.17.56.427a.589.589 0 0 1 .02.193v1.966c0 .406-.235.642-.644.642H5.907c-.387 0-.623-.236-.623-.62V2.5c0-.385.236-.62.623-.62h1.417c-.021 0-.021-.043-.043-.064-.171-.32-.365-.62-.537-.94-.193-.364-.021-.77.366-.856.043-.02.107-.02.17-.02h3.502c.365 0 .644.257.623.599a.509.509 0 0 1-.108.299c-.172.3-.344.598-.515.92-.043.02-.043.063-.065.085ZM6.444 3.998h5.133v-.92H6.444v.92Zm1.804-2.822c.15.256.28.47.408.705.022.022.065.022.086.022h.537c.064 0 .086-.022.129-.065.107-.192.236-.406.344-.598.021-.021.021-.043.043-.064H8.248Zm1.01 7.097L7.97 8.98c-.129.064-.257.15-.386.213-.301.15-.645.065-.795-.213a.563.563 0 0 1 .258-.791c.773-.428 1.546-.834 2.32-1.262l.58-.32c.322-.171.644-.064.816.235.537.962 1.052 1.924 1.568 2.886.193.363.021.79-.387.876a.577.577 0 0 1-.623-.299c-.236-.406-.45-.834-.687-1.24-.086-.15-.15-.278-.236-.449-.022.043-.022.086-.043.107-.28.94-.666 1.839-1.16 2.672-1.117 1.882-2.707 3.164-4.812 3.848-.258.086-.515.15-.773.214-.344.086-.644-.085-.73-.406-.086-.32.107-.62.45-.706.58-.15 1.14-.342 1.698-.598 1.181-.577 2.126-1.411 2.878-2.501.601-.898 1.03-1.882 1.353-2.908v-.064Zm4.747 4.233 1.03-1.026a.628.628 0 0 1 .537-.193c.237.043.387.171.452.406.064.214.021.428-.15.578l-.967.962c-.022.021-.043.042-.086.064a.296.296 0 0 0 .064.085l.967.962a.54.54 0 0 1 .15.578.53.53 0 0 1-.43.384.598.598 0 0 1-.558-.17l-.945-.941c-.022-.022-.043-.043-.065-.086a.167.167 0 0 0-.085.086c-.323.32-.645.64-.967.962-.172.17-.365.213-.601.15a.525.525 0 0 1-.387-.45.517.517 0 0 1 .172-.513l.966-.962a.298.298 0 0 0 .065-.085 19.46 19.46 0 0 1-.065-.064l-.966-.962c-.172-.171-.215-.364-.15-.599a.582.582 0 0 1 .45-.406.56.56 0 0 1 .537.17l.946.941c.042.065.064.086.085.129Z"/>
  <path fill="#BFD4E4" d="M3.201 8.979c-.021-.022-.043-.043-.064-.086l-.967-.962a.583.583 0 0 1 .236-.962c.237-.064.43-.021.602.15l.966.962a.284.284 0 0 1 .065.085c.021 0 .021 0 .043.022.021-.022.021-.065.043-.086l.966-.962c.322-.32.838-.192.967.214.086.235 0 .449-.172.62l-.945.94c-.022.022-.043.043-.086.065l.086.085.966.962c.28.3.215.748-.15.92a.632.632 0 0 1-.687-.108c-.322-.32-.645-.64-.967-.962a.27.27 0 0 1-.064-.085.29.29 0 0 0-.086.064l-.967.962c-.3.3-.773.214-.945-.171-.107-.214-.043-.47.129-.663l.967-.962c.021 0 .043-.021.064-.042Z"/>
</svg>
