<svg width="34" height="34" viewBox="0 0 34 34" fill="none" xmlns="http://www.w3.org/2000/svg">
<path fill-rule="evenodd" clip-rule="evenodd" d="M24.2285 18.2279C25.0569 18.2279 25.7285 17.5563 25.7285 16.7279C25.7285 15.8995 25.0569 15.2279 24.2285 15.2279L18.2285 15.2279L18.2285 9.2279C18.2285 8.39948 17.5569 7.7279 16.7285 7.7279C15.9001 7.7279 15.2285 8.39948 15.2285 9.2279L15.2285 15.2279L9.22852 15.2279C8.40009 15.2279 7.72852 15.8995 7.72852 16.7279C7.72852 17.5563 8.40009 18.2279 9.22852 18.2279L15.2285 18.2279L15.2285 24.2279C15.2285 25.0563 15.9001 25.7279 16.7285 25.7279C17.5569 25.7279 18.2285 25.0563 18.2285 24.2279L18.2285 18.2279L24.2285 18.2279Z" fill="#BFD4E4"/>
</svg>
