<svg xmlns="http://www.w3.org/2000/svg" width="22" height="21" fill="none" viewBox="0 0 22 21">
  <path fill="#BFD4E4" d="M8.306 11.055h1.35c-.121.185-.212.345-.324.488-.035.043-.126.056-.19.056-.274.004-.546.004-.832.004v1.65c.087.013.165.021.273.034-.139.182-.017.45-.269.566-.021.009-.017.082-.013.125.013.64.03 1.279.035 1.922 0 .51-.022 1.015-.035 1.524v.225c.026.017.04.034.048.03.329-.065.459.108.584.393.19.432.45.83.689 1.257a3.5 3.5 0 0 1-.217.008H2.168c-1.276 0-2.164-.88-2.164-2.154C0 13.102 0 9.013 0 4.923c0-1.244.831-2.12 2.069-2.155.835-.026 1.67-.005 2.506-.005.026 0 .056.009.108.013-.216.717-.121 1.374.416 1.918.359.367.809.54 1.328.518A1.711 1.711 0 0 0 7.851 4.4c.33-.5.355-1.05.17-1.624h2.194c-.256.933-.048 1.706.8 2.203.632.371 1.299.337 1.892-.095.727-.523.896-1.248.649-2.103.065-.009.117-.018.173-.018.866.005 1.727-.017 2.593.018a2.015 2.015 0 0 1 1.917 1.969c.017 1.373.004 2.75.004 4.124 0 .026-.008.056-.013.1-.06-.022-.112-.04-.164-.061-2.225-.95-4.385-.816-6.475.401a.643.643 0 0 1-.281.082c-.256.013-.516.005-.823.005.13.548-.047.963-.532 1.256V9.414H8.31c-.004.54-.004 1.075-.004 1.64Zm8.275-4.966H1.671V7.72h14.91V6.089ZM5.527 11.612h-1.64v1.636h1.64v-1.636Zm-3.852 0v1.64h1.627v-1.64H1.675ZM7.73 9.405H6.094v1.628H7.73V9.405ZM6.094 13.25h1.632v-1.633H6.094v1.633Zm-2.792 2.22v-1.63H1.675v1.628h1.627Zm0 2.202v-1.628H1.666v1.628h1.636Zm2.216 0v-1.624H3.882v1.623h1.636Zm-1.636-3.84v1.633h1.636V13.83H3.882Zm2.22 0v1.629h1.624V13.83H6.103Zm1.628 2.216H6.098v1.628H7.73v-1.628Z"/>
  <path fill="#BFD4E4" d="M9.396 15.187c.013-3.213 2.623-5.808 5.822-5.8a5.805 5.805 0 0 1 5.786 5.826c-.013 3.209-2.623 5.804-5.825 5.787-3.195-.009-5.796-2.63-5.783-5.813Zm6.09-.263c-.004-.09-.009-.164-.009-.233v-2.85c0-.35-.203-.545-.554-.545-.355 0-.545.195-.545.575-.004 1.325 0 2.647 0 3.973 0 .056.009.112.013.16.026.012.034.025.047.025 1.398 0 2.792.005 4.19 0 .238 0 .42-.164.468-.38.1-.431-.134-.725-.576-.725-.93-.005-1.857 0-2.787 0h-.247ZM7.184 2.12c0 .445.005.89 0 1.339-.004.497-.311.777-.83.777-.516 0-.819-.289-.819-.79-.004-.89-.004-1.783 0-2.673 0-.488.299-.769.81-.769.536 0 .835.268.84.76V2.12Zm3.875-.043V.78c.004-.505.299-.781.822-.781.533 0 .831.272.831.769.004.876.004 1.752 0 2.633 0 .484-.307.764-.818.764-.528 0-.826-.276-.83-.772-.005-.437-.005-.877-.005-1.317Z"/>
</svg>
