<svg width="34" height="34" viewBox="0 0 34 34" fill="none" xmlns="http://www.w3.org/2000/svg">
<path d="M14.3058 18.0547C14.7603 18.0547 15.1888 18.0547 15.6562 18.0547C15.535 18.2404 15.4441 18.4002 15.3316 18.5427C15.297 18.5859 15.2061 18.5988 15.1412 18.5988C14.8685 18.6032 14.5958 18.6032 14.3101 18.6032C14.3101 19.1646 14.3101 19.7087 14.3101 20.2528C14.3967 20.2658 14.4746 20.2744 14.5828 20.2873C14.4443 20.4687 14.5655 20.7365 14.3145 20.8531C14.2928 20.8617 14.2972 20.9351 14.3015 20.9783C14.3145 21.6174 14.3318 22.2565 14.3361 22.9C14.3361 23.4096 14.3145 23.9148 14.3015 24.4244C14.3015 24.5021 14.3015 24.5799 14.3015 24.6489C14.3275 24.6662 14.3404 24.6835 14.3491 24.6792C14.678 24.6144 14.8079 24.7871 14.9334 25.0721C15.1238 25.504 15.3835 25.9013 15.6216 26.3288C15.5523 26.3331 15.4788 26.3374 15.4052 26.3374C12.9944 26.3374 10.5792 26.3374 8.16843 26.3374C6.89161 26.3374 6.00433 25.4565 6.00433 24.1826C6 20.1017 6 16.0121 6 11.9226C6 10.6789 6.83101 9.80224 8.06888 9.7677C8.90422 9.74179 9.73956 9.76338 10.5749 9.76338C10.6009 9.76338 10.6312 9.77202 10.6831 9.77633C10.4667 10.4932 10.5619 11.1496 11.0986 11.6937C11.4579 12.0608 11.908 12.2335 12.4274 12.2119C13.0377 12.186 13.5181 11.9096 13.8514 11.4001C14.1803 10.8991 14.2063 10.3507 14.0202 9.77633C14.7603 9.77633 15.4788 9.77633 16.2146 9.77633C15.9592 10.7091 16.1669 11.4821 17.0153 11.9787C17.6472 12.3501 18.3137 12.3156 18.9067 11.8837C19.6338 11.3612 19.8026 10.6357 19.5559 9.78065C19.6208 9.77202 19.6728 9.76338 19.7291 9.76338C20.5947 9.7677 21.456 9.7461 22.3216 9.78065C23.3691 9.81952 24.2261 10.7048 24.239 11.7498C24.2563 13.1231 24.2434 14.5007 24.2434 15.8739C24.2434 15.8998 24.2347 15.9301 24.2304 15.9733C24.1698 15.9517 24.1178 15.9344 24.0659 15.9128C21.8412 14.9627 19.6814 15.0966 17.5909 16.3144C17.5087 16.3619 17.4048 16.3921 17.3096 16.3965C17.0542 16.4094 16.7945 16.4008 16.4872 16.4008C16.6171 16.9492 16.4396 17.3638 15.9549 17.6574C15.9549 17.2472 15.9549 16.8369 15.9549 16.4137C15.3922 16.4137 14.8555 16.4137 14.3101 16.4137C14.3058 16.9535 14.3058 17.489 14.3058 18.0547ZM22.5813 13.0886C17.5996 13.0886 12.6395 13.0886 7.67069 13.0886C7.67069 13.6456 7.67069 14.1854 7.67069 14.7209C12.6524 14.7209 17.6126 14.7209 22.5813 14.7209C22.5813 14.1725 22.5813 13.6413 22.5813 13.0886ZM11.5271 18.6118C10.9688 18.6118 10.4364 18.6118 9.88672 18.6118C9.88672 19.1646 9.88672 19.7044 9.88672 20.2485C10.4407 20.2485 10.9818 20.2485 11.5271 20.2485C11.5271 19.7 11.5271 19.1689 11.5271 18.6118ZM7.67501 18.6118C7.67501 19.1775 7.67501 19.7173 7.67501 20.2528C8.22902 20.2528 8.76572 20.2528 9.30242 20.2528C9.30242 19.6957 9.30242 19.1559 9.30242 18.6118C8.74841 18.6118 8.22037 18.6118 7.67501 18.6118ZM13.7302 16.4051C13.1718 16.4051 12.6351 16.4051 12.0941 16.4051C12.0941 16.9535 12.0941 17.4933 12.0941 18.0331C12.6481 18.0331 13.1848 18.0331 13.7302 18.0331C13.7302 17.4847 13.7302 16.9535 13.7302 16.4051ZM12.0941 20.2485C12.6568 20.2485 13.1935 20.2485 13.7258 20.2485C13.7258 19.6957 13.7258 19.1559 13.7258 18.6161C13.1762 18.6161 12.6395 18.6161 12.0941 18.6161C12.0941 19.1689 12.0941 19.7044 12.0941 20.2485ZM9.30242 22.4681C9.30242 21.9197 9.30242 21.3799 9.30242 20.8401C8.75274 20.8401 8.21171 20.8401 7.67501 20.8401C7.67501 21.3972 7.67501 21.9283 7.67501 22.4681C8.22037 22.4681 8.75274 22.4681 9.30242 22.4681ZM9.30242 24.6705C9.30242 24.1307 9.30242 23.5866 9.30242 23.0425C8.75274 23.0425 8.21604 23.0425 7.66636 23.0425C7.66636 23.5909 7.66636 24.1264 7.66636 24.6705C8.21171 24.6705 8.74841 24.6705 9.30242 24.6705ZM11.5185 24.6705C11.5185 24.1221 11.5185 23.5909 11.5185 23.0468C10.9688 23.0468 10.4277 23.0468 9.8824 23.0468C9.8824 23.5996 9.8824 24.1351 9.8824 24.6705C10.4364 24.6705 10.9731 24.6705 11.5185 24.6705ZM9.8824 20.8315C9.8824 21.3885 9.8824 21.924 9.8824 22.4638C10.4364 22.4638 10.9731 22.4638 11.5185 22.4638C11.5185 21.9154 11.5185 21.3799 11.5185 20.8315C10.9731 20.8315 10.4364 20.8315 9.8824 20.8315ZM12.1028 20.8315C12.1028 21.3842 12.1028 21.924 12.1028 22.4595C12.6568 22.4595 13.1891 22.4595 13.7258 22.4595C13.7258 21.9068 13.7258 21.3713 13.7258 20.8315C13.1762 20.8315 12.6438 20.8315 12.1028 20.8315ZM13.7302 23.0468C13.1718 23.0468 12.6351 23.0468 12.0984 23.0468C12.0984 23.5996 12.0984 24.1307 12.0984 24.6749C12.6481 24.6749 13.1848 24.6749 13.7302 24.6749C13.7302 24.1264 13.7302 23.5909 13.7302 23.0468Z" fill="#BFD4E4"/>
<path d="M15.3962 22.1872C15.4092 18.9743 18.0191 16.379 21.2176 16.3876C24.4248 16.3962 27.0174 19.0089 27.0044 22.2131C26.9914 25.4217 24.3815 28.0171 21.1786 27.9998C17.9844 27.9912 15.3832 25.3699 15.3962 22.1872ZM21.4859 21.9238C21.4816 21.8331 21.4773 21.7597 21.4773 21.6906C21.4773 20.7406 21.4773 19.7905 21.4773 18.8405C21.4773 18.4907 21.2739 18.2963 20.9233 18.2963C20.5684 18.2963 20.3779 18.4907 20.3779 18.8707C20.3736 20.1964 20.3779 21.5179 20.3779 22.8436C20.3779 22.8998 20.3866 22.9559 20.3909 23.0034C20.4169 23.0164 20.4255 23.0293 20.4385 23.0293C21.8365 23.0293 23.2302 23.0336 24.6282 23.0293C24.8663 23.0293 25.0481 22.8652 25.0957 22.6493C25.1952 22.2175 24.9615 21.9238 24.52 21.9238C23.5894 21.9195 22.6632 21.9238 21.7327 21.9238C21.6547 21.9238 21.5768 21.9238 21.4859 21.9238Z" fill="#BFD4E4"/>
<path d="M13.1843 9.12029C13.1843 9.56509 13.1887 10.0099 13.1843 10.459C13.18 10.9556 12.8727 11.2363 12.3533 11.2363C11.8383 11.2363 11.5353 10.947 11.5353 10.446C11.531 9.55645 11.531 8.66254 11.5353 7.77295C11.5353 7.28497 11.8339 7.00427 12.3447 7.00427C12.8814 7.00427 13.18 7.27201 13.1843 7.76431C13.1843 8.21343 13.1843 8.66686 13.1843 9.12029Z" fill="#BFD4E4"/>
<path d="M17.059 9.07672C17.059 8.64497 17.059 8.21322 17.059 7.78147C17.0633 7.27632 17.3576 7 17.8812 7C18.4135 7 18.712 7.272 18.712 7.76852C18.7164 8.64497 18.7164 9.52143 18.712 10.4022C18.712 10.8858 18.4048 11.1664 17.8942 11.1664C17.3663 11.1664 17.0677 10.8901 17.0633 10.3936C17.059 9.95749 17.059 9.51711 17.059 9.07672Z" fill="#BFD4E4"/>
</svg>
