<svg width="34" height="34" viewBox="0 0 34 34" fill="none" xmlns="http://www.w3.org/2000/svg">
<path fill-rule="evenodd" clip-rule="evenodd" d="M17 7C11.48 7 7 11.48 7 17C7 22.52 11.48 27 17 27C22.52 27 27 22.52 27 17C27 11.48 22.52 7 17 7ZM17.0015 9.99851C18.6615 9.99851 20.0015 11.3385 20.0015 12.9985C20.0015 14.6585 18.6615 15.9985 17.0015 15.9985C15.3415 15.9985 14.0015 14.6585 14.0015 12.9985C14.0015 11.3385 15.3415 9.99851 17.0015 9.99851ZM16.9983 24.2003C14.4983 24.2003 12.2883 22.9203 10.9983 20.9803C11.0283 18.9903 14.9983 17.9003 16.9983 17.9003C18.9883 17.9003 22.9683 18.9903 22.9983 20.9803C21.7083 22.9203 19.4983 24.2003 16.9983 24.2003Z" fill="#BFD4E4"/>
</svg>
