<svg width="34" height="34" viewBox="0 0 34 34" fill="none" xmlns="http://www.w3.org/2000/svg">
<path fill-rule="evenodd" clip-rule="evenodd" d="M15.1645 6H7V14.1645H15.1645V6ZM15.1645 17.8355H7V26H15.1645V17.8355ZM18.8353 6H26.9998V14.1645H18.8353V6ZM21.9527 17.8355H18.8353V20.9529H20.5609V19.5593H21.9527V17.8355ZM18.8353 22.8826H20.5609V24.2763H21.9527V26H18.8353V22.8826ZM23.8828 26V24.2763H25.2779V22.8826H27.0001V26H23.8828ZM27.0001 20.9529H25.2779V19.5593H23.8828V17.8355H27.0001V20.9529ZM8.72559 7.72388H13.4426V12.4409H8.72559V7.72388ZM8.72559 19.5593H13.4426V24.2763H8.72559V19.5593ZM25.2779 7.72388H20.5609V12.4409H25.2779V7.72388ZM12.0464 9.11743H10.1167V11.0472H12.0464V9.11743ZM12.0464 20.9529H10.1167V22.8826H12.0464V20.9529ZM21.952 9.11743H23.8818V11.0472H21.952V9.11743ZM23.8818 20.9529H21.952V22.8826H23.8818V20.9529Z" fill="#BFD4E4"/>
</svg>
