<svg xmlns="http://www.w3.org/2000/svg" width="20" height="20" fill="none" viewBox="0 0 20 20">
  <path fill="#BFD4E4" fill-rule="evenodd" d="M8.165 0H0v8.164h8.165V0Zm0 11.835H0V20h8.165v-8.165ZM11.835 0H20v8.164h-8.165V0Zm3.118 11.835h-3.118v3.118h1.726v-1.394h1.392v-1.723Zm-3.118 5.048h1.726v1.393h1.392V20h-3.118v-3.117ZM16.883 20v-1.724h1.395v-1.393H20V20h-3.117ZM20 14.953h-1.722v-1.394h-1.395v-1.723H20v3.117ZM1.726 1.723h4.717v4.718H1.726V1.724Zm0 11.836h4.717v4.717H1.726V13.56ZM18.278 1.724H13.56V6.44h4.717V1.724ZM5.046 3.117h-1.93v1.93h1.93v-1.93Zm0 11.836h-1.93v1.93h1.93v-1.93Zm9.906-11.836h1.93v1.93h-1.93v-1.93Zm1.93 11.836h-1.93v1.93h1.93v-1.93Z" clip-rule="evenodd"/>
</svg>
