<svg width="34" height="34" viewBox="0 0 34 34" fill="none" xmlns="http://www.w3.org/2000/svg">
<path d="M24.79 12.5463C25.0389 12.03 25.2878 11.5138 25.5366 10.9975C25.7855 10.4813 26.2833 10.2231 26.6566 10.3522C27.4032 10.4813 27.7766 11.2557 27.4032 11.901C26.6566 13.4498 26.0344 14.9986 25.2878 16.4183C25.0389 16.9345 24.2922 17.1927 23.7945 16.8055C22.4256 15.902 21.0568 15.1276 19.688 14.2242C19.1902 13.837 19.0658 13.1916 19.3146 12.6754C19.688 12.2882 20.3102 12.1591 20.8079 12.5463C21.4301 12.9335 22.0523 13.3207 22.6745 13.7079C22.799 13.7079 22.799 13.837 22.9234 13.837C22.9234 13.7079 22.9234 13.7079 22.799 13.5788C21.8034 11.2557 20.1857 9.70687 17.6969 9.31967C15.2081 8.93248 13.2171 9.83593 11.7238 11.7719C11.3505 12.1591 10.9772 12.5463 10.4794 12.4172C9.60833 12.1591 9.35945 11.2557 9.85721 10.6103C10.8527 9.19061 12.2216 8.02902 13.9637 7.51276C18.3191 5.96397 22.799 8.02902 24.79 12.2882C24.6656 12.4172 24.6656 12.4172 24.79 12.5463Z" fill="#BFD4E4"/>
<path d="M8.73768 19.3858C8.4888 19.9021 8.23992 20.4183 7.99104 20.9346C7.74216 21.3218 7.2444 21.5799 6.87108 21.5799C6.37332 21.4509 6 21.0637 6 20.5474C6 20.2893 6 20.1602 6.12444 19.9021C6.87108 18.3533 7.49328 16.9336 8.23992 15.3848C8.4888 14.8685 9.111 14.6104 9.7332 14.9976C11.102 15.901 12.4709 16.6754 13.8397 17.5789C14.3375 17.9661 14.5864 18.6114 14.213 19.1277C13.8397 19.5149 13.2175 19.773 12.7198 19.3858C12.0976 18.9986 11.4754 18.6114 10.8532 18.3533C10.7287 18.3533 10.7287 18.2242 10.6043 18.2242C10.7287 18.3533 10.8532 18.6114 10.8532 18.8695C12.9686 23.3868 18.8173 24.0322 21.8039 20.1602C22.0528 19.773 22.4261 19.5149 22.9238 19.5149C23.7949 19.6439 24.1682 20.6765 23.546 21.3218C22.3016 22.9996 20.8084 24.0322 18.8173 24.6775C14.7108 25.8391 10.4798 23.774 8.73768 19.773C8.86212 19.5149 8.86212 19.5149 8.73768 19.3858Z" fill="#BFD4E4"/>
</svg>
