<svg xmlns="http://www.w3.org/2000/svg" width="22" height="18" fill="none" viewBox="0 0 22 18">
  <path fill="#BFD4E4" d="m18.79 5.546.747-1.548c.248-.517.746-.775 1.12-.646.746.13 1.12.904.746 1.549-.746 1.549-1.369 3.098-2.115 4.517-.25.517-.996.775-1.494.387-1.368-.903-2.737-1.677-4.106-2.58a1.26 1.26 0 0 1-.373-1.55c.373-.387.995-.516 1.493-.129l1.866 1.162c.125 0 .125.129.25.129 0-.13 0-.13-.125-.258-.996-2.323-2.613-3.872-5.102-4.26-2.489-.387-4.48.517-5.973 2.453-.374.387-.747.774-1.245.645-.87-.258-1.12-1.161-.622-1.807.996-1.42 2.365-2.58 4.107-3.097 4.355-1.549 8.835.516 10.826 4.775-.124.13-.124.13 0 .258Zm-16.052 6.84c-.25.516-.498 1.032-.747 1.549-.249.387-.747.645-1.12.645C.373 14.45 0 14.064 0 13.547c0-.258 0-.387.124-.645.747-1.549 1.37-2.968 2.116-4.517.249-.516.871-.775 1.493-.387 1.369.903 2.738 1.677 4.107 2.58.497.388.746 1.033.373 1.55-.373.387-.995.645-1.493.258-.622-.387-1.245-.775-1.867-1.033-.124 0-.124-.129-.249-.129.125.13.25.387.25.646 2.115 4.517 7.963 5.162 10.95 1.29.249-.387.622-.645 1.12-.645a1.067 1.067 0 0 1 .622 1.807c-1.244 1.678-2.738 2.71-4.729 3.355-4.106 1.162-8.337-.903-10.08-4.904.125-.258.125-.258 0-.387Z"/>
</svg>
