<svg xmlns="http://www.w3.org/2000/svg" width="20" height="22" fill="none" viewBox="0 0 20 22">
  <path fill="#BFD4E4" d="M20 6.422c0-.704-.315-1.232-.946-1.584-2.703-1.54-5.405-3.079-8.153-4.574-.63-.352-1.216-.352-1.847 0a743.557 743.557 0 0 1-8.063 4.53C.315 5.19 0 5.718 0 6.51v9.06c0 .704.315 1.232.946 1.584l5.405 3.035c.901.527 1.802 1.011 2.703 1.54.586.307 1.171.395 1.757.043a780.615 780.615 0 0 0 8.243-4.662c.63-.352.901-.88.901-1.584v-4.574C20 9.457 20 7.962 20 6.422Zm-5.495 6.377c.36.352.36.88 0 1.232l-1.352 1.32a.886.886 0 0 1-1.261 0l-1.847-1.804-1.847 1.803a.886.886 0 0 1-1.261 0l-1.351-1.32a.837.837 0 0 1 0-1.23l1.846-1.804-1.846-1.803a.837.837 0 0 1 0-1.232l1.35-1.32a.885.885 0 0 1 1.262 0l1.847 1.804 1.847-1.803a.885.885 0 0 1 1.261 0l1.351 1.32c.36.351.36.879 0 1.23l-1.846 1.804 1.847 1.803Z"/>
</svg>
