<svg width="34" height="34" viewBox="0 0 34 34" fill="none" xmlns="http://www.w3.org/2000/svg">
<path d="M26 12.8379C26 12.1981 25.7162 11.7183 25.1486 11.3984C22.7162 9.99892 20.2838 8.59942 17.8108 7.23991C17.2432 6.92003 16.7162 6.92003 16.1486 7.23991C13.7162 8.63941 11.3243 9.99891 8.89189 11.3584C8.28378 11.7183 8 12.1981 8 12.9179C8 15.6769 8 18.3959 8 21.1549C8 21.7947 8.28378 22.2745 8.85135 22.5944C10.473 23.514 12.0946 24.4337 13.7162 25.3534C14.527 25.8332 15.3378 26.273 16.1486 26.7529C16.6757 27.0328 17.2027 27.1127 17.7297 26.7928C20.2027 25.3933 22.6757 23.9939 25.1486 22.5544C25.7162 22.2345 25.9595 21.7547 25.9595 21.1149C25.9595 19.7154 25.9595 18.3559 25.9595 16.9564C26 15.5969 26 14.2374 26 12.8379ZM21.0541 18.6358C21.3784 18.9557 21.3784 19.4355 21.0541 19.7554L19.8378 20.955C19.5135 21.2748 19.027 21.2748 18.7027 20.955L17.0405 19.3155L15.3784 20.955C15.0541 21.2748 14.5676 21.2748 14.2432 20.955L13.027 19.7554C12.7027 19.4355 12.7027 18.9557 13.027 18.6358L14.6892 16.9964L13.027 15.357C12.7027 15.0371 12.7027 14.5573 13.027 14.2374L14.2432 13.0378C14.5676 12.7179 15.0541 12.7179 15.3784 13.0378L17.0405 14.6772L18.7027 13.0378C19.027 12.7179 19.5135 12.7179 19.8378 13.0378L21.0541 14.2374C21.3784 14.5573 21.3784 15.0371 21.0541 15.357L19.3919 16.9964L21.0541 18.6358Z" fill="#BFD4E4"/>
</svg>
