<svg xmlns="http://www.w3.org/2000/svg" width="20" height="24" fill="none" viewBox="0 0 20 24">
  <path fill="#BFD4E4" d="M0 9.26V3.53c0-.51.291-.823.767-.823a16.47 16.47 0 0 0 4.393-.51c1.217-.341 2.355-.823 3.414-1.561.212-.142.397-.312.582-.454.291-.227.609-.255.9 0 1.217 1.021 2.62 1.646 4.101 2.043 1.377.369 2.779.51 4.208.51.106 0 .212 0 .318.029.343.085.555.397.555.794V8.75c0 2.014.027 4.029 0 6.043-.026 2.185-.952 3.859-2.699 4.965-1.27.795-2.567 1.532-3.864 2.299a31.471 31.471 0 0 0-2.54 1.73c-.37.284-.635.284-1.005 0-1.27-.993-2.647-1.816-4.023-2.639-.82-.482-1.667-.964-2.487-1.475-1.43-.908-2.276-2.241-2.54-3.972-.054-.312-.054-.624-.08-.936V9.26Zm1.429-5.05v.113c0 3.49-.026 6.98 0 10.498 0 1.533.688 2.696 1.905 3.49.662.426 1.35.795 2.038 1.22 1.429.823 2.831 1.674 4.155 2.667.052.057.105.029.158 0 .794-.539 1.588-1.106 2.408-1.617 1.218-.766 2.461-1.447 3.705-2.213 1.297-.794 1.985-2.014 1.985-3.632.026-3.461 0-6.923 0-10.384V4.21h-.212a15.246 15.246 0 0 1-3.916-.596c-1.403-.397-2.752-.965-3.943-1.872-.053-.057-.106-.029-.159 0a8.931 8.931 0 0 1-1.8 1.05c-1.746.822-3.572 1.22-5.477 1.361-.291.057-.556.057-.847.057Z"/>
  <path fill="#BFD4E4" d="M9.625 12.67c.28-.31.56-.594.84-.903.196-.232.448-.31.756-.284.98.077 1.96.232 2.94.464.671.155 1.063.646 1.035 1.265-.056.826-.084 1.626-.168 2.452-.056.567-.616 1.032-1.232 1.032H5.594c-.672 0-1.232-.387-1.344-.98-.056-.31-.056-.595-.084-.904-.028-.516-.084-1.058-.112-1.574-.028-.671.364-1.136 1.064-1.316A18.062 18.062 0 0 1 8 11.483c.308-.026.56.052.784.284.28.31.56.593.84.903Zm-4.06.594c.057.696.085 1.367.14 2.038h7.84v-.077c.027-.62.083-1.239.14-1.884 0-.077-.029-.077-.085-.103a17.662 17.662 0 0 0-2.043-.336.413.413 0 0 0-.252.078l-1.092 1.16c-.336.362-.84.362-1.204 0-.364-.386-.756-.773-1.12-1.186-.056-.052-.084-.078-.168-.078-.308.052-.615.078-.923.13-.392.103-.812.18-1.232.258Z"/>
  <path fill="#BFD4E4" d="M12.158 8.048c-.024.987-.244 1.848-.854 2.583-.341.405-.78.708-1.293.81-.658.126-1.22-.076-1.732-.481-.56-.456-.878-1.089-1.049-1.798-.195-.76-.195-1.544.074-2.279.341-.962 1.024-1.519 2-1.645.854-.102 1.61.177 2.195.86.366.43.561.963.61 1.545.024.126.024.278.049.405Zm-3.732.025c0 .304.048.608.122.912.122.354.292.709.585.937.317.253.659.227.976 0 .195-.152.341-.355.439-.583a3.018 3.018 0 0 0 .244-1.67c-.098-.634-.415-.988-.976-1.09a1.111 1.111 0 0 0-1.244.71c-.122.253-.146.506-.146.784Z"/>
</svg>
