<svg width="34" height="34" viewBox="0 0 34 34" fill="none" xmlns="http://www.w3.org/2000/svg">
<path d="M7 14.2603C7 12.3594 7 10.43 7 8.52902C7 8.01831 7.29109 7.70621 7.76741 7.70621C9.24931 7.73458 10.7048 7.56435 12.1602 7.1955C13.3775 6.85503 14.5154 6.37269 15.5739 5.635C15.7856 5.49313 15.9708 5.3229 16.156 5.18103C16.4471 4.95405 16.7647 4.92568 17.0558 5.18103C18.273 6.20245 19.6755 6.82666 21.1574 7.22387C22.5335 7.59272 23.936 7.73458 25.365 7.73458C25.4708 7.73458 25.5767 7.73458 25.6825 7.76296C26.0265 7.84808 26.2382 8.16018 26.2382 8.5574C26.2382 10.2881 26.2382 12.0189 26.2382 13.7496C26.2382 15.7641 26.2647 17.7786 26.2382 19.793C26.2118 21.9777 25.2856 23.6517 23.5391 24.7583C22.2689 25.5527 20.9722 26.2904 19.6755 27.0565C18.8023 27.5955 17.9555 28.163 17.1351 28.7872C16.7647 29.0709 16.5 29.0709 16.1296 28.7872C14.8594 27.7942 13.4833 26.9713 12.1073 26.1485C11.2869 25.6662 10.4401 25.1839 9.61979 24.6731C8.19081 23.7652 7.34401 22.4317 7.07938 20.701C7.02646 20.3889 7.02646 20.0768 7 19.7647C7 17.892 7 16.0762 7 14.2603ZM8.42897 9.20997C8.42897 9.23834 8.42897 9.26672 8.42897 9.32346C8.42897 12.8133 8.40251 16.3032 8.42897 19.8214C8.42897 21.3535 9.117 22.5168 10.3343 23.3113C10.9958 23.7368 11.6839 24.1057 12.3719 24.5313C13.8009 25.3541 15.2034 26.2053 16.5265 27.1983C16.5794 27.2551 16.6324 27.2267 16.6853 27.1983C17.4792 26.6592 18.273 26.0918 19.0934 25.5811C20.3106 24.815 21.5544 24.1341 22.7981 23.368C24.0948 22.5736 24.7828 21.3535 24.7828 19.7363C24.8093 16.2748 24.7828 12.8133 24.7828 9.35183C24.7828 9.29509 24.7828 9.26672 24.7828 9.20997C24.7034 9.20997 24.624 9.20997 24.5711 9.20997C23.248 9.1816 21.9249 8.98299 20.6547 8.61414C19.2521 8.21692 17.9026 7.64947 16.7117 6.74154C16.6588 6.68479 16.6059 6.71316 16.553 6.74154C15.9973 7.16713 15.3886 7.5076 14.7535 7.79133C13.007 8.61414 11.1811 9.01136 9.27577 9.15322C8.98469 9.20997 8.72006 9.20997 8.42897 9.20997Z" fill="#BFD4E4"/>
<path d="M16.625 17.6701C16.905 17.3604 17.1849 17.0765 17.4649 16.7669C17.6608 16.5346 17.9128 16.4572 18.2207 16.483C19.2006 16.5604 20.1804 16.7153 21.1602 16.9475C21.8321 17.1023 22.224 17.5926 22.196 18.212C22.14 19.0377 22.112 19.8377 22.028 20.6635C21.972 21.2312 21.4122 21.6957 20.7963 21.6957C19.4805 21.6957 18.1648 21.6957 16.849 21.6957C15.4213 21.6957 13.9935 21.6957 12.5938 21.6957C11.9219 21.6957 11.362 21.3086 11.25 20.7151C11.1941 20.4054 11.194 20.1215 11.1661 19.8119C11.1381 19.2958 11.0821 18.7539 11.0541 18.2378C11.0261 17.5668 11.418 17.1023 12.1179 16.9217C13.0697 16.6895 14.0215 16.5604 15.0013 16.483C15.3093 16.4572 15.5612 16.5346 15.7852 16.7669C16.0651 17.0765 16.3451 17.3604 16.625 17.6701ZM12.5658 18.2636C12.6218 18.9603 12.6498 19.6312 12.7058 20.3022C15.3373 20.3022 17.9408 20.3022 20.5443 20.3022C20.5443 20.2764 20.5443 20.2506 20.5443 20.2248C20.5723 19.6054 20.6283 18.9861 20.6843 18.341C20.6843 18.2636 20.6563 18.2636 20.6003 18.2378C19.9284 18.0829 19.2566 17.9797 18.5567 17.9023C18.4447 17.9023 18.3887 17.9281 18.3047 17.9797C17.9408 18.3668 17.5769 18.7539 17.2129 19.1409C16.877 19.5022 16.3731 19.5022 16.0092 19.1409C15.6452 18.7539 15.2533 18.3668 14.8894 17.9539C14.8334 17.9023 14.8054 17.8765 14.7214 17.8765C14.4135 17.9281 14.1055 17.9539 13.7976 18.0055C13.4056 18.1087 12.9857 18.1862 12.5658 18.2636Z" fill="#BFD4E4"/>
<path d="M19.1579 13.048C19.1335 14.0355 18.914 14.8963 18.3041 15.6306C17.9626 16.0357 17.5235 16.3395 17.0113 16.4408C16.3526 16.5674 15.7916 16.3648 15.2793 15.9597C14.7183 15.504 14.4012 14.871 14.2304 14.162C14.0353 13.4025 14.0353 12.6176 14.3036 11.8833C14.6451 10.9212 15.3281 10.3642 16.3039 10.2376C17.1576 10.1363 17.9138 10.4148 18.4993 11.0984C18.8652 11.5289 19.0603 12.0606 19.1091 12.6429C19.1335 12.7695 19.1335 12.9214 19.1579 13.048ZM15.4257 13.0733C15.4257 13.3772 15.4745 13.681 15.5477 13.9848C15.6696 14.3393 15.8404 14.6937 16.1331 14.9216C16.4502 15.1748 16.7917 15.1495 17.1088 14.9216C17.304 14.7697 17.4503 14.5672 17.5479 14.3393C17.7919 13.8076 17.865 13.2506 17.7919 12.6682C17.6943 12.0352 17.3772 11.6808 16.8161 11.5795C16.2795 11.4782 15.7672 11.782 15.572 12.2884C15.4501 12.5416 15.4257 12.7948 15.4257 13.0733Z" fill="#BFD4E4"/>
</svg>
