<svg width="34" height="34" viewBox="0 0 34 34" fill="none" xmlns="http://www.w3.org/2000/svg">
<path fill-rule="evenodd" clip-rule="evenodd" d="M21.8116 13.2387H20.4939V11.8943H18.8506V14.9154H21.8116V13.2387ZM18.8506 7H21.8116V8.67674H20.4939V10.0211H18.8506V7ZM26.6083 7V10.0211H24.965V8.67674H23.6326V7H26.6083ZM26.6083 14.9154H23.6474V13.2387H24.9798V11.8943H26.6231V14.9154H26.6083ZM23.6474 10.0211H21.8116V11.8943H23.6474V10.0211Z" fill="#BFD3E3"/>
<path d="M28 16.9547H6V18.6465H28V16.9547Z" fill="#BFD3E3"/>
<path fill-rule="evenodd" clip-rule="evenodd" d="M21.7227 25.3233H24.9798V21.7885H26.6083V27H21.7227V25.3233Z" fill="#BFD3E3"/>
<path fill-rule="evenodd" clip-rule="evenodd" d="M12.4993 27H7.61371V21.7885H9.24224V25.3233H12.4993V27Z" fill="#BFD3E3"/>
<path d="M15.3715 10.0211H10.5747V11.8943H15.3715V10.0211Z" fill="#BFD3E3"/>
<path d="M15.3714 13.0423H13.5356V14.9154H15.3714V13.0423Z" fill="#BFD3E3"/>
<path d="M10.5747 7H8.73889V8.87311H10.5747V7Z" fill="#BFD3E3"/>
<path d="M15.3714 7H12.2032V8.67674H15.3714V7Z" fill="#BFD3E3"/>
<path fill-rule="evenodd" clip-rule="evenodd" d="M9.24224 10.0211V7H7.61371V14.9154H12.3365V13.2387H9.24224V10.0211Z" fill="#BFD3E3"/>
</svg>
