<svg xmlns="http://www.w3.org/2000/svg" width="22" height="20" fill="none" viewBox="0 0 22 20">
  <path fill="#BFD3E3" fill-rule="evenodd" d="M15.812 6.239h-1.318V4.894H12.85v3.021h2.96V6.24ZM12.85 0h2.96v1.677h-1.317V3.02H12.85V0Zm7.757 0v3.021h-1.643V1.677h-1.332V0h2.975Zm0 7.915h-2.96V6.24h1.332V4.894h1.643v3.021h-.015Zm-2.96-4.894h-1.836v1.873h1.835V3.021Z" clip-rule="evenodd"/>
  <path fill="#BFD3E3" d="M22 9.955H0v1.691h22V9.955Z"/>
  <path fill="#BFD3E3" fill-rule="evenodd" d="M15.723 18.323h3.257V14.79h1.628V20h-4.885v-1.677ZM6.5 20H1.613v-5.211h1.628v3.534H6.5V20Z" clip-rule="evenodd"/>
  <path fill="#BFD3E3" d="M9.371 3.021H4.575v1.873H9.37V3.021Zm0 3.021H7.536v1.873H9.37V6.042ZM4.575 0H2.739v1.873h1.836V0Zm4.796 0H6.203v1.677h3.168V0Z"/>
  <path fill="#BFD3E3" fill-rule="evenodd" d="M3.242 3.021V0H1.614v7.915h4.722V6.24H3.242V3.02Z" clip-rule="evenodd"/>
</svg>
