<svg width="234" height="234" viewBox="0 0 234 234" fill="none" xmlns="http://www.w3.org/2000/svg">
<path fill-rule="evenodd" clip-rule="evenodd" d="M24 0H3H0V3V24H3L3 3H24V0Z" fill="#C4C4C4"/>
<path fill-rule="evenodd" clip-rule="evenodd" d="M234 24L234 3L234 0L231 -1.31134e-07L210 -1.04907e-06L210 3L231 3L231 24L234 24Z" fill="#C4C4C4"/>
<path fill-rule="evenodd" clip-rule="evenodd" d="M210 234L231 234L234 234L234 231L234 210L231 210L231 231L210 231L210 234Z" fill="#C4C4C4"/>
<path fill-rule="evenodd" clip-rule="evenodd" d="M3.14722e-06 210L3.93402e-07 231L0 234L3 234L24 234L24 231L3 231L3 210L3.14722e-06 210Z" fill="#C4C4C4"/>
</svg>
