<svg width="34" height="34" viewBox="0 0 34 34" fill="none" xmlns="http://www.w3.org/2000/svg">
<path fill-rule="evenodd" clip-rule="evenodd" d="M13.1064 27H8V21.6237H9.70213V25.2796H13.1064V27Z" fill="#BFD3E3"/>
<path fill-rule="evenodd" clip-rule="evenodd" d="M13.1064 8.72043H9.70213V12.4839H8V7H13.1064V8.72043Z" fill="#BFD3E3"/>
<path fill-rule="evenodd" clip-rule="evenodd" d="M22.8936 7H28V12.4839H26.2979V8.72043H22.8936V7Z" fill="#BFD3E3"/>
<path fill-rule="evenodd" clip-rule="evenodd" d="M22.5745 17.1075C20.0213 17.1075 17.8936 19.2581 17.8936 21.8387C17.8936 24.4193 20.0213 26.5699 22.5745 26.5699C25.1277 26.5699 27.2553 24.4193 27.2553 21.8387C27.2553 19.2581 25.1277 17.1075 22.5745 17.1075ZM22.0426 24.957L19.1702 22.4839C19.0638 22.3763 19.0638 22.1613 19.1702 22.0538L19.5957 21.5161C19.7021 21.4086 19.9149 21.4086 20.0213 21.5161L21.8298 23.129L25.0213 19.3656C25.1277 19.2581 25.3404 19.2581 25.4468 19.3656L25.9787 19.7957C26.0851 19.9032 26.0851 20.1183 25.9787 20.2258L22.0426 24.957Z" fill="#BFD3E3"/>
<path d="M16.1915 21.5161C16.1915 18.828 18 16.5699 20.5532 15.9247C20.5532 15.6022 20.5532 15.2796 20.5532 14.957C20.5532 14.7419 20.5532 14.5269 20.3404 14.3118C20.234 14.2043 20.0213 14.0968 19.8085 14.0968C19.1702 14.0968 18.5319 14.0968 17.8936 14.0968C16.0851 14.0968 14.2766 14.0968 12.4681 14.0968C12.0425 14.0968 11.8298 14.3118 11.7234 14.6344V14.7419C11.7234 17.3226 11.7234 19.9032 11.7234 22.4839V22.5914C11.8298 22.914 12.0425 23.0215 12.2553 23.129C13.6383 23.129 15.0213 23.129 16.4042 23.129C16.2979 22.5914 16.1915 22.0538 16.1915 21.5161Z" fill="#BFD3E3"/>
<path d="M20.6596 13.2366C21.1915 13.4516 21.5107 13.8817 21.5107 14.5269C21.5107 14.957 21.5107 15.2796 21.5107 15.7097C21.7234 15.7097 21.8298 15.7097 22.0426 15.7097C22.6809 15.7097 23.3192 15.8172 23.9575 16.0323C23.9575 14.5269 23.9575 13.0215 23.9575 11.5161C23.9575 11.086 23.6383 10.7634 23.2128 10.7634C20.766 10.7634 18.3192 10.7634 15.8724 10.7634C15.4468 10.7634 15.1277 11.086 15.1277 11.5161C15.1277 12.0538 15.1277 12.5914 15.1277 13.0215C15.1277 13.0215 15.1277 13.0215 15.1277 13.129H15.2341C16.9362 13.129 18.6383 13.129 20.3405 13.129C20.3405 13.129 20.4468 13.129 20.6596 13.2366Z" fill="#BFD3E3"/>
</svg>
