<svg xmlns="http://www.w3.org/2000/svg" width="20" height="20" fill="none" viewBox="0 0 20 20">
  <path fill="#BFD3E3" fill-rule="evenodd" d="M5.106 20H0v-5.376h1.702v3.656h3.404V20Zm0-18.28H1.702v3.764H0V0h5.106v1.72ZM14.894 0H20v5.484h-1.702V1.72h-3.404V0Zm-.319 10.107c-2.554 0-4.681 2.151-4.681 4.732 0 2.58 2.127 4.73 4.68 4.73 2.554 0 4.681-2.15 4.681-4.73 0-2.58-2.127-4.732-4.68-4.732Zm-.532 7.85-2.873-2.473a.33.33 0 0 1 0-.43l.426-.538a.321.321 0 0 1 .425 0l1.809 1.613 3.191-3.763a.321.321 0 0 1 .426 0l.532.43a.33.33 0 0 1 0 .43l-3.936 4.731Z" clip-rule="evenodd"/>
  <path fill="#BFD3E3" d="M8.191 14.516a5.74 5.74 0 0 1 4.362-5.591v-.968c0-.215 0-.43-.213-.645a.808.808 0 0 0-.531-.215H4.468c-.425 0-.638.215-.745.537v7.957c.107.323.32.43.532.538h4.15c-.107-.538-.214-1.075-.214-1.613Z"/>
  <path fill="#BFD3E3" d="M12.66 6.237c.531.215.85.645.85 1.29V8.71h.533c.638 0 1.276.107 1.915.322V4.516c0-.43-.32-.753-.745-.753h-7.34a.731.731 0 0 0-.745.753V6.13h5.213s.106 0 .319.108Z"/>
</svg>
