<svg width="34" height="34" viewBox="0 0 34 34" fill="none" xmlns="http://www.w3.org/2000/svg">
<g clip-path="url(#clip0_152_746)">
<path d="M23.6351 15.3412C23.5877 16.6683 23.3033 17.9953 22.6398 19.1801C22.545 19.3697 22.545 19.4645 22.7346 19.6066C23.9194 20.7915 25.0569 21.9289 26.2417 23.1137C26.6208 23.4929 26.9052 23.872 27 24.3934C27.1896 25.5308 26.3839 26.6682 25.2938 26.9526C24.4881 27.1422 23.7772 26.8578 23.2085 26.2891C22.0711 25.1517 20.981 24.0616 19.8436 22.9242C19.5118 22.5924 19.5118 22.5924 19.0379 22.8294C14.2038 25.2464 8.2796 22.3555 7.18956 17C6.28908 12.6398 8.94311 8.37441 13.2559 7.28436C17.9005 6.05214 22.7346 9.1801 23.4929 13.9668C23.5877 14.4408 23.5877 14.8673 23.6351 15.3412ZM8.84832 15.2938C8.84832 18.8957 11.6919 21.8341 15.2938 21.8341C18.8957 21.8341 21.7867 18.9431 21.8341 15.3412C21.8341 11.7867 18.9431 8.84835 15.3886 8.80095C11.7867 8.80095 8.84832 11.6919 8.84832 15.2938Z" fill="#BFD4E4"/>
</g>
<defs>
<clipPath id="clip0_152_746">
<rect width="20" height="20" fill="white" transform="translate(7 7)"/>
</clipPath>
</defs>
</svg>
