<svg width="34" height="34" viewBox="0 0 34 34" fill="none" xmlns="http://www.w3.org/2000/svg">
    <defs>
        <clipPath id="clip0_152_787">
            <rect width="20" height="20" fill="white" transform="translate(7 7)" />
        </clipPath>
    </defs>
    <g clip-path="url(#clip0_152_787)">

        <path
            d="M23.6351 15.3412C23.5877 16.6683 23.3033 17.9953 22.6398 19.1801C22.545 19.3697 22.545 19.4645 22.7346 19.6066C23.9194 20.7915 25.0569 21.9289 26.2417 23.1137C26.6208 23.4929 26.9052 23.872 27 24.3934C27.1896 25.5308 26.3839 26.6682 25.2938 26.9526C24.4881 27.1422 23.7772 26.8578 23.2085 26.2891C22.0711 25.1517 20.981 24.0616 19.8436 22.9242C19.5118 22.5924 19.5118 22.5924 19.0379 22.8294C14.2038 25.2464 8.2796 22.3555 7.18956 17C6.28908 12.6398 8.94311 8.37441 13.2559 7.28436C17.9005 6.05214 22.7346 9.1801 23.4929 13.9668C23.5877 14.4408 23.5877 14.8673 23.6351 15.3412ZM8.84832 15.2938C8.84832 18.8957 11.6919 21.8341 15.2938 21.8341C18.8957 21.8341 21.7867 18.9431 21.8341 15.3412C21.8341 11.7867 18.9431 8.84835 15.3886 8.80095C11.7867 8.80095 8.84832 11.6919 8.84832 15.2938Z"
            fill="#BFD4E4" />
    </g>
    <path
        d="M23.8136 11.4212C23.6296 11.087 23.4456 10.7157 23.2615 10.3815C23.924 9.7132 24.5865 9.04486 25.249 8.37653C25.5066 8.63643 25.8011 8.93347 26.0587 9.19338C25.3226 9.93598 24.5865 10.6786 23.8136 11.4212Z"
        fill="#BFD4E4" />
    <path
        d="M8.5769 25.1592C9.20258 24.528 9.79146 23.934 10.4539 23.3028C10.4907 23.2656 10.638 23.2285 10.7116 23.2656C11.0428 23.4141 11.3373 23.6369 11.6317 23.7854C10.8956 24.528 10.1595 25.2706 9.42341 26.0132C9.16578 25.7533 8.87134 25.4563 8.5769 25.1592Z"
        fill="#BFD4E4" />
    <path
        d="M22.5249 9.30406C22.2672 9.08129 21.9728 8.78425 21.7151 8.52434C22.3408 7.89313 22.9297 7.29905 23.5554 6.66785C23.813 6.92776 24.0706 7.22479 24.3283 7.4847C23.7394 8.07878 23.1137 8.70999 22.5249 9.30406Z"
        fill="#BFD4E4" />
    <path
        d="M6.91962 23.4874C7.50849 22.8933 8.13417 22.2621 8.75985 21.6309C9.01749 21.928 9.31192 22.1879 9.56956 22.4849C8.98068 23.079 8.355 23.7102 7.72932 24.3414C7.47169 24.0444 7.17725 23.7473 6.91962 23.4874Z"
        fill="#BFD4E4" />
    <path
        d="M7.80343 10.455C7.17775 9.82376 6.58888 9.19255 6 8.59847C6.25763 8.33856 6.51527 8.07865 6.8097 7.78162C7.32497 8.33856 7.91384 8.89551 8.46592 9.52672C8.28189 9.78663 8.02426 10.1208 7.80343 10.455Z"
        fill="#BFD4E4" />
    <path
        d="M8.57594 6C9.16481 6.59408 9.71689 7.18816 10.3426 7.78223C10.0481 8.04214 9.71689 8.26492 9.42245 8.52483C8.83357 7.96788 8.2815 7.3738 7.76624 6.81686C8.02387 6.55695 8.31831 6.29704 8.57594 6Z"
        fill="#BFD4E4" />
    <path
        d="M16.3423 15.5427C15.0542 14.2061 13.7292 12.8694 12.4042 11.4956C12.6987 11.3099 13.0299 11.0872 13.3612 10.9386C13.4348 10.9015 13.582 10.9758 13.6188 11.05C14.4653 11.904 15.3486 12.758 16.1951 13.612C16.2687 13.6863 16.3423 13.7605 16.4159 13.7976C17.1888 13.0179 17.9249 12.2753 18.6978 11.4956C19.0291 11.7926 19.3235 12.0525 19.5812 12.3125C18.4402 13.4263 17.4097 14.5031 16.3423 15.5427Z"
        fill="#BFD4E4" />
    <path
        d="M13.6927 20.1094C15.8642 17.9187 17.9988 15.7652 20.1703 13.5745C20.3543 13.9458 20.428 14.3914 20.5016 14.8741C20.5016 14.9112 20.4279 14.9855 20.3911 15.0597C18.6613 16.8048 16.9315 18.5499 15.2385 20.295C15.1649 20.3693 15.0177 20.4435 14.9072 20.4064C14.4656 20.295 14.0607 20.1836 13.6927 20.1094Z"
        fill="#BFD4E4" />
    <path
        d="M15.4219 16.5078C14.5017 17.436 13.508 18.4014 12.5143 19.4039C12.2567 19.144 11.9622 18.8841 11.6678 18.587C12.3671 17.8816 13.0664 17.2132 13.7657 16.5078C13.692 16.3964 13.6184 16.3221 13.5448 16.285C12.7351 15.4681 11.9254 14.6513 11.0789 13.8344C10.9317 13.6859 10.8949 13.5374 11.0053 13.3517C11.1525 13.0547 11.3365 12.7948 11.4838 12.4977C12.8455 13.8715 14.1337 15.2082 15.4219 16.5078Z"
        fill="#BFD4E4" />

</svg>
