<svg xmlns="http://www.w3.org/2000/svg" width="20" height="20" fill="none" viewBox="0 0 20 20">
  <g clip-path="url(#a)">
    <path fill="#BFD4E4" d="M16.635 8.341c-.047 1.327-.332 2.654-.995 3.84-.095.189-.095.284.095.426l3.507 3.507c.379.379.663.758.758 1.28.19 1.137-.616 2.274-1.706 2.559-.806.19-1.517-.095-2.085-.664l-3.365-3.365c-.332-.332-.332-.332-.806-.095C7.204 18.246 1.28 15.355.19 10A8.26 8.26 0 0 1 6.256.284C10.9-.948 15.735 2.18 16.493 6.967c.095.474.095.9.142 1.374ZM1.848 8.294c0 3.602 2.844 6.54 6.446 6.54s6.493-2.89 6.54-6.493c0-3.554-2.89-6.493-6.445-6.54-3.602 0-6.54 2.891-6.54 6.493Z"/>
  </g>
  <defs>
    <clipPath id="a">
      <path fill="#fff" d="M0 0h20v20H0z"/>
    </clipPath>
  </defs>
</svg>
