<svg xmlns="http://www.w3.org/2000/svg" width="21" height="21" fill="none" viewBox="0 0 21 21">
  <g clip-path="url(#a)">
    <path fill="#BFD4E4" d="M17.635 9.341c-.047 1.327-.332 2.654-.995 3.84-.095.189-.095.284.095.426l3.507 3.507c.379.379.663.758.758 1.28.19 1.137-.616 2.274-1.706 2.559-.806.19-1.517-.095-2.085-.664l-3.365-3.365c-.332-.332-.332-.332-.806-.095C8.204 19.246 2.28 16.355 1.19 11a8.26 8.26 0 0 1 6.066-9.716C11.9.052 16.735 3.18 17.493 7.967c.095.474.095.9.142 1.374ZM2.848 9.294c0 3.602 2.844 6.54 6.446 6.54s6.493-2.89 6.54-6.493c0-3.554-2.89-6.493-6.445-6.54-3.602 0-6.54 2.891-6.54 6.493Z"/>
  </g>
  <path fill="#BFD4E4" d="M17.814 5.421c-.184-.334-.368-.705-.552-1.04l1.987-2.004.81.816c-.736.743-1.473 1.486-2.245 2.228ZM2.577 19.16a89.776 89.776 0 0 1 1.877-1.857c.037-.037.184-.075.258-.037.33.148.625.37.92.52l-2.209 2.227-.846-.854ZM16.525 3.304c-.258-.223-.552-.52-.81-.78.626-.63 1.215-1.225 1.84-1.856.258.26.516.557.773.817l-1.803 1.82ZM.92 17.487l1.84-1.856c.257.297.552.557.81.854L1.73 18.34a18.083 18.083 0 0 0-.81-.854Zm.883-13.032C1.178 3.824.59 3.193 0 2.598l.81-.816c.515.557 1.104 1.114 1.656 1.745-.184.26-.442.594-.663.928ZM2.576 0c.589.594 1.14 1.188 1.767 1.782-.295.26-.626.483-.92.743A35.702 35.702 0 0 1 1.765.817c.258-.26.552-.52.81-.817Zm7.766 9.543C9.054 8.206 7.73 6.869 6.404 5.496c.295-.186.626-.409.957-.557.074-.037.221.037.258.111.846.854 1.73 1.708 2.576 2.562.074.074.147.149.22.186l2.283-2.302c.331.297.625.557.883.816-1.14 1.114-2.171 2.191-3.239 3.23ZM7.693 14.11l6.477-6.535c.184.37.258.816.332 1.3 0 .036-.074.11-.11.185-1.73 1.745-3.46 3.49-5.154 5.235-.073.074-.22.149-.33.111-.442-.111-.847-.222-1.215-.297Zm1.729-3.602c-.92.928-1.914 1.893-2.908 2.896-.257-.26-.552-.52-.846-.817.7-.705 1.398-1.374 2.098-2.08a.627.627 0 0 0-.221-.222c-.81-.817-1.62-1.634-2.466-2.45-.147-.15-.184-.298-.074-.483.148-.297.332-.557.479-.854 1.362 1.374 2.65 2.71 3.938 4.01Z"/>
  <defs>
    <clipPath id="a">
      <path fill="#fff" d="M0 0h20v20H0z" transform="translate(1 1)"/>
    </clipPath>
  </defs>
</svg>
