<svg width="34" height="34" viewBox="0 0 34 34" fill="none" xmlns="http://www.w3.org/2000/svg">
<path d="M26.9817 8.90593C26.7945 7.08703 25.1846 5.79865 23.3876 6.02601C21.5905 6.21548 20.3175 7.84491 20.5422 9.6638C20.5796 9.96695 20.6545 10.2701 20.7668 10.5354L15.1509 14.4005C14.4396 13.4153 13.2789 12.7711 11.9686 12.7711C9.79709 12.7711 8 14.5521 8 16.7878C8 19.0235 9.75965 20.8045 11.9686 20.8045C13.1666 20.8045 14.2898 20.2361 15.0012 19.3646L18.9323 22.1308C18.7076 22.6234 18.6328 23.1539 18.7451 23.7223C19.0072 25.2002 20.4299 26.2233 21.89 25.9581C23.3501 25.6928 24.361 24.2529 24.0989 22.775C23.8368 21.2972 22.4141 20.274 20.954 20.5393C20.5047 20.6151 20.0929 20.8045 19.7185 21.1077L15.6751 18.2657C15.8623 17.8109 15.9371 17.3183 15.9371 16.8257C15.9371 16.4089 15.8623 15.9921 15.7499 15.6131L21.4782 11.6722C22.1521 12.3543 23.1255 12.7332 24.1363 12.6195C25.896 12.3164 27.1689 10.6869 26.9817 8.90593Z" fill="#BFD4E4"/>
</svg>
