<svg xmlns="http://www.w3.org/2000/svg" width="19" height="20" fill="none" viewBox="0 0 19 20">
  <path fill="#BFD4E4" d="M18.982 2.906c-.188-1.819-1.797-3.107-3.594-2.88-1.797.19-3.07 1.819-2.846 3.638.038.303.113.606.225.871L7.15 8.401a3.92 3.92 0 0 0-3.182-1.63C1.797 6.771 0 8.552 0 10.788c0 2.236 1.76 4.017 3.969 4.017A3.958 3.958 0 0 0 7 13.365l3.931 2.766a2.555 2.555 0 0 0-.187 1.591c.262 1.478 1.685 2.501 3.145 2.236 1.46-.265 2.471-1.705 2.209-3.183-.262-1.478-1.685-2.501-3.145-2.236-.45.076-.861.266-1.236.569l-4.043-2.842c.187-.455.262-.948.262-1.44 0-.417-.075-.834-.187-1.213l5.728-3.94a3.238 3.238 0 0 0 2.658.947c1.76-.304 3.033-1.933 2.846-3.714Z"/>
</svg>
