<svg width="34" height="34" viewBox="0 0 34 34" fill="none" xmlns="http://www.w3.org/2000/svg">
<path d="M17.0002 6.5C23.3002 6.5 28.5502 11.05 29.6002 17C28.5502 22.95 23.3002 27.5 17.0002 27.5C10.7002 27.5 5.45021 22.95 4.40021 17C5.45021 11.05 10.7002 6.5 17.0002 6.5ZM17.0002 25.1667C21.9002 25.1667 26.1002 21.7833 27.2669 17C25.9835 11.4 20.2669 7.78333 14.6669 9.06667C10.7002 10 7.66687 13.0333 6.73354 17C7.90021 21.7833 12.1002 25.1667 17.0002 25.1667ZM17.0002 22.25C14.0835 22.25 11.7502 19.9167 11.7502 17C11.7502 14.0833 14.0835 11.75 17.0002 11.75C19.9169 11.75 22.2502 14.0833 22.2502 17C22.2502 19.9167 19.9169 22.25 17.0002 22.25ZM17.0002 19.9167C18.6335 19.9167 19.9169 18.6333 19.9169 17C19.9169 15.3667 18.6335 14.0833 17.0002 14.0833C15.3669 14.0833 14.0835 15.3667 14.0835 17C14.0835 18.6333 15.3669 19.9167 17.0002 19.9167Z" fill="#BFD4E4"/>
</svg>
