<svg xmlns="http://www.w3.org/2000/svg" width="26" height="22" fill="none" viewBox="0 0 26 22">
  <path fill="#BFD4E4" d="M13 .5C19.3.5 24.55 5.05 25.6 11c-1.05 5.95-6.3 10.5-12.6 10.5S1.45 16.95.4 11C1.45 5.05 6.7.5 13 .5Zm0 18.667c4.9 0 9.1-3.384 10.267-8.167-1.284-5.6-7-9.217-12.6-7.933C6.7 4 3.667 7.033 2.734 11 3.9 15.783 8.1 19.167 13 19.167Zm0-2.917A5.228 5.228 0 0 1 7.75 11 5.228 5.228 0 0 1 13 5.75 5.228 5.228 0 0 1 18.25 11 5.228 5.228 0 0 1 13 16.25Zm0-2.333A2.888 2.888 0 0 0 15.917 11 2.888 2.888 0 0 0 13 8.083 2.888 2.888 0 0 0 10.084 11 2.888 2.888 0 0 0 13 13.917Z"/>
</svg>
