<svg width="34" height="34" viewBox="0 0 34 34" fill="none" xmlns="http://www.w3.org/2000/svg">
<path d="M26.4791 16.4831C25.8074 12.8647 23.1004 9.90909 19.5355 8.92166C19.1032 8.80238 18.6576 8.72285 18.2053 8.62345C18.2053 8.38488 18.2053 8.12642 18.2053 7.85471C18.4846 7.85471 18.7573 7.85471 19.0234 7.85471C19.3293 7.85471 19.5022 7.68241 19.5022 7.37094C19.5022 6.68173 19.5022 5.9859 19.5022 5.29669C19.5022 4.99847 19.3227 4.82617 19.0234 4.82617C17.4604 4.82617 15.8907 4.82617 14.3278 4.82617C14.0218 4.82617 13.8489 4.99847 13.8489 5.30994C13.8489 5.99915 13.8489 6.68173 13.8489 7.37094C13.8489 7.68241 14.0218 7.85471 14.3411 7.85471C14.6071 7.85471 14.8731 7.85471 15.1591 7.85471C15.1591 8.1198 15.1525 8.36499 15.1591 8.61019C15.1591 8.69634 15.1325 8.72285 15.0461 8.73611C14.095 8.92166 13.1838 9.23976 12.3258 9.6904C8.45495 11.7116 6.39979 16.1782 7.37749 20.4195C8.26872 24.2897 11.3481 27.1923 15.2789 27.8617C16.7687 28.1135 18.2452 28.0207 19.6951 27.5899C24.4639 26.1651 27.3903 21.3804 26.4791 16.4831ZM23.3266 18.4579C23.4263 18.6369 23.5859 18.7098 23.7855 18.7098C24.2111 18.7098 24.6434 18.7098 25.0691 18.7098C25.1223 18.7098 25.1822 18.7098 25.262 18.7098C25.1223 20.6979 24.404 22.4209 23.0605 23.8722C21.5374 25.5157 19.6419 26.3971 17.3739 26.5694C17.3739 26.4965 17.3739 26.4435 17.3739 26.3838C17.3739 25.9597 17.3739 25.5289 17.3739 25.1048C17.3739 24.7934 17.1677 24.568 16.8817 24.5747C16.6091 24.5813 16.4029 24.8 16.4029 25.0982C16.4029 25.5223 16.4029 25.9531 16.4029 26.3772C16.4029 26.4302 16.4029 26.4832 16.4029 26.5429C12.3059 26.417 8.67443 22.8781 8.54141 18.7098C8.61457 18.7098 8.69438 18.7098 8.76754 18.7098C9.17325 18.7098 9.58562 18.7098 9.99133 18.7098C10.2973 18.7098 10.5168 18.5109 10.5168 18.2326C10.5234 17.9543 10.2973 17.7422 9.98468 17.7422C9.50581 17.7422 9.02694 17.7422 8.52146 17.7422C8.65448 15.7806 9.35948 14.0708 10.6764 12.6328C12.2061 10.9562 14.1216 10.0615 16.4095 9.88258C16.4095 10.0416 16.4095 10.1808 16.4095 10.3133C16.4095 10.6513 16.4095 10.9959 16.4095 11.3339C16.4095 11.652 16.6091 11.8707 16.8884 11.8707C17.1677 11.8707 17.3739 11.652 17.3739 11.3405C17.3739 10.9164 17.3739 10.4989 17.3739 10.0748C17.3739 10.0217 17.3739 9.9621 17.3739 9.88258C19.2828 10.0085 20.9521 10.6712 22.3821 11.9171C24.138 13.4479 25.0824 15.3963 25.262 17.7356C25.1888 17.7356 25.1356 17.7356 25.0824 17.7356C24.6434 17.7356 24.2045 17.729 23.7655 17.7356C23.3798 17.7488 23.1403 18.1332 23.3266 18.4579ZM14.7135 6.97995C14.7135 6.54919 14.7135 6.12507 14.7135 5.68768C16.0171 5.68768 17.3207 5.68768 18.631 5.68768C18.631 6.11844 18.631 6.54257 18.631 6.97995C17.3274 6.97995 16.0304 6.97995 14.7135 6.97995Z" fill="#BFD4E4"/>
<path d="M19.1828 14.9526C17.7329 15.3237 16.2829 15.7014 14.833 16.0792C14.6601 16.1256 14.5537 16.2382 14.5071 16.4105C14.3209 17.113 14.128 17.8155 13.9418 18.5179C13.7423 19.2469 13.5427 19.9825 13.3499 20.7115C13.27 21.0097 13.4629 21.2615 13.7822 21.2681C13.8021 21.2681 13.8487 21.2615 13.8952 21.2482C14.567 21.0494 15.2454 20.9036 15.9171 20.7115C16.6621 20.4928 17.4203 20.3006 18.1718 20.1018C18.3714 20.0488 18.4844 19.9361 18.5376 19.7439C18.6441 19.3463 18.7505 18.9487 18.8569 18.5511C19.1362 17.5305 19.4156 16.5033 19.6949 15.4828C19.788 15.1514 19.5087 14.8664 19.1828 14.9526ZM17.9058 18.7963C17.2074 18.1004 16.5157 17.4112 15.8107 16.7087C16.7485 16.4635 17.6996 16.2183 18.6773 15.9665C18.4113 16.9341 18.1585 17.8685 17.9058 18.7963Z" fill="#BFD4E4"/>
</svg>
