<svg width="34" height="34" viewBox="0 0 34 34" fill="none" xmlns="http://www.w3.org/2000/svg">
<path d="M29 18.9839C29 19.7979 29 20.612 29 21.3872C29 21.426 28.96 21.4647 28.96 21.5423C28.76 22.0849 28.6001 22.6276 28.3201 23.1315C27.1603 24.9922 25.4405 26 23.1609 26C19.1615 26 15.1621 26 11.1628 26C10.7628 26 10.3629 26 10.0029 25.9612C7.0434 25.5736 4.64377 22.899 5.0437 19.5653C5.32366 17.3171 6.64346 15.7278 8.84312 14.8363C9.00309 14.7588 9.04309 14.6812 9.04309 14.5262C9.04309 13.8672 9.16307 13.2082 9.36304 12.588C10.5229 8.67297 14.7222 6.26966 18.8416 7.19997C22.401 8.01399 24.9206 10.96 25.0406 14.4874C25.0406 14.6812 25.1206 14.7975 25.3206 14.875C27.0803 15.534 28.2801 16.7357 28.88 18.48C28.88 18.635 28.96 18.8289 29 18.9839ZM11.9626 16.4256C11.9626 17.8598 12.2026 18.8289 12.8425 19.6429C13.3224 20.2243 13.8023 20.8058 14.3223 21.3872C14.9622 22.0849 15.6421 22.7827 16.282 23.5192C16.6419 23.9068 17.2018 23.9456 17.6018 23.5579C18.5216 22.5889 19.4415 21.581 20.4013 20.612C21.5612 19.3715 22.2011 17.8986 22.0011 16.193C21.8411 14.875 21.3212 13.7509 20.2813 12.8594C18.4416 11.2701 15.7221 11.1926 13.8423 12.7431C12.5225 13.7509 12.0026 15.1851 11.9626 16.4256Z" fill="#BFD4E4"/>
<path d="M18.9618 16.3897C18.9618 17.4751 18.082 18.3279 16.9622 18.3279C15.8823 18.3279 15.0025 17.4751 14.9625 16.3897C14.9625 15.3044 15.8423 14.4516 16.9622 14.4516C18.082 14.4903 18.9618 15.3431 18.9618 16.3897Z" fill="#BFD4E4"/>
</svg>
