<svg width="34" height="34" viewBox="0 0 34 34" fill="none" xmlns="http://www.w3.org/2000/svg">
<path d="M17.1302 8.84724C20.8449 8.88676 23.8087 11.4949 24.2039 15.012C24.3619 16.5532 24.0458 18.0153 23.295 19.3984C22.5837 20.7025 21.6352 21.809 20.6868 22.9155C19.5803 24.1801 18.3948 25.4446 17.4464 26.8673C17.3278 27.0253 17.2488 27.0648 17.1302 26.8673C15.9052 25.0099 14.3245 23.4687 12.9414 21.809C11.9929 20.663 11.1631 19.438 10.6889 17.9758C9.38479 13.9055 11.8744 9.71663 16.0633 8.9658C16.4979 8.88676 16.8931 8.84724 17.1302 8.84724ZM20.6078 15.8023C20.6078 13.9845 19.1061 12.4829 17.2883 12.4829C15.4705 12.4829 14.0083 13.9845 14.0083 15.8023C14.0083 17.6201 15.4705 19.1218 17.2883 19.1218C19.1061 19.0823 20.6078 17.6201 20.6078 15.8023Z" fill="#BFD4E4"/>
<path d="M12.7823 22.835C12.2291 23.5858 11.6758 24.3367 11.1226 25.048C11.004 25.1665 10.925 25.206 10.8064 25.048C9.54188 23.1511 7.92166 21.5704 6.49903 19.8317C5.59013 18.7252 4.79977 17.5792 4.36508 16.196C2.98197 12.0072 5.66916 7.66025 10.0556 7.06749C11.7549 6.83038 13.3356 7.22556 14.7977 8.13446C14.8372 8.17398 14.8768 8.2135 14.9163 8.2135L14.9558 8.25301C14.6396 8.37156 14.3235 8.49012 14.0074 8.64819C11.7153 9.7942 10.1742 11.612 9.66043 14.1411C9.26526 16.038 9.66043 17.8163 10.4903 19.555C11.004 20.622 11.7549 21.5309 12.5057 22.4398C12.6243 22.6374 12.7033 22.756 12.7823 22.835Z" fill="#BFD4E4"/>
<path d="M21.8325 22.8367C22.1091 22.481 22.4648 22.0858 22.7414 21.6906C23.6108 20.5842 24.3616 19.3986 24.7568 18.0155C25.9423 14.0242 23.8084 9.83538 19.8566 8.45227C19.7776 8.41275 19.7381 8.41275 19.6195 8.37323C19.7381 8.2942 19.8171 8.21516 19.8961 8.17565C24.085 5.44893 29.736 7.97806 30.5264 12.9178C30.8425 14.8936 30.3288 16.6324 29.2618 18.2921C28.4319 19.5962 27.3649 20.7027 26.377 21.8882C25.5076 22.9157 24.6778 23.9827 23.8084 25.0496C23.6898 25.1682 23.6108 25.2472 23.4922 25.0892C22.939 24.3383 22.3857 23.5875 21.8325 22.8367Z" fill="#BFD4E4"/>
</svg>
