<svg width="34" height="34" viewBox="0 0 34 34" fill="none" xmlns="http://www.w3.org/2000/svg">
<path d="M17.2922 12.6862C15.9522 12.6862 14.8411 13.7974 14.8411 15.1373C14.8411 16.4773 15.9522 17.5885 17.2922 17.5885C18.6321 17.5885 19.7433 16.4773 19.7433 15.1373C19.776 13.7974 18.6648 12.6862 17.2922 12.6862Z" fill="#BFD4E4"/>
<path d="M19.2523 7.22765C14.5788 6.11647 9.87267 9.18854 9.121 13.9274C8.66345 16.7707 9.51317 19.2218 11.5067 21.2807C12.7486 22.5553 13.9905 23.8626 15.2324 25.1698C15.6573 25.6274 16.0822 26.0849 16.5397 26.5425C16.7031 26.7059 16.9319 26.8366 17.128 27C17.2587 27 17.3567 27 17.4875 27C17.6836 26.8366 17.9123 26.7059 18.1084 26.5425C19.7425 24.843 21.3112 23.1436 22.9453 21.4768C23.7297 20.6925 24.416 19.8427 24.8735 18.8296C27.0632 14.0581 24.3506 8.46955 19.2523 7.22765ZM21.4419 15.9863C21.5727 16.117 21.7361 16.2478 21.8668 16.3785C22.0629 16.5746 22.0629 16.738 21.9649 16.9341C21.7034 17.3916 21.4419 17.8165 21.1805 18.274C21.0498 18.5028 20.8864 18.5682 20.6576 18.4701C20.4288 18.4047 20.2 18.274 19.9713 18.3067C19.7752 18.3394 19.5791 18.5355 19.383 18.6662C19.2523 18.7316 19.1542 18.8296 19.0235 18.8623C18.7621 18.9277 18.6967 19.0911 18.6313 19.3198C18.5986 19.4506 18.566 19.614 18.5333 19.7447C18.4679 19.9735 18.3372 20.0715 18.1084 20.0715C17.5855 20.0715 17.0626 20.0715 16.507 20.0715C16.2783 20.0715 16.1475 19.9735 16.0822 19.7447C16.0168 19.5486 15.9841 19.3525 15.9514 19.1564C15.9188 19.0257 15.8861 18.993 15.7554 18.9276C15.4285 18.7642 15.1344 18.5682 14.8076 18.4047C14.7422 18.3721 14.6442 18.3394 14.5461 18.3721C14.35 18.4047 14.154 18.4701 13.9252 18.5355C13.7291 18.6008 13.5657 18.5355 13.435 18.3394C13.1735 17.8818 12.8794 17.3916 12.6179 16.9341C12.5852 16.8687 12.5852 16.8033 12.5526 16.7053C12.6179 16.6073 12.6506 16.5092 12.716 16.4112C12.8467 16.2478 13.0101 16.117 13.1735 15.9536C13.2062 15.9209 13.2389 15.8229 13.2389 15.7575C13.2389 15.3654 13.2389 14.9732 13.2389 14.581C13.2389 14.5156 13.2062 14.4176 13.1735 14.3849C13.0428 14.2542 12.8794 14.1235 12.7486 13.9601C12.5526 13.764 12.5199 13.6006 12.6506 13.3718C12.9121 12.9142 13.1735 12.4894 13.4023 12.0318C13.533 11.8031 13.6964 11.7377 13.9579 11.8031C14.154 11.8684 14.35 11.9338 14.5461 11.9665C14.6115 11.9665 14.7095 11.9665 14.7749 11.9338C15.1017 11.7704 15.4285 11.5743 15.7227 11.3782C15.788 11.3455 15.8861 11.2475 15.8861 11.1494C15.9514 10.9533 15.9841 10.7573 16.0495 10.5612C16.1149 10.3324 16.2456 10.2344 16.4743 10.2344C16.9973 10.2344 17.5202 10.2344 18.0431 10.2344C18.2718 10.2344 18.4352 10.3324 18.4679 10.5938C18.5333 10.7899 18.566 11.0187 18.6313 11.2148C18.664 11.2802 18.7294 11.3455 18.7621 11.3782C19.0889 11.5743 19.4157 11.7704 19.7425 11.9338C19.8079 11.9665 19.9059 11.9992 19.9713 11.9665C20.1674 11.9338 20.3961 11.8684 20.5922 11.8031C20.7883 11.7377 20.9517 11.8031 21.0498 11.9992C21.3439 12.4567 21.6054 12.9469 21.8668 13.4371C21.9649 13.6332 21.9322 13.7966 21.7688 13.9274C21.638 14.0581 21.4746 14.1888 21.3439 14.3522C21.2785 14.4176 21.2459 14.5156 21.2459 14.6137C21.2459 14.9732 21.2459 15.3327 21.2459 15.6922C21.3439 15.7902 21.3439 15.8883 21.4419 15.9863Z" fill="#BFD4E4"/>
</svg>
