<svg xmlns="http://www.w3.org/2000/svg" width="20" height="24" fill="none" viewBox="0 0 20 24">
  <path fill="#BFD4E4" d="M19.48 12.483a9.717 9.717 0 0 0-6.944-7.561c-.433-.12-.878-.2-1.33-.299v-.768h.817c.306 0 .48-.173.48-.484V1.297c0-.299-.18-.47-.48-.47H7.328c-.306 0-.48.171-.48.483v2.06c0 .312.174.485.493.485h.818c0 .265-.007.51 0 .755 0 .086-.026.113-.113.126a9.912 9.912 0 0 0-2.72.954C1.455 7.712-.6 12.178.377 16.42c.892 3.87 3.971 6.772 7.902 7.442a9.672 9.672 0 0 0 4.416-.272 9.73 9.73 0 0 0 6.784-11.107Zm-3.153 1.975c.1.179.259.252.458.252h1.477c-.14 1.988-.858 3.71-2.201 5.162-1.524 1.644-3.42 2.525-5.687 2.697v-1.465c0-.31-.206-.536-.492-.53-.273.007-.48.226-.48.524v1.445c-4.096-.126-7.728-3.665-7.86-7.833H2.99c.306 0 .526-.2.526-.477.006-.279-.22-.49-.532-.49H1.52c.133-1.962.838-3.672 2.155-5.11 1.53-1.677 3.446-2.571 5.734-2.75v1.45c0 .319.199.538.478.538.28 0 .486-.219.486-.53V5.883c1.909.125 3.578.788 5.008 2.034 1.756 1.53 2.7 3.48 2.88 5.819h-.18c-.439 0-.878-.007-1.317 0-.385.013-.625.397-.438.722ZM7.714 2.98V1.688h3.917V2.98H7.714Z"/>
  <path fill="#BFD4E4" d="M12.183 10.953c-1.45.37-2.9.748-4.35 1.126a.437.437 0 0 0-.326.332c-.186.702-.379 1.405-.565 2.107-.2.729-.4 1.464-.592 2.194-.08.298.113.55.432.556a.46.46 0 0 0 .113-.02c.672-.199 1.35-.344 2.022-.537.745-.218 1.503-.41 2.255-.61a.47.47 0 0 0 .366-.357l.319-1.193c.28-1.02.559-2.048.838-3.068a.417.417 0 0 0-.512-.53Zm-1.277 3.843L8.81 12.71c.938-.245 1.889-.49 2.866-.742-.266.967-.518 1.901-.771 2.83Z"/>
</svg>
