<svg xmlns="http://www.w3.org/2000/svg" width="18" height="22" fill="none" viewBox="0 0 18 22">
  <path fill="#BFD3E3" fill-rule="evenodd" d="M7.5.5C3.4.5 0 4 0 8.2c0 1.1.2 2.2.7 3.2 1.9 4.2 5.5 8.7 6.6 10 .1.1.2.1.3.1.1 0 .2-.1.3-.1 1.1-1.3 4.7-5.7 6.6-10 .4-1 .7-2 .7-3.2C15.1 4 11.7.5 7.5.5Zm4 8.7c0 .1.1.3.1.4.1.3-.1.6-.5.6-.7-.2-1.4-.3-2.1-.4-.5-.1-.9-.2-1.4-.2h-.2c.1.1.2.2.3.4.2.2.4.5.5.7.3.6.1 1.3-.5 1.6-.6.3-1.3.2-1.6-.3l-.3-.6-.6-1.2-.1-.1c-.9-.1-1.5-.6-1.8-1.5-.3-.9.2-2 1.1-2.4.5-.2 1-.3 1.4-.5.3-.1.5-.2.7-.4.8-.8 1.5-1.5 2.3-2.2l.1-.1c.1 0 .1 0 .2-.1.3 0 .4.2.5.4.1.5.3 1 .4 1.4 0 .1.1.1.1.1.8 0 1.4.5 1.6 1.2.2.7 0 1.4-.6 1.8l-.1.1c.2.4.3.9.5 1.3Z" clip-rule="evenodd"/>
  <path fill="#BFD3E3" fill-rule="evenodd" d="M10.4 5.7c.1.5.3.9.4 1.4.2-.3.3-.6.2-.9-.1-.2-.3-.4-.6-.5Z" clip-rule="evenodd"/>
  <path fill="#BFD3E3" d="M17.6 3.9c-.1.4-.3.6-.6.6l-.9.3c-.3.1-.7-.1-.8-.4-.1-.3.1-.6.4-.8.3-.1.6-.2 1-.3.3-.1.6-.1.9.2-.1.1-.1.3 0 .4Zm-4.2-2.1c0-.1 0-.2.1-.4.2-.4.3-.7.5-1 .2-.3.5-.4.8-.3.3.1.4.5.3.8-.2.4-.4.7-.5 1.1-.1.2-.3.3-.6.3-.3-.1-.5-.2-.6-.5Zm2.3 5.9c0-.3 0-.5.2-.6.2-.2.4-.2.6-.1l1.2.6c.3.2.3.5.2.8-.1.3-.5.4-.7.3-.4-.3-.8-.5-1.2-.7l-.3-.3Z"/>
</svg>
