<svg xmlns="http://www.w3.org/2000/svg" width="27" height="20" fill="none" viewBox="0 0 27 20">
  <path fill="#BFD4E4" d="M13.13 1.847c3.715.04 6.679 2.648 7.074 6.165.158 1.541-.158 3.003-.909 4.386-.711 1.305-1.66 2.411-2.608 3.518-1.107 1.264-2.292 2.529-3.24 3.951-.12.158-.198.198-.317 0-1.225-1.857-2.806-3.398-4.189-5.058-.948-1.146-1.778-2.371-2.252-3.833-1.304-4.07 1.185-8.26 5.374-9.01.435-.08.83-.119 1.067-.119Zm3.478 6.955a3.34 3.34 0 0 0-3.32-3.32c-1.818 0-3.28 1.503-3.28 3.32 0 1.818 1.463 3.32 3.28 3.32 1.818-.04 3.32-1.502 3.32-3.32Z"/>
  <path fill="#BFD4E4" d="M8.782 15.835c-.553.75-1.106 1.502-1.66 2.213-.118.119-.197.158-.316 0-1.264-1.897-2.884-3.478-4.307-5.216-.909-1.107-1.7-2.253-2.134-3.636C-1.018 5.007 1.67.66 6.055.067c1.7-.237 3.28.159 4.743 1.067.04.04.079.08.118.08l.04.039a9.641 9.641 0 0 0-.949.395C7.715 2.794 6.174 4.612 5.66 7.141c-.395 1.897 0 3.675.83 5.414.514 1.067 1.265 1.976 2.016 2.885.118.197.197.316.276.395Zm9.05.002c.277-.356.633-.751.91-1.146.869-1.107 1.62-2.292 2.015-3.676a7.76 7.76 0 0 0-4.9-9.563c-.08-.04-.119-.04-.237-.079.118-.079.197-.158.276-.197 4.189-2.727 9.84-.198 10.63 4.742.317 1.976-.197 3.714-1.264 5.374-.83 1.304-1.897 2.41-2.885 3.596-.87 1.028-1.7 2.095-2.569 3.162-.118.118-.197.197-.316.04a1310.89 1310.89 0 0 0-1.66-2.253Z"/>
</svg>
