<svg xmlns="http://www.w3.org/2000/svg" width="20" height="17" fill="none" viewBox="0 0 20 17">
  <path fill="#BFD4E4" d="M20 12.944c0 .058 0 .058-.05.115-.051.288-.153.518-.355.69l-2.483 2.82c-.506.575-1.266.575-1.773 0l-2.482-2.82c-.355-.402-.456-.92-.304-1.495.152-.575.506-.863 1.013-.92.355-.058.71.057.963.345.152.114.253.287.405.46h.05V5.696c0-.863.558-1.496 1.368-1.439.608.058 1.166.69 1.166 1.381v6.501l.354-.403c.152-.173.304-.288.507-.345.71-.288 1.47.23 1.621 1.093v.46ZM7.537 0h6.232c.71 0 1.266.633 1.266 1.438 0 .748-.557 1.38-1.216 1.38H1.357c-.71 0-1.165-.46-1.317-1.207C-.062.92.394.115 1.053 0h6.484ZM6.27 8.514H1.256c-.608 0-1.064-.46-1.216-1.093-.202-.863.406-1.726 1.216-1.726h10.031c.659 0 1.165.576 1.216 1.266.05.748-.405 1.38-1.064 1.553H6.271Zm-1.214 2.818h3.749c.76 0 1.317.69 1.266 1.554-.05.69-.608 1.323-1.216 1.323H1.307c-.608 0-1.166-.575-1.216-1.266-.05-.748.405-1.438 1.013-1.495h.253c1.216-.116 2.432-.116 3.699-.116Z"/>
</svg>
