<svg width="34" height="34" viewBox="0 0 34 34" fill="none" xmlns="http://www.w3.org/2000/svg">
<path d="M28 21.9441C28 22.0016 28 22.0016 27.9494 22.0591C27.8987 22.3468 27.7974 22.5769 27.5947 22.7495C26.7842 23.6699 25.9229 24.6479 25.1123 25.5684C24.6057 26.1437 23.8458 26.1437 23.3392 25.5684C22.5286 24.6479 21.6673 23.6699 20.8567 22.7495C20.5021 22.3468 20.4008 21.829 20.5528 21.2537C20.7048 20.6785 21.0594 20.3908 21.566 20.3333C21.9206 20.2758 22.2753 20.3908 22.5286 20.6785C22.6806 20.7935 22.7819 20.9661 22.9339 21.1387C22.9339 21.1387 22.9339 21.1387 22.9845 21.1387C22.9845 21.0812 22.9845 21.0812 22.9845 21.0236C22.9845 18.8951 22.9845 16.8241 22.9845 14.6955C22.9845 13.8326 23.5418 13.1998 24.3524 13.2573C24.9603 13.3148 25.5176 13.9476 25.5176 14.638C25.5176 15.8461 25.5176 17.0542 25.5176 18.2623C25.5176 19.1827 25.5176 20.1032 25.5176 21.0236C25.5176 21.0812 25.5176 21.0812 25.5176 21.1387C25.6696 20.9661 25.7709 20.851 25.8722 20.736C26.0242 20.5634 26.1762 20.4483 26.3789 20.3908C27.0881 20.1032 27.8481 20.6209 28 21.4839V21.5414C28 21.714 28 21.829 28 21.9441Z" fill="#BFD4E4"/>
<path d="M15.5375 9C17.6146 9 19.6917 9 21.7689 9C22.4781 9 23.0354 9.63281 23.0354 10.4382C23.0354 11.1861 22.4781 11.8189 21.8195 11.8189C20.7556 11.8189 19.6917 11.8189 18.6278 11.8189C15.5375 11.8189 12.4471 11.8189 9.35675 11.8189C8.64749 11.8189 8.19153 11.3587 8.03955 10.6108C7.93822 9.92046 8.39418 9.11506 9.05278 9C9.15411 9 9.20477 9 9.30609 9C11.3832 9 13.4604 9 15.5375 9Z" fill="#BFD4E4"/>
<path d="M14.2707 17.5141C12.5988 17.5141 10.927 17.5141 9.25516 17.5141C8.64722 17.5141 8.19126 17.0539 8.03928 16.4211C7.83663 15.5582 8.44457 14.6953 9.25516 14.6953C12.5988 14.6953 15.9425 14.6953 19.2862 14.6953C19.9448 14.6953 20.4514 15.2705 20.5021 15.9609C20.5527 16.7087 20.0968 17.3416 19.4382 17.5141C19.3368 17.5141 19.2862 17.5141 19.1849 17.5141C17.6143 17.5141 15.9425 17.5141 14.2707 17.5141Z" fill="#BFD4E4"/>
<path d="M13.0556 20.3324C14.3222 20.3324 15.538 20.3324 16.8046 20.3324C17.5645 20.3324 18.1218 21.0227 18.0711 21.8857C18.0205 22.576 17.4632 23.2088 16.8552 23.2088C14.3222 23.2088 11.7891 23.2088 9.30664 23.2088C8.6987 23.2088 8.14142 22.6335 8.09076 21.9432C8.0401 21.1953 8.49605 20.505 9.10399 20.4475C9.20532 20.4475 9.25598 20.4475 9.3573 20.4475C10.5732 20.3324 11.7891 20.3324 13.0556 20.3324Z" fill="#BFD4E4"/>
</svg>
