<svg width="34" height="34" viewBox="0 0 34 34" fill="none" xmlns="http://www.w3.org/2000/svg">
<path d="M7 17C7 11.5 11.5 7 17 7C22.5 7 27 11.5 27 17C27 22.5 22.5 27 17 27C11.5 27 7 22.5 7 17ZM17 20.9C17.9 20.9 18.9 20.9 19.8 20.9C20.5 20.9 20.9 20.4 20.9 19.8C20.9 17.9 20.9 16.1 20.9 14.2C21 13.6 20.5 13 19.8 13C17.9 13 16.1 13 14.2 13C13.5 13 13.1 13.5 13.1 14.1C13.1 16 13.1 17.8 13.1 19.7C13.1 19.8 13.1 19.9 13.1 20C13.2 20.5 13.6 20.9 14.2 20.9C15.1 21 16.1 20.9 17 20.9Z" fill="#BFD3E3"/>
</svg>
