<svg xmlns="http://www.w3.org/2000/svg" width="24" height="20" fill="none" viewBox="0 0 24 20">
  <path fill="#BFD4E4" d="M21.146 12.346c-.418-.146-.786.037-.983.485a4.089 4.089 0 0 1-.066.156l-.022.054a8.518 8.518 0 0 1-3.548 4.204 8.8 8.8 0 0 1-5.426 1.219 8.77 8.77 0 0 1-4.69-1.908 8.382 8.382 0 0 1-2.79-4.15c-.154-.513-.29-1.068-.318-1.688l.016.016c.225.173.445.34.665.485.351.232.73.184 1-.124a.73.73 0 0 0 .191-.539.658.658 0 0 0-.258-.453c-.527-.425-1.076-.84-1.609-1.245a48.76 48.76 0 0 0-.631-.48l-.121-.091-.121.097c-.209.172-.417.34-.626.501-.505.41-.989.793-1.472 1.191-.379.313-.445.728-.165 1.068.275.34.709.366 1.099.075.17-.13.33-.258.516-.41.005 0 .005-.005.01-.005 0 .027.006.049.006.076.028.264.055.517.1.76.433 2.565 1.85 4.835 4.003 6.398A10.209 10.209 0 0 0 11.914 20c.461 0 .928-.032 1.395-.097 3.202-.437 5.695-2.054 7.408-4.808.308-.496.539-1.035.764-1.563l.066-.162a.796.796 0 0 0 .01-.652.697.697 0 0 0-.411-.372Zm2.668-3.585c-.296-.334-.73-.329-1.164.01-.17.136-.34.27-.516.416l-.006.005-.032-.22c-.055-.367-.105-.718-.176-1.063-.51-2.404-1.911-4.533-3.938-5.994a10.1 10.1 0 0 0-7.03-1.854C6.884.51 4.012 2.675 2.413 6.503a1.15 1.15 0 0 0-.087.34.742.742 0 0 0 .16.549.571.571 0 0 0 .405.194c.253.016.506-.124.725-.253.127-.076.17-.216.204-.33.01-.032.022-.064.027-.09a8.61 8.61 0 0 1 3.542-4.194c1.604-.97 3.471-1.391 5.404-1.219a8.69 8.69 0 0 1 4.833 2.01 8.384 8.384 0 0 1 2.757 4.383c.088.345.143.706.198 1.057.01.059.016.118.027.172-.197-.15-.4-.302-.61-.442-.345-.232-.73-.172-.993.157-.27.334-.231.733.093.991.522.42 1.07.83 1.598 1.235.214.161.423.323.637.485l.121.091.12-.096c.204-.168.407-.33.61-.496.495-.4.962-.777 1.44-1.17.23-.189.356-.399.373-.615.022-.167-.044-.345-.181-.5Z"/>
  <path fill="#BFD3E3" d="M12.46 4c.237.081.474.081.712.162a3.152 3.152 0 0 1 2.14 3.326c-.159 1.541-1.348 2.84-2.774 3.001-1.743.244-3.248-.973-3.565-2.676-.317-1.704.871-3.489 2.535-3.732.08-.081.159-.081.238-.081h.713Zm-1.19 11.924c.238-.81.397-1.54.555-2.352 0-.081 0-.081-.079-.162l-.872-.893-.079-.08c.159-.163.317-.325.476-.406.237-.244.475-.406.713-.568h.158a12.1 12.1 0 0 1 1.268.892l-.95.974c-.08.08-.16.243-.08.405.158.65.317 1.38.475 2.028v.162c0-.08.08-.08.08-.162.633-1.379 1.188-2.758 1.822-4.218.08-.081.08-.162.158-.162.634 0 1.189.08 1.744.405.792.568 1.267 1.298 1.267 2.353v2.352c0 .811-.634 1.38-1.347 1.38-2.867 1.154-5.784.919-9.032 0-.793 0-1.347-.65-1.347-1.38V14.14c0-1.298.95-2.434 2.139-2.677.317-.081.634-.081.872-.081 0 0 .079.08.158.08.396.812.713 1.704 1.11 2.515.237.568.475 1.136.712 1.623 0 .162 0 .243.08.324Z"/>
</svg>
