<svg width="34" height="34" viewBox="0 0 34 34" fill="none" xmlns="http://www.w3.org/2000/svg">
<path fill-rule="evenodd" clip-rule="evenodd" d="M25.0166 7.11545H12.4221V7.21686V8.23091C12.4221 8.5554 12.2193 8.77849 11.9151 8.79877C11.6109 8.81906 11.3269 8.59596 11.3269 8.29175C11.3134 8.06116 11.318 7.82149 11.3225 7.58489V7.58488V7.58488V7.58487C11.3247 7.46772 11.3269 7.35132 11.3269 7.23714V6.60843C11.3067 6.24337 11.5906 6 11.9354 6H20.6765H25.5439C25.8481 6 26.0509 6.16225 26.1118 6.4259C26.1321 6.48674 26.1321 6.54757 26.1321 6.60841V6.60843V21.7887C26.1321 22.0726 25.9901 22.2754 25.7467 22.3566C25.5236 22.4377 25.2803 22.3566 25.1383 22.1538C25.0572 22.0321 25.0369 21.9104 25.0369 21.7684V13.9501V7.23714C25.0166 7.19658 25.0166 7.15602 25.0166 7.11545ZM9.10419 11.2629H21.6987C21.6987 11.3034 21.6987 11.344 21.719 11.3846V18.0976V23.4274C21.719 23.4565 21.7198 23.4848 21.7219 23.5124C21.7044 23.558 21.6933 23.6069 21.6897 23.6585V25.9259V26.0273H9.09517V25.8854V17.4702C9.10112 17.4335 9.10419 17.3951 9.10419 17.3552V11.3643V11.2629ZM8.00008 16.0376C7.9993 14.7635 8.00464 12.9392 8.00742 11.9918C8.00837 11.6677 8.00901 11.4462 8.00901 11.3846V10.7559C7.98873 10.3908 8.27267 10.1474 8.61744 10.1474H17.3585H22.226C22.5302 10.1474 22.733 10.3097 22.7938 10.5733C22.8141 10.6342 22.8141 10.695 22.8141 10.7558V10.7559V23.4477C22.8141 23.5237 22.8039 23.5939 22.7844 23.6575C22.7847 23.6646 22.7848 23.6717 22.7848 23.6788V26.6155C22.7848 26.9197 22.5415 27.1225 22.217 27.1225H20.2497H8.60843C8.30421 27.1225 8.08112 26.9805 8.02028 26.6966C8 26.6358 8 26.5749 8 26.5141V16.0491L8.00008 16.0376ZM12.7254 19.574H15.1388H16.2745H17.6334C17.9984 19.5537 18.2418 19.2089 18.1404 18.8641C18.0795 18.6208 17.8565 18.4788 17.5725 18.4788H12.7456H12.6037C12.3197 18.5194 12.0967 18.8236 12.1575 19.1278C12.1981 19.4117 12.4212 19.574 12.7254 19.574ZM15.1388 16.2195H12.7254C12.4212 16.2195 12.1981 16.0572 12.1575 15.7733C12.0967 15.4691 12.3197 15.1649 12.6037 15.1243H12.7456H17.5725C17.8565 15.1243 18.0795 15.2663 18.1404 15.5097C18.2418 15.8544 17.9984 16.1992 17.6334 16.2195H16.2745H15.1388ZM12.7254 22.7377H15.078C15.3619 22.7377 15.6255 22.7377 15.9095 22.758C16.0852 22.758 16.261 22.7603 16.4368 22.7625C16.7883 22.767 17.1399 22.7715 17.4914 22.758C17.8564 22.7377 18.0998 22.3727 17.9781 22.0279C17.897 21.8048 17.6942 21.6629 17.4103 21.6629H12.7254H12.6037C12.3197 21.7034 12.0967 21.9873 12.1575 22.2916C12.1981 22.5755 12.4211 22.7377 12.7254 22.7377Z" fill="#BFD4E4"/>
</svg>
