<svg width="34" height="34" viewBox="0 0 34 34" fill="none" xmlns="http://www.w3.org/2000/svg">
<path d="M26.1458 19.3458C25.7284 19.2003 25.3604 19.3835 25.1627 19.8309C25.1407 19.8848 25.1188 19.9387 25.0968 19.9872L25.0748 20.0411C24.3774 21.8091 23.1527 23.2645 21.5271 24.2455C19.9015 25.2266 18.0288 25.647 16.1011 25.4638C14.3712 25.2967 12.7511 24.639 11.4111 23.5556C10.0711 22.4721 9.10448 21.0383 8.6212 19.4051C8.46743 18.893 8.33013 18.3378 8.30267 17.7179C8.30816 17.7233 8.31366 17.7287 8.31915 17.7341C8.54431 17.9066 8.76399 18.0737 8.98366 18.2192C9.33514 18.451 9.71408 18.4025 9.98318 18.0952C10.126 17.9281 10.1919 17.7395 10.1754 17.5562C10.1589 17.3837 10.0711 17.2274 9.91728 17.1034C9.39006 16.6776 8.84087 16.2626 8.30816 15.8583C8.09947 15.6966 7.88529 15.5349 7.6766 15.3785L7.55578 15.2869L7.43495 15.3839C7.22626 15.5564 7.01757 15.7235 6.80888 15.8852C6.30363 16.2949 5.82034 16.6776 5.33706 17.0765C4.95812 17.3891 4.89222 17.8042 5.1723 18.1438C5.4469 18.4833 5.88075 18.5103 6.27068 18.2192C6.44092 18.0899 6.60019 17.9605 6.78691 17.8096C6.79241 17.8096 6.79241 17.8042 6.7979 17.8042C6.7979 17.8311 6.80339 17.8527 6.80339 17.8796C6.83085 18.1438 6.85831 18.3971 6.90224 18.6397C7.3361 21.2054 8.753 23.4747 10.9058 25.0379C12.6742 26.3208 14.7666 27 16.9139 27C17.3752 27 17.842 26.9676 18.3089 26.903C21.5106 26.4663 24.0039 24.8493 25.7174 22.0948C26.0249 21.5989 26.2556 21.0599 26.4808 20.5316L26.5467 20.3699C26.6455 20.1435 26.6455 19.9172 26.5576 19.7177C26.4808 19.5452 26.3325 19.4105 26.1458 19.3458Z" fill="#BFD4E4"/>
<path d="M28.8145 15.7611C28.518 15.4269 28.0841 15.4323 27.6502 15.7719C27.48 15.9066 27.3098 16.0414 27.134 16.1869L27.1285 16.1923C27.1175 16.1168 27.1066 16.0414 27.0956 15.9713C27.0406 15.6048 26.9912 15.2544 26.9198 14.9094C26.4091 12.5053 25.0087 10.3762 22.9822 8.91542C20.9447 7.44388 18.4459 6.78626 15.9526 7.06117C11.8831 7.50856 9.01083 9.67545 7.41269 13.5025C7.36327 13.6157 7.3358 13.7343 7.32482 13.8421C7.30834 14.0577 7.36326 14.2518 7.48409 14.3919C7.58843 14.5105 7.72573 14.5752 7.89048 14.586C8.14311 14.6022 8.39574 14.462 8.61541 14.3327C8.74172 14.2572 8.78566 14.117 8.81861 14.0038C8.82959 13.9715 8.84058 13.9392 8.84607 13.9122C9.56001 12.1388 10.7847 10.6888 12.3883 9.71857C13.992 8.74832 15.8592 8.32788 17.7923 8.50037C19.5827 8.66208 21.2522 9.35742 22.6252 10.5109C23.9982 11.6699 24.9537 13.1845 25.3821 14.8932C25.47 15.2382 25.5249 15.5994 25.5798 15.9497C25.5908 16.009 25.5963 16.0683 25.6073 16.1222C25.4096 15.9713 25.2064 15.8204 24.9977 15.6802C24.6517 15.4484 24.2673 15.5077 24.0036 15.8365C23.7345 16.1707 23.773 16.5696 24.097 16.8283C24.6187 17.2488 25.1679 17.6585 25.6951 18.0627C25.9093 18.2244 26.118 18.3861 26.3322 18.5478L26.453 18.6395L26.5738 18.5425C26.777 18.3754 26.9802 18.2136 27.1834 18.0466C27.6777 17.6477 28.1445 17.2704 28.6223 16.8769C28.853 16.6882 28.9793 16.478 28.9958 16.2624C29.0177 16.0953 28.9518 15.9174 28.8145 15.7611Z" fill="#BFD4E4"/>
<path d="M17.4591 11C17.6968 11.0811 17.9345 11.0811 18.1722 11.1622C19.5984 11.6489 20.47 13.0279 20.3115 14.4881C20.153 16.0293 18.9645 17.3272 17.5383 17.4894C15.7952 17.7328 14.2898 16.516 13.9728 14.8125C13.6559 13.1091 14.8444 11.3245 16.5083 11.0811C16.5875 11 16.6668 11 16.746 11C16.9837 11 17.2214 11 17.4591 11Z" fill="#BFD3E3"/>
<path d="M16.2706 22.9243C16.5083 22.1132 16.6668 21.3831 16.8252 20.5719C16.8252 20.4908 16.8252 20.4908 16.746 20.4097C16.4291 20.0852 16.1121 19.7607 15.8744 19.5174L15.7952 19.4363C15.9537 19.274 16.1121 19.1118 16.2706 19.0307C16.5083 18.7873 16.746 18.6251 16.9837 18.4629C16.9837 18.4629 17.0629 18.4629 17.1422 18.4629C17.5383 18.7062 18.0137 19.0307 18.4099 19.3552C18.093 19.6796 17.776 20.0041 17.4591 20.3286C17.3799 20.4097 17.3006 20.5719 17.3799 20.7342C17.5383 21.3831 17.6968 22.1132 17.8553 22.7621C17.8553 22.7621 17.8553 22.8432 17.8553 22.9243C17.8553 22.8432 17.9345 22.8432 17.9345 22.7621C18.5684 21.3831 19.123 20.0041 19.7569 18.544C19.8361 18.4629 19.8361 18.3817 19.9153 18.3817C20.5492 18.3817 21.1038 18.4629 21.6585 18.7873C22.4508 19.3552 22.9262 20.0852 22.9262 21.1398C22.9262 21.9509 22.9262 22.681 22.9262 23.4922C22.9262 24.3034 22.2923 24.8712 21.5792 24.8712C18.7124 26.0255 15.7952 25.7908 12.5466 24.8712C11.7543 24.8712 11.1996 24.2222 11.1996 23.4922C11.1996 22.681 11.1996 21.9509 11.1996 21.1398C11.1996 19.8419 12.1504 18.7062 13.3389 18.4629C13.6559 18.3817 13.9728 18.3817 14.2105 18.3817C14.2105 18.3817 14.2897 18.4629 14.369 18.4629C14.7652 19.274 15.0821 20.1663 15.4783 20.9775C15.716 21.5453 15.9537 22.1132 16.1914 22.5999C16.1914 22.7621 16.1914 22.8432 16.2706 22.9243Z" fill="#BFD3E3"/>
</svg>
