<svg width="34" height="34" viewBox="0 0 34 34" fill="none" xmlns="http://www.w3.org/2000/svg">
<path d="M10.7188 21.4638C10.7024 21.771 10.7628 21.9812 10.9056 22.1268C11.0483 22.2723 11.257 22.337 11.5646 22.3424C13.3659 22.3424 15.1892 22.3424 17.0619 22.3424C18.8029 22.3424 20.5877 22.3424 22.4385 22.3424C22.746 22.3424 22.9547 22.2777 23.0975 22.1375C23.2403 21.9974 23.3007 21.7872 23.3007 21.4799C23.2733 19.8197 22.6692 18.4182 21.4994 17.3132C21.0655 16.9036 20.5658 16.5586 20.077 16.2298C19.9232 16.1274 19.7694 16.0196 19.6157 15.9118C20.5658 15.0224 20.8074 14.0306 20.8404 13.3298C20.8898 12.2895 20.4834 11.233 19.7639 10.5107C18.347 9.08768 15.9855 8.99605 14.4972 10.2951C13.7449 10.9581 13.311 11.772 13.2121 12.7153C13.0803 13.9659 13.5087 15.0547 14.4808 15.9603C14.4423 15.9818 14.4039 15.998 14.3654 16.0142C12.0588 17.1461 10.8342 18.9788 10.7188 21.4638ZM15.7164 18.2296C15.5572 18.9465 15.3979 19.6526 15.2222 20.4019L15.1123 20.8816H12.273C12.3719 19.4154 13.7943 17.6906 15.2936 17.227C15.3155 17.2701 15.3375 17.3186 15.3595 17.3618C15.4748 17.6043 15.5846 17.8307 15.689 18.0679C15.7164 18.1164 15.7274 18.1865 15.7164 18.2296ZM21.395 20.8816C20.9722 20.8816 20.5383 20.8816 20.1099 20.8762C19.9946 20.8762 19.8683 20.8816 19.753 20.8924C19.4784 20.9086 19.1983 20.9247 19.061 20.8277C18.9457 20.7468 18.8962 20.4773 18.8578 20.2402C18.8358 20.1162 18.8139 19.9922 18.7809 19.8736C18.7534 19.7766 18.7315 19.6742 18.7095 19.5664C18.6656 19.3508 18.6161 19.1244 18.5118 18.9195C18.1878 18.2889 18.4734 17.8091 18.8413 17.2755C20.2253 17.669 21.5708 19.3454 21.7465 20.8816C21.6202 20.8762 21.5049 20.8816 21.395 20.8816ZM17.04 19.1998L17.5013 20.8547H16.6665L17.04 19.1998ZM17.2322 17.0599C17.1333 17.3132 17.1059 17.3186 17.0455 17.3079C16.9905 17.2863 16.8807 17.0976 16.8093 16.9737C16.7983 16.9575 16.7928 16.9413 16.7819 16.9251H17.2816C17.2651 16.9737 17.2487 17.0168 17.2322 17.0599ZM18.6546 14.7475C18.2152 15.1787 17.6221 15.4159 16.9905 15.4159C16.9851 15.4159 16.9851 15.4159 16.9796 15.4159C15.7054 15.4105 14.6675 14.3863 14.662 13.1358C14.662 12.5213 14.9091 11.9391 15.354 11.4971C15.7988 11.0605 16.381 10.8234 16.996 10.8234C17.6111 10.8234 18.1933 11.0605 18.6381 11.4971C19.083 11.9391 19.3301 12.5213 19.3301 13.1358C19.3356 13.7449 19.0939 14.3216 18.6546 14.7475Z" fill="#BFD4E4"/>
<path d="M26.1458 19.3458C25.7284 19.2003 25.3604 19.3835 25.1627 19.8309C25.1407 19.8848 25.1188 19.9387 25.0968 19.9872L25.0748 20.0411C24.3774 21.8092 23.1527 23.2645 21.5271 24.2456C19.9015 25.2266 18.0288 25.647 16.1011 25.4638C14.3712 25.2967 12.7511 24.6391 11.4111 23.5556C10.0711 22.4722 9.10448 21.0384 8.6212 19.4051C8.46743 18.893 8.33013 18.3378 8.30267 17.7179C8.30816 17.7233 8.31366 17.7287 8.31915 17.7341C8.54431 17.9066 8.76399 18.0737 8.98366 18.2192C9.33514 18.451 9.71408 18.4025 9.98318 18.0953C10.126 17.9282 10.1919 17.7395 10.1754 17.5562C10.1589 17.3837 10.0711 17.2274 9.91728 17.1034C9.39006 16.6776 8.84087 16.2626 8.30816 15.8583C8.09947 15.6966 7.88529 15.5349 7.6766 15.3786L7.55578 15.2869L7.43495 15.384C7.22626 15.5564 7.01757 15.7235 6.80888 15.8852C6.30363 16.2949 5.82034 16.6776 5.33706 17.0765C4.95812 17.3891 4.89222 17.8042 5.1723 18.1438C5.4469 18.4834 5.88075 18.5103 6.27068 18.2192C6.44092 18.0899 6.60019 17.9605 6.78691 17.8096C6.79241 17.8096 6.79241 17.8042 6.7979 17.8042C6.7979 17.8311 6.80339 17.8527 6.80339 17.8796C6.83085 18.1438 6.85831 18.3971 6.90224 18.6397C7.3361 21.2054 8.753 23.4748 10.9058 25.0379C12.6742 26.3208 14.7666 27 16.9139 27C17.3752 27 17.842 26.9677 18.3089 26.903C21.5106 26.4664 24.0039 24.8493 25.7174 22.0948C26.0249 21.5989 26.2556 21.0599 26.4808 20.5317L26.5467 20.37C26.6455 20.1436 26.6455 19.9172 26.5576 19.7177C26.4808 19.5452 26.3325 19.4105 26.1458 19.3458Z" fill="#BFD4E4"/>
<path d="M28.8145 15.7611C28.518 15.4269 28.0841 15.4323 27.6502 15.7719C27.48 15.9066 27.3098 16.0414 27.134 16.1869L27.1285 16.1923C27.1175 16.1168 27.1066 16.0414 27.0956 15.9713C27.0406 15.6048 26.9912 15.2544 26.9198 14.9094C26.4091 12.5053 25.0087 10.3762 22.9822 8.91542C20.9447 7.44388 18.4459 6.78626 15.9526 7.06117C11.8831 7.50856 9.01083 9.67545 7.41269 13.5025C7.36327 13.6157 7.3358 13.7343 7.32482 13.8421C7.30834 14.0577 7.36326 14.2518 7.48409 14.3919C7.58843 14.5105 7.72573 14.5752 7.89048 14.586C8.14311 14.6022 8.39574 14.462 8.61541 14.3327C8.74172 14.2572 8.78566 14.117 8.81861 14.0038C8.82959 13.9715 8.84058 13.9392 8.84607 13.9122C9.56001 12.1388 10.7847 10.6888 12.3883 9.71857C13.992 8.74832 15.8592 8.32788 17.7923 8.50037C19.5827 8.66208 21.2522 9.35742 22.6252 10.5109C23.9982 11.6699 24.9537 13.1845 25.3821 14.8932C25.47 15.2382 25.5249 15.5994 25.5798 15.9497C25.5908 16.009 25.5963 16.0683 25.6073 16.1222C25.4096 15.9713 25.2064 15.8204 24.9977 15.6802C24.6517 15.4484 24.2673 15.5077 24.0036 15.8365C23.7345 16.1707 23.773 16.5696 24.097 16.8283C24.6187 17.2488 25.1679 17.6585 25.6951 18.0627C25.9093 18.2244 26.118 18.3861 26.3322 18.5478L26.453 18.6395L26.5738 18.5425C26.777 18.3754 26.9802 18.2136 27.1834 18.0466C27.6777 17.6477 28.1445 17.2704 28.6223 16.8769C28.853 16.6882 28.9793 16.478 28.9958 16.2624C29.0177 16.0953 28.9518 15.9174 28.8145 15.7611Z" fill="#BFD4E4"/>
</svg>
