<svg xmlns="http://www.w3.org/2000/svg" width="22" height="18" fill="none" viewBox="0 0 22 18">
  <g clip-path="url(#a)">
    <path fill="#BFD3E3" d="M19.607 0H2.327C1.062 0 0 1.12 0 2.44v13.12C0 16.88 1.063 18 2.393 18h17.28c1.264 0 2.394-1.12 2.394-2.44V2.44C22 1.12 20.937 0 19.607 0ZM7.245 4.022c.066 0 .133 0 .2-.066h.597c.2.066.4.066.598.132 1.197.396 1.928 1.516 1.795 2.703-.066 1.253-1.063 2.242-2.326 2.374-1.462.198-2.725-.791-2.991-2.176-.266-1.319.73-2.703 2.127-2.967Zm4.32 11.275H3.988c-.665 0-1.13-.528-1.13-1.121v-1.912c0-1.055.798-1.978 1.795-2.176.265-.066.531-.066.73-.066 0 0 .067.066.134.066.332.66.598 1.385.93 2.044.2.461.399.923.598 1.319 0 .066 0 .066.067.131.2-.659.332-1.252.465-1.912 0-.066 0-.066-.066-.131l-.732-.726-.066-.066c.133-.132.332-.197.465-.33l.598-.395h.133c.333.198.731.461 1.064.725l-.798.792c-.066.065-.133.197-.066.33.133.527.266 1.12.399 1.648v.131c0-.066.066-.066.066-.131.532-1.121.997-2.242 1.529-3.43.066-.065.066-.131.133-.131.531 0 .997.066 1.462.33.665.461 1.063 1.055 1.063 1.912v1.912c-.066.66-.531 1.187-1.196 1.187Zm7.178.132h-3.456V12h3.456v3.429Zm0-4.748h-3.456V7.253h3.456v3.428Zm0-4.747h-3.456V2.505h3.456v3.43Z"/>
  </g>
  <defs>
    <clipPath id="a">
      <path fill="#fff" d="M0 0h22v18H0z"/>
    </clipPath>
  </defs>
</svg>
