<svg width="34" height="34" viewBox="0 0 34 34" fill="none" xmlns="http://www.w3.org/2000/svg">
<g clip-path="url(#clip0_2443_7347)">
<path d="M25.6073 8H8.32628C7.06344 8 6 9.12088 6 10.4396V23.5604C6 24.8791 7.06344 26 8.39275 26H25.6737C26.9366 26 28.0665 24.8791 28.0665 23.5604V10.4396C28 9.12088 26.9366 8 25.6073 8ZM13.2447 12.022C13.3112 12.022 13.3776 12.022 13.4441 11.956C13.6435 11.956 13.8429 11.956 14.0423 11.956C14.2417 12.022 14.4411 12.022 14.6405 12.0879C15.8369 12.4835 16.568 13.6044 16.435 14.7912C16.3686 16.044 15.3716 17.033 14.1088 17.1648C12.6465 17.3626 11.3837 16.3736 11.1178 14.989C10.852 13.6703 11.8489 12.2857 13.2447 12.022ZM17.565 23.2967C15.0393 23.2967 12.5136 23.2967 9.98792 23.2967C9.32326 23.2967 8.85801 22.7692 8.85801 22.1758C8.85801 21.5165 8.85801 20.9231 8.85801 20.2637C8.85801 19.2088 9.65559 18.2857 10.6526 18.0879C10.9184 18.022 11.1843 18.022 11.3837 18.022C11.3837 18.022 11.4502 18.0879 11.5166 18.0879C11.8489 18.7473 12.1148 19.4725 12.4471 20.1319C12.6465 20.5934 12.8459 21.0549 13.0453 21.4506C13.0453 21.5165 13.0453 21.5165 13.1118 21.5824C13.3112 20.9231 13.4441 20.3297 13.577 19.6703C13.577 19.6044 13.577 19.6044 13.5106 19.5385C13.2447 19.2747 12.9789 19.011 12.7795 18.8132L12.713 18.7473C12.8459 18.6154 13.0453 18.5495 13.1782 18.4176C13.3776 18.2857 13.577 18.1538 13.7764 18.022C13.7764 18.022 13.8429 18.022 13.9094 18.022C14.2417 18.2198 14.6405 18.4835 14.9728 18.7473C14.7069 19.011 14.4411 19.2747 14.1752 19.5385C14.1088 19.6044 14.0423 19.7363 14.1088 19.8681C14.2417 20.3956 14.3746 20.989 14.5076 21.5165C14.5076 21.5165 14.5076 21.5824 14.5076 21.6484C14.5076 21.5824 14.574 21.5824 14.574 21.5165C15.1057 20.3956 15.571 19.2747 16.1027 18.0879C16.1692 18.022 16.1692 17.956 16.2356 17.956C16.7674 17.956 17.2326 18.022 17.6979 18.2857C18.3625 18.7473 18.7613 19.3407 18.7613 20.1978C18.7613 20.8571 18.7613 21.4506 18.7613 22.1099C18.6949 22.7692 18.2296 23.2967 17.565 23.2967ZM24.7432 23.4286H21.287V20H24.7432V23.4286ZM24.7432 18.6813H21.287V15.2527H24.7432V18.6813ZM24.7432 13.9341H21.287V10.5055H24.7432V13.9341Z" fill="#BFD3E3"/>
</g>
<defs>
<clipPath id="clip0_2443_7347">
<rect width="22" height="18" fill="white" transform="translate(6 8)"/>
</clipPath>
</defs>
</svg>
