<?xml version="1.0" standalone="no"?>
<!DOCTYPE svg PUBLIC "-//W3C//DTD SVG 20010904//EN"
 "http://www.w3.org/TR/2001/REC-SVG-20010904/DTD/svg10.dtd">
<svg version="1.0" xmlns="http://www.w3.org/2000/svg"
 width="100.000000pt" height="100.000000pt" viewBox="0 0 100.000000 100.000000"
 preserveAspectRatio="xMidYMid meet">

<g transform="translate(0.000000,100.000000) scale(0.100000,-0.100000)"
fill="#000000" stroke="none">
<path d="M572 825 c-45 -40 -78 -102 -88 -160 -5 -35 -27 -61 -175 -211 -195
-198 -196 -200 -125 -270 70 -71 72 -70 270 125 150 148 176 170 211 175 58
10 120 43 160 88 56 61 50 77 -63 190 -113 113 -129 119 -190 63z m175 -77
c51 -51 93 -100 93 -109 0 -9 -9 -27 -19 -40 l-20 -24 -113 113 -113 113 24
20 c13 10 31 19 39 19 9 0 58 -42 109 -92z m-82 -89 c106 -106 109 -111 90
-125 -11 -8 -31 -17 -45 -20 -96 -19 -102 -23 -271 -190 -91 -90 -174 -164
-184 -164 -23 0 -95 72 -95 96 0 10 72 90 160 178 153 155 190 205 190 256 0
24 27 80 38 80 4 0 57 -50 117 -111z"/>
<path d="M436 481 c-40 -41 -45 -73 -12 -79 25 -5 98 67 94 93 -5 35 -40 29
-82 -14z"/>
</g>
</svg>
