<svg xmlns="http://www.w3.org/2000/svg" width="21" height="22" fill="none" viewBox="0 0 21 22">
  <path fill="#BFD3E3" d="M2.08 5h4.676v9.916c0 .178 0 .443.079.62.158.443.634.709 1.03.62.396-.088.713-.531.713-1.062V5.089h2.853v9.917c0 .442.159.885.555 1.062.554.265 1.268-.177 1.347-.886V5.266c0-.089 0-.177.158-.177h4.518v12.838c0 1.948-1.348 3.719-3.091 3.985-.555.088-1.03.088-1.585.088H5.805c-1.665 0-2.774-.885-3.487-2.48C2.08 18.99 2 18.459 2 17.84V5.265c.08-.177.08-.266.08-.266Zm4.563-3.168c.08-.229.08-.458.16-.687.32-.687.88-1.069 1.68-1.145h3.042c.96 0 1.761.763 1.841 1.68 0 .152.08.152.16.152h5.523c.48 0 .88.23.96.61.16.611-.24 1.146-.88 1.146H1.04c-.48 0-.8-.23-.96-.61-.16-.612.24-1.146.88-1.146h5.683Z"/>
</svg>
