<svg width="34" height="34" viewBox="0 0 34 34" fill="none" xmlns="http://www.w3.org/2000/svg">
<path d="M9.0801 11C10.665 11 12.1707 11 13.7556 11C13.7556 11.0885 13.7556 11.1771 13.7556 11.2656C13.7556 14.4531 13.7556 17.6406 13.7556 20.9167C13.7556 21.0937 13.7556 21.3594 13.8348 21.5365C13.9933 21.9792 14.4688 22.2448 14.865 22.1562C15.2612 22.0677 15.5782 21.625 15.5782 21.0938C15.5782 19.8542 15.5782 18.6146 15.5782 17.2865C15.5782 15.25 15.5782 13.3021 15.5782 11.2656C15.5782 11.1771 15.5782 11.1771 15.5782 11.0885C16.5292 11.0885 17.4801 11.0885 18.431 11.0885C18.431 11.1771 18.431 11.1771 18.431 11.2656C18.431 14.5417 18.431 17.7292 18.431 21.0052C18.431 21.4479 18.5895 21.8906 18.9858 22.0677C19.5405 22.3333 20.2537 21.8906 20.3329 21.1823C20.3329 20.7396 20.3329 20.2083 20.3329 19.7656C20.3329 16.9323 20.3329 14.1875 20.3329 11.3542V11.2656C20.3329 11.1771 20.3329 11.0885 20.4914 11.0885C21.9971 11.0885 23.5027 11.0885 24.9292 11.0885H25.0084C25.0084 11.1771 25.0084 11.1771 25.0084 11.2656C25.0084 15.5156 25.0084 19.6771 25.0084 23.9271C25.0084 25.875 23.6612 27.6458 21.9178 27.9115C21.3631 28 20.8877 28 20.3329 28C17.7971 28 15.3405 28 12.8046 28C11.1405 28 10.031 27.1146 9.31784 25.5208C9.0801 24.9896 9.00085 24.4583 9.00085 23.8385C9.00085 19.6771 9.00085 15.4271 9.00085 11.2656C9.0801 11.0885 9.0801 11 9.0801 11Z" fill="#BFD3E3"/>
<path d="M13.6431 7.83206C13.7231 7.60305 13.7231 7.37405 13.8031 7.14504C14.1233 6.45802 14.6836 6.07634 15.4839 6C16.5244 6 17.4849 6 18.5254 6C19.4858 6 20.2862 6.76336 20.3662 7.67939C20.3662 7.83206 20.4463 7.83206 20.5263 7.83206C22.3672 7.83206 24.2081 7.83206 26.0489 7.83206C26.5292 7.83206 26.9293 8.06107 27.0094 8.44275C27.1695 9.05344 26.7693 9.58779 26.129 9.58779C24.3681 9.58779 22.6073 9.58779 20.8465 9.58779C16.6045 9.58779 12.3625 9.58779 8.04043 9.58779C7.5602 9.58779 7.24005 9.35878 7.07998 8.9771C6.9199 8.36641 7.32009 7.83206 7.96039 7.83206C9.56115 7.83206 11.1619 7.83206 12.7627 7.83206C13.0028 7.83206 13.3229 7.83206 13.6431 7.83206Z" fill="#BFD3E3"/>
</svg>
