<svg width="9" height="15" viewBox="0 0 9 15" fill="none" xmlns="http://www.w3.org/2000/svg">
<path fill-rule="evenodd" clip-rule="evenodd" d="M2.56066 0.908316C1.97487 0.32253 1.02513 0.32253 0.439339 0.908317C-0.146447 1.4941 -0.146447 2.44385 0.439339 3.02964L4.6819 7.2722L0.439567 11.5145C-0.14622 12.1003 -0.14622 13.0501 0.439567 13.6359C1.02535 14.2216 1.9751 14.2216 2.56089 13.6359L7.85089 8.34585C7.85527 8.34158 7.85962 8.33728 7.86396 8.33294C7.9544 8.2425 8.03088 8.14338 8.09339 8.03827C8.43605 7.46251 8.35964 6.70669 7.86419 6.21123C7.8556 6.20264 7.84693 6.19418 7.83819 6.18584L2.56066 0.908316Z" fill="#BFD4E4"/>
</svg>
