<svg width="34" height="34" viewBox="0 0 34 34" fill="none" xmlns="http://www.w3.org/2000/svg">
<path d="M25.3822 20.1377C23.3221 16.1905 21.262 12.2434 19.1657 8.29627C18.9127 7.7893 18.5874 7.31854 18.1537 6.9202C16.9972 5.79763 15.4069 5.68899 14.1419 6.66672C13.5275 7.13748 13.13 7.75309 12.7685 8.44112C10.7807 12.2796 8.75676 16.1181 6.76894 19.9566C6.55209 20.3911 6.33524 20.8619 6.19067 21.3327C5.86539 22.3828 5.93767 23.3967 6.55209 24.3383C7.27493 25.4608 8.39534 25.9316 9.66032 25.9678C11.7566 26.0402 13.889 25.9678 16.0213 25.9678C17.973 25.9678 19.8885 25.9678 21.8402 25.9678C22.5992 25.9678 23.3221 25.8592 24.0088 25.5333C25.2737 24.9177 25.9604 23.9399 25.9966 22.4914C26.0327 21.6586 25.7797 20.8981 25.3822 20.1377ZM17.1779 21.1154C17.1417 21.7672 16.6358 22.238 15.9852 22.238C15.3708 22.238 14.8648 21.6948 14.8648 21.0792C14.8648 20.4273 15.4069 19.9204 16.0213 19.9566C16.6719 19.9566 17.1779 20.4998 17.1779 21.1154ZM17.7923 15.1042C17.467 16.0819 17.1056 17.0596 16.7803 18.0373C16.6358 18.4357 16.3828 18.653 16.0213 18.6167C15.6599 18.6167 15.4069 18.3995 15.2985 18.0373C14.9371 17.0596 14.6118 16.0819 14.2504 15.1042C13.8167 13.8729 14.5034 12.7142 15.7683 12.4969C16.8888 12.3158 17.9369 13.2211 17.973 14.3799C17.9007 14.6334 17.8646 14.8869 17.7923 15.1042Z" fill="#BFD4E4"/>
</svg>
