<svg width="13" height="12" viewBox="0 0 13 12" fill="none" xmlns="http://www.w3.org/2000/svg">
<path d="M0 6C0 2.67568 2.72568 0 6.02091 0C9.35681 0 12.0418 2.71622 12.0418 6C12.0418 9.32432 9.31613 12 6.02091 12C2.685 12 0 9.32432 0 6ZM5.24795 6.89189C5.20727 6.85135 5.16659 6.81081 5.16659 6.81081C4.71909 6.36486 4.27159 5.91892 3.82409 5.47297C3.66136 5.31081 3.45795 5.22973 3.25454 5.18919C2.92909 5.18919 2.60363 5.35135 2.48159 5.63513C2.31886 5.91892 2.40023 6.28378 2.64432 6.52703C3.33591 7.21622 3.98682 7.86486 4.67841 8.55405C4.75977 8.63514 4.84113 8.67568 4.96318 8.71622C5.28863 8.83784 5.57341 8.75676 5.85818 8.47297C7.16 7.17568 8.46181 5.87838 9.80431 4.54054C9.845 4.5 9.84499 4.5 9.88568 4.45946C10.1298 4.17568 10.1298 3.72973 9.88568 3.44595C9.56022 3.08108 9.03136 3.08108 8.66522 3.40541C7.68886 4.37838 6.7125 5.35135 5.69545 6.36486C5.53272 6.56757 5.37 6.72973 5.24795 6.89189Z" fill="#BFD4E4"/>
</svg>
