<svg width="34" height="34" viewBox="0 0 34 34" fill="none" xmlns="http://www.w3.org/2000/svg">
<path d="M13.6328 23.1134C12.0792 23.1134 10.4581 23.1134 8.90451 23.1134C7.35093 23.1781 6 22.0124 6 20.3285C6 17.9969 6 15.6653 6 13.3338C6 11.6498 7.14829 10.6136 8.90451 10.5488C12.0792 10.5488 15.1863 10.5488 18.361 10.5488C20.1172 10.5488 21.2655 11.6498 21.2655 13.3338C21.2655 15.6653 21.2655 17.9969 21.2655 20.3285C21.2655 21.9476 20.1172 23.0486 18.4286 23.0486C17.618 23.0486 16.8075 23.0486 16.0644 23.0486C15.1863 23.1134 14.4433 23.1134 13.6328 23.1134ZM16.875 13.7223C16.875 14.3052 17.3478 14.7586 17.9558 14.7586C18.5637 14.7586 19.0365 14.3052 19.0365 13.7223C19.0365 13.1395 18.5637 12.6861 17.9558 12.6861C17.3478 12.6861 16.875 13.1395 16.875 13.7223Z" fill="#BFD4E4"/>
<path d="M28.8985 16.8953C28.8985 18.1906 28.8985 19.4212 28.8985 20.7165C28.8985 21.1699 28.6958 21.5585 28.2905 21.7528C27.8177 21.947 27.4124 21.8823 27.0072 21.5585C25.4536 20.3279 23.9 19.0326 22.3464 17.802C21.671 17.2839 21.671 16.5715 22.3464 16.0534C23.9 14.8228 25.4536 13.5923 27.0072 12.297C27.4124 11.9731 27.8177 11.8436 28.223 12.1027C28.6958 12.297 28.8309 12.6855 28.8309 13.2037C28.8985 14.3695 28.8985 15.6 28.8985 16.8953Z" fill="#BFD4E4"/>
</svg>
