<svg xmlns="http://www.w3.org/2000/svg" width="23" height="14" fill="none" viewBox="0 0 23 14">
  <path fill="#BFD4E4" d="M7.633 13.113H2.905C1.35 13.178 0 12.013 0 10.33V3.333C0 1.65 1.148.614 2.905.549h9.456c1.756 0 2.904 1.1 2.904 2.785v6.995c0 1.619-1.148 2.72-2.836 2.72h-2.365c-.878.064-1.62.064-2.431.064Zm3.242-9.39c0 .582.473 1.036 1.08 1.036.609 0 1.082-.454 1.082-1.037s-.473-1.036-1.081-1.036-1.081.453-1.081 1.036Zm12.023 3.172v3.822c0 .453-.202.841-.607 1.036-.473.194-.879.13-1.284-.194-1.553-1.231-3.107-2.526-4.66-3.757-.676-.518-.676-1.23 0-1.749 1.553-1.23 3.107-2.46 4.66-3.756.405-.324.81-.453 1.216-.194.473.194.608.583.608 1.1.067 1.166.067 2.397.067 3.692Z"/>
</svg>
