<svg width="34" height="34" viewBox="0 0 34 34" fill="none" xmlns="http://www.w3.org/2000/svg">
<path d="M17.9 16.7C17.9 19.3 17.9 21.9 17.9 24.4C17.9 24.9 17.5 25.3 17 25.2C16.9 25.2 16.8 25.1 16.7 25.1C15.2 24 13.7 22.9 12.2 21.9C12 21.8 11.9 21.7 11.7 21.7C10.4 21.7 9.10002 21.7 7.80002 21.7C7.30002 21.7 6.90002 21.4 6.90002 20.8C6.90002 18 6.90002 15.3 6.90002 12.5C7.00002 12 7.30002 11.7 7.90002 11.7C9.20002 11.7 10.6 11.7 11.9 11.7C12 11.7 12.1 11.7 12.2 11.6C13.7 10.5 15.3 9.39999 16.8 8.29999C17.1 8.09999 17.3 8.09999 17.6 8.19999C17.9 8.29999 18 8.59999 18 8.89999C18 9.79999 18 10.8 18 11.7C17.9 13.4 17.9 15 17.9 16.7Z" fill="#BFD3E3"/>
<path d="M19.6 23.8C19.6 23.5 19.6 23.3 19.6 23C19.6 22.6 19.8 22.4 20.2 22.2C21.1 21.9 22 21.4 22.7 20.7C23.6 19.8 24.1 18.7 24.3 17.4C24.7 14.6 23 12 20.2 11.1C19.8 11 19.6 10.7 19.6 10.3C19.6 9.8 19.6 9.3 19.6 8.8C19.6 8.2 20 7.9 20.6 8C23.1 8.7 25 10.1 26.3 12.4C26.8 13.3 27.1 14.3 27.3 15.3C27.4 16.1 27.4 16.9 27.3 17.7C27.1 19.5 26.4 21.1 25.2 22.4C23.9 23.9 22.4 24.8 20.5 25.3C20 25.4 19.6 25.1 19.6 24.6C19.6 24.4 19.6 24.1 19.6 23.8Z" fill="#BFD3E3"/>
<path d="M19.6 16.7C19.6 15.9 19.6 15.2 19.6 14.4C19.6 14 19.9 13.8 20.2 13.8C20.3 13.8 20.4 13.9 20.5 13.9C21.4 14.5 21.9 15.3 22 16.4C22.1 17.7 21.6 18.8 20.5 19.6C20.1 19.9 19.7 19.7 19.6 19.3C19.6 19.2 19.6 19.2 19.6 19.1C19.6 18.2 19.6 17.4 19.6 16.7Z" fill="#BFD3E3"/>
</svg>
