<svg xmlns="http://www.w3.org/2000/svg" width="22" height="19" fill="none" viewBox="0 0 22 19">
  <path fill="#BFD3E3" d="M11.9 9.7v7.7c0 .5-.4.9-.9.8-.1 0-.2-.1-.3-.1-1.5-1.1-3-2.2-4.5-3.2-.2-.1-.3-.2-.5-.2H1.8c-.5 0-.9-.3-.9-.9V5.5c.1-.5.4-.8 1-.8h4c.1 0 .2 0 .3-.1 1.5-1.1 3.1-2.2 4.6-3.3.3-.2.5-.2.8-.1.3.1.4.4.4.7v2.8c-.1 1.7-.1 3.3-.1 5Zm1.7 7.1V16c0-.4.2-.6.6-.8.9-.3 1.8-.8 2.5-1.5.9-.9 1.4-2 1.6-3.3.4-2.8-1.3-5.4-4.1-6.3-.4-.1-.6-.4-.6-.8V1.8c0-.6.4-.9 1-.8 2.5.7 4.4 2.1 5.7 4.4.5.9.8 1.9 1 2.9.1.8.1 1.6 0 2.4-.2 1.8-.9 3.4-2.1 4.7-1.3 1.5-2.8 2.4-4.7 2.9-.5.1-.9-.2-.9-.7v-.8Z"/>
  <path fill="#BFD3E3" d="M13.6 9.7V7.4c0-.4.3-.6.6-.6.1 0 .2.1.3.1.9.6 1.4 1.4 1.5 2.5.1 1.3-.4 2.4-1.5 3.2-.4.3-.8.1-.9-.3V9.7Z"/>
</svg>
