<svg width="34" height="34" viewBox="0 0 34 34" fill="none" xmlns="http://www.w3.org/2000/svg">
<path d="M20.1 16.7C20.1 19.3 20.1 21.9 20.1 24.5C20.1 24.9 19.9 25.2 19.6 25.3C19.4 25.4 19.1 25.3 18.9 25.2C17.4 24.1 15.8 23 14.3 21.9C14.2 21.8 14 21.8 13.9 21.8C12.6 21.8 11.2 21.8 9.89997 21.8C9.39997 21.8 9.09997 21.5 9.09997 21C9.09997 18.2 9.09997 15.3 9.09997 12.5C8.99997 12 9.29997 11.6 9.79997 11.6C11.2 11.6 12.5 11.6 13.9 11.6C14 11.6 14.1 11.6 14.1 11.5C15.7 10.4 17.2 9.3 18.8 8.1C19.1 7.9 19.3 7.9 19.6 8C19.9 8.1 20.1 8.4 20.1 8.7C20.1 9.2 20.1 9.6 20.1 10.1C20.1 12.3 20.1 14.5 20.1 16.7Z" fill="#BFD3E3"/>
<path d="M21.8 16.7C21.8 15.9 21.8 15.1 21.8 14.4C21.8 14 22 13.8 22.3 13.8C22.5 13.8 22.6 13.8 22.7 13.9C23.5 14.4 24 15.2 24.2 16.1C24.4 17.5 24 18.6 22.9 19.5C22.8 19.6 22.8 19.6 22.7 19.6C22.3 19.8 21.8 19.6 21.8 19.1C21.8 18.3 21.8 17.5 21.8 16.7Z" fill="#BFD3E3"/>
</svg>
