<svg xmlns="http://www.w3.org/2000/svg" width="23" height="18" fill="none" viewBox="0 0 23 18">
  <path fill="#BFD4E4" d="M8.794 0h6.274c.077 0 .154.042.23.042.88.042 1.798.042 2.678.083.689.042 1.377 0 2.066.126 1.339.208 2.448 1.42 2.678 2.965.115 1.002.153 2.004.191 3.007a99.617 99.617 0 0 1-.076 7.559c-.038.71-.077 1.378-.383 2.005-.535 1.169-1.377 1.92-2.601 2.004a144.15 144.15 0 0 1-4.247.167c-3.75.084-7.499.042-11.248-.125-.268 0-.497 0-.727-.084-1.3-.375-2.104-1.336-2.41-2.756-.153-.668-.153-1.42-.191-2.13a32.238 32.238 0 0 1-.077-1.921V7.016c0-.083.038-.167.038-.25.039-.543.039-1.128.077-1.67.038-.71.038-1.42.191-2.13.345-1.713 1.684-2.84 3.06-2.84C5.734.125 7.15.041 8.566 0h.23Zm1.033 4.385v9.188c2.066-1.545 4.132-3.049 6.198-4.594-2.066-1.545-4.132-3.049-6.198-4.594Z"/>
</svg>
