<svg width="34" height="34" viewBox="0 0 34 34" fill="none" xmlns="http://www.w3.org/2000/svg">
<path d="M14.7941 8C16.8983 8 18.9642 8 21.0684 8C21.145 8 21.2215 8.04177 21.298 8.04177C22.1779 8.08353 23.0961 8.08352 23.9761 8.12528C24.6647 8.16705 25.3534 8.12529 26.042 8.25058C27.381 8.4594 28.4905 9.67053 28.7201 11.2158C28.8348 12.2181 28.8731 13.2204 28.9114 14.2227C28.9879 16.7285 28.9496 19.2761 28.8348 21.7819C28.7966 22.4919 28.7583 23.1601 28.4523 23.7865C27.9167 24.9559 27.075 25.7077 25.8507 25.7912C24.4352 25.8747 23.0196 25.9165 21.6041 25.9582C17.8548 26.0418 14.1055 26 10.3561 25.8329C10.0883 25.8329 9.85879 25.8329 9.62924 25.7494C8.32847 25.3736 7.52504 24.413 7.21898 22.993C7.06595 22.3248 7.06595 21.5731 7.02769 20.8631C6.98943 20.2367 6.95117 19.5684 6.95117 18.942C6.95117 17.6473 6.95117 16.3109 6.95117 15.0162C6.95117 14.9327 6.98943 14.8492 6.98943 14.7657C7.02769 14.2227 7.02769 13.638 7.06595 13.0951C7.1042 12.3851 7.1042 11.6752 7.25724 10.9652C7.60156 9.2529 8.9406 8.12528 10.3179 8.12528C11.7334 8.12528 13.149 8.04176 14.5645 8C14.6028 8 14.6793 8 14.7941 8ZM15.8271 12.3852C15.8271 15.4756 15.8271 18.5244 15.8271 21.5731C17.893 20.0278 19.959 18.5244 22.0249 16.9791C19.959 15.4339 17.893 13.9304 15.8271 12.3852Z" fill="#BFD4E4"/>
</svg>
