<svg xmlns="http://www.w3.org/2000/svg" width="22" height="23" fill="none" viewBox="0 0 22 23">
  <path fill="#BFD4E4" d="M11.682 22.003h-1.378c-.06-.012-.124-.03-.184-.035-2.114-.172-4.05-.86-5.72-2.165C1.115 17.235-.364 13.861.076 9.716c.309-2.924 1.669-5.332 3.932-7.194 3.57-2.941 8.506-3.35 12.498-1.014 2.934 1.714 4.704 4.282 5.328 7.627.071.39.113.788.166 1.186v1.375c-.012.054-.03.113-.036.167-.142 1.885-.724 3.623-1.782 5.189-1.752 2.597-4.181 4.204-7.27 4.78-.41.076-.82.118-1.23.171Zm-1.746-7.466h3.398c.32 0 .463-.136.463-.457 0-1.547.012-3.09-.006-4.637-.012-1.139-.867-1.957-2.014-1.957H5.178c-.368 0-.505.136-.505.51 0 1.5-.006 3.007 0 4.507.006 1.198.85 2.028 2.055 2.034h3.208Zm7.366-3.505c0-1.05 0-2.105-.006-3.155 0-.095-.036-.237-.101-.272-.066-.036-.202.011-.285.065-.874.61-1.74 1.233-2.614 1.844-.113.077-.16.154-.16.297.006.8.006 1.6 0 2.401 0 .143.047.22.16.297.867.61 1.728 1.227 2.596 1.832.083.06.231.119.297.077.07-.041.1-.19.1-.296.018-1.026.012-2.058.012-3.09Z"/>
</svg>
