<svg width="34" height="34" viewBox="0 0 34 34" fill="none" xmlns="http://www.w3.org/2000/svg">
<path d="M17.6823 28.0033C17.225 28.0033 16.7676 28.0033 16.3043 28.0033C16.2449 27.9915 16.1795 27.9737 16.1201 27.9677C14.0055 27.7958 12.0691 27.1078 10.4 25.8032C7.11519 23.2353 5.63614 19.861 6.0757 15.7157C6.38457 12.792 7.74482 10.3843 10.0079 8.52221C13.5778 5.58076 18.5139 5.17157 22.5056 7.50812C25.4399 9.22198 27.21 11.7898 27.8337 15.1345C27.905 15.5259 27.9465 15.9233 28 16.3206C28 16.7772 28 17.2339 28 17.6964C27.9881 17.7498 27.9703 17.8091 27.9644 17.8625C27.8218 19.7483 27.2397 21.4859 26.1824 23.0515C24.4301 25.649 22.0007 27.2561 18.9119 27.8314C18.502 27.9084 18.0922 27.95 17.6823 28.0033ZM15.936 20.537C17.0705 20.537 18.1991 20.537 19.3336 20.537C19.6544 20.537 19.7969 20.4007 19.7969 20.0804C19.7969 18.5326 19.8088 16.9907 19.791 15.4429C19.7791 14.3043 18.9238 13.4859 17.7774 13.4859C15.5796 13.4859 13.3759 13.4859 11.1781 13.4859C10.8098 13.4859 10.6732 13.6223 10.6732 13.9959C10.6732 15.4963 10.6673 17.0026 10.6732 18.5029C10.6791 19.7009 11.5226 20.5311 12.7284 20.537C13.8036 20.537 14.8727 20.537 15.936 20.537ZM23.3015 17.0322C23.3015 15.9826 23.3015 14.927 23.2956 13.8773C23.2956 13.7824 23.2599 13.6401 23.1946 13.6045C23.1293 13.5689 22.9926 13.6164 22.9095 13.6697C22.0363 14.2806 21.1691 14.9032 20.2959 15.5141C20.183 15.5912 20.1355 15.6682 20.1355 15.8106C20.1415 16.6112 20.1415 17.4118 20.1355 18.2124C20.1355 18.3547 20.183 18.4318 20.2959 18.5089C21.1631 19.1197 22.0244 19.7365 22.8917 20.3413C22.9748 20.4007 23.1233 20.46 23.1887 20.4184C23.2599 20.3769 23.2896 20.2287 23.2896 20.1219C23.3075 19.096 23.3015 18.0641 23.3015 17.0322Z" fill="#BFD4E4"/>
</svg>
