<svg width="181" height="170" viewBox="0 0 181 170" fill="none" xmlns="http://www.w3.org/2000/svg">
<path fill-rule="evenodd" clip-rule="evenodd" d="M158.838 117.763C160.238 115.063 162.438 114.163 164.838 115.263C167.238 116.463 167.838 118.763 166.538 121.563C161.038 132.863 153.538 142.663 143.738 150.563C128.138 163.163 110.238 169.563 93.6376 169.763C78.7542 169.763 67.6028 167.488 57.057 163.11C67.2943 167.52 78.5787 169.963 90.437 169.963C137.137 169.963 174.937 132.163 174.937 85.4633C174.937 39.6064 138.489 2.33106 92.9574 1.00012C95.3381 1.32638 97.0103 3.60555 96.5376 6.06346C96.0376 8.06346 94.2376 9.46346 92.2376 9.36346C56.0376 8.36346 22.5376 33.8635 15.6376 70.9635C7.83763 113.063 35.4376 152.963 77.4376 160.063C110.338 165.763 143.238 149.063 158.138 119.163C158.438 118.763 158.638 118.263 158.838 117.763ZM79.9305 1.60883C73.8118 2.36625 67.8967 3.7767 62.2571 5.76837C65.3581 4.68838 68.5544 3.7821 71.8376 3.06346C74.5503 2.44343 77.2479 1.95855 79.9305 1.60883ZM57.937 85.5633C57.937 89.1633 60.537 91.9633 64.137 92.0633C67.837 92.2633 70.737 89.4633 70.837 85.6633C70.837 82.0633 68.237 79.2633 64.637 79.1633C60.837 79.0633 57.937 81.7633 57.937 85.5633ZM83.737 85.7633C83.837 89.3633 86.537 92.0633 90.137 92.0633C93.737 92.1633 96.537 89.4633 96.637 85.8633C96.737 82.0633 94.037 79.1633 90.237 79.1633C86.437 79.1633 83.637 81.9633 83.737 85.7633ZM109.537 85.8633C109.637 89.4633 112.437 92.0633 116.037 92.0633C119.637 92.0633 122.337 89.3633 122.437 85.7633C122.537 81.9633 119.737 79.1633 115.937 79.1633C112.137 79.1633 109.437 82.0633 109.537 85.8633Z" fill="#38404E"/>
<path d="M134.607 13.2961C134.957 8.15335 133.371 5.17551 129.562 3.95062C126 2.7491 122.322 4.21109 120.075 7.63584C117.915 10.9533 118.59 14.615 121.703 18.1216C119.862 20.7187 117.805 23.1417 116.416 25.8391C113.888 30.8151 113.85 36.122 115.678 41.4315C117.073 45.4111 118.458 49.2936 119.853 53.2733C120.074 53.9868 120.168 54.4189 119.441 54.9854C116.859 57.0701 116.348 60.6585 117.967 63.4855C119.629 66.259 122.943 67.4371 126.059 66.23C130.45 64.5466 134.778 62.7226 139.106 60.8985C139.907 60.5699 140.295 60.5296 140.915 61.2999C143.469 64.6192 147.614 65.7602 151.433 64.2345C155.208 62.7624 157.619 59.0261 157.4 55.0226C157.393 54.4832 157.343 53.9974 157.282 53.4145C158.689 52.7774 160.159 52.2811 161.459 51.557C166.028 49.2169 166.733 42.7607 162.611 39.9479C161.344 39.0974 159.609 38.9338 157.726 38.2946C156.596 34.9748 155.07 31.1561 153.923 27.1998C151.313 18.1416 143.907 13.0182 134.607 13.2961ZM128.912 13.2981C127.823 14.6386 126.084 14.9172 124.905 13.9595C123.725 13.0017 123.587 11.1993 124.632 9.91245C125.72 8.57196 127.503 8.23967 128.736 9.24098C129.969 10.2423 130 11.9576 128.912 13.2981ZM145.273 58.3435C147.675 57.3577 150.033 56.4255 152.576 55.376C152.225 57.6711 151.277 58.9478 149.418 59.4845C147.893 59.9373 146.536 59.6363 145.273 58.3435Z" fill="#F07A7A"/>
<path d="M107.696 20.3617C107.214 21.3938 106.427 22.8011 105.888 24.2319C103.669 29.8142 103.477 35.5298 105.258 41.3352C105.784 43.0973 106.793 43.8273 108.123 43.3946C109.453 42.962 109.925 41.8328 109.452 40.1143C107.694 34.061 108.329 28.3485 111.399 22.9234C112.152 21.6668 111.968 20.3602 111.013 19.6738C110.058 18.9873 108.751 19.172 107.696 20.3617Z" fill="#F07A7A"/>
<path d="M154.279 9.33948C152.392 7.7186 150.006 6.49322 147.466 5.67663C146.099 5.27842 145.115 5.72435 144.74 6.84347C144.321 8.01621 144.821 9.04457 146.198 9.53993C151.589 11.3372 155.393 14.8704 157.469 20.2033C157.935 21.3824 159.01 21.8109 160.049 21.4085C161.184 20.996 161.613 19.9204 161.137 18.6442C159.728 15.0096 157.539 11.898 154.279 9.33948Z" fill="#F07A7A"/>
<path d="M165.19 114.964C162.79 113.864 160.59 114.764 159.19 117.464C158.99 117.964 158.79 118.464 158.49 118.864C143.59 148.764 110.69 165.464 77.7903 159.764C35.7903 152.664 8.19028 112.764 15.9903 70.6637C22.8903 33.5637 56.3903 8.0637 92.5903 9.0637C94.5903 9.1637 96.3903 7.7637 96.8903 5.7637C97.3903 3.1637 95.4903 0.763704 92.8903 0.663704C86.0903 0.463704 79.1903 1.1637 72.1903 2.7637C25.5903 12.9637 -3.50972 60.9637 9.09028 106.964C10.8903 113.364 13.3903 119.564 14.9903 125.964C17.9903 138.764 15.3903 150.664 7.79028 161.464C6.49028 163.364 5.29028 165.164 6.69028 167.464C8.09028 169.764 10.2903 169.764 12.4903 169.364C25.2903 166.864 38.0903 164.264 50.8903 161.864C52.4903 161.564 54.3903 161.564 55.8903 162.164C66.8903 166.964 78.3903 169.464 93.9903 169.464C110.59 169.264 128.49 162.864 144.09 150.264C153.89 142.364 161.39 132.564 166.89 121.264C168.19 118.464 167.59 116.164 165.19 114.964Z" fill="#94A1B9"/>
</svg>
